<?xml version="1.0" encoding="UTF-8"?>
<!DOCTYPE svg PUBLIC "-//W3C//DTD SVG 1.1//EN" "http://www.w3.org/Graphics/SVG/1.1/DTD/svg11.dtd">
<!-- Creator: CorelDRAW 2021.5 -->
<svg xmlns="http://www.w3.org/2000/svg" xml:space="preserve" width="702.406mm" height="121.092mm" version="1.1" style="shape-rendering:geometricPrecision; text-rendering:geometricPrecision; image-rendering:optimizeQuality; fill-rule:evenodd; clip-rule:evenodd"
viewBox="0 0 53069.55 9148.95"
 xmlns:xlink="http://www.w3.org/1999/xlink"
 xmlns:xodm="http://www.corel.com/coreldraw/odm/2003">
 <defs>
  <style type="text/css">
   <![CDATA[
    .fil10 {fill:#FEFEFE}
    .fil9 {fill:#FEFEFE;fill-rule:nonzero}
    .fil8 {fill:#FECC00;fill-rule:nonzero}
    .fil7 {fill:#EF7F1A;fill-rule:nonzero}
    .fil0 {fill:#348989;fill-rule:nonzero}
    .fil2 {fill:#44AAA5;fill-rule:nonzero}
    .fil1 {fill:#49BCC3;fill-rule:nonzero}
    .fil6 {fill:#A3CACA;fill-rule:nonzero}
    .fil4 {fill:#F4F3DC;fill-rule:nonzero}
    .fil3 {fill:#F75252;fill-rule:nonzero}
    .fil5 {fill:white;fill-rule:nonzero}
   ]]>
  </style>
 </defs>
 <g id="Plan_x0020_1">
  <metadata id="CorelCorpID_0Corel-Layer"/>
  <path class="fil0" d="M4031.47 7710.66c0,226.22 -183.35,409.5 -409.5,409.5 -226.16,0 -409.56,-183.29 -409.56,-409.5 0,-226.16 183.41,-409.5 409.56,-409.5 226.16,0 409.5,183.35 409.5,409.5z"/>
  <path class="fil0" d="M3621.97 7710.66c-29.53,-88.65 0,-1102.17 0,-1102.17l291.33 0 -115.82 1102.17 -175.5 0z"/>
  <path class="fil0" d="M19738.27 6359.04c88.03,208.36 -9.51,448.61 -217.87,536.58 -208.37,88.03 -448.61,-9.52 -536.64,-217.88 -88.03,-208.36 9.57,-448.6 217.87,-536.57 208.37,-88.03 448.61,9.51 536.64,217.87z"/>
  <path class="fil0" d="M19361.01 6518.36c-61.71,-70.18 -428.9,-1015.26 -428.9,-1015.26l268.34 -113.35 322.21 1060.35 -161.66 68.26z"/>
  <path class="fil0" d="M24091.57 2863.62l-1.6 1.48 1.6 -1.48zm-69 3822.27c-18.9,0 -38.42,-4.94 -55.96,-15.31l-3216.35 -1887.82c-34.9,-20.57 -55.96,-58.62 -54.6,-99.21 1.29,-40.52 24.46,-77.22 60.78,-95.56 1274.53,-645.61 3211.47,-1636.16 3335.94,-1724.99 46.39,-37.93 114.59,-32.44 154.06,13.03 40.28,46.21 35.46,116.32 -10.93,156.54 -99.71,86.73 -2279.97,1196.19 -3197.62,1661.54l3041.21 1785.02c52.75,31.07 70.36,99.08 39.41,151.9 -20.75,35.21 -57.82,54.85 -95.94,54.85z"/>
  <path class="fil1" d="M0.32 4480.86c-21,-611.31 985.74,-2656.98 4205.66,-3197.37 3219.92,-540.4 15086.39,1148.38 15086.39,1148.38 0,0 182.49,-762.41 630.54,-1486.16 585.31,-945.71 2004.14,-945.71 2004.14,-945.71 0,0 -539.23,5262.19 -1148.57,5449.11 -658.45,202.12 -8349.1,1584.76 -13172.38,1576.17 -4708.01,-8.27 -7538.2,-585.43 -7605.78,-2544.41z"/>
  <path class="fil2" d="M21015.46 157.03c-190.58,1536.33 -593.59,4312.28 -1033,4447.2 -658.51,202.06 -8349.1,1584.69 -13172.5,1576.17 -3139.68,-5.56 -5444.17,-264.15 -6651.12,-1016.74 660.36,1413.88 3338.71,1854.4 7447.26,1861.62 4823.28,8.59 12513.93,-1374.05 13172.38,-1576.17 609.34,-186.92 1148.57,-5449.11 1148.57,-5449.11 0,0 -428.59,0.06 -911.6,157.03z"/>
  <path class="fil3" d="M2088.3 6493.65c367.37,-167.84 562.39,-267.36 912.65,-565.91 833.71,-710.52 1019.34,-1739.55 1019.34,-1739.55 0,0 -1531.14,585.43 -2454.35,788.11 -508.96,111.69 -1065.73,100.2 -1463,67.46 251.67,674.32 932.49,1140.22 1985.37,1449.9z"/>
  <path class="fil0" d="M5086.95 1197.13c-336.05,17.04 -631.27,45.22 -876.27,86.36 -2167.85,363.85 -3332.48,1409.93 -3855.71,2241.29 760.87,14.21 3055.05,-3.33 3828.59,-9.82 182.23,-1.54 350.44,-97.17 445.64,-252.53 194.09,-316.65 356.12,-771.32 405.73,-1196.5 31.32,-267.79 45.59,-597.98 52.01,-868.79z"/>
  <path class="fil4" d="M4872.53 1209.97c-8.09,222.26 -22.05,461.95 -45.84,665.68 -49.67,425.13 -211.76,879.85 -405.79,1196.5 -95.2,155.37 -263.47,250.93 -445.64,252.48 -680.88,5.74 -2539.79,20.01 -3494.27,13.65 -45.52,63.06 -87.59,125.34 -126.02,186.49 760.87,14.21 3055.05,-3.33 3828.59,-9.82 182.23,-1.54 350.44,-97.17 445.64,-252.47 194.09,-316.71 356.12,-771.38 405.79,-1196.56 31.26,-267.79 45.59,-597.98 51.95,-868.79 -73.51,3.7 -144.86,8.03 -214.41,12.84z"/>
  <path class="fil5" d="M20547.7 1880.17c-147.4,33.17 -540.41,320.92 -439.04,574.19 101.31,253.34 2934.1,500.38 3108.67,381.03 285.71,-195.27 -1.3,-600.57 -592.54,-803.19 -598.59,-205.33 -1401.41,-303.99 -2077.1,-152.02z"/>
  <path class="fil4" d="M22622.14 2032.19c-4.01,-1.36 -7.96,-2.65 -11.98,-4.07 307.88,207.5 410.74,467.51 199.1,612.18 -136.96,93.59 -1906.54,-38 -2714.31,-221.21 2.66,11.79 6.24,23.6 10.94,35.27 101.3,253.34 2933.97,500.38 3108.79,381.03 285.71,-195.27 -1.36,-600.57 -592.54,-803.19z"/>
  <path class="fil5" d="M3541.73 4841.13l209.41 -552.63c-480.54,176.31 -1500.18,537.37 -2185.2,687.79l495.68 258.9 177.97 -437.61 604.15 268.72 186.13 -522.61 511.86 297.44z"/>
  <path class="fil5" d="M153.47 5047.71l0 0c34.35,2.47 416.05,446.5 416.05,446.5l225.11 -430.07 450.4 373.73 320.92 -461.57c-487.77,107.06 -1019.34,100.94 -1412.47,71.41z"/>
  <path class="fil5" d="M3000.96 5927.74c177.54,-151.28 325.61,-317.08 448.85,-484.25l-423.15 0 -69.43 521.19c14.33,-11.98 28.85,-24.22 43.74,-36.94z"/>
  <path class="fil5" d="M3797.35 4849.6c8.09,-17.54 -340.07,137.94 -347.54,126.7 -7.54,-11.24 0,467.2 0,467.2 150.11,-203.66 263.28,-409.43 347.54,-593.89z"/>
  <path class="fil5" d="M2460.92 5857.25l62.15 419.01 -544.67 -211.33 109.9 428.72c351.68,-160.73 545.59,-258.89 868.86,-528.98l-496.24 -107.42z"/>
  <path class="fil4" d="M7431.6 2510.63c0,385.54 -312.52,698.05 -698.05,698.05 -385.48,0 -698.05,-312.51 -698.05,-698.05 0,-385.47 312.57,-697.99 698.05,-697.99 385.53,0 698.05,312.52 698.05,697.99z"/>
  <path class="fil0" d="M7266.91 2510.63c0,294.6 -238.76,533.36 -533.36,533.36 -294.54,0 -533.37,-238.76 -533.37,-533.36 0,-294.54 238.83,-533.3 533.37,-533.3 294.6,0 533.36,238.76 533.36,533.3z"/>
  <path class="fil6" d="M6500.65 2772.37l0.81 0c8.33,-0.07 16.83,-1.19 25.33,-3.64 52.75,-15.19 81.54,-72.83 90.62,-126.95 9.14,-54.18 5.25,-110.7 22.61,-162.77 48.24,-144.86 369.41,-352.86 106.13,-384.43 -15.14,-1.85 -30.15,-2.71 -44.79,-2.71 -270.63,0 -450.89,300.16 -340.81,561.77 25.08,59.67 79.32,118.73 140.1,118.73z"/>
  <path class="fil4" d="M9413.13 2635.42c0,385.47 -312.57,697.99 -698.05,697.99 -385.53,0 -698.05,-312.52 -698.05,-697.99 0,-385.54 312.52,-698.05 698.05,-698.05 385.48,0 698.05,312.51 698.05,698.05z"/>
  <path class="fil0" d="M9248.38 2635.42c0,294.54 -238.82,533.3 -533.3,533.3 -294.6,0 -533.36,-238.76 -533.36,-533.3 0,-294.54 238.76,-533.36 533.36,-533.36 294.48,0 533.3,238.82 533.3,533.36z"/>
  <path class="fil6" d="M8482.19 2897.15c-60.85,0 -115.08,-59.11 -140.17,-118.73 -110.02,-261.68 70.24,-561.78 340.87,-561.78 14.7,0 29.59,0.87 44.79,2.66 263.28,31.57 -57.88,239.56 -106.19,384.49 -17.35,52.01 -13.4,108.59 -22.55,162.71 -9.14,54.11 -37.87,111.74 -90.62,126.95 -8.84,2.53 -17.55,3.7 -26.13,3.7z"/>
  <path class="fil4" d="M11372.05 2772.37c0,385.54 -312.51,698.05 -697.98,698.05 -385.6,0 -698.05,-312.51 -698.05,-698.05 0,-385.47 312.45,-697.98 698.05,-697.98 385.47,0 697.98,312.51 697.98,697.98z"/>
  <path class="fil0" d="M11207.37 2772.37c0,294.61 -238.76,533.37 -533.3,533.37 -294.61,0 -533.37,-238.76 -533.37,-533.37 0,-294.47 238.76,-533.3 533.37,-533.3 294.54,0 533.3,238.83 533.3,533.3z"/>
  <path class="fil6" d="M10441.12 3034.17c-60.72,0 -115.02,-59.11 -140.1,-118.79 -110.02,-261.61 70.23,-561.77 340.87,-561.77 14.64,0 29.59,0.93 44.79,2.72 263.28,31.57 -57.95,239.56 -106.19,384.42 -17.36,52.08 -13.41,108.6 -22.55,162.77 -9.14,54.12 -37.93,111.75 -90.68,126.95 -8.77,2.47 -17.48,3.7 -26.13,3.7z"/>
  <path class="fil4" d="M13376.08 2897.15c0,385.54 -312.51,698.05 -697.99,698.05 -385.53,0 -698.11,-312.51 -698.11,-698.05 0,-385.53 312.58,-698.05 698.11,-698.05 385.48,0 697.99,312.52 697.99,698.05z"/>
  <path class="fil0" d="M13211.38 2897.15c0,294.54 -238.82,533.37 -533.3,533.37 -294.6,0 -533.36,-238.83 -533.36,-533.37 0,-294.54 238.76,-533.36 533.36,-533.36 294.48,0 533.3,238.82 533.3,533.36z"/>
  <path class="fil6" d="M12445.2 3158.89c-60.78,0 -115.08,-59.12 -140.17,-118.73 -110.08,-261.67 70.24,-561.77 340.88,-561.77 14.63,0 29.59,0.86 44.78,2.66 263.28,31.57 -57.94,239.62 -106.19,384.42 -17.35,52.14 -13.46,108.66 -22.55,162.83 -9.14,54.06 -37.93,111.69 -90.69,126.89 -8.77,2.54 -17.48,3.71 -26.07,3.71z"/>
  <path class="fil4" d="M15396.21 3043.99c0,385.54 -312.52,698.05 -698.04,698.05 -385.54,0 -698.05,-312.51 -698.05,-698.05 0,-385.53 312.51,-698.05 698.05,-698.05 385.52,0 698.04,312.52 698.04,698.05z"/>
  <path class="fil0" d="M15231.46 3043.99c0,294.54 -238.76,533.3 -533.29,533.3 -294.54,0 -533.3,-238.76 -533.3,-533.3 0,-294.54 238.76,-533.36 533.3,-533.36 294.53,0 533.29,238.82 533.29,533.36z"/>
  <path class="fil6" d="M14465.28 3305.73c-60.79,0 -115.02,-59.06 -140.11,-118.73 -110.02,-261.67 70.23,-561.77 340.81,-561.77 14.7,0 29.65,0.86 44.85,2.65 263.21,31.57 -57.94,239.57 -106.19,384.49 -17.35,52.01 -13.46,108.6 -22.61,162.71 -9.14,54.11 -37.87,111.81 -90.63,126.95 -8.77,2.53 -17.48,3.71 -26.13,3.71z"/>
  <path class="fil6" d="M2164.04 2635.42c-104.28,0 -211.15,-41.27 -234.44,-119.72 -20.01,-67.21 26.01,-136.83 76.23,-195.2 212.32,-246.92 497.54,-386.03 831,-504.82 355.32,-126.58 677.73,-260.93 1065.3,-314.18 27.61,-3.83 57.51,-6.24 87.1,-6.24 78.64,0 154.87,17.35 177.97,72.77 26.75,64.12 -42.19,130.59 -113.11,170.99 -151.71,86.55 -333.83,128.12 -506.05,183.47 -310.72,99.77 -598.28,248.83 -840.32,435.58 -147.33,113.6 -295.4,248.76 -495.37,274.34 -15.81,2.04 -32.06,3.03 -48.3,3.03z"/>
  <path class="fil1" d="M13310.41 7530.6c-123.55,-140.79 -306.96,-236.29 -494.44,-312.76 -673.96,-274.96 -1442.37,-343.53 -2191.88,-335.26 -307.08,3.34 -614.03,18.84 -919.45,46.52l-344.89 85.87c-139.8,26.01 -252.35,119.22 -313.26,227.83 -60.84,108.59 -76.04,231.41 -75.3,351.31 1.42,225.85 58.31,454.47 192.61,650.29 134.3,195.83 350.26,356.5 608.41,421.49 327.34,82.41 676.99,7.72 1014.4,-38.18 727.27,-98.72 1492.71,-63.75 2172.85,-300.97 179.83,-62.76 361.44,-153.38 441.93,-302.01 86.18,-159.13 32.56,-353.35 -90.99,-494.13z"/>
  <path class="fil0" d="M10009.69 7739.95c127.87,355.38 54.05,688.29 -164.88,743.58 -218.93,55.28 -500,-187.99 -627.87,-543.37 -127.81,-355.45 -54.06,-688.36 164.87,-743.64 218.93,-55.29 500,188.04 627.88,543.43z"/>
  <path class="fil5" d="M7309.59 4767.56c-112.74,966.39 4964.68,4633.69 8047.95,4367.62 1791.7,-154.62 -1439.52,-3857.74 -1439.52,-3857.74 -739.07,-806.09 -581.49,-1242.16 -3704.05,-1396.78 -2239.25,-110.82 -2793.55,-63.62 -2904.38,886.9z"/>
  <path class="fil4" d="M13918.02 5277.5c-540.47,-589.57 -601.56,-981.1 -1816.48,-1209.47 376.89,223.81 526.69,518.9 870.77,894.18 0,0 3231.22,3703.18 1439.52,3857.74 -586.42,50.59 -1245.06,-41.2 -1926.37,-229.56 1008.59,389.74 2017,618.55 2872.07,544.79 1791.7,-154.62 -1439.52,-3857.68 -1439.52,-3857.68z"/>
  <path class="fil7" d="M24037.93 7340.11l2.64 -5364.05c0,0 1230.38,-863.54 3430.31,-863.54 1500.98,0 3199.29,1018.41 5340.17,1018.41 1660.06,0 3127.09,-1272.76 5218.82,-1011.21 2520.8,314.98 2780.51,1159.23 5239.88,1011.21 2460.26,-147.66 1839.93,-696.22 4209.81,-815.11 2341.8,-116.96 5589.97,1696.82 5589.97,1696.82 0,0 -2920.02,1053.15 -2799.81,1166.78 119.32,113.53 2039.09,2550.8 2039.09,2550.8 0,0 -2519.04,-1095.97 -4319.48,-670.43 -1799.57,425.9 -2920.02,1153.88 -4879.27,989.98 -1960.13,-163.9 -3129.72,-1363.23 -5280.25,-1363.23 -1867.13,0 -2911.24,1526.78 -5079.32,1483.61 -2168.08,-43.51 -2719.97,-993.05 -4963.95,-912.76 -974.79,34.82 -3748.65,1082.73 -3748.65,1082.73z"/>
  <path class="fil8" d="M24040.57 2815.75c0,0 1230.38,-863.11 3430.31,-863.11 1500.98,0 3199.29,1018.32 5340.17,1018.32 1660.06,0 3127.09,-1273.11 5218.82,-1011.56 2520.8,314.98 2780.51,1159.24 5239.88,1011.56 2460.26,-147.57 1839.93,-696.58 4209.81,-815.11 1545.12,-77.21 3484.18,685.7 4624.82,1214.17 528.2,-199.88 965.15,-357.37 965.15,-357.37 0,0 -3248.17,-1813.78 -5589.97,-1696.82 -2369.88,118.88 -1749.55,667.44 -4209.81,815.11 -2459.37,148.03 -2719.09,-696.22 -5239.88,-1011.21 -2091.73,-261.55 -3558.76,1011.21 -5218.82,1011.21 -2140.89,0 -3839.2,-1018.41 -5340.17,-1018.41 -2199.93,0 -3430.31,863.54 -3430.31,863.54l-2.64 5364.05 0.36 0 2.29 -4524.36z"/>
  <path class="fil8" d="M47909.51 5200.01c-1799.56,425.55 -2920.02,1153.53 -4879.27,989.64 -1960.13,-163.91 -3129.71,-1362.88 -5280.25,-1362.88 -1867.13,0 -2911.24,1526.42 -5079.32,1483.25 -2168.08,-43.16 -2719.96,-992.61 -4963.94,-912.41 -876.44,31.05 -3206.93,881.36 -3668.45,1052.44l-0.36 890.06c0,0 2773.86,-1047.9 3748.65,-1082.73 2243.97,-80.29 2795.87,869.25 4963.95,912.76 2168.08,43.17 3212.19,-1483.61 5079.32,-1483.61 2150.52,0 3320.11,1199.34 5280.25,1363.23 1959.25,163.9 3079.7,-564.09 4879.27,-989.98 1800.44,-425.54 4319.48,670.43 4319.48,670.43 0,0 -447.48,-568.21 -923.91,-1168.62 -893.21,-287.35 -2329.52,-632.61 -3475.41,-361.58z"/>
  <path class="fil9" d="M26696.33 4517.11c-139.84,34.94 -256.11,22.68 -348.76,-36.8 -92.67,-59.48 -156.9,-160.79 -192.67,-303.95 -17.79,-71.16 -22.48,-137.46 -14.11,-198.9 8.38,-61.43 27.21,-116.25 56.48,-164.45 29.28,-48.19 68.32,-88.95 117.15,-122.25 48.82,-33.3 104.67,-57.81 167.56,-73.53 36.41,-9.1 70.17,-14.68 101.31,-16.74 31.14,-2.07 58.75,-2.38 82.85,-0.92 24.09,1.44 44.52,4.03 61.28,7.76 16.75,3.72 28.96,6.82 36.61,9.31l-16.77 170.35c-30,-7.45 -63.82,-11.74 -101.47,-12.88 -37.65,-1.15 -78.82,3.87 -123.5,15.04 -29.78,7.45 -57.72,19.7 -83.78,36.76 -26.07,17.07 -47.32,39.3 -63.77,66.71 -16.45,27.41 -26.95,60.14 -31.51,98.21 -4.55,38.06 -0.62,81.92 11.79,131.56 9.93,39.73 23.52,75.67 40.79,107.84 17.27,32.17 38.73,58.23 64.38,78.2 25.65,19.97 56.01,33.26 91.07,39.88 35.06,6.63 74.93,4.35 119.62,-6.81 28.14,-7.03 52.96,-15 74.47,-23.89 21.51,-8.89 40.39,-17.78 56.63,-26.68 16.24,-8.89 30.26,-17.89 42.05,-27 11.79,-9.1 22.45,-17.48 31.97,-25.13l92.15 141.81c-23.17,23.38 -57.93,47.89 -104.26,73.54 -46.34,25.65 -102.19,46.64 -167.56,62.98zm1200.91 -365.04l13 170.95 -590.64 44.93 -67.26 -884.06 199.01 -15.13 54.25 713.11 391.64 -29.8zm423.58 -694.2l199.03 14.85 -65.95 884.15 -199.03 -14.84 65.95 -884.15zm948.41 1015.35c-141.88,-25.42 -242.91,-84.26 -303.05,-176.49 -60.16,-92.23 -77.22,-210.97 -51.19,-356.21 12.94,-72.2 35.82,-134.6 68.65,-187.21 32.82,-52.6 72.46,-94.9 118.91,-126.86 46.46,-31.97 98.78,-53.14 156.96,-63.5 58.18,-10.37 119.17,-9.84 182.98,1.59 36.94,6.63 70.02,15.37 99.27,26.25 29.25,10.86 54.57,21.9 75.95,33.11 21.39,11.2 38.96,21.93 52.72,32.19 13.76,10.26 23.63,18.1 29.59,23.5l-85.11 148.52c-24.31,-19.09 -53.4,-36.86 -87.26,-53.33 -33.88,-16.47 -73.48,-28.76 -118.82,-36.89 -30.22,-5.42 -60.72,-5.68 -91.49,-0.8 -30.77,4.89 -59.27,16.46 -85.5,34.72 -26.24,18.26 -49.23,43.81 -68.98,76.66 -19.75,32.86 -34.14,74.47 -43.17,124.85 -7.22,40.3 -9.55,78.66 -6.97,115.08 2.57,36.42 11.46,68.99 26.68,97.71 15.22,28.73 37.45,53.29 66.72,73.7 29.28,20.41 66.58,34.69 111.91,42.81 28.54,5.12 54.45,8.02 77.72,8.73 23.27,0.71 44.13,0.33 62.59,-1.13 18.45,-1.46 34.93,-3.93 49.41,-7.4 14.48,-3.47 27.64,-6.74 39.46,-9.82l25.93 167.12c-30.71,11.82 -72.46,19.94 -125.24,24.34 -52.78,4.41 -112.33,0.67 -178.65,-11.22zm1125.61 284.06c-8.08,-32.93 -18.41,-69.28 -31.33,-108.71 -12.71,-39.36 -27.18,-79.54 -43.35,-120.71 -16.15,-41.17 -34.2,-81.39 -53.72,-120.51 -19.52,-39.12 -40.3,-75.08 -62.08,-107.31l-116.6 356.93 -189.72 -61.98 275.32 -842.78 189.72 61.98 -103.49 316.8c65.59,-35.32 132.52,-72.67 201.06,-112.2 68.75,-39.45 132.19,-76.38 190.44,-110.51l225.19 73.56c-79.68,49.57 -158.9,96.37 -237.46,140.47 -78.56,44.1 -160.5,87.55 -245.4,130.47 49.16,78.19 92.36,166.33 129.82,263.81 37.41,97.68 69.8,202.48 97.17,314.39l-225.59 -73.7zm1807.2 -422.09l196.59 34.44 -152.97 873.31 -196.59 -34.43 64.9 -370.5 -330.17 -57.83 -64.89 370.5 -196.59 -34.44 152.97 -873.31 196.58 34.43 -58.49 333.95 330.16 57.84 58.49 -333.96zm466.22 929.34l-54.19 -884.96 597.62 -36.59 10.25 167.28 -398.41 24.4 10.63 173.67 353.73 -21.65 10 163.45 -353.72 21.66 13.06 213.25 427.79 -26.19 10.25 167.28 -626.99 38.4zm936.43 -1057.48c125.84,-43.22 229.93,-53.95 312.26,-32.17 82.33,21.77 139.7,79.85 172.11,174.22 20.23,58.89 23.13,111.33 8.72,157.31 -14.42,45.99 -43.44,88.19 -87.05,126.62 24.15,15.16 50.13,33.05 77.96,53.71 27.83,20.65 55.88,42.58 84.14,65.78 28.26,23.22 56.34,47.84 84.22,73.89 27.89,26.04 54.35,51.89 79.4,77.56l-210.94 72.45c-24.95,-22.09 -50.04,-44.59 -75.46,-67.42 -25.63,-22.76 -51.18,-44.64 -76.86,-65.59 -25.68,-20.94 -50.87,-40.47 -75.18,-58.72 -24.31,-18.25 -48.05,-34.23 -70.83,-48.04l-93.17 32 105.14 306.13 -188.76 64.83 -283.84 -826.42c38.37,-22.2 78.98,-42.46 121.83,-60.78 42.85,-18.33 81.63,-33.45 116.32,-45.36zm66.16 157.18c-13.71,4.71 -25.88,9.34 -36.48,13.89 -10.62,4.55 -20.63,8.89 -30.03,13.02l78.13 227.48 53.24 -18.28c70.98,-24.38 118.76,-50.7 143.32,-78.98 24.56,-28.27 29.5,-63.79 14.81,-106.55 -14.13,-41.14 -39.7,-65.04 -76.71,-71.72 -37.02,-6.69 -85.77,0.37 -146.27,21.15zm973.2 382.13l-401.07 -790.71 533.98 -270.85 75.82 149.48 -355.99 180.57 78.71 155.17 316.05 -160.31 74.08 146.05 -316.05 160.31 96.65 190.55 382.23 -193.88 75.81 149.47 -560.22 284.17zm5457.99 -543.31c-137.49,-43.3 -230.19,-114.52 -278.1,-213.67 -47.92,-99.14 -49.7,-219.09 -5.38,-359.83 22.04,-69.96 52.68,-128.93 91.94,-176.93 39.27,-47.99 83.97,-84.88 134.12,-110.67 50.15,-25.78 104.74,-40.11 163.77,-42.98 59.02,-2.87 119.45,5.43 181.28,24.9 35.79,11.27 67.5,24.17 95.12,38.68 27.62,14.51 51.32,28.68 71.11,42.51 19.79,13.83 35.85,26.72 48.19,38.65 12.34,11.94 21.12,20.96 26.35,27.08l-103.34 136.47c-21.68,-22.04 -48.27,-43.37 -79.76,-64.02 -31.51,-20.66 -69.22,-37.9 -113.15,-51.73 -29.29,-9.23 -59.5,-13.37 -90.64,-12.45 -31.14,0.92 -60.89,8.77 -89.24,23.54 -28.35,14.77 -54.41,37.19 -78.19,67.25 -23.78,30.08 -43.35,69.51 -58.72,118.33 -12.3,39.05 -19.5,76.8 -21.59,113.26 -2.09,36.45 2.58,69.88 14.01,100.31 11.43,30.43 30.36,57.62 56.79,81.6 26.43,23.97 61.61,42.88 105.54,56.72 27.66,8.71 52.98,14.9 75.97,18.56 22.99,3.67 43.73,5.95 62.23,6.86 18.49,0.91 35.15,0.56 49.96,-1.04 14.81,-1.59 28.27,-3.17 40.38,-4.71l4.43 169.06c-31.97,7.81 -74.41,10.54 -127.32,8.18 -52.91,-2.35 -111.5,-13.65 -175.77,-33.89zm1218.25 254.51l-58.32 161.22 -557.03 -201.49 301.59 -833.74 187.68 67.89 -243.27 672.53 369.35 133.59zm568.47 -536.98l187.04 69.63 -309.33 830.9 -187.04 -69.64 309.33 -830.9zm518.37 653.44c-8.08,42.75 -10.13,82.29 -6.16,118.63 3.97,36.35 13.48,68.74 28.5,97.19 15.02,28.45 35.5,52.06 61.47,70.87 25.95,18.8 57.37,31.68 94.25,38.65 36.04,6.81 69.77,6.25 101.23,-1.69 31.45,-7.94 59.36,-22.42 83.73,-43.41 24.37,-21 45.04,-47.68 62.01,-80.06 16.97,-32.37 29.5,-69.94 37.59,-112.68 8.08,-42.74 10.17,-82.49 6.27,-119.25 -3.9,-36.76 -13.36,-69.36 -28.38,-97.8 -15.02,-28.45 -35.71,-52.12 -62.1,-70.99 -26.38,-18.87 -57.58,-31.72 -93.62,-38.53 -36.88,-6.97 -70.87,-6.24 -101.98,2.2 -31.11,8.43 -58.85,23.16 -83.22,44.15 -24.37,21 -45.08,47.9 -62.13,80.69 -17.05,32.8 -29.55,70.15 -37.47,112.05zm665 125.75c-11.57,61.18 -29.53,114.86 -53.89,161.04 -24.35,46.17 -53.64,85.12 -87.85,116.84 -34.21,31.73 -72.46,56.17 -114.77,73.35 -42.31,17.17 -87.12,26.93 -134.44,29.27 1.02,17.54 7.67,32.91 19.93,46.08 12.26,13.17 28.66,25.17 49.18,35.99 20.53,10.83 44.92,20.66 73.2,29.47 28.28,8.82 58.95,17.66 91.99,26.52l-67.32 135.7c-64.9,-14.88 -119.61,-31.95 -164.14,-51.23 -44.53,-19.27 -81.18,-41.17 -109.96,-65.72 -28.79,-24.54 -50.07,-52 -63.85,-82.38 -13.79,-30.38 -22.38,-64.12 -25.78,-101.23 -50.69,-16.53 -96.15,-40.1 -136.37,-70.7 -40.22,-30.61 -73.1,-67.86 -98.66,-111.75 -25.54,-43.9 -42.54,-93.98 -51.01,-150.27 -8.45,-56.29 -6.34,-117.95 6.34,-185 14.11,-74.59 38.24,-137.94 72.4,-190.07 34.17,-52.13 74.79,-93.72 121.89,-124.73 47.1,-31.02 98.66,-51.23 154.68,-60.59 56.03,-9.37 112.95,-8.59 170.78,2.35 59.5,11.25 113.82,31.51 162.98,60.77 49.16,29.25 89.78,66.89 121.88,112.89 32.1,45.99 54.1,99.41 66.03,160.27 11.93,60.85 10.85,128.56 -3.26,203.15zm648.18 473.59c-62.2,2.72 -116.27,-3.66 -162.19,-19.17 -45.93,-15.49 -84.27,-38.14 -115.03,-67.96 -30.75,-29.81 -54.1,-65.94 -70.05,-108.35 -15.93,-42.42 -25.05,-89.61 -27.32,-141.59l-24.08 -550.89 199.39 -8.71 23.35 534.26c1.56,35.8 6.94,66.09 16.14,90.87 9.19,24.78 21.17,44.74 35.92,59.9 14.74,15.14 32.28,25.69 52.6,31.63 20.32,5.95 42.42,8.39 66.28,7.35 48.57,-2.12 87.33,-18.76 116.28,-49.9 28.94,-31.14 41.85,-82.5 38.72,-154.08l-23.35 -534.27 199.39 -8.71 24.08 550.89c2.27,51.98 -2.89,100.01 -15.47,144.1 -12.59,44.09 -33.12,82.34 -61.58,114.74 -28.46,32.41 -65.33,58.13 -110.6,77.19 -45.26,19.05 -99.43,29.96 -162.49,32.71zm769.77 -89.9l-201.19 -863.48 583.12 -135.87 38.03 163.23 -388.75 90.58 39.48 169.45 345.14 -80.42 37.16 159.49 -345.14 80.42 48.48 208.08 417.41 -97.25 38.03 163.23 -611.78 142.55zm1270.66 -1272.84l189.72 -61.95 275.24 842.8 -189.72 61.95 -275.24 -842.8zm1257.91 554.47c-138.73,39.12 -255.3,30.34 -349.71,-26.34 -94.41,-56.67 -161.64,-156.02 -201.69,-298.04 -19.91,-70.6 -26.59,-136.72 -20.06,-198.39 6.54,-61.66 23.72,-117.02 51.53,-166.07 27.83,-49.05 65.63,-90.95 113.44,-125.7 47.8,-34.75 102.9,-60.93 165.29,-78.52 36.11,-10.18 69.71,-16.78 100.76,-19.77 31.06,-3.01 58.65,-4.14 82.78,-3.41 24.13,0.73 44.63,2.7 61.49,5.92 16.86,3.23 29.16,5.96 36.89,8.21l-11.66 170.78c-30.21,-6.56 -64.15,-9.83 -101.81,-9.84 -37.66,-0.02 -78.67,6.23 -122.99,18.73 -29.55,8.34 -57.1,21.42 -82.64,39.26 -25.54,17.85 -46.13,40.71 -61.74,68.59 -15.62,27.89 -25.14,60.93 -28.55,99.1 -3.41,38.18 1.84,81.9 15.72,131.15 11.11,39.41 25.78,74.93 44.01,106.57 18.22,31.63 40.45,57.04 66.69,76.23 26.24,19.18 56.98,31.57 92.22,37.13 35.25,5.57 75.04,2.11 119.37,-10.4 27.91,-7.87 52.48,-16.57 73.72,-26.11 21.24,-9.53 39.84,-18.98 55.8,-28.36 15.96,-9.37 29.71,-18.79 41.22,-28.23 11.51,-9.45 21.91,-18.15 31.2,-26.08l96.35 138.98c-22.45,24.06 -56.46,49.6 -102.01,76.63 -45.54,27.03 -100.74,49.68 -165.6,67.98zm413.24 -1046.68l194.4 -45.2 200.76 863.58 -194.4 45.19 -200.76 -863.57z"/>
  <path class="fil10" d="M37577.45 2992.96c-119.72,6.43 -239.16,45.3 -345.02,121.54 -118.45,-54.7 -243.08,-70.13 -361.84,-53.67 -249.49,34.6 -430.02,317.42 -240.72,633 65.89,109.86 163.58,199.45 268.72,271.81l5.46 3.73 0.21 0.14c119.28,80.04 253.53,143.11 392.15,181.94 5.58,1.53 36.55,9.91 36.52,9.59 142.46,-66.33 273.2,-158.84 384.38,-269.61l5.02 -5.07c89.45,-91.08 168.12,-197.43 211.91,-317.79 125.79,-345.83 -105.25,-589.13 -356.78,-575.62z"/>
 </g>
</svg>
