<?xml version="1.0" encoding="UTF-8"?>
<!DOCTYPE svg PUBLIC "-//W3C//DTD SVG 1.1//EN" "http://www.w3.org/Graphics/SVG/1.1/DTD/svg11.dtd">
<!-- Creator: CorelDRAW 2021.5 -->
<svg xmlns="http://www.w3.org/2000/svg" xml:space="preserve" width="548.466mm" height="86.9658mm" version="1.1" style="shape-rendering:geometricPrecision; text-rendering:geometricPrecision; image-rendering:optimizeQuality; fill-rule:evenodd; clip-rule:evenodd"
viewBox="0 0 13448.09 2132.36"
 xmlns:xlink="http://www.w3.org/1999/xlink"
 xmlns:xodm="http://www.corel.com/coreldraw/odm/2003">
 <defs>
  <style type="text/css">
   <![CDATA[
    .fil9 {fill:#FEFEFE}
    .fil8 {fill:#FEFEFE;fill-rule:nonzero}
    .fil7 {fill:#F08683;fill-rule:nonzero}
    .fil6 {fill:#EA556F;fill-rule:nonzero}
    .fil1 {fill:#348989;fill-rule:nonzero}
    .fil2 {fill:#49BCC3;fill-rule:nonzero}
    .fil3 {fill:#A3CACA;fill-rule:nonzero}
    .fil5 {fill:#B5BF2C;fill-rule:nonzero}
    .fil4 {fill:#E5EA39;fill-rule:nonzero}
    .fil0 {fill:white;fill-rule:nonzero}
   ]]>
  </style>
 </defs>
 <g id="Plan_x0020_1">
  <metadata id="CorelCorpID_0Corel-Layer"/>
  <path class="fil0" d="M10443.94 823.19l0 -148.69c0,-47.49 -33.72,-88.31 -80.37,-97.31l-511.87 -98.43c-36.19,-6.94 -68.46,23.8 -63.27,60.28l86.16 605.68 569.35 -321.52z"/>
  <path class="fil0" d="M10443.94 1466.21l0 148.71c0,47.47 -33.72,88.31 -80.37,97.31l-511.87 98.43c-36.19,6.91 -68.46,-23.8 -63.27,-60.3l86.16 -605.66 569.35 321.5z"/>
  <path class="fil1" d="M9433.14 1417.62c2.63,0 5.27,-0.7 7.7,-2.17l441.45 -259.08c4.81,-2.85 7.7,-8.04 7.52,-13.65 -0.18,-5.53 -3.37,-10.56 -8.34,-13.07 -174.93,-88.67 -440.78,-224.55 -457.9,-236.84 -6.34,-5.19 -15.72,-4.41 -21.13,1.82 -5.53,6.32 -4.85,16 1.48,21.45 13.69,11.93 312.94,164.27 438.9,228.1l-417.39 245.06c-7.26,4.23 -9.68,13.57 -5.43,20.83 2.83,4.77 7.94,7.54 13.15,7.54z"/>
  <path class="fil2" d="M11905.25 405.74c1015.21,-7.6 1441.34,526.35 1537.17,738.98 -95.83,212.6 -521.96,746.57 -1537.17,738.95 -1012.1,-7.6 -1798.95,-521.68 -2030.66,-738.95 231.71,-217.38 1018.56,-731.36 2030.66,-738.98z"/>
  <path class="fil1" d="M11905.25 1719.94c898.09,6.74 1358.08,-376.37 1513.33,-619.87 20.25,31.76 18.44,23.54 29.51,48.01 -95.85,212.63 -527.63,749.7 -1542.84,742.08 -1012.1,-7.52 -1798.95,-521.6 -2030.66,-738.97 26.5,-24.82 60.32,-53.63 100.92,-85.1 313.93,243.32 1033.49,647.18 1929.74,653.85z"/>
  <path class="fil1" d="M9874.59 1167.97l0 0 3535.11 -3.11c9.26,0 16.74,-7.52 16.74,-16.78 0,-9.24 -7.5,-16.78 -16.76,-16.78l-0.02 0 -3535.11 3.11c-9.24,0 -16.74,7.54 -16.72,16.78 0,9.26 7.5,16.78 16.76,16.78z"/>
  <path class="fil1" d="M11952.88 724.31c-485.33,0 -955.55,90.13 -1289.08,174.39 -340.89,86.14 -600.08,180.77 -700.1,219.28 56.74,-32.62 331.75,-186.84 701.21,-329.74 381.08,-147.39 943.52,-312.44 1458.66,-262.18 458.15,44.73 772.92,215.89 956.29,351.61 90.33,66.78 158.35,131.65 205.73,182.61 -159.88,-103.89 -496.26,-276.3 -1019.6,-322.65 -104.23,-9.26 -209.06,-13.33 -313.1,-13.33zm1430.86 445.92c3.83,0 7.68,-1.3 10.83,-3.99 6.46,-5.45 7.84,-14.88 3.21,-21.97 -3.79,-5.71 -95.05,-143.4 -297.99,-293.58 -186.76,-138.23 -507.2,-312.52 -972.95,-358.03 -521.92,-50.94 -1089.95,115.76 -1474.6,264.53 -416.19,161.06 -713.49,336.48 -716.42,338.22 -7.96,4.75 -10.59,15.04 -5.87,22.99 2.71,4.49 7.2,7.28 12.05,8.04 -14.81,5.79 -22.79,9.1 -23.25,9.26 -8.56,3.55 -12.61,13.33 -9.06,21.89 3.53,8.56 13.33,12.63 21.87,9.08 3.01,-1.22 304.6,-125.44 741.04,-235.62 402.35,-101.64 1004.91,-211.84 1590.44,-160.04 747.54,66.26 1105.78,391.41 1109.31,394.7 3.21,3.03 7.3,4.51 11.41,4.51z"/>
  <path class="fil1" d="M13323.71 1238.47c-47.13,51.64 -114.93,117.56 -205.09,185.46 -181.87,137.09 -494.55,310.88 -951.42,360.1 -514.8,55.43 -1079.06,-104.23 -1461.77,-247.91 -370.8,-139.27 -646.98,-290.65 -703.91,-322.57 100.4,37.47 360.55,129.59 702.29,212.28 406,98.33 1013.78,203.34 1603.69,145.14 522.74,-51.56 857.34,-227.06 1016.21,-332.51zm-1373.74 590.36c74.13,0 147.95,-3.63 220.82,-11.51 465.29,-50.08 783.96,-227.58 969.36,-367.61 201.42,-152.16 291.31,-290.73 295.04,-296.52 4.57,-7.2 3.11,-16.54 -3.43,-21.97 -6.51,-5.37 -16.06,-5.11 -22.21,0.78 -3.49,3.29 -358.49,331.97 -1105.34,405.66 -585.01,57.62 -1188.6,-46.61 -1591.94,-144.26 -437.5,-105.89 -740.32,-227.08 -743.33,-228.28 -8.56,-3.37 -18.34,0.7 -21.79,9.34 -3.47,8.56 0.68,18.35 9.26,21.79 0.48,0.18 8.48,3.39 23.35,9.1 -4.83,0.68 -9.3,3.53 -11.95,8.12 -4.65,8.04 -1.92,18.26 6.08,22.92 2.97,1.74 301.98,174.21 719.77,331.13 332.13,124.65 800.1,261.32 1256.3,261.32z"/>
  <polygon class="fil0" points="10426.44,1186.67 9787.86,1186.67 9787.86,1120.33 10426.44,1120.33 "/>
  <path class="fil3" d="M12803.76 976.81c31.58,0 62.87,-9.16 80.13,-34.42 7.66,-11.25 11.43,-23.09 11.83,-35.38 -120.36,-43.6 -264.01,-83.48 -431.44,-110.8 101.26,65.04 189.91,156.13 307.37,177.66 10.36,1.91 21.27,2.95 32.12,2.95zm83.62 -108.3c-43.8,-99.32 -248.57,-213.83 -359.49,-263.57 -42.1,-12.63 -86.02,-24.4 -131.85,-34.86 -2.99,-0.08 -5.96,-0.18 -8.94,-0.18 -55.43,0 -110.8,15.32 -161.56,40.24 -149.5,73.35 72.75,112.53 147.75,139.09 201.84,25.6 372.95,69.73 514.1,119.28z"/>
  <path class="fil2" d="M12895.72 907.01c0.44,-12.45 -2.55,-25.34 -8.34,-38.49 -141.15,-49.56 -312.26,-93.68 -514.1,-119.28 2.71,0.94 5.21,1.91 7.5,2.77 29.21,11.77 56.79,27.09 83.5,44.21 167.44,27.32 311.08,67.2 431.44,110.8zm-367.83 -302.06c-21.49,-9.6 -39.45,-16.78 -52.05,-20.93 -26.22,-8.74 -52.98,-13.15 -79.81,-13.93 45.83,10.46 89.75,22.23 131.85,34.86z"/>
  <path class="fil4" d="M12442.82 1890.24l-41.94 182.25c-8.64,35.12 -40.11,59.86 -76.28,59.86l-949.31 0c-36.31,0 -67.9,-24.9 -76.36,-60.2l-45.61 -188.39c-11.89,-49.58 36.67,-53.55 87.63,-53.29l1018.26 5.43c50.78,0.28 95.71,5.03 83.62,54.33z"/>
  <path class="fil5" d="M11340.97 1830.48l7.06 0.08c0.24,1.3 0.5,2.69 0.84,4.07l34.76 144.7c8.46,35.3 40.06,60.2 76.36,60.2l948.97 0 -8.08 32.96c-8.64,35.12 -40.11,59.86 -76.28,59.86l-949.31 0c-36.31,0 -67.9,-24.9 -76.36,-60.2l-46.65 -194.36c-11.91,-49.58 37.71,-47.58 88.69,-47.31z"/>
  <path class="fil6" d="M9421.62 2030.2l-0.86 -1740.79c0,0 -399.29,-280.25 -1113.24,-280.25 -487.11,0 -1038.26,330.5 -1733.04,330.5 -538.74,0 -1014.83,-413.05 -1693.66,-328.17 -818.07,102.22 -902.36,376.2 -1700.5,328.17 -798.43,-47.92 -597.11,-225.94 -1366.21,-264.53 -759.98,-37.96 -1814.11,550.67 -1814.11,550.67 0,0 947.63,341.78 908.62,378.65 -38.72,36.85 -661.75,827.81 -661.75,827.81 0,0 817.5,-355.67 1401.8,-217.57 584.01,138.22 947.63,374.47 1583.47,321.28 636.12,-53.19 1015.69,-442.41 1713.6,-442.41 605.94,0 944.78,495.48 1648.39,481.47 703.61,-14.12 882.71,-322.27 1610.95,-296.22 316.35,11.3 1216.55,351.38 1216.55,351.38z"/>
  <path class="fil7" d="M1674.58 1335.67c584.01,138.1 947.63,374.36 1583.47,321.17 636.12,-53.19 1015.68,-442.29 1713.6,-442.29 605.94,0 944.78,495.37 1648.39,481.36 703.61,-14.01 882.71,-322.13 1610.94,-296.1 284.43,10.08 1040.74,286.03 1190.52,341.55l0.12 288.85c0,0 -900.2,-340.08 -1216.55,-351.38 -728.24,-26.06 -907.34,282.1 -1610.95,296.22 -703.61,14.01 -1042.45,-481.47 -1648.39,-481.47 -697.91,0 -1077.47,389.22 -1713.6,442.41 -635.83,53.19 -999.45,-183.06 -1583.47,-321.28 -584.3,-138.1 -1401.8,217.57 -1401.8,217.57 0,0 145.22,-184.4 299.84,-379.25 289.87,-93.25 756,-205.3 1127.87,-117.34z"/>
  <path class="fil7" d="M9420.76 561.91c0,0 -399.29,-280.11 -1113.24,-280.11 -487.11,0 -1038.26,330.47 -1733.04,330.47 -538.74,0 -1014.83,-413.16 -1693.66,-328.28 -818.07,102.22 -902.36,376.21 -1700.5,328.28 -798.43,-47.89 -597.11,-226.06 -1366.21,-264.53 -501.44,-25.06 -1130.72,222.53 -1500.89,394.03 -171.42,-64.87 -313.22,-115.98 -313.22,-115.98 0,0 1054.13,-588.62 1814.11,-550.67 769.1,38.58 567.78,216.61 1366.21,264.53 798.14,48.04 882.42,-225.94 1700.5,-328.17 678.83,-84.88 1154.92,328.17 1693.66,328.17 694.78,0 1245.93,-330.5 1733.04,-330.5 713.94,0 1113.24,280.25 1113.24,280.25l0.86 1740.79 -0.12 0 -0.74 -1468.29z"/>
  <path class="fil8" d="M1827.61 1026.55c-45.43,-11.12 -76.96,-32.24 -94.56,-63.34 -17.61,-31.1 -20.72,-69.9 -9.33,-116.42 5.66,-23.12 14.34,-42.86 26.04,-59.24 11.7,-16.37 25.4,-29.26 41.1,-38.67 15.7,-9.41 33.07,-15.2 52.13,-17.37 19.05,-2.17 38.8,-0.76 59.23,4.24 11.83,2.9 22.37,6.4 31.62,10.52 9.25,4.12 17.23,8.21 23.93,12.27 6.7,4.06 12.17,7.9 16.42,11.5 4.25,3.6 7.28,6.34 9.1,8.21l-30.59 46.37c-7.49,-6.68 -16.55,-13.03 -27.18,-19.05 -10.64,-6.02 -23.22,-10.81 -37.73,-14.37 -9.68,-2.37 -19.55,-3.08 -29.62,-2.12 -10.07,0.96 -19.53,4.12 -28.4,9.5 -8.87,5.38 -16.84,13.19 -23.9,23.43 -7.07,10.24 -12.57,23.43 -16.52,39.56 -3.16,12.9 -4.7,25.28 -4.6,37.13 0.09,11.85 2.31,22.58 6.65,32.19 4.34,9.61 11.05,18.02 20.11,25.23 9.06,7.21 20.86,12.59 35.38,16.14 9.14,2.24 17.47,3.71 24.99,4.41 7.52,0.7 14.29,1.01 20.3,0.91 6,-0.1 11.39,-0.56 16.15,-1.39 4.76,-0.83 9.09,-1.62 12.98,-2.38l5 54.65c-10.19,3.2 -23.88,4.98 -41.06,5.34 -17.19,0.35 -36.4,-2.07 -57.64,-7.27zm401.64 53.74l-16.28 53.2 -183.82 -56.26 84.21 -275.13 61.94 18.96 -67.93 221.93 121.88 37.3zm178.42 -185.53l61.61 19.97 -88.71 273.71 -61.61 -19.97 88.71 -273.72zm228.42 374.1c-45.21,-12.03 -76.3,-33.76 -93.29,-65.2 -16.98,-31.44 -19.32,-70.3 -7.01,-116.58 6.12,-23 15.19,-42.57 27.22,-58.71 12.03,-16.13 25.98,-28.75 41.86,-37.84 15.88,-9.09 33.37,-14.54 52.46,-16.33 19.09,-1.79 38.81,0.01 59.14,5.42 11.77,3.13 22.24,6.85 31.4,11.15 9.17,4.3 17.06,8.55 23.68,12.74 6.62,4.19 12.01,8.14 16.19,11.82 4.17,3.69 7.15,6.49 8.94,8.4l-31.51 45.75c-7.35,-6.83 -16.28,-13.36 -26.79,-19.59 -10.52,-6.24 -22.99,-11.27 -37.44,-15.12 -9.63,-2.56 -19.48,-3.46 -29.57,-2.71 -10.08,0.76 -19.61,3.73 -28.58,8.93 -8.98,5.21 -17.1,12.85 -24.37,22.95 -7.27,10.1 -13.04,23.17 -17.31,39.22 -3.42,12.84 -5.2,25.18 -5.34,37.03 -0.15,11.85 1.86,22.62 6.01,32.32 4.15,9.7 10.69,18.24 19.61,25.62 8.92,7.39 20.6,13 35.05,16.84 9.09,2.42 17.4,4.05 24.9,4.9 7.51,0.85 14.26,1.29 20.27,1.31 6.01,0.02 11.4,-0.33 16.18,-1.07 4.78,-0.73 9.12,-1.44 13.02,-2.12l3.91 54.74c-10.25,3 -23.97,4.51 -41.16,4.52 -17.19,0.01 -36.35,-2.8 -57.48,-8.42zm373.78 54.69c-4.77,-9.91 -10.48,-20.77 -17.22,-32.43 -6.67,-11.65 -13.95,-23.44 -21.84,-35.43 -7.89,-11.99 -16.31,-23.56 -25.12,-34.68 -8.82,-11.12 -17.82,-21.14 -26.89,-29.92l-13.15 121.15 -64.39 -6.99 31.04 -286.05 64.39 6.99 -11.67 107.53c18.47,-15.61 37.22,-31.94 56.35,-49.08 19.19,-17.13 36.87,-33.1 53.08,-47.84l76.43 8.29c-21.98,21.07 -44.01,41.23 -66.01,60.49 -22,19.26 -45.11,38.54 -69.2,57.85 20.84,21.54 40.46,46.64 58.88,75.09 18.41,28.52 35.71,59.63 51.89,93.33l-76.57 -8.31zm475.26 -351.81l62.52 -16.93 75.2 277.73 -62.52 16.93 -31.9 -117.82 -105 28.43 31.9 117.82 -62.52 16.93 -75.2 -277.73 62.52 -16.93 28.76 106.2 105 -28.43 -28.76 -106.2zm264.96 210.54l-108.86 -266.34 179.87 -73.52 20.58 50.35 -119.91 49.01 21.36 52.27 106.46 -43.51 20.11 49.2 -106.46 43.51 26.23 64.18 128.75 -52.62 20.58 50.35 -188.71 77.13zm282.1 -422.5c40.76,-14.24 74.52,-17.9 101.28,-10.98 26.76,6.92 45.47,25.67 56.15,56.25 6.67,19.08 7.7,36.09 3.1,51.03 -4.6,14.95 -13.94,28.7 -28.03,41.24 7.86,4.88 16.33,10.64 25.39,17.3 9.07,6.65 18.21,13.72 27.42,21.2 9.21,7.49 18.37,15.43 27.46,23.83 9.09,8.41 17.73,16.75 25.9,25.04l-68.33 23.87c-8.14,-7.13 -16.32,-14.39 -24.61,-21.75 -8.36,-7.34 -16.69,-14.4 -25.06,-21.15 -8.37,-6.75 -16.58,-13.04 -24.5,-18.93 -7.92,-5.88 -15.65,-11.02 -23.07,-15.47l-30.18 10.55 34.65 99.16 -61.14 21.37 -93.54 -267.71c12.41,-7.27 25.56,-13.92 39.43,-19.93 13.88,-6.02 26.43,-10.99 37.67,-14.92zm21.74 50.9c-4.44,1.55 -8.38,3.07 -11.82,4.57 -3.44,1.5 -6.68,2.92 -9.72,4.28l25.75 73.69 17.24 -6.02c22.99,-8.04 38.45,-16.66 46.38,-25.88 7.92,-9.22 9.46,-20.75 4.62,-34.6 -4.65,-13.33 -13,-21.04 -25.02,-23.14 -12.02,-2.1 -27.83,0.27 -47.43,7.12zm323.8 141.44l-64.61 -280.38 189.35 -43.63 12.21 53 -126.23 29.09 12.68 55.02 112.07 -25.83 11.93 51.79 -112.07 25.82 15.57 67.57 135.54 -31.23 12.21 53 -198.65 45.78zm1764.38 312.59c-43.19,-17.96 -71.11,-43.65 -83.74,-77.08 -12.63,-33.43 -9.76,-72.25 8.62,-116.47 9.14,-21.98 20.74,-40.16 34.81,-54.55 14.07,-14.38 29.59,-25.02 46.54,-31.91 16.95,-6.89 35.01,-9.95 54.18,-9.18 19.16,0.77 38.46,5.19 57.88,13.27 11.24,4.67 21.12,9.75 29.63,15.24 8.51,5.49 15.77,10.75 21.76,15.79 6,5.04 10.82,9.67 14.46,13.88 3.65,4.21 6.23,7.38 7.74,9.51l-37.33 41.14c-6.37,-7.75 -14.35,-15.41 -23.94,-22.99 -9.59,-7.58 -21.28,-14.24 -35.08,-19.98 -9.2,-3.83 -18.85,-6.04 -28.94,-6.63 -10.09,-0.6 -19.93,1.08 -29.52,5.04 -9.59,3.96 -18.66,10.46 -27.21,19.49 -8.55,9.04 -16.01,21.22 -22.39,36.56 -5.1,12.27 -8.51,24.27 -10.24,35.99 -1.73,11.72 -1.18,22.66 1.64,32.83 2.82,10.17 8.16,19.5 16.01,28.01 7.85,8.51 18.68,15.64 32.48,21.37 8.69,3.61 16.7,6.34 24.02,8.19 7.33,1.85 13.96,3.18 19.92,4.01 5.95,0.82 11.35,1.19 16.18,1.1 4.83,-0.09 9.23,-0.21 13.19,-0.36l-3.44 54.77c-10.56,1.61 -24.36,1.27 -41.39,-1.02 -17.04,-2.28 -35.65,-7.62 -55.84,-16.02zm398.56 38.36l-9.69 54.79 -189.3 -33.48 50.11 -283.33 63.78 11.28 -40.42 228.55 125.52 22.2zm89.44 -239.86l64.7 -3.01 13.35 287.42 -64.7 3 -13.35 -287.42zm239.22 119.86c2.76,13.85 6.94,26 12.55,36.45 5.61,10.46 12.4,19.05 20.38,25.79 7.97,6.74 17.01,11.36 27.1,13.87 10.09,2.5 21.11,2.57 33.06,0.19 11.67,-2.32 21.76,-6.59 30.26,-12.8 8.5,-6.21 15.14,-13.95 19.93,-23.23 4.78,-9.28 7.77,-19.82 8.94,-31.63 1.18,-11.8 0.39,-24.63 -2.37,-38.48 -2.76,-13.84 -6.96,-26.06 -12.59,-36.65 -5.64,-10.59 -12.44,-19.25 -20.42,-25.99 -7.97,-6.74 -17.08,-11.35 -27.31,-13.82 -10.23,-2.48 -21.18,-2.55 -32.85,-0.23 -11.95,2.38 -22.09,6.73 -30.42,13.04 -8.34,6.32 -14.9,14.12 -19.68,23.39 -4.78,9.28 -7.75,19.89 -8.9,31.83 -1.15,11.94 -0.37,24.7 2.33,38.27zm215.41 -42.9c3.95,19.82 5.06,38.15 3.34,55.01 -1.72,16.85 -5.81,32.13 -12.25,45.83 -6.44,13.7 -14.99,25.71 -25.64,36.01 -10.65,10.31 -22.95,18.68 -36.91,25.13 2.44,5.16 6.3,8.97 11.6,11.45 5.29,2.47 11.68,4.09 19.17,4.86 7.49,0.77 16.03,0.76 25.61,-0.02 9.58,-0.78 19.88,-1.84 30.9,-3.19l-3.78 49.01c-21.34,3.4 -39.88,4.91 -55.62,4.52 -15.74,-0.39 -29.43,-2.53 -41.08,-6.43 -11.64,-3.89 -21.38,-9.57 -29.22,-17.04 -7.84,-7.47 -14.52,-16.58 -20.05,-27.33 -17.26,1.18 -33.81,-0.39 -49.62,-4.72 -15.82,-4.33 -30.24,-11.54 -43.26,-21.65 -13.02,-10.11 -24.22,-23.12 -33.6,-39.03 -9.38,-15.91 -16.23,-34.73 -20.55,-56.45 -4.81,-24.16 -5.24,-46.16 -1.29,-66 3.95,-19.84 11.13,-37.28 21.54,-52.34 10.41,-15.05 23.47,-27.4 39.19,-37.02 15.72,-9.62 32.95,-16.3 51.68,-20.03 19.27,-3.84 38.08,-4.34 56.43,-1.5 18.35,2.83 35.14,9.23 50.39,19.17 15.25,9.95 28.36,23.35 39.34,40.21 10.98,16.86 18.87,37.38 23.69,61.54zm252.85 64.62c-19.16,6.42 -36.6,9.27 -52.31,8.55 -15.71,-0.72 -29.7,-4.35 -41.97,-10.89 -12.26,-6.54 -22.78,-15.72 -31.56,-27.52 -8.77,-11.8 -15.84,-25.71 -21.2,-41.72l-56.87 -169.67 61.41 -20.58 55.15 164.56c3.7,11.02 8.08,19.99 13.17,26.9 5.09,6.91 10.61,12.06 16.57,15.47 5.96,3.4 12.37,5.12 19.24,5.15 6.87,0.03 13.98,-1.18 21.33,-3.65 14.96,-5.01 25.56,-13.67 31.8,-25.98 6.24,-12.31 5.66,-29.48 -1.73,-51.53l-55.15 -164.56 61.41 -20.58 56.87 169.67c5.36,16.01 8.06,31.45 8.08,46.33 0.02,14.88 -2.95,28.65 -8.93,41.31 -5.98,12.66 -15.17,23.98 -27.58,33.98 -12.41,10 -28.33,18.25 -47.75,24.76zm237.68 -81.51l-57.24 -281.98 190.43 -38.66 10.82 53.31 -126.95 25.77 11.23 55.34 112.71 -22.88 10.57 52.08 -112.71 22.88 13.79 67.95 136.31 -27.67 10.82 53.3 -199.78 40.56zm514.36 -355.25l64.77 -0.32 1.43 287.73 -64.77 0.32 -1.43 -287.73zm331.14 317.31c-45.89,-9.06 -78.33,-28.73 -97.32,-59.01 -18.99,-30.27 -23.85,-68.9 -14.57,-115.88 4.61,-23.35 12.39,-43.47 23.35,-60.35 10.95,-16.88 24.06,-30.37 39.31,-40.48 15.26,-10.1 32.36,-16.68 51.29,-19.7 18.94,-3.03 38.72,-2.51 59.36,1.57 11.95,2.36 22.63,5.39 32.06,9.08 9.43,3.7 17.58,7.42 24.45,11.18 6.88,3.76 12.52,7.34 16.92,10.75 4.4,3.41 7.56,6.01 9.46,7.79l-28.47 47.7c-7.78,-6.34 -17.12,-12.27 -28.01,-17.81 -10.9,-5.54 -23.68,-9.76 -38.34,-12.65 -9.78,-1.93 -19.67,-2.19 -29.68,-0.78 -10.01,1.41 -19.33,5 -27.94,10.77 -8.62,5.77 -16.23,13.93 -22.82,24.48 -6.6,10.55 -11.5,23.97 -14.72,40.26 -2.57,13.03 -3.55,25.47 -2.92,37.3 0.62,11.83 3.32,22.45 8.09,31.86 4.77,9.41 11.85,17.51 21.23,24.3 9.38,6.79 21.4,11.63 36.07,14.53 9.23,1.82 17.62,2.92 25.17,3.28 7.55,0.36 14.32,0.36 20.32,-0.01 6,-0.37 11.36,-1.07 16.07,-2.11 4.72,-1.04 9.01,-2.03 12.86,-2.96l7.46 54.37c-10.03,3.66 -23.63,6.05 -40.78,7.18 -17.15,1.13 -36.46,-0.43 -57.91,-4.66zm274.13 -240.03l62.82 15.77 -70.06 279.07 -62.82 -15.77 70.06 -279.07z"/>
  <path class="fil9" d="M5201.05 627.21c38.3,6.84 75.23,24.11 106.29,52.87 40.32,-12.91 81.08,-12.92 118.68,-2.89 78.98,21.07 125.87,119.34 52.35,213.45 -25.59,32.76 -60.62,57.73 -97.36,76.86l-1.91 0.98 -0.07 0.04c-41.6,21.04 -87.35,36.01 -133.54,43 -1.86,0.27 -12.17,1.74 -12.14,1.64 -43.24,-27.03 -81.67,-62.03 -113.07,-102.13l-1.42 -1.83c-25.18,-32.9 -46.3,-70.28 -55.61,-110.78 -26.75,-116.39 57.34,-185.56 137.81,-171.2z"/>
 </g>
</svg>
