<?xml version="1.0" encoding="UTF-8"?>
<!DOCTYPE svg PUBLIC "-//W3C//DTD SVG 1.1//EN" "http://www.w3.org/Graphics/SVG/1.1/DTD/svg11.dtd">
<!-- Creator: CorelDRAW 2021.5 -->
<svg xmlns="http://www.w3.org/2000/svg" xml:space="preserve" width="132.973mm" height="132.973mm" version="1.1" style="shape-rendering:geometricPrecision; text-rendering:geometricPrecision; image-rendering:optimizeQuality; fill-rule:evenodd; clip-rule:evenodd"
viewBox="0 0 3931.06 3931.06"
 xmlns:xlink="http://www.w3.org/1999/xlink"
 xmlns:xodm="http://www.corel.com/coreldraw/odm/2003">
 <defs>
  <style type="text/css">
   <![CDATA[
    .fil27 {fill:#FEFEFE}
    .fil5 {fill:#090907}
    .fil9 {fill:#100E0F}
    .fil6 {fill:#171717}
    .fil14 {fill:#180D0E}
    .fil8 {fill:#1A0D0D}
    .fil18 {fill:#270F07}
    .fil4 {fill:#27211E}
    .fil10 {fill:#3E3D39}
    .fil13 {fill:#4D3224}
    .fil17 {fill:#50322A}
    .fil21 {fill:#5A1700}
    .fil0 {fill:#67E6BC}
    .fil7 {fill:#714E3C}
    .fil33 {fill:#7E2924}
    .fil19 {fill:#81523B}
    .fil2 {fill:#8F673C}
    .fil24 {fill:#9C5C46}
    .fil25 {fill:#A45A41}
    .fil20 {fill:#B07D46}
    .fil22 {fill:#BA7758}
    .fil26 {fill:#C4745A}
    .fil23 {fill:#C9BCB7}
    .fil12 {fill:#CC8D4A}
    .fil3 {fill:#D0914F}
    .fil30 {fill:#D09278}
    .fil31 {fill:#DB8878}
    .fil11 {fill:#E0AA62}
    .fil28 {fill:#E8BE8A}
    .fil16 {fill:#E8DFD6}
    .fil15 {fill:#EDA253}
    .fil1 {fill:#F0B669}
    .fil32 {fill:#FEB392}
    .fil29 {fill:#FFDABA}
   ]]>
  </style>
 </defs>
 <g id="Plan_x0020_1">
  <metadata id="CorelCorpID_0Corel-Layer"/>
  <circle class="fil0" cx="1965.53" cy="1965.53" r="1965.53"/>
  <path class="fil1" d="M2713.57 945c0,104 -8.66,195.02 8.67,268.69 17.33,73.67 69.34,190.68 86.67,255.68 17.33,65 34.67,112.67 30.33,338.02 -4.34,225.35 8.57,319.94 -11.09,424.8 -19.66,104.86 -85.2,242.49 -173.67,347.34 -88.48,104.86 -137.62,114.7 -186.78,154.02 -49.16,39.32 -134.35,114.69 -232.66,137.63 -98.31,22.93 -258.86,-19.66 -327.68,-49.15 -68.82,-29.49 -216.28,-196.62 -249.05,-226.11 -32.76,-29.49 -72.09,-117.96 -98.31,-275.25 -26.21,-157.29 -62.26,-357.17 -62.26,-478.42 0,-121.25 -52.43,-180.23 -52.43,-180.23 0,0 3.27,-150.74 62.26,-304.75 58.99,-154.01 143.34,-567.55 393.65,-643.29 250.31,-75.75 241.78,61.3 346.63,-40.01 -26.9,102.42 -15.02,-20.29 22.67,6.09 37.69,26.37 56.54,22.62 211.04,82.91 154.5,60.29 231.99,182.03 231.99,182.03z"/>
  <path class="fil1" d="M2603.23 2634.52c0,0 -12.93,206.7 -10.08,280.8 2.85,74.1 -5.7,185.25 -8.55,219.44 -2.85,34.2 -2.85,179.54 -2.85,179.54 0,0 -96.9,-54.15 -205.19,-122.55 -108.29,-68.4 -273.59,-128.24 -350.53,-213.74 -41.94,-46.6 -81.33,-106.73 -108.5,-151.81 73.42,29.13 223.78,66.84 317.52,44.97 98.31,-22.93 183.5,-98.31 232.66,-137.63 38.75,-30.99 77.49,-43.69 135.51,-99.04l0.01 0.01z"/>
  <path class="fil2" d="M2603.23 2634.52c-13.49,215.66 1.27,40.33 -6.91,102.34 -20.01,41.52 -84.32,38.43 -137.03,65.92 -180.08,93.94 -293.41,140.6 -541.76,23.42 73.42,29.13 223.78,66.84 317.52,44.97 98.31,-22.93 183.5,-98.31 232.66,-137.63 38.75,-30.99 77.49,-43.69 135.51,-99.04l0.01 0.01z"/>
  <path class="fil3" d="M2593.67 2958.74c43.08,57.92 65.28,93.67 87.47,172.07 32.33,114.21 108.84,322.52 108.84,322.52 0,0 -160.01,-111.42 -208.23,-139.02 0,0 0,-145.35 2.85,-179.54 2.33,-27.98 8.48,-107.46 9.07,-176.03z"/>
  <path class="fil4" d="M2250.71 644.04c2.8,-5.37 5.65,-10.94 8.53,-16.74 0,0 -6.71,6.71 -8.53,16.74zm-5.92 41.26c56.03,-112.9 35.57,-300.53 25.6,-355.37 -9.96,-54.84 -59.83,-169.51 -234.32,-169.51 -174.49,0 -573.33,24.93 -817.61,249.27 -244.29,224.35 -539.07,847.19 -572.03,1552.68 -44.36,949.51 -112.1,1225.87 686.41,1864.6 198.54,67.46 411.34,104.08 632.69,104.08 320.03,0 622.15,-76.55 889.17,-212.22 -11.47,-126.4 -64.72,-265.51 -64.72,-265.51 0,0 -160.01,-111.42 -208.23,-139.02 0,0 -96.9,-54.15 -205.19,-122.55 -108.29,-68.4 -273.59,-128.24 -350.53,-213.74 -41.94,-46.6 -81.33,-106.73 -108.5,-151.81 -3.57,-1.42 -6.96,-2.81 -10.16,-4.18 -68.82,-29.49 -216.28,-196.62 -249.05,-226.11 -32.76,-29.49 -72.09,-117.96 -98.31,-275.25 -26.21,-157.29 -62.26,-357.17 -62.26,-478.42 0,-121.25 -52.43,-180.23 -52.43,-180.23 0,0 3.27,-150.74 62.26,-304.75 58.99,-154.01 133.64,-537.77 393.65,-643.29 260.01,-105.52 239.42,56.29 343.56,-28.67zm343.38 2401.94l-0.01 -0.01 -0.01 0.31 0.02 -0.3zm-436.27 -209.93c-3.1,-0.13 -6.23,-0.29 -9.37,-0.48 3.13,0.2 6.26,0.36 9.37,0.48zm-100.16 -12.68l-10.03 -2.06c3.32,0.7 6.67,1.4 10.03,2.06z"/>
  <path class="fil5" d="M1432.55 565.65c-139.6,199.45 -209.41,433.78 -244.31,658.15 -34.9,224.37 -19.94,563.42 -4.98,658.15 14.96,94.73 79.78,314.11 149.58,488.62 69.81,174.51 134.62,398.88 134.62,398.88 0,0 29.14,-317.32 49.86,-448.74 4.47,-28.36 13.51,-65.39 24.8,-106.8 -22.2,-133.29 -44.35,-276.64 -44.35,-371.68 0,-121.25 -52.43,-180.23 -52.43,-180.23 0,0 3.27,-150.74 62.26,-304.75 50.51,-131.87 112.52,-432.18 292.53,-582.03 -53.97,-14.71 -126.69,-4.46 -183.09,49.69 -124.64,119.67 -229.34,274.24 -289.18,543.48 -59.84,269.24 -0.01,458.71 -9.97,518.54 -9.97,59.83 -49.86,124.65 -49.86,124.65 0,0 24.63,46.76 -29.91,-354 -54.54,-400.77 194.45,-1091.93 194.45,-1091.93z"/>
  <path class="fil6" d="M2071.84 202.87c0,0 -101.79,-41.47 -192.27,-11.31 -90.49,30.16 86.71,26.39 135.72,71.63 49.02,45.24 52.8,52.79 -52.78,94.26 -105.57,41.47 -222.45,86.7 -256.38,128.18 -33.92,41.48 -169.65,184.74 -169.65,184.74 0,0 101.79,-105.56 203.58,-131.95 101.79,-26.39 82.95,11.31 49.01,60.32 -33.93,49.01 -41.47,94.25 -41.47,94.25 0,0 49.01,-86.72 162.11,-116.88 113.11,-30.16 147.03,37.71 226.21,-18.85 79.17,-56.56 93.17,-186.43 98.03,-245.06 4.86,-58.63 -162.12,-109.33 -162.12,-109.33z"/>
  <path class="fil7" d="M1080.13 1659.53c0,0 8.67,242.81 47.7,459.61 39.02,216.79 60.7,537.64 69.37,680.73 8.67,143.09 43.36,498.63 86.72,585.35 43.35,86.72 239.68,328.99 239.68,328.99 0,0 -86.41,-182.36 -135.99,-328.64 -49.58,-146.28 -89.25,-317.34 -89.25,-401.63 0,-84.3 -2.49,-193.38 -2.49,-193.38 0,0 14.88,213.21 52.07,329.73 37.19,116.52 104.12,297.5 128.92,339.65 24.8,42.15 94.21,131.4 94.21,131.4 0,0 -114.04,-260.32 -151.23,-374.36 -37.19,-114.04 -69.41,-228.09 -52.06,-282.63 17.35,-54.54 -9.92,-143.79 -17.36,-215.69 -7.44,-71.9 -19.83,-138.84 -19.83,-138.84 0,0 59.51,146.28 76.86,225.61 17.35,79.33 66.94,344.62 86.77,421.47 19.83,76.85 91.73,287.58 114.04,324.77 22.31,37.19 47.31,64.22 47.31,64.22 0,0 -22.32,-62 -71.91,-225.64 -49.59,-163.64 -54.55,-295.07 -69.43,-347.13 -14.88,-52.07 24.87,-370.38 18.32,-422.85 -1.98,-15.82 -17.48,-57.63 -39,-110.06 -14.09,128.43 -26.1,259.26 -26.1,259.26 0,0 -64.81,-224.37 -134.62,-398.88 -69.8,-174.51 -134.62,-393.89 -149.58,-488.62 -6.43,-40.73 -12.86,-126.63 -15.33,-229.15l-0.02 -0.83 0 -0.32c-3.22,-135.72 0.49,-300.31 20.34,-427.85l-108.1 435.72zm193.28 342.77l-0.18 -0.47c-1.19,17.4 -5.22,9.76 -5.22,9.76 0,0 2.08,-3.39 5.4,-9.29z"/>
  <path class="fil8" d="M805.97 2883.2c0,-72.15 -26.24,-216.45 -6.56,-354.19 19.68,-137.74 6.56,141.02 42.64,314.83 36.08,173.81 101.66,245.96 101.66,245.96 0,0 -19.68,-219.73 -22.96,-285.32 -3.28,-65.58 0,-101.66 0,-101.66 0,0 9.85,163.97 62.32,298.43 52.47,134.46 98.38,262.36 134.45,285.32 36.08,22.96 0,-216.44 6.56,-249.24 6.56,-32.8 29.52,-75.43 29.52,-75.43l78.57 186.23c14.44,104.25 32.21,197.99 51.76,237.08 23.99,47.99 94.82,143.6 153.31,219.44 0,0 -89.48,-75.36 -296.91,-207.37 -207.43,-132.01 -334.36,-514.09 -334.36,-514.09z"/>
  <path class="fil9" d="M2375.22 723.53c2.22,0.63 25.46,4.71 7.49,-103.16 -18.86,-113.16 -21.75,-154.03 -64.12,-207.46 -42.38,-53.43 -22.63,-165.97 -22.63,-165.97 0,0 154.65,271.59 184.83,316.85 30.18,45.27 75.44,67.9 154.65,120.7 79.21,52.81 105.62,-30.17 132.02,-7.54 26.41,22.63 147.1,215 162.19,320.61 15.09,105.62 132.02,618.61 120.7,746.86 -11.32,128.25 -39.22,285.59 -30.55,511.16 8.67,225.57 60.73,503.2 91.1,624.66 30.36,121.46 86.75,21.69 73.74,-21.69 -13.01,-43.38 65.06,-186.53 65.06,-186.53 0,0 74.78,291.42 47.72,368.72 -17.47,49.9 13.09,207.81 25.49,346.11 -148.8,142.15 -319.86,261.17 -507.45,351.3 -62.35,-50.64 -185.87,-157.19 -200.4,-217.73 -19.54,-81.4 -136.33,-196.68 -200.74,-305.07 92.06,56.85 167.42,98.96 167.42,98.96 48.22,27.6 208.23,139.02 208.23,139.02 0,0 -76.51,-208.31 -108.84,-322.52 -22.18,-78.39 -44.39,-114.14 -87.47,-172.06l0 -0.01c0.14,-15.23 -0.01,-29.94 -0.52,-43.42 -2.85,-74.1 10.08,-280.8 10.08,-280.8l-0.01 -0.01c15.58,-14.86 32.54,-32.78 51.27,-54.98 88.48,-104.86 154.02,-242.49 173.67,-347.34 19.66,-104.86 6.75,-199.45 11.09,-424.8 4.34,-225.35 -13,-273.02 -30.33,-338.02 -17.33,-65 -69.35,-182.01 -86.67,-255.68 -17.33,-73.67 -8.67,-164.68 -8.67,-268.69 0,0 -77.49,-121.74 -231.99,-182.03 -46.22,-18.03 -80.28,-30.33 -106.36,-39.43z"/>
  <path class="fil10" d="M2259.24 627.3c56.03,-112.91 21.13,-242.53 11.16,-297.37 -5.14,-28.25 -20.86,-72.37 -58.75,-108.52 19.56,-32.56 55.84,-41.56 55.84,-41.56 0,0 39.92,-49.88 274.42,184.61 234.49,234.49 339.27,224.52 444.05,623.67 104.78,399.14 201.92,1036.59 259.29,1220.2 57.38,183.61 63,645.3 57.59,738.86l0 0.04c-9.03,-115.96 -53.13,-275.19 -53.13,-275.19 0,0 -78.08,143.15 -65.06,186.53 13.01,43.38 -43.38,143.16 -73.74,21.69 -30.37,-121.46 -82.42,-399.09 -91.1,-624.66 -8.67,-225.57 19.23,-382.91 30.55,-511.16 11.32,-128.25 -105.62,-641.24 -120.7,-746.86 -15.09,-105.62 -135.78,-297.98 -162.19,-320.61 -26.41,-22.63 -52.81,60.35 -132.02,7.54 -79.21,-52.81 -124.48,-75.44 -154.65,-120.7 -30.17,-45.26 -184.83,-316.85 -184.83,-316.85 0,0 -19.74,112.54 22.63,165.97 42.38,53.43 45.26,94.3 64.12,207.46 17.97,107.87 -5.27,103.79 -7.49,103.16 -9.07,-3.18 -41.13,4.12 -48.47,1.64 -82.22,-13.42 -142.93,-145.33 -67.5,-97.88z"/>
  <path class="fil11" d="M2270.54 680.06c-80.95,80.52 -312.29,430.74 -309.47,554.94 2.82,124.19 -5.11,88.54 21.33,111.21 26.44,22.66 54.36,103.16 233.9,84.51 179.54,-18.65 98.39,76.74 98.39,76.74l-77.55 82.05 -32.63 72.38c0,0 14.9,79.49 37.26,106.81 22.36,27.32 -74.08,38.33 -99.14,-16.85 -25.05,-55.18 -32.51,-117.29 -59.83,-139.64 -27.32,-22.35 -81.07,-37.12 -71.21,31.87 9.85,69 -12.65,176.82 -17.82,226.39 -5.17,49.57 -29.94,133.72 -58.01,153.17 -28.08,19.44 -62.63,58.32 -66.96,88.57 -4.33,30.25 18.56,19.51 27.08,25.19 8.52,5.68 59.65,-24.15 75.28,-46.88 15.63,-22.73 22.73,-9.94 56.82,2.84 34.09,12.79 79.55,26.99 113.64,18.47 34.09,-8.52 51.13,-36.93 75.28,-52.56 24.15,-15.63 25.58,-7.1 29.83,11.36 4.26,18.47 -9.94,52.56 -9.94,52.56 0,0 31.25,-4.26 73.87,-4.26 42.61,0 52.56,-25.56 39.77,-55.4 -12.79,-29.84 -75.29,-99.44 -75.29,-99.44 0,0 -32.66,-53.98 21.31,-11.36 53.98,42.61 76.71,96.6 95.17,113.64 18.47,17.04 70.78,80.18 156.21,73.61 85.43,-6.57 195.63,-114.91 243.14,-147.86 14.41,-9.99 31.32,1.9 48.07,24.08l0.04 3.83 0 0.39 0.05 4.17 0.02 2.17 0.01 1.95 0.05 4.08 0.01 0.59 0.03 3.47 0.03 3.04 0.04 4.93 0.01 1.49 0.01 2.44 0.05 7.76 0.01 2.35 0 1.47 0.01 3.79 0.01 0.88 0.01 2.88 0.01 3.16 0 0.56 0 3.69 0 3.66 -0.01 3.62 0 0.31 -0.01 3.29 -0.01 2.51 -0.01 1.06 -0.02 3.54 -0.01 1.13 -0.03 2.38 -0.03 3.27 -0.01 0.21 -0.05 3.46 -0.02 1.91 -0.02 1.52 -0.06 3.41 -0.01 0.59 -0.06 2.79 -0.06 2.67 -0.01 0.69 -0.09 3.33 -0.04 1.36 -0.05 1.95 -0.11 3.3 0 0.08 -0.11 3.19 -0.08 2.1 -0.04 1.16 -0.13 3.23 -0.03 0.85 -0.11 2.37 -0.13 2.82 -0.02 0.38 -0.16 3.19 -0.08 1.58 -0.09 1.59 -0.17 3.15 -0.02 0.36 -0.17 2.78 -0.14 2.29 -0.06 0.83 -0.21 3.11 -0.08 1.09 -0.15 2.01 -0.23 3 -0.01 0.09 -0.25 3.08 -0.15 1.8 -0.11 1.27 -0.28 3.06 -0.06 0.62 -0.38 3.94 -0.1 1 -0.06 0.55 -0.32 3.04 -0.14 1.33 -0.19 1.71 -0.35 3.03 -0.02 0.17 -0.34 2.85 -0.25 2.04 -0.13 0.98 -0.39 3.02 -0.11 0.89 -0.29 2.13 -0.38 2.75 -0.04 0.27 -0.45 3.02 -0.24 1.6 -0.22 1.42 -0.47 3.02 -0.08 0.44 -0.41 2.58 -0.39 2.31 -0.12 0.71 -0.52 3.02 -0.2 1.16 -0.34 1.87 -0.56 3.04c-19.66,104.86 -120.07,283.82 -173.67,347.34 -60.35,71.53 -213.23,173.55 -295.58,236.12 -108.78,82.66 -203.57,70.25 -317.21,46.92 0,0 -72.75,-32.64 107.3,-61.22 180.05,-28.58 271.5,-102.88 302.94,-137.18 31.44,-34.3 88.6,-160.04 117.17,-202.91 28.58,-42.87 23.82,-61.41 16.72,-69.94 -7.11,-8.53 -25.58,-14.21 -62.53,11.37 -36.95,25.58 -108,82.42 -125.04,96.63 -17.05,14.21 -103.72,62.52 -140.67,73.89 -36.95,11.37 -73.89,-4.26 -139.26,9.94 -65.37,14.21 -109.42,8.53 -142.1,1.42 -32.68,-7.1 -63.95,-48.32 -75.31,-62.53 -11.36,-14.21 -59.68,-34.1 -59.68,-34.1 0,0 -26.82,0.64 -46.43,-17.34 -19.61,-17.98 -96.42,-75.18 -29.42,-65.38 67,9.81 119.3,8.17 181.4,-9.8 62.09,-17.97 112.76,-34.31 138.91,-24.51 26.15,9.8 58.84,22.87 73.54,31.05 14.7,8.17 39.21,-13.07 53.92,-24.51 14.71,-11.45 58.84,-11.44 104.59,-6.54 45.76,4.9 91.51,0 116.02,-8.17 24.51,-8.17 58.83,-17.97 58.83,-17.97 0,0 -19.6,-17.98 -35.95,-31.05 -16.35,-13.08 8.69,-48.54 8.69,-48.54 0,0 -2.49,-37.27 -22.38,-67.1 -19.88,-29.83 -57.16,-64.62 -57.16,-64.62 0,0 -19.88,22.37 -34.8,39.77 -14.91,17.4 -28.18,34.35 -39.63,45.79 -11.44,11.43 -13.07,44.12 -21.24,58.83 -8.17,14.71 -44.13,35.95 -63.74,49.03 -19.61,13.08 -44.13,27.78 -83.35,8.17 -39.22,-19.61 -75.18,-55.56 -102.96,-58.83 -27.78,-3.27 -65.37,19.61 -65.37,19.61 0,0 -42.48,-11.44 -60.46,-31.06 -17.98,-19.61 -16.35,-67 -16.35,-67 0,0 -3.27,-19.61 -19.61,-19.61 -16.35,0 -42.64,18.98 -44.13,34.32 -4.34,44.86 -44.16,61.04 -43.66,-6.86 0.4,-54.69 14.91,-111.86 49.72,-164.06 34.8,-52.2 84.52,-96.95 84.52,-96.95 0,0 50.25,-61.42 57.77,-134.73 7.52,-73.3 -3.76,-120.29 -7.51,-133.45 -3.76,-13.16 -43.23,120.29 -60.15,148.49 -16.92,28.2 -101.5,114.66 -124.06,157.9 -22.56,43.23 -62.03,90.23 -62.03,90.23 0,0 -25.47,108.99 -32.05,168.17 -6.57,59.18 -62.47,246.57 -62.47,246.57 0,0 -18.41,-5 -41.26,-21.94 -12.1,-39.55 -23.42,-87.78 -32.99,-145.19 -26.21,-157.29 -62.26,-357.17 -62.26,-478.42 0,-121.25 -52.43,-180.23 -52.43,-180.23 0,0 3.28,-150.74 62.26,-304.75 58.99,-154.01 125.27,-486.42 335.82,-613.59 210.54,-127.16 290.97,-10.34 333.49,-30.73 26.96,26.68 93.65,-32.89 93.65,-32.89z"/>
  <path class="fil12" d="M1861.7 1496.63c50.79,35.74 107.21,52.67 116.62,77.12 9.41,24.45 -31.78,83.22 -39.49,124.13 -23.95,127.02 -92.19,96.73 -80.88,73.35 8.26,-17.07 45.13,-47.02 39.49,-71.47 -5.63,-24.45 -63.95,47.02 -137.3,75.23 -73.35,28.21 -133.54,41.39 -182.44,45.15 -24.93,1.92 -55.25,-4.48 -81.47,-13.2 -8.66,-97.41 -50.88,-144.93 -50.88,-144.93 0,0 1.63,-75.09 23.33,-173.41 32.28,-17.84 87.71,-30.83 179.54,-35.59 146.4,-7.6 213.49,43.62 213.49,43.62z"/>
  <path class="fil13" d="M1491.61 1402.93c0,0 170.25,-12.2 246.93,17.16 76.68,29.36 97.9,50.58 81.58,71.79 -16.32,21.21 -31.01,14.68 -97.9,1.63 -66.89,-13.05 -127.67,-22.18 -189.25,-19.58 -27.22,1.15 -47.59,2.56 -61.85,3.77 5.55,-23.93 12.3,-49.1 20.48,-74.77z"/>
  <path class="fil2" d="M2839.54 1791.32c31.45,-58.05 52.06,-133.01 65.18,-187.36 13.12,-54.35 1.88,-73.08 -7.49,-103.07 -9.37,-29.99 -6.2,0.99 -56.23,-43.11 -16.56,-14.6 -31.82,-24.06 -44.82,-29.21 5.14,14.97 9.54,28.78 12.74,40.8 16.9,63.43 33.83,110.38 30.61,321.94l0.01 0.01z"/>
  <path class="fil2" d="M2935.01 1497.99c0,0 -16.03,-40.66 -29.58,-94.88 -13.55,-54.23 -24.64,-77.63 -9.85,-94.88 14.78,-17.26 43.13,-25.88 57.91,2.46 14.78,28.34 -18.48,187.31 -18.48,187.31z"/>
  <path class="fil14" d="M2237.15 1589.5c0,0 35.48,-79.47 83.72,-102.17 48.24,-22.7 183.04,-51.08 201.49,-55.34 18.45,-4.26 75.21,24.12 75.21,24.12l49.67 22.7 28.62 12.4c0,0 -46.27,-1.62 -80.35,-13.79 -34.08,-12.17 -55.99,-23.53 -70.6,-22.72 -14.61,0.81 -137.16,25.97 -137.16,25.97 0,0 -62.49,18.66 -73.04,26.78 -10.55,8.12 -77.55,82.05 -77.55,82.05z"/>
  <path class="fil15" d="M2212.47 1629.61c-6.44,10.73 20.4,74.07 44.01,88.02 23.61,13.95 98.75,19.32 154.56,21.47 55.81,2.14 192.13,-13.96 229.7,-32.21 37.57,-18.25 61.18,-111.62 67.62,-135.24 6.44,-23.61 -40.49,-41.38 -59.75,-43.94l-0.01 0c4.82,3.49 -42.16,17.1 -68.52,5.71 -22.27,-9.63 -48.98,-23.72 -69.58,-30.36l-0.01 0c-9.41,-1.86 -51.7,3.16 -93.74,10.26 -21.17,5.19 -39.91,10.55 -46.04,13.61 -13.41,6.7 -54.82,19.56 -61.55,21.63 -32.06,26.55 -96.68,81.06 -96.68,81.06zm430.82 -102.68c-4.98,-0.77 -11.85,-1.92 -19.89,-3.3 7,2 13.85,3.29 19.89,3.3z"/>
  <path class="fil16" d="M2280.64 1603.17c0,0 53.01,-52.67 67.07,-73.38 14.06,-20.71 90.16,-22.81 126.47,-24.77 36.3,-1.95 55.97,5.32 71.4,12.53 15.43,7.21 34.5,15.88 34.5,15.88 0,0 -8.64,14.66 -20.86,31.06 -2.67,3.23 -6.07,7.69 -10.05,12.76l-0.01 0.02 -0.04 0.05c-16.35,19.53 -38.71,42.67 -72.14,54.56l-5.76 1.91 -0.07 0.02c-17.91,5.45 -38.78,11.22 -58.46,15.09 -1.74,0.11 -3.36,0.12 -4.85,0.03 -14.36,-0.85 -67.93,-13.65 -95.86,-22.21 -17.11,-11.9 -31.15,-23.41 -31.31,-23.55l-0.01 -0.01z"/>
  <path class="fil14" d="M2485.09 1496.94c11.58,13.6 18.54,30.98 18.54,49.95 0,43.47 -36.56,78.71 -81.65,78.71 -45.09,0 -81.66,-35.24 -81.66,-78.71 0,-3.39 0.23,-6.73 0.66,-10 11.18,-3.91 21.65,-7.84 27.5,-10.77 13.37,-6.68 78.39,-22.75 116.61,-29.18z"/>
  <path class="fil17" d="M2468.21 1496.94c10.23,12.01 16.38,27.37 16.38,44.13 0,38.4 -32.3,69.53 -72.14,69.53 -39.84,0 -72.14,-31.14 -72.14,-69.53 0,-2.99 0.2,-5.95 0.58,-8.84 9.88,-3.45 19.12,-6.93 24.29,-9.51 11.81,-5.9 69.26,-20.1 103.02,-25.78z"/>
  <path class="fil18" d="M2415.43 1535.83c5.79,0 10.49,4.42 10.49,9.89 0,5 -3.94,9.13 -9.05,9.79 -2.24,5.14 -10.71,8.98 -20.81,8.98 -11.81,0 -21.39,-5.24 -21.39,-11.7 0,-6.46 9.58,-11.7 21.39,-11.7 3.43,0 6.65,0.44 9.52,1.22 1.48,-3.78 5.32,-6.47 9.85,-6.47z"/>
  <ellipse class="fil16" cx="2436.99" cy="1525.95" rx="28.09" ry="10.68"/>
  <path class="fil19" d="M2213.85 1459.54c0,0 -21.57,-21.58 28.05,-47.47 49.62,-25.89 213.77,-95.61 254.58,-105.72 40.81,-10.11 127.28,15.1 153.18,28.05 25.9,12.94 58.25,47.46 58.25,47.46 0,0 -96.66,-37.94 -129,-35.8 -60.6,4.02 -228.56,94.58 -298.23,116.35 -34.51,10.78 -66.83,-2.88 -66.83,-2.88z"/>
  <path class="fil20" d="M2211.71 2144.83c25.49,-8.49 76.45,-2.42 87.36,3.64 10.92,6.07 14.57,10.93 -20.67,14.18 -34.42,5.38 -66.69,-3.23 -66.69,-3.23 0,0 -24.74,18.29 -38.72,30.12 -13.98,11.83 -67.76,39.79 -77.44,39.79 -9.68,0 -12.9,-16.13 -46.25,-10.75 -33.35,5.38 -72.07,21.51 -84.98,22.59 -12.91,1.08 -12.05,-26.52 -38.72,-23.66 -26.67,2.86 -27.65,-11.75 -27.65,-11.75 0,0 28.72,-47.42 70.67,-52.79 41.95,-5.38 90.35,29.05 106.49,36.58 16.13,7.53 43.02,11.83 74.21,-7.53 31.19,-19.36 62.38,-37.18 62.38,-37.18z"/>
  <path class="fil21" d="M1999.45 2190.23c-26.16,0 -46.9,-5.3 -48.8,-18.39 -1.9,-13.08 15.56,-24.04 29,-19.09 13.44,4.95 47.32,11.22 56.14,15.65 8.82,4.43 45.78,23.74 45.78,23.74l14.07 13.66 -96.19 -15.56z"/>
  <ellipse class="fil21" cx="2256.37" cy="2150.97" rx="41.41" ry="8.82"/>
  <path class="fil22" d="M2532.6 2280.37c14.01,3.01 32.34,21.25 31.98,45.65 -0.34,22.94 -4.74,38.76 -7.3,47.36 -0.95,3.2 0.77,3.7 3.7,1.27 10.86,-8.98 29.31,-29.49 33.56,-46.49 5.88,-23.54 -5.35,-45.49 -20.87,-49.22 -9.35,-2.26 -26.07,-2.84 -37.89,-3.16 -6.36,-0.17 -10.4,3.04 -3.18,4.6z"/>
  <path class="fil23" d="M1844.32 1641.31c0,0 -70.47,30.1 -109.17,45.16 -38.69,15.06 -98.03,22.53 -127.66,24.37 -29.62,1.84 -68.99,-20.4 -81.95,-39.17 -12.97,-18.77 -16.25,-46.92 -16.25,-46.92 0,0 20.67,-21.35 60.93,-31.67 40.26,-10.32 85.21,-32.94 119.06,-20.84 33.85,12.1 102.04,30.9 114.22,40.26 12.17,9.36 40.82,28.81 40.82,28.81z"/>
  <path class="fil24" d="M1844.68 1588.15c0,0 -61.78,-41.19 -114.21,-53.36 -52.43,-12.17 -113.28,-6.55 -134.81,0.94 -21.53,7.49 -88.01,13.11 -97.37,21.53 -9.36,8.42 -40.25,56.17 -41.19,62.72 -0.94,6.55 34.64,87.06 42.13,95.49 7.49,8.43 96.42,30.9 111.4,31.83 14.98,0.93 98.3,-14.03 107.66,-20.59 9.36,-6.56 51.49,-19.66 65.53,-28.09 14.04,-8.43 56.17,-26.21 61.79,-27.15 5.62,-0.94 40.26,7.49 40.26,7.49 0,0 -9.37,-21.53 -19.66,-28.08 -10.29,-6.55 -36.51,7.49 -64.59,14.04 -28.09,6.55 -108.61,43.07 -151.67,47.75 -43.06,4.68 -101.1,-15.92 -111.4,-25.29 -10.3,-9.36 -32.77,-44.94 -32.77,-44.94 0,0 -6.56,-10.29 8.42,-22.46 14.98,-12.17 42.13,-23.4 66.47,-29.96 24.34,-6.56 61.79,-14.99 88.94,-15.92 27.15,-0.93 92.69,21.53 103.92,30.9 11.23,9.36 44,30.9 56.17,30.9 12.17,0 19.86,11.65 28.19,13.32 8.32,1.67 26.11,-4.89 17.68,-16.13 -8.42,-11.23 -33.7,-17.79 -52.42,-23.4 -18.73,-5.61 -42.13,-20.6 -73.03,-30.9 -30.9,-10.29 -71.15,-22.46 -97.37,-20.59 -26.21,1.87 -46.81,-13.11 -46.81,-13.11 0,0 59.91,-3.74 95.49,-1.87 35.58,1.87 73.96,20.58 90.82,30.89 16.85,10.3 38.39,20.59 51.49,24.34 13.11,3.75 0.93,-10.3 0.93,-10.3z"/>
  <path class="fil14" d="M1844.68 1588.15c0,0 -61.78,-41.19 -114.21,-53.36 -52.43,-12.17 -113.28,-6.55 -134.81,0.94 -21.53,7.49 -88.01,13.11 -97.37,21.53 -9.36,8.42 -40.25,56.17 -41.19,62.72 -2.37,16.52 55.55,80.2 48.68,22.46 0,0 -6.56,-10.29 8.42,-22.46 14.98,-12.17 42.13,-23.4 66.47,-29.96 24.34,-6.56 61.79,-14.99 88.94,-15.92 27.15,-0.93 92.69,21.53 103.92,30.9 11.23,9.36 44,30.9 56.17,30.9 12.17,0 19.86,11.65 28.19,13.32 8.32,1.67 26.11,-4.89 17.68,-16.13 -8.42,-11.23 -33.7,-17.79 -52.42,-23.4 -18.73,-5.61 -42.13,-20.6 -73.03,-30.9 -30.9,-10.29 -71.15,-22.46 -97.37,-20.59 -26.21,1.87 -46.81,-13.11 -46.81,-13.11 0,0 59.91,-3.74 95.49,-1.87 35.58,1.87 73.96,20.58 90.82,30.89 16.85,10.3 38.39,20.59 51.49,24.34 13.11,3.75 0.93,-10.3 0.93,-10.3z"/>
  <path class="fil14" d="M1711.34 1581.37c6.78,11.21 10.66,24.17 10.66,37.98 0,42.63 -36.93,77.19 -82.49,77.19 -45.57,0 -82.5,-34.56 -82.5,-77.19 0,-8.59 1.5,-16.86 4.27,-24.58 4.62,-1.5 9.23,-2.88 13.76,-4.1 25.32,-6.82 64.26,-15.59 92.5,-16.56 10.65,-0.36 26.98,2.73 43.81,7.26z"/>
  <path class="fil17" d="M1712.44 1580.61c6.08,10.05 9.55,21.66 9.55,34.04 0,38.21 -33.1,69.18 -73.93,69.18 -40.84,0 -73.94,-30.97 -73.94,-69.18 0,-7.7 1.34,-15.11 3.83,-22.03 4.14,-1.35 8.27,-2.58 12.33,-3.67 22.69,-6.11 57.59,-13.97 82.9,-14.84 9.54,-0.33 24.18,2.45 39.27,6.5z"/>
  <ellipse class="fil16" cx="1683.46" cy="1600.99" rx="30.24" ry="10.17"/>
  <path class="fil18" d="M1650.37 1606.19c5.79,0 10.49,4.42 10.49,9.88 0,5 -3.94,9.13 -9.05,9.79 -2.24,5.14 -10.71,8.98 -20.81,8.98 -11.82,0 -21.39,-5.24 -21.39,-11.7 0,-6.46 9.57,-11.7 21.39,-11.7 3.42,0 6.65,0.44 9.52,1.22 1.48,-3.78 5.32,-6.47 9.85,-6.47z"/>
  <path class="fil25" d="M2439.87 2368.42c-21.37,28.5 -41.49,70.22 -69.16,94.44 -65.22,57.06 -111.99,86.42 -198.02,92.05 -28.71,1.87 -65.93,7.06 -104.18,1.82 -45.3,-6.21 -112.28,-31.36 -154.56,-73.65 -18.53,-18.53 -41.91,-40.3 -61.85,-53.13 -19.94,-12.82 -27.9,1.24 9.16,-0.19 37.05,-1.42 174.31,-60.74 218,-34.4 43.7,26.34 80.49,14.05 94.74,7.27 14.25,-6.78 34.21,-25.65 75.53,-25.65 41.33,0 112.7,6.64 126.67,5.54 13.97,-1.11 63.67,-14.1 63.67,-14.1z"/>
  <path class="fil20" d="M2007.74 2104.08c4.49,4.9 30.61,16.32 38.37,26.93 7.75,10.61 15.27,28.18 -3.27,30.2 -18.53,2.02 -28.56,-8.16 -45.7,-19.59 -17.14,-11.43 -27.33,-29.39 -20.4,-41.22 6.93,-11.83 31.01,3.67 31.01,3.67z"/>
  <path class="fil14" d="M2598.89 1555.55c-5.37,7.51 -54.75,82.65 -97.68,100.9 -42.93,18.25 -88.01,5.36 -118.07,6.44 -30.06,1.08 -74.06,-10.74 -82.65,-22.54 -8.59,-11.8 -13.95,-16.1 -36.49,-18.25 -22.54,-2.14 -40.15,13.79 -3.25,-33.1 36.9,-46.9 54.15,-57.54 70.1,-64.05 13.53,-10.51 23.87,-12.66 30.93,-15.87 7.06,-3.2 49.51,-16.22 84.41,-22.72 34.89,-6.5 66.55,-12.18 74.66,-12.99 8.11,-0.81 43.84,24.36 53.57,29.22 9.73,4.86 45.45,24.34 68.98,24.34 23.53,0 -33.27,19.48 -63.3,6.49 -30.03,-12.98 -68.17,-34.08 -88.46,-34.08 -20.29,0 -110.25,22.26 -120.92,27.59 -44.43,22.22 -56.3,40.5 -90.05,76.25 0,0 3.73,11.41 15.54,17.85 11.81,6.44 93.39,26.83 111.63,27.9 18.25,1.08 55.81,-12.88 85.87,-22.54 30.05,-9.66 59.04,-55.81 68.7,-65.47 9.66,-9.67 36.5,-5.37 36.5,-5.37z"/>
  <path class="fil26" d="M2598.89 1555.55c-5.37,7.51 -54.75,82.65 -97.68,100.9 -42.93,18.25 -88.01,5.36 -118.07,6.44 -30.06,1.08 -83.09,-3.85 -88.79,-19.23 -5.7,-15.38 -33.99,1.61 -46.41,-17.31 -6.97,-10.62 25.65,-15.07 48.25,-5.32 12.35,5.32 93.39,26.83 111.63,27.9 18.25,1.08 55.81,-12.88 85.87,-22.54 30.05,-9.66 59.04,-55.81 68.7,-65.47 9.66,-9.67 36.5,-5.37 36.5,-5.37z"/>
  <path class="fil27" d="M2309.03 1593.06c-4.25,-5.19 -7.55,-5.19 -18.88,3.77 -11.32,8.97 -19.81,19.82 -19.81,24.06 0,4.25 7.07,5.2 29.25,6.61 22.18,1.42 34.93,-1.42 35.86,-13.22 0.94,-11.79 -6.14,-19.82 -13.22,-15.57 -7.07,4.25 -13.21,-5.66 -13.21,-5.66z"/>
  <path class="fil28" d="M2384.33 1677.8c-45.23,-12.57 -60.3,-2.51 -71.61,-8.79 -11.31,-6.29 -30.16,6.28 -23.87,16.33 6.29,10.05 54.03,27.64 87.95,33.92 33.92,6.28 75.37,-2.52 89.2,-17.59 13.82,-15.07 0.01,-28.89 -22.61,-37.69 -22.62,-8.79 -59.05,13.82 -59.05,13.82z"/>
  <path class="fil29" d="M2071.92 1640.58c-23.12,-57.79 -21.22,-75.15 -28.92,-28.92 -24.44,146.7 32.98,308.14 30.83,327.51 -3.85,34.68 -19.27,65.5 11.56,96.32 30.83,30.83 84.77,53.94 88.62,3.85 3.86,-50.09 20.35,-40.4 -15.1,-68.27 -110.81,-87.07 -74.48,-238.58 -86.99,-330.5z"/>
  <path class="fil30" d="M1865.73 1588.8c0,0 34.82,15.95 49.32,33.36 14.5,17.41 14.5,30.46 7.25,46.42 -7.25,15.95 -21.76,37.7 -21.76,37.7 0,0 -5.8,-42.05 -20.31,-62.36 -14.5,-20.31 -14.5,-55.12 -14.5,-55.12z"/>
  <path class="fil31" d="M1848.37 2411.1c0,0 38.91,6.74 102.35,-11.63 63.44,-18.37 109.23,-35.75 127.77,-29.58 33.26,11.07 40.49,28.55 74.52,28.83 12.8,0.11 22.09,-5.01 50.14,-30.17 21.42,-19.21 112.8,0.11 155.83,4.3 43.04,4.19 91.38,-15.44 91.38,-15.44 -144.63,152.22 -185.07,175.07 -301.75,181.43 -89.24,4.86 -173.02,-9.99 -204.96,-45.85 -26.69,-29.96 -100.23,-82.61 -95.29,-81.89z"/>
  <path class="fil32" d="M2065.22 2463.34c0.22,-5.21 -6.23,14.16 10.54,24.8 16.77,10.64 28.93,14.04 47.76,6.72 18.83,-7.32 25.97,-2.87 44.28,-4.56 18.3,-1.7 69.16,-7.92 93.09,-25.34 23.93,-17.42 74.96,-41.78 77.53,-49.09 2.57,-7.32 -31.58,-2.44 -61.23,7.39 -29.65,9.82 -129.87,35.5 -160.43,35.52 -30.57,0.02 -51.53,4.58 -51.53,4.58z"/>
  <path class="fil33" d="M2075.81 2428.66c21.15,8.38 60.75,30.22 79.24,25.1 57.4,-15.87 54.5,-31.55 131.54,-41.57 25.26,-3.29 64.01,-6.87 84.54,-19.76 25.83,-16.22 65.22,-29.76 96.6,-50.17 0,0 20.48,14.03 -24.92,34.22 -45.39,20.19 -53.11,23 -80.89,35.63 -27.78,12.63 -67.33,10.94 -114.03,23.56 -46.7,12.63 -64.27,28.37 -87.94,34.48 -23.66,6.11 -58.71,-12.45 -82.1,-25.48 -23.38,-13.03 -105.45,1.97 -138.63,2.29 -14.52,0.14 -70.36,-7.14 -100.47,-19.08 -49.29,-19.54 -72.96,-35.91 -31.53,-35.91 7.88,0 55.36,28.15 120.39,37.58 35.5,5.15 127.05,-9.26 148.2,-0.88z"/>
 </g>
</svg>
