<?xml version="1.0" encoding="UTF-8"?>
<!DOCTYPE svg PUBLIC "-//W3C//DTD SVG 1.1//EN" "http://www.w3.org/Graphics/SVG/1.1/DTD/svg11.dtd">
<!-- Creator: CorelDRAW 2021.5 -->
<svg xmlns="http://www.w3.org/2000/svg" xml:space="preserve" width="132.973mm" height="132.973mm" version="1.1" style="shape-rendering:geometricPrecision; text-rendering:geometricPrecision; image-rendering:optimizeQuality; fill-rule:evenodd; clip-rule:evenodd"
viewBox="0 0 897.94 897.94"
 xmlns:xlink="http://www.w3.org/1999/xlink"
 xmlns:xodm="http://www.corel.com/coreldraw/odm/2003">
 <defs>
  <style type="text/css">
   <![CDATA[
    .fil24 {fill:#FEFEFE}
    .fil6 {fill:#A2D9F7}
    .fil5 {fill:#5B7674}
    .fil7 {fill:#5CA595}
    .fil4 {fill:#4D897C}
    .fil11 {fill:#180D0E}
    .fil15 {fill:#270F07}
    .fil10 {fill:#4D3224}
    .fil14 {fill:#50322A}
    .fil18 {fill:#5A1700}
    .fil0 {fill:#67E6BC}
    .fil30 {fill:#7E2924}
    .fil16 {fill:#81523B}
    .fil2 {fill:#8F673C}
    .fil21 {fill:#9C5C46}
    .fil22 {fill:#A45A41}
    .fil17 {fill:#B07D46}
    .fil19 {fill:#BA7758}
    .fil23 {fill:#C4745A}
    .fil20 {fill:#C9BCB7}
    .fil9 {fill:#CC8D4A}
    .fil3 {fill:#D0914F}
    .fil27 {fill:#D09278}
    .fil28 {fill:#DB8878}
    .fil8 {fill:#E0AA62}
    .fil25 {fill:#E8BE8A}
    .fil13 {fill:#E8DFD6}
    .fil12 {fill:#EDA253}
    .fil1 {fill:#F0B669}
    .fil29 {fill:#FEB392}
    .fil26 {fill:#FFDABA}
   ]]>
  </style>
 </defs>
 <g id="Plan_x0020_1">
  <metadata id="CorelCorpID_0Corel-Layer"/>
  <circle class="fil0" cx="448.97" cy="448.97" r="448.97"/>
  <path class="fil1" d="M619.84 215.86c0,23.76 -1.98,44.55 1.98,61.37 3.96,16.83 15.84,43.55 19.8,58.4 3.96,14.85 7.92,25.74 6.93,77.21 -0.99,51.47 1.96,73.08 -2.53,97.03 -4.49,23.95 -19.46,55.39 -39.67,79.34 -20.21,23.95 -31.44,26.2 -42.66,35.18 -11.23,8.98 -30.69,26.2 -53.14,31.44 -22.46,5.24 -59.13,-4.49 -74.85,-11.23 -15.72,-6.74 -49.4,-44.91 -56.89,-51.65 -7.48,-6.74 -16.47,-26.94 -22.46,-62.87 -5.99,-35.93 -14.22,-81.58 -14.22,-109.28 0,-27.7 -11.98,-41.17 -11.98,-41.17 0,0 0.75,-34.43 14.22,-69.61 13.47,-35.18 32.74,-129.64 89.92,-146.94 57.18,-17.3 55.23,14 79.18,-9.14 -6.14,23.39 -3.43,-4.63 5.18,1.39 8.61,6.02 12.91,5.17 48.21,18.94 35.29,13.77 52.99,41.58 52.99,41.58z"/>
  <path class="fil1" d="M594.63 601.78c0,0 -2.95,47.21 -2.3,64.14 0.65,16.93 -1.3,42.31 -1.95,50.13 -0.65,7.81 -0.65,41.01 -0.65,41.01 0,0 -22.13,-12.37 -46.87,-27.99 -24.74,-15.62 -62.49,-29.29 -80.07,-48.82 -9.58,-10.64 -18.58,-24.38 -24.78,-34.68 16.77,6.65 51.12,15.27 72.53,10.27 22.46,-5.24 41.92,-22.46 53.14,-31.44 8.85,-7.08 17.7,-9.98 30.95,-22.62l0 0z"/>
  <path class="fil2" d="M594.63 601.78c-3.08,49.26 0.29,9.21 -1.58,23.38 -4.57,9.48 -19.26,8.78 -31.3,15.06 -41.13,21.46 -67.02,32.12 -123.75,5.35 16.77,6.65 51.12,15.27 72.53,10.27 22.46,-5.24 41.92,-22.46 53.14,-31.44 8.85,-7.08 17.7,-9.98 30.95,-22.62l0 0z"/>
  <path class="fil3" d="M592.45 675.84c9.84,13.23 14.91,21.4 19.98,39.3 7.38,26.09 24.86,73.67 24.86,73.67 0,0 -36.55,-25.45 -47.57,-31.75 0,0 0,-33.2 0.65,-41.01 0.53,-6.39 1.94,-24.55 2.07,-40.21z"/>
  <path class="fil4" d="M514.11 147.11c0.64,-1.23 1.29,-2.5 1.95,-3.82 0,0 -1.53,1.53 -1.95,3.82zm-1.35 9.43c12.8,-25.79 8.12,-68.65 5.85,-81.17 -2.28,-12.53 -13.67,-38.72 -53.52,-38.72 -39.86,0 -130.96,5.69 -186.76,56.94 -55.8,51.25 -123.13,193.52 -130.66,354.66 -10.13,216.89 -25.61,280.01 156.79,425.92 45.35,15.41 93.96,23.77 144.52,23.77 73.1,0 142.11,-17.48 203.11,-48.48 -2.62,-28.87 -14.78,-60.65 -14.78,-60.65 0,0 -36.55,-25.45 -47.57,-31.75 0,0 -22.13,-12.37 -46.87,-27.99 -24.74,-15.62 -62.49,-29.29 -80.07,-48.82 -9.58,-10.64 -18.58,-24.38 -24.78,-34.68 -0.82,-0.32 -1.59,-0.64 -2.32,-0.95 -15.72,-6.74 -49.4,-44.91 -56.89,-51.65 -7.48,-6.74 -16.47,-26.94 -22.46,-62.87 -5.99,-35.93 -14.22,-81.58 -14.22,-109.28 0,-27.7 -11.98,-41.17 -11.98,-41.17 0,0 0.75,-34.43 14.22,-69.61 13.47,-35.18 30.53,-122.84 89.92,-146.94 59.39,-24.1 54.69,12.86 78.48,-6.55zm78.44 548.65l-0 -0 -0 0.07 0 -0.07zm-99.65 -47.95c-0.71,-0.03 -1.42,-0.07 -2.14,-0.11 0.72,0.05 1.43,0.08 2.14,0.11zm-22.88 -2.9l-2.29 -0.47c0.76,0.16 1.52,0.32 2.29,0.47z"/>
  <path class="fil5" d="M327.22 129.21c-31.89,45.56 -47.83,99.09 -55.81,150.34 -7.97,51.25 -4.56,128.7 -1.14,150.34 3.42,21.64 18.22,71.75 34.17,111.61 15.95,39.86 30.75,91.11 30.75,91.11 0,0 6.66,-72.48 11.39,-102.5 1.02,-6.48 3.09,-14.94 5.66,-24.4 -5.07,-30.45 -10.13,-63.19 -10.13,-84.9 0,-27.7 -11.98,-41.17 -11.98,-41.17 0,0 0.75,-34.43 14.22,-69.61 11.54,-30.12 25.7,-98.72 66.82,-132.95 -12.33,-3.36 -28.94,-1.02 -41.82,11.35 -28.47,27.33 -52.39,62.64 -66.06,124.14 -13.67,61.5 -0,104.78 -2.28,118.45 -2.28,13.67 -11.39,28.47 -11.39,28.47 0,0 5.63,10.68 -6.83,-80.86 -12.46,-91.54 44.42,-249.42 44.42,-249.42zm-143.12 529.38c0,-16.48 -5.99,-49.44 -1.5,-80.9 4.49,-31.46 1.5,32.21 9.74,71.91 8.24,39.7 23.22,56.18 23.22,56.18 0,0 -4.5,-50.19 -5.24,-65.17 -0.75,-14.98 0,-23.22 0,-23.22 0,0 2.25,37.45 14.23,68.17 11.98,30.71 22.47,59.93 30.71,65.17 8.24,5.24 0,-49.44 1.5,-56.93 1.5,-7.49 6.74,-17.23 6.74,-17.23l17.95 42.54c3.3,23.81 7.36,45.22 11.82,54.15 5.48,10.96 21.66,32.8 35.02,50.13 0,0 -20.44,-17.21 -67.82,-47.37 -47.38,-30.15 -76.37,-117.43 -76.37,-117.43zm289.15 -612.25c0,0 -23.25,-9.47 -43.92,-2.58 -20.67,6.89 19.81,6.03 31,16.36 11.2,10.33 12.06,12.06 -12.06,21.53 -24.11,9.47 -50.81,19.8 -58.56,29.28 -7.75,9.47 -38.75,42.2 -38.75,42.2 0,0 23.25,-24.11 46.5,-30.14 23.25,-6.03 18.95,2.58 11.2,13.78 -7.75,11.2 -9.47,21.53 -9.47,21.53 0,0 11.19,-19.81 37.03,-26.7 25.84,-6.89 33.59,8.61 51.67,-4.3 18.09,-12.92 21.28,-42.59 22.39,-55.98 1.11,-13.39 -37.03,-24.97 -37.03,-24.97zm69.3 118.93c0.51,0.14 5.82,1.08 1.71,-23.56 -4.31,-25.85 -4.97,-35.18 -14.65,-47.39 -9.68,-12.2 -5.17,-37.91 -5.17,-37.91 0,0 35.33,62.04 42.22,72.38 6.89,10.34 17.23,15.51 35.33,27.57 18.09,12.06 24.12,-6.89 30.16,-1.72 6.03,5.17 33.6,49.11 37.05,73.24 3.45,24.12 30.16,141.3 27.57,170.6 -2.58,29.29 -8.96,65.24 -6.98,116.76 1.98,51.53 13.87,114.94 20.81,142.69 6.94,27.75 19.82,4.95 16.84,-4.96 -2.97,-9.91 14.86,-42.61 14.86,-42.61 0,0 17.08,66.57 10.9,84.22 -3.99,11.4 2.99,47.47 5.82,79.06 -33.99,32.47 -73.06,59.66 -115.91,80.24 -14.24,-11.57 -42.46,-35.91 -45.78,-49.73 -4.46,-18.59 -31.14,-44.93 -45.85,-69.69 21.03,12.99 38.24,22.6 38.24,22.6 11.01,6.3 47.57,31.75 47.57,31.75 0,0 -17.48,-47.58 -24.86,-73.67 -5.07,-17.91 -10.14,-26.07 -19.98,-39.3l0 -0c0.03,-3.48 -0,-6.84 -0.12,-9.92 -0.65,-16.93 2.3,-64.14 2.3,-64.14l-0 -0c3.56,-3.39 7.43,-7.49 11.71,-12.56 20.21,-23.95 35.18,-55.39 39.67,-79.34 4.49,-23.95 1.54,-45.56 2.53,-97.03 0.99,-51.48 -2.97,-62.36 -6.93,-77.21 -3.96,-14.85 -15.84,-41.58 -19.8,-58.4 -3.96,-16.83 -1.98,-37.62 -1.98,-61.37 0,0 -17.7,-27.81 -52.99,-41.58 -10.56,-4.12 -18.34,-6.93 -24.3,-9.01z"/>
  <path class="fil6" d="M246.73 379.07c0,0 1.98,55.46 10.89,104.98 8.91,49.52 13.87,122.81 15.85,155.49 1.98,32.68 9.9,113.9 19.81,133.71 9.9,19.81 54.75,75.15 54.75,75.15 0,0 -19.74,-41.66 -31.06,-75.07 -11.33,-33.41 -20.39,-72.49 -20.39,-91.74 0,-19.25 -0.57,-44.17 -0.57,-44.17 0,0 3.4,48.7 11.89,75.32 8.49,26.62 23.78,67.96 29.45,77.58 5.66,9.63 21.52,30.01 21.52,30.01 0,0 -26.05,-59.46 -34.54,-85.51 -8.49,-26.05 -15.85,-52.1 -11.89,-64.56 3.96,-12.46 -2.27,-32.84 -3.97,-49.27 -1.7,-16.42 -4.53,-31.71 -4.53,-31.71 0,0 13.59,33.41 17.56,51.53 3.96,18.12 15.29,78.72 19.82,96.27 4.53,17.55 20.95,65.69 26.05,74.19 5.1,8.49 10.81,14.67 10.81,14.67 0,0 -5.1,-14.16 -16.43,-51.54 -11.33,-37.38 -12.46,-67.4 -15.86,-79.29 -3.4,-11.89 5.68,-84.6 4.18,-96.59 -0.45,-3.61 -3.99,-13.16 -8.91,-25.14 -3.22,29.34 -5.96,59.22 -5.96,59.22 0,0 -14.8,-51.25 -30.75,-91.11 -15.94,-39.86 -30.75,-89.97 -34.17,-111.61 -1.47,-9.3 -2.94,-28.92 -3.5,-52.34l-0 -0.19 0 -0.07c-0.74,-31 0.11,-68.6 4.65,-97.73l-24.69 99.53zm44.15 78.3l-0.04 -0.11c-0.27,3.97 -1.19,2.23 -1.19,2.23 0,0 0.48,-0.77 1.23,-2.12z"/>
  <path class="fil7" d="M516.06 143.29c12.8,-25.79 4.83,-55.4 2.55,-67.93 -1.17,-6.45 -4.76,-16.53 -13.42,-24.79 4.47,-7.44 12.75,-9.49 12.75,-9.49 0,0 9.12,-11.39 62.68,42.17 53.56,53.56 77.5,51.29 101.43,142.46 23.93,91.17 46.12,236.78 59.23,278.72 13.11,41.94 14.39,147.4 13.15,168.77l0 0.01c-2.06,-26.49 -12.14,-62.86 -12.14,-62.86 0,0 -17.83,32.7 -14.86,42.61 2.97,9.91 -9.91,32.7 -16.84,4.96 -6.94,-27.74 -18.83,-91.16 -20.81,-142.69 -1.98,-51.53 4.39,-87.47 6.98,-116.76 2.58,-29.29 -24.12,-146.47 -27.57,-170.6 -3.45,-24.12 -31.02,-68.07 -37.05,-73.24 -6.03,-5.17 -12.06,13.79 -30.16,1.72 -18.09,-12.06 -28.43,-17.23 -35.33,-27.57 -6.89,-10.34 -42.22,-72.38 -42.22,-72.38 0,0 -4.51,25.71 5.17,37.91 9.68,12.2 10.34,21.54 14.65,47.39 4.11,24.64 -1.2,23.71 -1.71,23.56 -2.07,-0.73 -9.4,0.94 -11.07,0.38 -18.78,-3.07 -32.65,-33.2 -15.42,-22.36z"/>
  <path class="fil8" d="M518.64 155.34c-18.49,18.39 -71.33,98.39 -70.69,126.76 0.64,28.37 -1.17,20.23 4.87,25.4 6.04,5.18 12.42,23.56 53.43,19.3 41.01,-4.26 22.47,17.53 22.47,17.53l-17.72 18.74 -7.45 16.53c0,0 3.4,18.16 8.51,24.4 5.11,6.24 -16.92,8.76 -22.65,-3.85 -5.72,-12.61 -7.43,-26.79 -13.67,-31.9 -6.24,-5.11 -18.52,-8.48 -16.27,7.28 2.25,15.76 -2.89,40.39 -4.07,51.71 -1.18,11.32 -6.84,30.55 -13.25,34.99 -6.41,4.44 -14.31,13.32 -15.3,20.23 -0.99,6.91 4.24,4.46 6.19,5.75 1.95,1.3 13.63,-5.52 17.2,-10.71 3.57,-5.19 5.19,-2.27 12.98,0.65 7.79,2.92 18.17,6.16 25.96,4.22 7.79,-1.95 11.68,-8.44 17.2,-12.01 5.52,-3.57 5.84,-1.62 6.81,2.6 0.97,4.22 -2.27,12.01 -2.27,12.01 0,0 7.14,-0.97 16.87,-0.97 9.73,0 12.01,-5.84 9.09,-12.65 -2.92,-6.82 -17.2,-22.71 -17.2,-22.71 0,0 -7.46,-12.33 4.87,-2.6 12.33,9.73 17.52,22.06 21.74,25.96 4.22,3.89 16.17,18.32 35.68,16.81 19.51,-1.5 44.69,-26.25 55.54,-33.77 3.29,-2.28 7.15,0.43 10.98,5.5l0.01 0.87 0 0.09 0.01 0.95 0 0.5 0 0.45 0.01 0.93 0 0.13 0.01 0.79 0.01 0.7 0.01 1.13 0 0.34 0 0.56 0.01 1.77 0 0.54 0 0.34 0 0.87 0 0.2 0 0.66 0 0.72 0 0.13 0 0.84 0 0.84 -0 0.83 0 0.07 -0 0.75 -0 0.57 -0 0.24 -0.01 0.81 -0 0.26 -0.01 0.54 -0.01 0.75 -0 0.05 -0.01 0.79 -0 0.44 -0.01 0.35 -0.01 0.78 -0 0.14 -0.01 0.64 -0.01 0.61 -0 0.16 -0.02 0.76 -0.01 0.31 -0.01 0.45 -0.02 0.75 0 0.02 -0.02 0.73 -0.02 0.48 -0.01 0.26 -0.03 0.74 -0.01 0.19 -0.02 0.54 -0.03 0.64 -0.01 0.09 -0.04 0.73 -0.02 0.36 -0.02 0.36 -0.04 0.72 -0 0.08 -0.04 0.63 -0.03 0.52 -0.01 0.19 -0.05 0.71 -0.02 0.25 -0.03 0.46 -0.05 0.69 -0 0.02 -0.06 0.7 -0.03 0.41 -0.03 0.29 -0.06 0.7 -0.01 0.14 -0.09 0.9 -0.02 0.23 -0.01 0.12 -0.07 0.69 -0.03 0.3 -0.04 0.39 -0.08 0.69 -0 0.04 -0.08 0.65 -0.06 0.47 -0.03 0.22 -0.09 0.69 -0.03 0.2 -0.07 0.49 -0.09 0.63 -0.01 0.06 -0.1 0.69 -0.05 0.37 -0.05 0.32 -0.11 0.69 -0.02 0.1 -0.09 0.59 -0.09 0.53 -0.03 0.16 -0.12 0.69 -0.05 0.26 -0.08 0.43 -0.13 0.69c-4.49,23.95 -27.43,64.83 -39.67,79.34 -13.79,16.34 -48.71,39.64 -67.52,53.94 -24.85,18.88 -46.5,16.05 -72.46,10.72 0,0 -16.62,-7.46 24.51,-13.98 41.13,-6.53 62.02,-23.5 69.2,-31.33 7.18,-7.83 20.24,-36.56 26.77,-46.35 6.53,-9.79 5.44,-14.03 3.82,-15.98 -1.62,-1.95 -5.84,-3.25 -14.28,2.6 -8.44,5.84 -24.67,18.83 -28.56,22.07 -3.89,3.25 -23.69,14.28 -32.13,16.88 -8.44,2.6 -16.88,-0.97 -31.81,2.27 -14.93,3.25 -24.99,1.95 -32.46,0.33 -7.47,-1.62 -14.61,-11.04 -17.2,-14.28 -2.6,-3.25 -13.63,-7.79 -13.63,-7.79 0,0 -6.13,0.15 -10.61,-3.96 -4.48,-4.11 -22.02,-17.17 -6.72,-14.93 15.3,2.24 27.25,1.87 41.43,-2.24 14.18,-4.11 25.76,-7.84 31.73,-5.6 5.97,2.24 13.44,5.22 16.8,7.09 3.36,1.87 8.96,-2.98 12.32,-5.6 3.36,-2.61 13.44,-2.61 23.89,-1.49 10.45,1.12 20.9,0 26.5,-1.87 5.6,-1.87 13.44,-4.11 13.44,-4.11 0,0 -4.48,-4.11 -8.21,-7.09 -3.73,-2.99 1.98,-11.09 1.98,-11.09 0,0 -0.57,-8.51 -5.11,-15.33 -4.54,-6.81 -13.06,-14.76 -13.06,-14.76 0,0 -4.54,5.11 -7.95,9.08 -3.41,3.97 -6.44,7.85 -9.05,10.46 -2.61,2.61 -2.99,10.08 -4.85,13.44 -1.87,3.36 -10.08,8.21 -14.56,11.2 -4.48,2.99 -10.08,6.35 -19.04,1.87 -8.96,-4.48 -17.17,-12.69 -23.52,-13.44 -6.35,-0.75 -14.93,4.48 -14.93,4.48 0,0 -9.7,-2.61 -13.81,-7.09 -4.11,-4.48 -3.73,-15.3 -3.73,-15.3 0,0 -0.75,-4.48 -4.48,-4.48 -3.73,0 -9.74,4.33 -10.08,7.84 -0.99,10.25 -10.09,13.94 -9.97,-1.57 0.09,-12.49 3.41,-25.55 11.36,-37.48 7.95,-11.92 19.31,-22.15 19.31,-22.15 0,0 11.48,-14.03 13.2,-30.77 1.72,-16.74 -0.86,-27.48 -1.72,-30.48 -0.86,-3 -9.87,27.48 -13.74,33.92 -3.87,6.44 -23.19,26.19 -28.34,36.07 -5.15,9.88 -14.17,20.61 -14.17,20.61 0,0 -5.82,24.9 -7.32,38.41 -1.5,13.52 -14.27,56.32 -14.27,56.32 0,0 -4.21,-1.14 -9.42,-5.01 -2.76,-9.03 -5.35,-20.05 -7.53,-33.16 -5.99,-35.93 -14.22,-81.58 -14.22,-109.28 0,-27.7 -11.98,-41.17 -11.98,-41.17 0,0 0.75,-34.43 14.22,-69.61 13.47,-35.18 28.61,-111.11 76.71,-140.16 48.09,-29.05 66.46,-2.36 76.18,-7.02 6.16,6.09 21.39,-7.51 21.39,-7.51z"/>
  <path class="fil9" d="M425.25 341.86c11.6,8.16 24.49,12.03 26.64,17.62 2.15,5.58 -7.26,19.01 -9.02,28.35 -5.47,29.01 -21.06,22.09 -18.47,16.75 1.89,-3.9 10.31,-10.74 9.02,-16.33 -1.29,-5.59 -14.61,10.74 -31.36,17.19 -16.75,6.44 -30.5,9.45 -41.67,10.31 -5.7,0.44 -12.62,-1.02 -18.61,-3.02 -1.98,-22.25 -11.62,-33.11 -11.62,-33.11 0,0 0.37,-17.15 5.33,-39.61 7.37,-4.07 20.03,-7.04 41.01,-8.13 33.44,-1.74 48.77,9.96 48.77,9.96z"/>
  <path class="fil10" d="M340.72 320.46c0,0 38.89,-2.79 56.4,3.92 17.52,6.71 22.36,11.55 18.64,16.4 -3.73,4.84 -7.08,3.35 -22.36,0.37 -15.28,-2.98 -29.16,-5.07 -43.23,-4.47 -6.22,0.26 -10.87,0.58 -14.13,0.86 1.27,-5.47 2.81,-11.21 4.68,-17.08z"/>
  <path class="fil2" d="M648.61 409.18c7.18,-13.26 11.89,-30.38 14.89,-42.8 3,-12.41 0.43,-16.69 -1.71,-23.54 -2.14,-6.85 -1.42,0.23 -12.84,-9.85 -3.78,-3.34 -7.27,-5.49 -10.24,-6.67 1.17,3.42 2.18,6.57 2.91,9.32 3.86,14.49 7.73,25.21 6.99,73.54l0 0z"/>
  <path class="fil2" d="M670.42 342.17c0,0 -3.66,-9.29 -6.76,-21.67 -3.09,-12.39 -5.63,-17.73 -2.25,-21.67 3.38,-3.94 9.85,-5.91 13.23,0.56 3.38,6.47 -4.22,42.78 -4.22,42.78z"/>
  <path class="fil11" d="M511.01 363.08c0,0 8.1,-18.15 19.12,-23.34 11.02,-5.19 41.81,-11.67 46.02,-12.64 4.22,-0.97 17.18,5.51 17.18,5.51l11.34 5.19 6.54 2.83c0,0 -10.57,-0.37 -18.35,-3.15 -7.79,-2.78 -12.79,-5.38 -16.13,-5.19 -3.34,0.19 -31.33,5.93 -31.33,5.93 0,0 -14.27,4.26 -16.68,6.12 -2.41,1.85 -17.72,18.74 -17.72,18.74z"/>
  <path class="fil12" d="M505.38 372.24c-1.47,2.45 4.66,16.92 10.05,20.11 5.39,3.19 22.56,4.41 35.31,4.9 12.75,0.49 43.89,-3.19 52.47,-7.36 8.58,-4.17 13.97,-25.5 15.45,-30.89 1.47,-5.39 -9.25,-9.45 -13.65,-10.04l-0 0c1.1,0.8 -9.63,3.91 -15.65,1.3 -5.09,-2.2 -11.19,-5.42 -15.89,-6.93l-0 0c-2.15,-0.42 -11.81,0.72 -21.41,2.34 -4.84,1.19 -9.12,2.41 -10.52,3.11 -3.06,1.53 -12.52,4.47 -14.06,4.94 -7.32,6.06 -22.08,18.51 -22.08,18.51zm98.41 -23.45c-1.14,-0.18 -2.71,-0.44 -4.54,-0.75 1.6,0.46 3.16,0.75 4.54,0.75z"/>
  <path class="fil13" d="M520.95 366.2c0,0 12.11,-12.03 15.32,-16.76 3.21,-4.73 20.6,-5.21 28.89,-5.66 8.29,-0.45 12.79,1.21 16.31,2.86 3.52,1.65 7.88,3.63 7.88,3.63 0,0 -1.97,3.35 -4.76,7.09 -0.61,0.74 -1.39,1.76 -2.3,2.92l-0 0.01 -0.01 0.01c-3.73,4.46 -8.84,9.75 -16.48,12.46l-1.32 0.44 -0.02 0.01c-4.09,1.25 -8.86,2.56 -13.35,3.45 -0.4,0.02 -0.77,0.03 -1.11,0.01 -3.28,-0.19 -15.52,-3.12 -21.9,-5.07 -3.91,-2.72 -7.11,-5.35 -7.15,-5.38l-0 -0z"/>
  <path class="fil11" d="M567.65 341.93c2.65,3.11 4.24,7.08 4.24,11.41 0,9.93 -8.35,17.98 -18.65,17.98 -10.3,0 -18.65,-8.05 -18.65,-17.98 0,-0.77 0.05,-1.54 0.15,-2.29 2.55,-0.89 4.95,-1.79 6.28,-2.46 3.05,-1.53 17.91,-5.2 26.64,-6.67z"/>
  <path class="fil14" d="M563.79 341.93c2.34,2.74 3.74,6.25 3.74,10.08 0,8.77 -7.38,15.88 -16.48,15.88 -9.1,0 -16.48,-7.11 -16.48,-15.88 0,-0.68 0.05,-1.36 0.13,-2.02 2.26,-0.79 4.37,-1.58 5.55,-2.17 2.7,-1.35 15.82,-4.59 23.53,-5.89z"/>
  <path class="fil15" d="M551.74 350.82c1.32,0 2.4,1.01 2.4,2.26 0,1.14 -0.9,2.09 -2.07,2.24 -0.51,1.17 -2.45,2.05 -4.75,2.05 -2.7,0 -4.89,-1.2 -4.89,-2.67 0,-1.48 2.19,-2.67 4.89,-2.67 0.78,0 1.52,0.1 2.18,0.28 0.34,-0.86 1.22,-1.48 2.25,-1.48z"/>
  <ellipse class="fil13" cx="556.66" cy="348.56" rx="6.42" ry="2.44"/>
  <path class="fil16" d="M505.69 333.39c0,0 -4.93,-4.93 6.41,-10.84 11.33,-5.91 48.83,-21.84 58.15,-24.15 9.32,-2.31 29.07,3.45 34.99,6.41 5.92,2.96 13.31,10.84 13.31,10.84 0,0 -22.08,-8.67 -29.47,-8.18 -13.84,0.92 -52.21,21.6 -68.12,26.58 -7.88,2.46 -15.27,-0.66 -15.27,-0.66z"/>
  <path class="fil17" d="M505.2 489.93c5.82,-1.94 17.46,-0.55 19.96,0.83 2.49,1.39 3.33,2.5 -4.72,3.24 -7.86,1.23 -15.23,-0.74 -15.23,-0.74 0,0 -5.65,4.18 -8.84,6.88 -3.19,2.7 -15.48,9.09 -17.69,9.09 -2.21,0 -2.95,-3.68 -10.56,-2.46 -7.62,1.23 -16.46,4.91 -19.41,5.16 -2.95,0.25 -2.75,-6.06 -8.84,-5.4 -6.09,0.65 -6.32,-2.68 -6.32,-2.68 0,0 6.56,-10.83 16.14,-12.06 9.58,-1.23 20.64,6.64 24.32,8.36 3.68,1.72 9.83,2.7 16.95,-1.72 7.12,-4.42 14.25,-8.49 14.25,-8.49z"/>
  <path class="fil18" d="M456.72 500.3c-5.98,0 -10.71,-1.21 -11.15,-4.2 -0.43,-2.99 3.55,-5.49 6.62,-4.36 3.07,1.13 10.81,2.56 12.82,3.57 2.01,1.01 10.46,5.42 10.46,5.42l3.21 3.12 -21.97 -3.56z"/>
  <ellipse class="fil18" cx="515.4" cy="491.33" rx="9.46" ry="2.01"/>
  <path class="fil19" d="M578.5 520.89c3.2,0.69 7.39,4.85 7.31,10.43 -0.08,5.24 -1.08,8.85 -1.67,10.82 -0.22,0.73 0.17,0.84 0.85,0.29 2.48,-2.05 6.69,-6.74 7.67,-10.62 1.34,-5.38 -1.22,-10.39 -4.77,-11.24 -2.14,-0.52 -5.96,-0.65 -8.66,-0.72 -1.45,-0.04 -2.38,0.7 -0.73,1.05z"/>
  <path class="fil20" d="M421.28 374.91c0,0 -16.1,6.88 -24.94,10.31 -8.84,3.44 -22.39,5.15 -29.16,5.57 -6.77,0.42 -15.76,-4.66 -18.72,-8.95 -2.96,-4.29 -3.71,-10.72 -3.71,-10.72 0,0 4.72,-4.88 13.92,-7.23 9.2,-2.36 19.46,-7.52 27.2,-4.76 7.73,2.76 23.31,7.06 26.09,9.2 2.78,2.14 9.32,6.58 9.32,6.58z"/>
  <path class="fil21" d="M421.37 362.77c0,0 -14.11,-9.41 -26.09,-12.19 -11.98,-2.78 -25.87,-1.5 -30.79,0.21 -4.92,1.71 -20.1,2.99 -22.24,4.92 -2.14,1.92 -9.19,12.83 -9.41,14.33 -0.21,1.5 7.91,19.89 9.62,21.81 1.71,1.93 22.02,7.06 25.45,7.27 3.42,0.21 22.45,-3.21 24.59,-4.7 2.14,-1.5 11.76,-4.49 14.97,-6.42 3.21,-1.93 12.83,-5.99 14.11,-6.2 1.28,-0.21 9.2,1.71 9.2,1.71 0,0 -2.14,-4.92 -4.49,-6.42 -2.35,-1.5 -8.34,1.71 -14.75,3.21 -6.42,1.5 -24.81,9.84 -34.64,10.91 -9.84,1.07 -23.09,-3.64 -25.45,-5.78 -2.35,-2.14 -7.48,-10.26 -7.48,-10.26 0,0 -1.5,-2.35 1.92,-5.13 3.42,-2.78 9.62,-5.34 15.18,-6.84 5.56,-1.5 14.11,-3.42 20.32,-3.64 6.2,-0.21 21.17,4.92 23.74,7.06 2.57,2.14 10.05,7.06 12.83,7.06 2.78,0 4.54,2.66 6.44,3.04 1.9,0.38 5.96,-1.12 4.04,-3.68 -1.92,-2.57 -7.7,-4.06 -11.97,-5.35 -4.28,-1.28 -9.62,-4.71 -16.68,-7.06 -7.06,-2.35 -16.25,-5.13 -22.24,-4.7 -5.99,0.43 -10.69,-2.99 -10.69,-2.99 0,0 13.69,-0.85 21.81,-0.43 8.13,0.43 16.89,4.7 20.74,7.06 3.85,2.35 8.77,4.7 11.76,5.56 2.99,0.86 0.21,-2.35 0.21,-2.35z"/>
  <path class="fil11" d="M421.37 362.77c0,0 -14.11,-9.41 -26.09,-12.19 -11.98,-2.78 -25.87,-1.5 -30.79,0.21 -4.92,1.71 -20.1,2.99 -22.24,4.92 -2.14,1.92 -9.19,12.83 -9.41,14.33 -0.54,3.77 12.69,18.32 11.12,5.13 0,0 -1.5,-2.35 1.92,-5.13 3.42,-2.78 9.62,-5.34 15.18,-6.84 5.56,-1.5 14.11,-3.42 20.32,-3.64 6.2,-0.21 21.17,4.92 23.74,7.06 2.57,2.14 10.05,7.06 12.83,7.06 2.78,0 4.54,2.66 6.44,3.04 1.9,0.38 5.96,-1.12 4.04,-3.68 -1.92,-2.57 -7.7,-4.06 -11.97,-5.35 -4.28,-1.28 -9.62,-4.71 -16.68,-7.06 -7.06,-2.35 -16.25,-5.13 -22.24,-4.7 -5.99,0.43 -10.69,-2.99 -10.69,-2.99 0,0 13.69,-0.85 21.81,-0.43 8.13,0.43 16.89,4.7 20.74,7.06 3.85,2.35 8.77,4.7 11.76,5.56 2.99,0.86 0.21,-2.35 0.21,-2.35z"/>
  <path class="fil11" d="M390.91 361.22c1.55,2.56 2.43,5.52 2.43,8.67 0,9.74 -8.44,17.63 -18.84,17.63 -10.41,0 -18.84,-7.89 -18.84,-17.63 0,-1.96 0.34,-3.85 0.98,-5.61 1.05,-0.34 2.11,-0.66 3.14,-0.94 5.78,-1.56 14.68,-3.56 21.13,-3.78 2.43,-0.08 6.16,0.62 10.01,1.66z"/>
  <path class="fil14" d="M391.16 361.05c1.39,2.29 2.18,4.95 2.18,7.77 0,8.73 -7.56,15.8 -16.89,15.8 -9.33,0 -16.89,-7.07 -16.89,-15.8 0,-1.76 0.31,-3.45 0.87,-5.03 0.95,-0.31 1.89,-0.59 2.82,-0.84 5.18,-1.4 13.16,-3.19 18.94,-3.39 2.18,-0.07 5.52,0.56 8.97,1.49z"/>
  <ellipse class="fil13" cx="384.54" cy="365.7" rx="6.91" ry="2.32"/>
  <path class="fil15" d="M376.98 366.89c1.32,0 2.4,1.01 2.4,2.26 0,1.14 -0.9,2.09 -2.07,2.24 -0.51,1.17 -2.45,2.05 -4.75,2.05 -2.7,0 -4.89,-1.2 -4.89,-2.67 0,-1.48 2.19,-2.67 4.89,-2.67 0.78,0 1.52,0.1 2.18,0.28 0.34,-0.86 1.22,-1.48 2.25,-1.48z"/>
  <path class="fil22" d="M557.32 541c-4.88,6.51 -9.48,16.04 -15.8,21.57 -14.9,13.03 -25.58,19.74 -45.23,21.03 -6.56,0.43 -15.06,1.61 -23.8,0.42 -10.35,-1.42 -25.65,-7.16 -35.31,-16.82 -4.23,-4.23 -9.57,-9.21 -14.13,-12.14 -4.56,-2.93 -6.37,0.28 2.09,-0.04 8.46,-0.33 39.82,-13.87 49.8,-7.86 9.98,6.02 18.39,3.21 21.64,1.66 3.25,-1.55 7.81,-5.86 17.25,-5.86 9.44,0 25.74,1.52 28.93,1.26 3.19,-0.25 14.54,-3.22 14.54,-3.22z"/>
  <path class="fil17" d="M458.61 480.62c1.03,1.12 6.99,3.73 8.76,6.15 1.77,2.42 3.49,6.44 -0.75,6.9 -4.23,0.46 -6.52,-1.86 -10.44,-4.47 -3.92,-2.61 -6.24,-6.71 -4.66,-9.42 1.58,-2.7 7.08,0.84 7.08,0.84z"/>
  <path class="fil11" d="M593.64 355.32c-1.23,1.72 -12.51,18.88 -22.31,23.05 -9.81,4.17 -20.1,1.22 -26.97,1.47 -6.87,0.25 -16.92,-2.45 -18.88,-5.15 -1.96,-2.7 -3.19,-3.68 -8.34,-4.17 -5.15,-0.49 -9.17,3.15 -0.74,-7.56 8.43,-10.71 12.37,-13.14 16.01,-14.63 3.09,-2.4 5.45,-2.89 7.06,-3.62 1.61,-0.73 11.31,-3.71 19.28,-5.19 7.97,-1.48 15.2,-2.78 17.05,-2.97 1.85,-0.19 10.01,5.56 12.24,6.68 2.22,1.11 10.38,5.56 15.76,5.56 5.38,0 -7.6,4.45 -14.46,1.48 -6.86,-2.97 -15.57,-7.79 -20.21,-7.79 -4.64,0 -25.18,5.08 -27.62,6.3 -10.15,5.07 -12.86,9.25 -20.57,17.42 0,0 0.85,2.61 3.55,4.08 2.7,1.47 21.33,6.13 25.5,6.37 4.17,0.25 12.75,-2.94 19.61,-5.15 6.86,-2.21 13.49,-12.75 15.69,-14.96 2.21,-2.21 8.34,-1.23 8.34,-1.23z"/>
  <path class="fil23" d="M593.64 355.32c-1.23,1.72 -12.51,18.88 -22.31,23.05 -9.81,4.17 -20.1,1.22 -26.97,1.47 -6.87,0.25 -18.98,-0.88 -20.28,-4.39 -1.3,-3.51 -7.77,0.37 -10.6,-3.95 -1.59,-2.43 5.86,-3.44 11.02,-1.21 2.82,1.22 21.33,6.13 25.5,6.37 4.17,0.25 12.75,-2.94 19.61,-5.15 6.86,-2.21 13.49,-12.75 15.69,-14.96 2.21,-2.21 8.34,-1.23 8.34,-1.23z"/>
  <path class="fil24" d="M527.43 363.89c-0.97,-1.19 -1.72,-1.19 -4.31,0.86 -2.59,2.05 -4.53,4.53 -4.53,5.5 0,0.97 1.62,1.19 6.68,1.51 5.07,0.32 7.98,-0.33 8.19,-3.02 0.21,-2.69 -1.4,-4.53 -3.02,-3.56 -1.62,0.97 -3.02,-1.29 -3.02,-1.29z"/>
  <path class="fil25" d="M544.63 383.25c-10.33,-2.87 -13.77,-0.57 -16.36,-2.01 -2.58,-1.44 -6.89,1.43 -5.45,3.73 1.44,2.3 12.34,6.31 20.09,7.75 7.75,1.43 17.22,-0.57 20.37,-4.02 3.16,-3.44 0,-6.6 -5.16,-8.61 -5.17,-2.01 -13.49,3.16 -13.49,3.16z"/>
  <path class="fil26" d="M473.27 374.74c-5.28,-13.2 -4.85,-17.17 -6.61,-6.61 -5.58,33.51 7.53,70.39 7.04,74.81 -0.88,7.92 -4.4,14.96 2.64,22 7.04,7.04 19.36,12.32 20.24,0.88 0.88,-11.44 4.65,-9.23 -3.45,-15.59 -25.31,-19.89 -17.01,-54.5 -19.87,-75.49z"/>
  <path class="fil27" d="M426.17 362.92c0,0 7.95,3.64 11.26,7.62 3.31,3.98 3.31,6.96 1.66,10.6 -1.66,3.64 -4.97,8.61 -4.97,8.61 0,0 -1.32,-9.61 -4.64,-14.24 -3.31,-4.64 -3.31,-12.59 -3.31,-12.59z"/>
  <path class="fil28" d="M422.21 550.75c0,0 8.89,1.54 23.38,-2.66 14.49,-4.2 24.95,-8.17 29.19,-6.76 7.6,2.53 9.25,6.52 17.02,6.59 2.92,0.03 5.05,-1.15 11.45,-6.89 4.89,-4.39 25.77,0.03 35.6,0.98 9.83,0.96 20.87,-3.53 20.87,-3.53 -33.04,34.77 -42.27,39.99 -68.93,41.44 -20.38,1.11 -39.52,-2.28 -46.82,-10.47 -6.1,-6.84 -22.9,-18.87 -21.77,-18.71z"/>
  <path class="fil29" d="M471.74 562.68c0.05,-1.19 -1.42,3.23 2.41,5.66 3.83,2.43 6.61,3.21 10.91,1.54 4.3,-1.67 5.93,-0.66 10.11,-1.04 4.18,-0.39 15.8,-1.81 21.26,-5.79 5.47,-3.98 17.12,-9.54 17.71,-11.21 0.59,-1.67 -7.21,-0.56 -13.99,1.69 -6.77,2.24 -29.66,8.11 -36.65,8.11 -6.98,0.01 -11.77,1.05 -11.77,1.05z"/>
  <path class="fil30" d="M474.16 554.76c4.83,1.91 13.88,6.9 18.1,5.73 13.11,-3.62 12.45,-7.21 30.05,-9.5 5.77,-0.75 14.62,-1.57 19.31,-4.51 5.9,-3.71 14.9,-6.8 22.06,-11.46 0,0 4.68,3.21 -5.69,7.82 -10.37,4.61 -12.13,5.25 -18.48,8.14 -6.34,2.88 -15.38,2.5 -26.05,5.38 -10.67,2.88 -14.68,6.48 -20.09,7.88 -5.41,1.4 -13.41,-2.84 -18.75,-5.82 -5.34,-2.98 -24.09,0.45 -31.67,0.52 -3.32,0.03 -16.07,-1.63 -22.95,-4.36 -11.26,-4.46 -16.67,-8.2 -7.2,-8.2 1.8,0 12.65,6.43 27.5,8.58 8.11,1.18 29.02,-2.11 33.85,-0.2z"/>
 </g>
</svg>
