<?xml version="1.0" encoding="UTF-8"?>
<!DOCTYPE svg PUBLIC "-//W3C//DTD SVG 1.1//EN" "http://www.w3.org/Graphics/SVG/1.1/DTD/svg11.dtd">
<!-- Creator: CorelDRAW 2021.5 -->
<svg xmlns="http://www.w3.org/2000/svg" xml:space="preserve" width="132.973mm" height="132.973mm" version="1.1" style="shape-rendering:geometricPrecision; text-rendering:geometricPrecision; image-rendering:optimizeQuality; fill-rule:evenodd; clip-rule:evenodd"
viewBox="0 0 1480.09 1480.09"
 xmlns:xlink="http://www.w3.org/1999/xlink"
 xmlns:xodm="http://www.corel.com/coreldraw/odm/2003">
 <defs>
  <style type="text/css">
   <![CDATA[
    .fil24 {fill:#FEFEFE}
    .fil6 {fill:#A979B3}
    .fil4 {fill:#714684}
    .fil7 {fill:#784182}
    .fil5 {fill:#49274F}
    .fil11 {fill:#180D0E}
    .fil15 {fill:#270F07}
    .fil10 {fill:#4D3224}
    .fil14 {fill:#50322A}
    .fil18 {fill:#5A1700}
    .fil0 {fill:#67E6BC}
    .fil30 {fill:#7E2924}
    .fil16 {fill:#81523B}
    .fil2 {fill:#8F673C}
    .fil21 {fill:#9C5C46}
    .fil22 {fill:#A45A41}
    .fil17 {fill:#B07D46}
    .fil19 {fill:#BA7758}
    .fil23 {fill:#C4745A}
    .fil20 {fill:#C9BCB7}
    .fil9 {fill:#CC8D4A}
    .fil3 {fill:#D0914F}
    .fil27 {fill:#D09278}
    .fil28 {fill:#DB8878}
    .fil8 {fill:#E0AA62}
    .fil25 {fill:#E8BE8A}
    .fil13 {fill:#E8DFD6}
    .fil12 {fill:#EDA253}
    .fil1 {fill:#F0B669}
    .fil29 {fill:#FEB392}
    .fil26 {fill:#FFDABA}
   ]]>
  </style>
 </defs>
 <g id="Plan_x0020_1">
  <metadata id="CorelCorpID_0Corel-Layer"/>
  <circle class="fil0" cx="740.05" cy="740.05" r="740.05"/>
  <path class="fil1" d="M1021.7 355.8c0,39.16 -3.26,73.43 3.27,101.16 6.52,27.74 26.11,71.79 32.63,96.27 6.52,24.47 13.06,42.42 11.42,127.27 -1.63,84.85 3.23,120.46 -4.18,159.94 -7.4,39.48 -32.08,91.3 -65.39,130.78 -33.31,39.48 -51.82,43.19 -70.32,57.99 -18.51,14.8 -50.59,43.18 -87.6,51.82 -37.01,8.64 -97.46,-7.4 -123.38,-18.51 -25.91,-11.11 -81.43,-74.03 -93.77,-85.13 -12.34,-11.1 -27.14,-44.41 -37.01,-103.64 -9.87,-59.22 -23.44,-134.48 -23.44,-180.13 0,-45.65 -19.74,-67.86 -19.74,-67.86 0,0 1.23,-56.75 23.44,-114.74 22.21,-57.99 53.97,-213.69 148.21,-242.21 94.25,-28.52 91.03,23.08 130.51,-15.06 -10.13,38.56 -5.65,-7.64 8.54,2.29 14.19,9.93 21.29,8.52 79.46,31.22 58.17,22.7 87.35,68.54 87.35,68.54z"/>
  <path class="fil1" d="M980.15 991.93c0,0 -4.87,77.82 -3.8,105.72 1.07,27.9 -2.15,69.75 -3.22,82.62 -1.07,12.88 -1.07,67.6 -1.07,67.6 0,0 -36.48,-20.39 -77.26,-46.14 -40.77,-25.75 -103.01,-48.28 -131.98,-80.48 -15.79,-17.54 -30.62,-40.19 -40.85,-57.16 27.65,10.97 84.26,25.17 119.55,16.93 37.01,-8.64 69.09,-37.01 87.6,-51.82 14.59,-11.67 29.18,-16.45 51.02,-37.29l0 0z"/>
  <path class="fil2" d="M980.15 991.93c-5.08,81.2 0.48,15.19 -2.6,38.53 -7.53,15.63 -31.75,14.47 -51.59,24.82 -67.8,35.37 -110.47,52.94 -203.98,8.82 27.65,10.97 84.26,25.17 119.55,16.93 37.01,-8.64 69.09,-37.01 87.6,-51.82 14.59,-11.67 29.18,-16.45 51.02,-37.29l0 0z"/>
  <path class="fil3" d="M976.55 1114c16.22,21.81 24.58,35.27 32.93,64.79 12.17,43 40.98,121.43 40.98,121.43 0,0 -60.25,-41.95 -78.4,-52.34 0,0 0,-54.72 1.07,-67.6 0.88,-10.54 3.19,-40.46 3.42,-66.28z"/>
  <path class="fil4" d="M847.42 242.49c1.06,-2.02 2.13,-4.12 3.21,-6.3 0,0 -2.53,2.53 -3.21,6.3zm-2.23 15.54c21.09,-42.51 13.39,-113.16 9.64,-133.8 -3.75,-20.65 -22.53,-63.82 -88.22,-63.82 -65.7,0 -215.87,9.39 -307.84,93.85 -91.98,84.47 -202.97,318.98 -215.38,584.6 -16.7,357.5 -42.21,461.55 258.44,702.05 74.75,25.4 154.88,39.19 238.22,39.19 120.49,0 234.25,-28.82 334.78,-79.91 -4.32,-47.59 -24.37,-99.97 -24.37,-99.97 0,0 -60.25,-41.95 -78.4,-52.34 0,0 -36.48,-20.39 -77.26,-46.14 -40.77,-25.75 -103.01,-48.28 -131.98,-80.48 -15.79,-17.54 -30.62,-40.19 -40.85,-57.16 -1.35,-0.53 -2.62,-1.06 -3.82,-1.57 -25.91,-11.11 -81.43,-74.03 -93.77,-85.13 -12.34,-11.1 -27.14,-44.41 -37.01,-103.64 -9.87,-59.22 -23.44,-134.48 -23.44,-180.13 0,-45.65 -19.74,-67.86 -19.74,-67.86 0,0 1.23,-56.75 23.44,-114.74 22.21,-57.99 50.32,-202.48 148.21,-242.21 97.9,-39.73 90.14,21.2 129.35,-10.79zm129.29 904.36l-0 -0 -0.01 0.12 0.01 -0.11zm-164.26 -79.04c-1.17,-0.05 -2.35,-0.11 -3.53,-0.18 1.18,0.07 2.36,0.13 3.53,0.18zm-37.71 -4.77l-3.78 -0.78c1.25,0.26 2.51,0.53 3.78,0.78z"/>
  <path class="fil5" d="M539.37 212.98c-52.56,75.09 -78.85,163.32 -91.99,247.8 -13.14,84.48 -7.51,212.13 -1.88,247.8 5.63,35.67 30.04,118.27 56.32,183.97 26.28,65.71 50.69,150.18 50.69,150.18 0,0 10.97,-119.48 18.77,-168.95 1.68,-10.68 5.09,-24.62 9.34,-40.21 -8.36,-50.18 -16.7,-104.16 -16.7,-139.94 0,-45.65 -19.74,-67.86 -19.74,-67.86 0,0 1.23,-56.75 23.44,-114.74 19.02,-49.65 42.36,-162.72 110.14,-219.14 -20.32,-5.54 -47.7,-1.68 -68.94,18.71 -46.93,45.06 -86.35,103.25 -108.88,204.63 -22.53,101.37 -0,172.71 -3.76,195.24 -3.75,22.53 -18.77,46.93 -18.77,46.93 0,0 9.28,17.61 -11.26,-133.29 -20.54,-150.89 73.21,-411.13 73.21,-411.13zm-235.91 872.58c0,-27.17 -9.88,-81.49 -2.47,-133.36 7.41,-51.86 2.47,53.1 16.05,118.54 13.58,65.44 38.28,92.61 38.28,92.61 0,0 -7.41,-82.73 -8.64,-107.43 -1.23,-24.69 0,-38.28 0,-38.28 0,0 3.71,61.74 23.46,112.36 19.75,50.63 37.04,98.78 50.62,107.43 13.58,8.64 0,-81.49 2.47,-93.84 2.47,-12.35 11.11,-28.4 11.11,-28.4l29.58 70.12c5.44,39.25 12.13,74.54 19.49,89.26 9.03,18.07 35.7,54.07 57.72,82.62 0,0 -33.69,-28.38 -111.79,-78.08 -78.1,-49.7 -125.89,-193.56 -125.89,-193.56zm476.62 -1009.18c0,0 -38.33,-15.61 -72.39,-4.26 -34.07,11.36 32.65,9.94 51.1,26.97 18.45,17.03 19.88,19.88 -19.87,35.49 -39.75,15.61 -83.76,32.64 -96.53,48.26 -12.77,15.62 -63.87,69.56 -63.87,69.56 0,0 38.33,-39.75 76.65,-49.68 38.33,-9.94 31.23,4.26 18.45,22.71 -12.78,18.45 -15.61,35.49 -15.61,35.49 0,0 18.45,-32.65 61.04,-44.01 42.59,-11.36 55.36,14.2 85.17,-7.1 29.81,-21.29 35.08,-70.19 36.91,-92.27 1.83,-22.07 -61.04,-41.17 -61.04,-41.17zm114.22 196.04c0.84,0.24 9.59,1.77 2.82,-38.84 -7.1,-42.61 -8.19,-57.99 -24.14,-78.11 -15.96,-20.12 -8.52,-62.49 -8.52,-62.49 0,0 58.23,102.26 69.59,119.3 11.36,17.04 28.4,25.56 58.23,45.45 29.82,19.88 39.77,-11.36 49.71,-2.84 9.94,8.52 55.39,80.95 61.07,120.72 5.68,39.77 49.71,232.91 45.45,281.2 -4.26,48.29 -14.77,107.53 -11.5,192.46 3.27,84.93 22.87,189.46 34.3,235.19 11.43,45.73 32.66,8.17 27.77,-8.17 -4.9,-16.33 24.5,-70.23 24.5,-70.23 0,0 28.15,109.72 17.97,138.83 -6.58,18.79 4.93,78.24 9.6,130.31 -56.02,53.52 -120.43,98.33 -191.06,132.27 -23.48,-19.06 -69.98,-59.18 -75.45,-81.98 -7.36,-30.65 -51.33,-74.05 -75.58,-114.86 34.66,21.41 63.04,37.26 63.04,37.26 18.16,10.39 78.4,52.34 78.4,52.34 0,0 -28.81,-78.43 -40.98,-121.43 -8.35,-29.52 -16.71,-42.98 -32.93,-64.78l0 -0c0.05,-5.73 -0,-11.27 -0.2,-16.35 -1.07,-27.9 3.8,-105.72 3.8,-105.72l-0 -0c5.87,-5.6 12.25,-12.34 19.3,-20.7 33.31,-39.48 57.99,-91.3 65.39,-130.78 7.4,-39.48 2.54,-75.09 4.18,-159.94 1.63,-84.85 -4.9,-102.8 -11.42,-127.27 -6.53,-24.47 -26.11,-68.53 -32.63,-96.27 -6.52,-27.74 -3.27,-62 -3.27,-101.16 0,0 -29.18,-45.84 -87.35,-68.54 -17.4,-6.79 -30.23,-11.42 -40.05,-14.85z"/>
  <path class="fil6" d="M406.68 624.83c0,0 3.27,91.42 17.96,173.05 14.69,81.63 22.85,202.43 26.12,256.3 3.26,53.88 16.33,187.74 32.65,220.39 16.32,32.65 90.24,123.87 90.24,123.87 0,0 -32.53,-68.66 -51.2,-123.74 -18.67,-55.07 -33.6,-119.48 -33.6,-151.22 0,-31.74 -0.94,-72.81 -0.94,-72.81 0,0 5.6,80.28 19.6,124.15 14,43.87 39.2,112.01 48.54,127.88 9.34,15.87 35.47,49.47 35.47,49.47 0,0 -42.94,-98.02 -56.94,-140.95 -14,-42.94 -26.13,-85.88 -19.6,-106.41 6.53,-20.54 -3.74,-54.14 -6.54,-81.21 -2.8,-27.07 -7.47,-52.27 -7.47,-52.27 0,0 22.41,55.07 28.94,84.95 6.53,29.87 25.2,129.75 32.67,158.69 7.47,28.94 34.54,108.28 42.94,122.28 8.4,14 17.81,24.18 17.81,24.18 0,0 -8.4,-23.34 -27.08,-84.96 -18.67,-61.61 -20.54,-111.1 -26.14,-130.7 -5.6,-19.6 9.37,-139.45 6.9,-159.21 -0.74,-5.95 -6.58,-21.7 -14.68,-41.44 -5.3,48.36 -9.83,97.62 -9.83,97.62 0,0 -24.4,-84.48 -50.69,-150.18 -26.28,-65.71 -50.69,-148.3 -56.32,-183.97 -2.42,-15.33 -4.84,-47.68 -5.77,-86.28l-0.01 -0.31 0 -0.12c-1.21,-51.1 0.18,-113.07 7.66,-161.09l-40.7 164.05zm72.77 129.06l-0.07 -0.18c-0.45,6.55 -1.97,3.68 -1.97,3.68 0,0 0.78,-1.28 2.03,-3.5z"/>
  <path class="fil7" d="M850.63 236.19c21.09,-42.51 7.95,-91.32 4.2,-111.96 -1.93,-10.64 -7.85,-27.25 -22.12,-40.86 7.36,-12.26 21.02,-15.65 21.02,-15.65 0,0 15.03,-18.78 103.32,69.51 88.29,88.29 127.74,84.53 167.19,234.82 39.45,150.28 76.02,390.29 97.63,459.42 21.6,69.13 23.72,242.96 21.68,278.19l0 0.01c-3.4,-43.66 -20,-103.61 -20,-103.61 0,0 -29.4,53.9 -24.5,70.23 4.9,16.33 -16.33,53.9 -27.77,8.17 -11.43,-45.73 -31.03,-150.26 -34.3,-235.19 -3.27,-84.93 7.24,-144.17 11.5,-192.46 4.26,-48.29 -39.77,-241.43 -45.45,-281.2 -5.68,-39.77 -51.12,-112.19 -61.07,-120.72 -9.94,-8.52 -19.88,22.72 -49.71,2.84 -29.82,-19.88 -46.87,-28.4 -58.23,-45.45 -11.36,-17.04 -69.59,-119.3 -69.59,-119.3 0,0 -7.43,42.37 8.52,62.49 15.96,20.12 17.04,35.5 24.14,78.11 6.77,40.61 -1.98,39.08 -2.82,38.84 -3.42,-1.2 -15.49,1.55 -18.25,0.62 -30.96,-5.05 -53.81,-54.72 -25.42,-36.85z"/>
  <path class="fil8" d="M854.89 256.05c-30.48,30.32 -117.58,162.18 -116.52,208.94 1.06,46.76 -1.93,33.34 8.03,41.87 9.96,8.53 20.47,38.84 88.07,31.82 67.6,-7.02 37.05,28.89 37.05,28.89l-29.2 30.89 -12.28 27.25c0,0 5.61,29.93 14.03,40.22 8.42,10.29 -27.89,14.43 -37.33,-6.35 -9.43,-20.78 -12.24,-44.16 -22.53,-52.58 -10.29,-8.42 -30.52,-13.98 -26.81,12 3.71,25.98 -4.76,66.58 -6.71,85.24 -1.95,18.66 -11.27,50.35 -21.84,57.67 -10.57,7.32 -23.58,21.96 -25.21,33.35 -1.63,11.39 6.99,7.34 10.2,9.48 3.21,2.14 22.46,-9.09 28.34,-17.65 5.88,-8.56 8.56,-3.74 21.39,1.07 12.84,4.81 29.95,10.16 42.79,6.95 12.84,-3.21 19.25,-13.91 28.34,-19.79 9.09,-5.88 9.63,-2.67 11.23,4.28 1.6,6.95 -3.74,19.79 -3.74,19.79 0,0 11.77,-1.6 27.81,-1.6 16.04,0 19.79,-9.62 14.98,-20.86 -4.81,-11.23 -28.35,-37.44 -28.35,-37.44 0,0 -12.3,-20.32 8.03,-4.28 20.32,16.04 28.88,36.37 35.83,42.79 6.95,6.42 26.65,30.19 58.81,27.71 32.17,-2.48 73.66,-43.27 91.55,-55.67 5.42,-3.76 11.79,0.72 18.1,9.07l0.02 1.44 0 0.15 0.02 1.57 0.01 0.82 0.01 0.74 0.02 1.54 0 0.22 0.01 1.31 0.01 1.15 0.01 1.85 0.01 0.56 0.01 0.92 0.02 2.92 0.01 0.88 0 0.55 0.01 1.43 0 0.33 0 1.08 0 1.19 0 0.21 0 1.39 0 1.38 -0 1.36 0 0.12 -0.01 1.24 -0 0.94 -0 0.4 -0.01 1.33 -0 0.43 -0.01 0.9 -0.01 1.23 -0 0.08 -0.02 1.3 -0.01 0.72 -0.01 0.57 -0.02 1.28 -0 0.22 -0.02 1.05 -0.02 1 -0.01 0.26 -0.03 1.26 -0.01 0.51 -0.02 0.74 -0.04 1.24 0 0.03 -0.04 1.2 -0.03 0.79 -0.02 0.44 -0.05 1.22 -0.01 0.32 -0.04 0.89 -0.05 1.06 -0.01 0.14 -0.06 1.2 -0.03 0.59 -0.03 0.6 -0.07 1.19 -0.01 0.14 -0.07 1.05 -0.05 0.86 -0.02 0.31 -0.08 1.17 -0.03 0.41 -0.06 0.76 -0.09 1.13 -0 0.03 -0.09 1.16 -0.06 0.68 -0.04 0.48 -0.11 1.15 -0.02 0.23 -0.14 1.48 -0.04 0.38 -0.02 0.21 -0.12 1.14 -0.05 0.5 -0.07 0.64 -0.13 1.14 -0.01 0.07 -0.13 1.07 -0.09 0.77 -0.05 0.37 -0.15 1.14 -0.04 0.33 -0.11 0.8 -0.14 1.04 -0.01 0.1 -0.17 1.14 -0.09 0.6 -0.08 0.53 -0.18 1.14 -0.03 0.17 -0.16 0.97 -0.15 0.87 -0.05 0.27 -0.2 1.14 -0.08 0.44 -0.13 0.7 -0.21 1.14c-7.4,39.48 -45.21,106.86 -65.39,130.78 -22.72,26.93 -80.28,65.34 -111.29,88.9 -40.96,31.12 -76.65,26.45 -119.43,17.66 0,0 -27.39,-12.29 40.4,-23.05 67.79,-10.76 102.22,-38.74 114.06,-51.65 11.84,-12.91 33.36,-60.26 44.12,-76.4 10.76,-16.14 8.97,-23.12 6.29,-26.33 -2.68,-3.21 -9.63,-5.35 -23.54,4.28 -13.91,9.63 -40.66,31.03 -47.08,36.38 -6.42,5.35 -39.05,23.54 -52.96,27.82 -13.91,4.28 -27.82,-1.61 -52.43,3.74 -24.61,5.35 -41.2,3.21 -53.5,0.54 -12.31,-2.67 -24.08,-18.19 -28.36,-23.54 -4.28,-5.35 -22.47,-12.84 -22.47,-12.84 0,0 -10.1,0.24 -17.48,-6.53 -7.38,-6.77 -36.3,-28.31 -11.08,-24.61 25.23,3.69 44.92,3.08 68.3,-3.69 23.38,-6.77 42.46,-12.92 52.3,-9.23 9.85,3.69 22.15,8.61 27.69,11.69 5.54,3.08 14.76,-4.92 20.3,-9.23 5.54,-4.31 22.15,-4.31 39.38,-2.46 17.23,1.84 34.46,0 43.68,-3.08 9.23,-3.08 22.15,-6.77 22.15,-6.77 0,0 -7.38,-6.77 -13.53,-11.69 -6.15,-4.92 3.27,-18.28 3.27,-18.28 0,0 -0.94,-14.03 -8.42,-25.26 -7.49,-11.23 -21.52,-24.33 -21.52,-24.33 0,0 -7.49,8.42 -13.1,14.97 -5.61,6.55 -10.61,12.93 -14.92,17.24 -4.31,4.31 -4.92,16.61 -8,22.15 -3.08,5.54 -16.61,13.54 -24,18.46 -7.38,4.92 -16.61,10.46 -31.38,3.08 -14.77,-7.38 -28.31,-20.92 -38.77,-22.15 -10.46,-1.23 -24.61,7.38 -24.61,7.38 0,0 -16,-4.31 -22.77,-11.69 -6.77,-7.38 -6.15,-25.23 -6.15,-25.23 0,0 -1.23,-7.38 -7.38,-7.38 -6.15,0 -16.05,7.14 -16.61,12.92 -1.63,16.89 -16.63,22.98 -16.44,-2.58 0.15,-20.59 5.61,-42.12 18.72,-61.77 13.1,-19.65 31.82,-36.5 31.82,-36.5 0,0 18.92,-23.13 21.75,-50.73 2.83,-27.6 -1.41,-45.29 -2.83,-50.25 -1.41,-4.95 -16.28,45.29 -22.65,55.91 -6.37,10.62 -38.22,43.17 -46.71,59.45 -8.49,16.28 -23.35,33.97 -23.35,33.97 0,0 -9.59,41.04 -12.07,63.32 -2.48,22.28 -23.52,92.84 -23.52,92.84 0,0 -6.93,-1.88 -15.53,-8.26 -4.56,-14.89 -8.82,-33.05 -12.42,-54.66 -9.87,-59.22 -23.44,-134.48 -23.44,-180.13 0,-45.65 -19.74,-67.86 -19.74,-67.86 0,0 1.23,-56.75 23.44,-114.74 22.21,-57.99 47.17,-183.14 126.44,-231.02 79.27,-47.88 109.55,-3.89 125.56,-11.57 10.15,10.04 35.26,-12.39 35.26,-12.39z"/>
  <path class="fil9" d="M700.95 563.5c19.12,13.46 40.36,19.83 43.91,29.04 3.54,9.21 -11.96,31.33 -14.87,46.74 -9.02,47.83 -34.71,36.42 -30.45,27.62 3.11,-6.43 16.99,-17.7 14.87,-26.91 -2.12,-9.21 -24.08,17.7 -51.7,28.33 -27.62,10.62 -50.28,15.58 -68.69,17 -9.39,0.72 -20.8,-1.69 -30.67,-4.97 -3.26,-36.67 -19.16,-54.57 -19.16,-54.57 0,0 0.62,-28.27 8.78,-65.29 12.15,-6.72 33.02,-11.61 67.6,-13.4 55.12,-2.86 80.38,16.42 80.38,16.42z"/>
  <path class="fil10" d="M561.61 528.22c0,0 64.1,-4.59 92.97,6.46 28.87,11.06 36.86,19.04 30.72,27.03 -6.14,7.99 -11.68,5.53 -36.86,0.61 -25.18,-4.91 -48.07,-8.35 -71.26,-7.37 -10.25,0.43 -17.92,0.96 -23.29,1.42 2.09,-9.01 4.63,-18.49 7.71,-28.15z"/>
  <path class="fil2" d="M1069.12 674.45c11.84,-21.86 19.6,-50.08 24.54,-70.54 4.94,-20.46 0.71,-27.52 -2.82,-38.81 -3.53,-11.29 -2.34,0.37 -21.17,-16.23 -6.24,-5.5 -11.98,-9.06 -16.87,-11 1.93,5.64 3.59,10.84 4.8,15.36 6.36,23.88 12.74,41.56 11.52,121.21l0 0z"/>
  <path class="fil2" d="M1105.07 564.01c0,0 -6.03,-15.31 -11.14,-35.73 -5.1,-20.42 -9.28,-29.23 -3.71,-35.73 5.57,-6.5 16.24,-9.74 21.81,0.93 5.57,10.67 -6.96,70.52 -6.96,70.52z"/>
  <path class="fil11" d="M842.31 598.47c0,0 13.36,-29.92 31.52,-38.47 18.16,-8.55 68.92,-19.23 75.86,-20.84 6.95,-1.6 28.32,9.08 28.32,9.08l18.7 8.55 10.77 4.67c0,0 -17.42,-0.61 -30.25,-5.19 -12.83,-4.58 -21.08,-8.86 -26.58,-8.56 -5.5,0.3 -51.64,9.78 -51.64,9.78 0,0 -23.53,7.02 -27.5,10.08 -3.97,3.06 -29.2,30.89 -29.2,30.89z"/>
  <path class="fil12" d="M833.02 613.57c-2.43,4.04 7.68,27.89 16.57,33.14 8.89,5.25 37.18,7.28 58.19,8.08 21.01,0.81 72.34,-5.26 86.48,-12.13 14.14,-6.87 23.03,-42.03 25.46,-50.92 2.43,-8.89 -15.24,-15.58 -22.5,-16.54l-0.01 0c1.82,1.31 -15.87,6.44 -25.8,2.15 -8.38,-3.62 -18.44,-8.93 -26.2,-11.43l-0.01 0c-3.54,-0.7 -19.47,1.19 -35.29,3.86 -7.97,1.95 -15.03,3.97 -17.34,5.12 -5.05,2.52 -20.64,7.36 -23.17,8.14 -12.07,10 -36.4,30.52 -36.4,30.52zm162.21 -38.66c-1.87,-0.29 -4.46,-0.72 -7.49,-1.24 2.64,0.75 5.21,1.24 7.49,1.24z"/>
  <path class="fil13" d="M858.69 603.61c0,0 19.96,-19.83 25.25,-27.63 5.29,-7.8 33.95,-8.59 47.62,-9.33 13.67,-0.74 21.07,2 26.88,4.72 5.81,2.71 12.99,5.98 12.99,5.98 0,0 -3.25,5.52 -7.85,11.69 -1,1.21 -2.28,2.89 -3.78,4.81l-0.01 0.01 -0.02 0.02c-6.15,7.35 -14.58,16.07 -27.16,20.54l-2.17 0.72 -0.03 0.01c-6.74,2.05 -14.6,4.23 -22.01,5.68 -0.66,0.04 -1.27,0.05 -1.83,0.01 -5.41,-0.32 -25.58,-5.14 -36.09,-8.36 -6.44,-4.48 -11.73,-8.82 -11.79,-8.87l-0 -0z"/>
  <path class="fil11" d="M935.67 563.62c4.36,5.12 6.98,11.67 6.98,18.81 0,16.37 -13.77,29.63 -30.74,29.63 -16.98,0 -30.75,-13.27 -30.75,-29.63 0,-1.28 0.09,-2.53 0.25,-3.77 4.21,-1.47 8.15,-2.95 10.35,-4.05 5.03,-2.52 29.52,-8.57 43.91,-10.99z"/>
  <path class="fil14" d="M929.31 563.62c3.85,4.52 6.17,10.31 6.17,16.61 0,14.46 -12.16,26.18 -27.16,26.18 -15,0 -27.16,-11.72 -27.16,-26.18 0,-1.13 0.08,-2.24 0.22,-3.33 3.72,-1.3 7.2,-2.61 9.15,-3.58 4.45,-2.22 26.08,-7.57 38.79,-9.71z"/>
  <path class="fil15" d="M909.44 578.26c2.18,0 3.95,1.67 3.95,3.72 0,1.88 -1.48,3.44 -3.41,3.69 -0.84,1.94 -4.03,3.38 -7.83,3.38 -4.45,0 -8.05,-1.97 -8.05,-4.41 0,-2.43 3.61,-4.41 8.05,-4.41 1.29,0 2.5,0.17 3.59,0.46 0.56,-1.42 2,-2.44 3.71,-2.44z"/>
  <ellipse class="fil13" cx="917.56" cy="574.54" rx="10.57" ry="4.02"/>
  <path class="fil16" d="M833.54 549.53c0,0 -8.12,-8.13 10.56,-17.87 18.68,-9.75 80.49,-36 95.85,-39.8 15.36,-3.81 47.92,5.69 57.67,10.56 9.75,4.87 21.93,17.87 21.93,17.87 0,0 -36.4,-14.29 -48.57,-13.48 -22.82,1.51 -86.06,35.61 -112.29,43.81 -12.99,4.06 -25.16,-1.08 -25.16,-1.08z"/>
  <path class="fil17" d="M832.74 807.56c9.6,-3.2 28.78,-0.91 32.89,1.37 4.11,2.28 5.48,4.12 -7.78,5.34 -12.96,2.02 -25.11,-1.22 -25.11,-1.22 0,0 -9.31,6.89 -14.58,11.34 -5.26,4.45 -25.51,14.98 -29.16,14.98 -3.64,0 -4.86,-6.07 -17.41,-4.05 -12.56,2.02 -27.14,8.1 -32,8.5 -4.86,0.41 -4.54,-9.98 -14.58,-8.91 -10.04,1.08 -10.41,-4.42 -10.41,-4.42 0,0 10.81,-17.85 26.61,-19.88 15.79,-2.02 34.02,10.94 40.09,13.77 6.07,2.83 16.2,4.45 27.94,-2.83 11.74,-7.29 23.49,-14 23.49,-14z"/>
  <path class="fil18" d="M752.82 824.65c-9.85,0 -17.66,-2 -18.37,-6.92 -0.72,-4.93 5.86,-9.05 10.92,-7.19 5.06,1.86 17.82,4.23 21.14,5.89 3.32,1.67 17.24,8.94 17.24,8.94l5.3 5.14 -36.21 -5.86z"/>
  <ellipse class="fil18" cx="849.55" cy="809.87" rx="15.59" ry="3.32"/>
  <path class="fil19" d="M953.56 858.59c5.27,1.13 12.17,8 12.04,17.19 -0.13,8.64 -1.79,14.59 -2.75,17.83 -0.36,1.21 0.29,1.39 1.39,0.48 4.09,-3.38 11.03,-11.11 12.63,-17.5 2.21,-8.86 -2.01,-17.13 -7.86,-18.53 -3.52,-0.85 -9.82,-1.07 -14.27,-1.19 -2.39,-0.07 -3.92,1.15 -1.2,1.73z"/>
  <path class="fil20" d="M694.41 617.97c0,0 -26.53,11.33 -41.1,17 -14.57,5.67 -36.91,8.48 -48.06,9.18 -11.15,0.69 -25.97,-7.68 -30.86,-14.75 -4.88,-7.07 -6.12,-17.66 -6.12,-17.66 0,0 7.78,-8.04 22.94,-11.92 15.16,-3.88 32.08,-12.4 44.83,-7.85 12.74,4.55 38.42,11.63 43,15.16 4.58,3.53 15.37,10.85 15.37,10.85z"/>
  <path class="fil21" d="M694.55 597.96c0,0 -23.26,-15.51 -43,-20.09 -19.74,-4.58 -42.65,-2.47 -50.76,0.35 -8.11,2.82 -33.14,4.94 -36.66,8.11 -3.53,3.17 -15.15,21.15 -15.51,23.62 -0.35,2.47 13.04,32.78 15.86,35.95 2.82,3.17 36.3,11.63 41.95,11.99 5.64,0.35 37.01,-5.28 40.54,-7.75 3.53,-2.47 19.39,-7.4 24.67,-10.58 5.29,-3.17 21.15,-9.87 23.27,-10.22 2.12,-0.35 15.16,2.82 15.16,2.82 0,0 -3.53,-8.11 -7.4,-10.57 -3.88,-2.47 -13.75,2.82 -24.32,5.29 -10.58,2.47 -40.89,16.22 -57.11,17.98 -16.21,1.76 -38.07,-6 -41.95,-9.52 -3.88,-3.53 -12.34,-16.92 -12.34,-16.92 0,0 -2.47,-3.88 3.17,-8.46 5.64,-4.58 15.86,-8.81 25.03,-11.28 9.17,-2.47 23.27,-5.64 33.49,-6 10.22,-0.35 34.9,8.11 39.13,11.63 4.23,3.53 16.57,11.63 21.15,11.63 4.58,0 7.48,4.39 10.61,5.01 3.13,0.63 9.83,-1.84 6.66,-6.07 -3.17,-4.23 -12.69,-6.7 -19.74,-8.81 -7.05,-2.11 -15.86,-7.76 -27.5,-11.63 -11.63,-3.88 -26.79,-8.46 -36.66,-7.75 -9.87,0.7 -17.62,-4.93 -17.62,-4.93 0,0 22.56,-1.41 35.95,-0.7 13.39,0.7 27.85,7.75 34.19,11.63 6.35,3.88 14.45,7.75 19.39,9.17 4.93,1.41 0.35,-3.88 0.35,-3.88z"/>
  <path class="fil11" d="M694.55 597.96c0,0 -23.26,-15.51 -43,-20.09 -19.74,-4.58 -42.65,-2.47 -50.76,0.35 -8.11,2.82 -33.14,4.94 -36.66,8.11 -3.53,3.17 -15.15,21.15 -15.51,23.62 -0.89,6.22 20.92,30.2 18.33,8.46 0,0 -2.47,-3.88 3.17,-8.46 5.64,-4.58 15.86,-8.81 25.03,-11.28 9.17,-2.47 23.27,-5.64 33.49,-6 10.22,-0.35 34.9,8.11 39.13,11.63 4.23,3.53 16.57,11.63 21.15,11.63 4.58,0 7.48,4.39 10.61,5.01 3.13,0.63 9.83,-1.84 6.66,-6.07 -3.17,-4.23 -12.69,-6.7 -19.74,-8.81 -7.05,-2.11 -15.86,-7.76 -27.5,-11.63 -11.63,-3.88 -26.79,-8.46 -36.66,-7.75 -9.87,0.7 -17.62,-4.93 -17.62,-4.93 0,0 22.56,-1.41 35.95,-0.7 13.39,0.7 27.85,7.75 34.19,11.63 6.35,3.88 14.45,7.75 19.39,9.17 4.93,1.41 0.35,-3.88 0.35,-3.88z"/>
  <path class="fil11" d="M644.34 595.41c2.55,4.22 4.01,9.1 4.01,14.3 0,16.05 -13.9,29.06 -31.06,29.06 -17.16,0 -31.06,-13.01 -31.06,-29.06 0,-3.24 0.56,-6.35 1.61,-9.25 1.74,-0.57 3.48,-1.08 5.18,-1.54 9.53,-2.57 24.2,-5.87 34.83,-6.23 4.01,-0.14 10.16,1.03 16.5,2.73z"/>
  <path class="fil14" d="M644.76 595.12c2.29,3.78 3.6,8.15 3.6,12.81 0,14.39 -12.46,26.05 -27.84,26.05 -15.38,0 -27.84,-11.66 -27.84,-26.05 0,-2.9 0.51,-5.69 1.44,-8.29 1.56,-0.51 3.12,-0.97 4.64,-1.38 8.54,-2.3 21.68,-5.26 31.21,-5.59 3.59,-0.12 9.1,0.92 14.78,2.45z"/>
  <ellipse class="fil13" cx="633.85" cy="602.79" rx="11.39" ry="3.83"/>
  <path class="fil15" d="M621.39 604.75c2.18,0 3.95,1.67 3.95,3.72 0,1.88 -1.48,3.44 -3.41,3.69 -0.84,1.94 -4.03,3.38 -7.83,3.38 -4.45,0 -8.05,-1.97 -8.05,-4.41 0,-2.43 3.6,-4.41 8.05,-4.41 1.29,0 2.5,0.17 3.59,0.46 0.56,-1.42 2,-2.44 3.71,-2.44z"/>
  <path class="fil22" d="M918.64 891.74c-8.05,10.73 -15.62,26.44 -26.04,35.56 -24.56,21.48 -42.17,32.54 -74.56,34.66 -10.81,0.7 -24.82,2.66 -39.23,0.68 -17.05,-2.34 -42.27,-11.81 -58.19,-27.73 -6.98,-6.98 -15.78,-15.17 -23.29,-20.01 -7.51,-4.83 -10.5,0.47 3.45,-0.07 13.95,-0.54 65.63,-22.87 82.08,-12.95 16.45,9.92 30.31,5.29 35.67,2.74 5.37,-2.55 12.88,-9.66 28.44,-9.66 15.56,0 42.43,2.5 47.69,2.08 5.26,-0.42 23.97,-5.31 23.97,-5.31z"/>
  <path class="fil17" d="M755.94 792.21c1.69,1.85 11.52,6.15 14.45,10.14 2.92,3.99 5.75,10.61 -1.23,11.37 -6.98,0.76 -10.75,-3.07 -17.21,-7.38 -6.45,-4.3 -10.29,-11.07 -7.68,-15.52 2.61,-4.45 11.68,1.38 11.68,1.38z"/>
  <path class="fil11" d="M978.51 585.68c-2.02,2.83 -20.61,31.12 -36.78,37.99 -16.16,6.87 -33.14,2.02 -44.45,2.42 -11.32,0.41 -27.89,-4.04 -31.12,-8.49 -3.23,-4.44 -5.25,-6.06 -13.74,-6.87 -8.49,-0.81 -15.12,5.19 -1.22,-12.46 13.89,-17.66 20.39,-21.67 26.39,-24.12 5.09,-3.96 8.99,-4.77 11.64,-5.97 2.66,-1.21 18.64,-6.11 31.78,-8.56 13.14,-2.45 25.06,-4.59 28.11,-4.89 3.06,-0.3 16.5,9.17 20.17,11 3.66,1.83 17.11,9.17 25.97,9.17 8.86,0 -12.53,7.33 -23.83,2.44 -11.31,-4.89 -25.67,-12.83 -33.31,-12.83 -7.64,0 -41.51,8.38 -45.53,10.39 -16.73,8.36 -21.2,15.25 -33.91,28.71 0,0 1.41,4.3 5.85,6.72 4.45,2.42 35.16,10.1 42.03,10.51 6.87,0.41 21.01,-4.85 32.33,-8.49 11.32,-3.64 22.23,-21.01 25.87,-24.65 3.64,-3.64 13.74,-2.02 13.74,-2.02z"/>
  <path class="fil23" d="M978.51 585.68c-2.02,2.83 -20.61,31.12 -36.78,37.99 -16.16,6.87 -33.14,2.02 -44.45,2.42 -11.32,0.41 -31.29,-1.45 -33.43,-7.24 -2.14,-5.79 -12.8,0.61 -17.47,-6.52 -2.62,-4 9.66,-5.67 18.17,-2 4.65,2 35.16,10.1 42.03,10.51 6.87,0.41 21.01,-4.85 32.33,-8.49 11.32,-3.64 22.23,-21.01 25.87,-24.65 3.64,-3.64 13.74,-2.02 13.74,-2.02z"/>
  <path class="fil24" d="M869.38 599.81c-1.6,-1.95 -2.84,-1.96 -7.11,1.42 -4.26,3.38 -7.46,7.46 -7.46,9.06 0,1.6 2.66,1.96 11.01,2.49 8.35,0.53 13.15,-0.54 13.5,-4.98 0.35,-4.44 -2.31,-7.46 -4.98,-5.86 -2.66,1.6 -4.97,-2.13 -4.97,-2.13z"/>
  <path class="fil25" d="M897.73 631.71c-17.03,-4.73 -22.7,-0.94 -26.96,-3.31 -4.26,-2.37 -11.36,2.36 -8.99,6.15 2.37,3.78 20.34,10.41 33.11,12.77 12.77,2.36 28.38,-0.95 33.58,-6.62 5.2,-5.67 0,-10.88 -8.51,-14.19 -8.52,-3.31 -22.23,5.2 -22.23,5.2z"/>
  <path class="fil26" d="M780.1 617.7c-8.7,-21.76 -7.99,-28.3 -10.89,-10.89 -9.2,55.23 12.42,116.02 11.61,123.31 -1.45,13.06 -7.26,24.66 4.35,36.27 11.61,11.61 31.92,20.31 33.37,1.45 1.45,-18.86 7.66,-15.21 -5.69,-25.7 -41.72,-32.78 -28.04,-89.83 -32.75,-124.44z"/>
  <path class="fil27" d="M702.47 598.2c0,0 13.11,6.01 18.57,12.56 5.46,6.55 5.46,11.47 2.73,17.48 -2.73,6.01 -8.19,14.2 -8.19,14.2 0,0 -2.18,-15.83 -7.65,-23.48 -5.46,-7.65 -5.46,-20.75 -5.46,-20.75z"/>
  <path class="fil28" d="M695.94 907.81c0,0 14.65,2.54 38.53,-4.38 23.89,-6.92 41.13,-13.46 48.11,-11.14 12.52,4.17 15.24,10.75 28.06,10.85 4.82,0.04 8.32,-1.89 18.88,-11.36 8.07,-7.23 42.47,0.04 58.67,1.62 16.2,1.58 34.41,-5.81 34.41,-5.81 -54.45,57.31 -69.68,65.92 -113.61,68.31 -33.6,1.83 -65.14,-3.76 -77.17,-17.26 -10.05,-11.28 -37.74,-31.1 -35.88,-30.83z"/>
  <path class="fil29" d="M777.58 927.48c0.08,-1.96 -2.35,5.33 3.97,9.34 6.32,4 10.89,5.29 17.98,2.53 7.09,-2.75 9.78,-1.08 16.67,-1.72 6.89,-0.64 26.04,-2.98 35.05,-9.54 9.01,-6.56 28.22,-15.73 29.19,-18.48 0.97,-2.75 -11.89,-0.92 -23.05,2.78 -11.16,3.7 -48.9,13.36 -60.4,13.37 -11.51,0.01 -19.4,1.72 -19.4,1.72z"/>
  <path class="fil30" d="M781.57 914.42c7.96,3.15 22.87,11.38 29.83,9.45 21.61,-5.97 20.52,-11.88 49.53,-15.65 9.51,-1.24 24.1,-2.59 31.83,-7.44 9.72,-6.11 24.55,-11.21 36.37,-18.89 0,0 7.71,5.28 -9.38,12.88 -17.09,7.6 -20,8.66 -30.45,13.41 -10.46,4.76 -25.35,4.12 -42.93,8.87 -17.58,4.75 -24.2,10.68 -33.11,12.98 -8.91,2.3 -22.11,-4.69 -30.91,-9.59 -8.8,-4.91 -39.7,0.74 -52.2,0.86 -5.47,0.05 -26.49,-2.69 -37.83,-7.18 -18.56,-7.36 -27.47,-13.52 -11.87,-13.52 2.97,0 20.84,10.6 45.33,14.15 13.37,1.94 47.84,-3.49 55.8,-0.33z"/>
 </g>
</svg>
