<?xml version="1.0" encoding="UTF-8"?>
<!DOCTYPE svg PUBLIC "-//W3C//DTD SVG 1.1//EN" "http://www.w3.org/Graphics/SVG/1.1/DTD/svg11.dtd">
<!-- Creator: CorelDRAW 2021.5 -->
<svg xmlns="http://www.w3.org/2000/svg" xml:space="preserve" width="132.973mm" height="132.973mm" version="1.1" style="shape-rendering:geometricPrecision; text-rendering:geometricPrecision; image-rendering:optimizeQuality; fill-rule:evenodd; clip-rule:evenodd"
viewBox="0 0 2198.36 2198.36"
 xmlns:xlink="http://www.w3.org/1999/xlink"
 xmlns:xodm="http://www.corel.com/coreldraw/odm/2003">
 <defs>
  <style type="text/css">
   <![CDATA[
    .fil24 {fill:#FEFEFE}
    .fil6 {fill:#A76281}
    .fil5 {fill:#122336}
    .fil11 {fill:#180D0E}
    .fil4 {fill:#243951}
    .fil15 {fill:#270F07}
    .fil10 {fill:#4D3224}
    .fil14 {fill:#50322A}
    .fil18 {fill:#5A1700}
    .fil0 {fill:#67E6BC}
    .fil7 {fill:#753E4E}
    .fil30 {fill:#7E2924}
    .fil16 {fill:#81523B}
    .fil2 {fill:#8F673C}
    .fil21 {fill:#9C5C46}
    .fil22 {fill:#A45A41}
    .fil17 {fill:#B07D46}
    .fil19 {fill:#BA7758}
    .fil23 {fill:#C4745A}
    .fil20 {fill:#C9BCB7}
    .fil9 {fill:#CC8D4A}
    .fil3 {fill:#D0914F}
    .fil27 {fill:#D09278}
    .fil28 {fill:#DB8878}
    .fil8 {fill:#E0AA62}
    .fil25 {fill:#E8BE8A}
    .fil13 {fill:#E8DFD6}
    .fil12 {fill:#EDA253}
    .fil1 {fill:#F0B669}
    .fil29 {fill:#FEB392}
    .fil26 {fill:#FFDABA}
   ]]>
  </style>
 </defs>
 <g id="Plan_x0020_1">
  <metadata id="CorelCorpID_0Corel-Layer"/>
  <circle class="fil0" cx="1099.18" cy="1099.18" r="1099.18"/>
  <path class="fil1" d="M1517.51 528.47c0,58.16 -4.84,109.06 4.85,150.26 9.69,41.2 38.78,106.63 48.47,142.98 9.69,36.35 19.39,63.01 16.96,189.03 -2.43,126.02 4.79,178.92 -6.2,237.56 -10.99,58.64 -47.64,135.6 -97.12,194.24 -49.48,58.64 -76.96,64.14 -104.45,86.13 -27.49,21.99 -75.13,64.14 -130.11,76.96 -54.98,12.83 -144.76,-10.99 -183.25,-27.49 -38.49,-16.49 -120.95,-109.96 -139.27,-126.45 -18.32,-16.49 -40.32,-65.97 -54.98,-153.93 -14.66,-87.96 -34.82,-199.74 -34.82,-267.55 0,-67.81 -29.32,-100.79 -29.32,-100.79 0,0 1.83,-84.3 34.82,-170.42 32.99,-86.13 80.16,-317.39 220.14,-359.75 139.98,-42.36 135.21,34.28 193.85,-22.37 -15.04,57.28 -8.4,-11.34 12.68,3.41 21.08,14.75 31.62,12.65 118.02,46.36 86.4,33.72 129.74,101.8 129.74,101.8z"/>
  <path class="fil1" d="M1455.8 1473.3c0,0 -7.23,115.59 -5.64,157.03 1.59,41.44 -3.19,103.59 -4.78,122.72 -1.59,19.12 -1.59,100.41 -1.59,100.41 0,0 -54.19,-30.28 -114.75,-68.53 -60.56,-38.25 -153,-71.72 -196.03,-119.53 -23.45,-26.06 -45.48,-59.69 -60.67,-84.9 41.06,16.29 125.14,37.38 177.57,25.15 54.98,-12.83 102.62,-54.98 130.11,-76.96 21.67,-17.33 43.34,-24.43 75.78,-55.38l0 0z"/>
  <path class="fil2" d="M1455.8 1473.3c-7.54,120.61 0.71,22.56 -3.87,57.23 -11.19,23.22 -47.15,21.49 -76.63,36.86 -100.7,52.54 -164.08,78.63 -302.97,13.1 41.06,16.29 125.14,37.38 177.57,25.15 54.98,-12.83 102.62,-54.98 130.11,-76.96 21.67,-17.33 43.34,-24.43 75.78,-55.38l0 0z"/>
  <path class="fil3" d="M1450.46 1654.61c24.09,32.39 36.51,52.38 48.91,96.22 18.08,63.87 60.87,180.36 60.87,180.36 0,0 -89.48,-62.31 -116.45,-77.74 0,0 0,-81.28 1.59,-100.41 1.3,-15.65 4.74,-60.09 5.07,-98.44z"/>
  <path class="fil4" d="M1258.66 360.17c1.57,-3 3.16,-6.12 4.77,-9.36 0,0 -3.75,3.75 -4.77,9.36zm-3.31 23.08c31.33,-63.14 19.89,-168.07 14.32,-198.74 -5.57,-30.67 -33.46,-94.79 -131.04,-94.79 -97.58,0 -320.62,13.94 -457.23,139.4 -136.61,125.46 -301.46,473.77 -319.9,868.3 -24.81,530.99 -62.69,685.54 383.86,1042.74 111.03,37.72 230.03,58.2 353.82,58.2 178.97,0 347.92,-42.81 497.25,-118.68 -6.41,-70.68 -36.19,-148.48 -36.19,-148.48 0,0 -89.48,-62.31 -116.45,-77.74 0,0 -54.19,-30.28 -114.75,-68.53 -60.56,-38.25 -153,-71.72 -196.03,-119.53 -23.45,-26.06 -45.48,-59.69 -60.67,-84.9 -2,-0.79 -3.89,-1.57 -5.68,-2.34 -38.49,-16.49 -120.95,-109.96 -139.27,-126.45 -18.32,-16.49 -40.32,-65.97 -54.98,-153.93 -14.66,-87.96 -34.82,-199.74 -34.82,-267.55 0,-67.81 -29.32,-100.79 -29.32,-100.79 0,0 1.83,-84.3 34.82,-170.42 32.99,-86.13 74.73,-300.74 220.14,-359.75 145.41,-59.01 133.89,31.48 192.13,-16.03zm192.03 1343.23l-0 -0 -0.01 0.17 0.01 -0.17zm-243.98 -117.4c-1.74,-0.07 -3.49,-0.16 -5.24,-0.27 1.75,0.11 3.5,0.2 5.24,0.27zm-56.01 -7.09l-5.61 -1.15c1.86,0.39 3.73,0.78 5.61,1.15z"/>
  <path class="fil5" d="M801.12 316.33c-78.07,111.54 -117.11,242.58 -136.63,368.06 -19.52,125.47 -11.15,315.08 -2.79,368.06 8.37,52.98 44.61,175.66 83.65,273.25 39.04,97.59 75.28,223.07 75.28,223.07 0,0 16.3,-177.45 27.89,-250.95 2.5,-15.86 7.56,-36.57 13.87,-59.72 -12.42,-74.54 -24.8,-154.7 -24.8,-207.86 0,-67.81 -29.32,-100.79 -29.32,-100.79 0,0 1.83,-84.3 34.82,-170.42 28.25,-73.75 62.92,-241.69 163.59,-325.49 -30.18,-8.22 -70.85,-2.49 -102.39,27.79 -69.7,66.92 -128.26,153.36 -161.72,303.93 -33.46,150.57 -0,256.52 -5.58,289.98 -5.57,33.46 -27.89,69.71 -27.89,69.71 0,0 13.78,26.15 -16.73,-197.97 -30.5,-224.12 108.74,-610.64 108.74,-610.64zm-350.4 1296.04c0,-40.35 -14.67,-121.04 -3.67,-198.07 11,-77.03 3.67,78.86 23.84,176.06 20.17,97.2 56.85,137.55 56.85,137.55 0,0 -11.01,-122.88 -12.84,-159.56 -1.83,-36.68 0,-56.85 0,-56.85 0,0 5.51,91.7 34.85,166.89 29.34,75.19 55.01,146.72 75.19,159.56 20.17,12.84 0,-121.04 3.67,-139.38 3.67,-18.34 16.51,-42.18 16.51,-42.18l43.94 104.15c8.07,58.3 18.02,110.72 28.94,132.58 13.42,26.84 53.03,80.31 85.74,122.72 0,0 -50.04,-42.15 -166.04,-115.97 -116,-73.82 -186.98,-287.49 -186.98,-287.49zm707.91 -1498.92c0,0 -56.92,-23.19 -107.52,-6.33 -50.6,16.87 48.49,14.76 75.9,40.06 27.41,25.3 29.53,29.52 -29.51,52.71 -59.04,23.19 -124.4,48.49 -143.37,71.68 -18.97,23.19 -94.87,103.31 -94.87,103.31 0,0 56.92,-59.03 113.85,-73.79 56.92,-14.76 46.39,6.32 27.41,33.73 -18.98,27.41 -23.19,52.71 -23.19,52.71 0,0 27.41,-48.5 90.66,-65.36 63.25,-16.87 82.23,21.09 126.5,-10.54 44.28,-31.63 52.1,-104.26 54.82,-137.04 2.72,-32.79 -90.66,-61.14 -90.66,-61.14zm169.66 291.17c1.24,0.35 14.24,2.64 4.19,-57.69 -10.55,-63.28 -12.16,-86.14 -35.86,-116.02 -23.7,-29.88 -12.66,-92.82 -12.66,-92.82 0,0 86.49,151.88 103.36,177.19 16.88,25.31 42.19,37.97 86.49,67.5 44.3,29.53 59.06,-16.87 73.83,-4.22 14.77,12.66 82.26,120.23 90.7,179.3 8.44,59.06 73.83,345.94 67.5,417.66 -6.33,71.72 -21.93,159.71 -17.08,285.86 4.85,126.15 33.96,281.4 50.94,349.33 16.98,67.93 48.52,12.13 41.24,-12.13 -7.28,-24.26 36.38,-104.31 36.38,-104.31 0,0 41.82,162.97 26.69,206.2 -9.77,27.91 7.32,116.21 14.26,193.55 -83.21,79.5 -178.88,146.05 -283.78,196.46 -34.87,-28.32 -103.94,-87.9 -112.07,-121.76 -10.93,-45.52 -76.24,-109.99 -112.26,-170.61 51.48,31.79 93.63,55.34 93.63,55.34 26.97,15.43 116.45,77.74 116.45,77.74 0,0 -42.79,-116.49 -60.87,-180.36 -12.41,-43.84 -24.82,-63.83 -48.91,-96.22l0 -0c0.08,-8.52 -0,-16.74 -0.29,-24.28 -1.59,-41.44 5.64,-157.03 5.64,-157.03l-0 -0c8.71,-8.31 18.2,-18.33 28.67,-30.75 49.48,-58.64 86.13,-135.6 97.12,-194.24 10.99,-58.64 3.77,-111.54 6.2,-237.56 2.43,-126.02 -7.27,-152.68 -16.96,-189.03 -9.69,-36.35 -38.78,-101.79 -48.47,-142.98 -9.69,-41.2 -4.85,-92.09 -4.85,-150.26 0,0 -43.34,-68.08 -129.74,-101.8 -25.85,-10.08 -44.9,-16.96 -59.48,-22.05z"/>
  <path class="fil6" d="M604.04 928.06c0,0 4.85,135.79 26.67,257.02 21.82,121.24 33.95,300.67 38.8,380.68 4.85,80.02 24.25,278.85 48.5,327.34 24.24,48.5 134.04,183.98 134.04,183.98 0,0 -48.32,-101.98 -76.05,-183.78 -27.73,-81.8 -49.91,-177.46 -49.91,-224.6 0,-47.14 -1.39,-108.14 -1.39,-108.14 0,0 8.32,119.23 29.12,184.4 20.8,65.16 58.23,166.37 72.09,189.94 13.87,23.57 52.69,73.48 52.69,73.48 0,0 -63.78,-145.58 -84.57,-209.35 -20.8,-63.78 -38.82,-127.55 -29.11,-158.06 9.7,-30.5 -5.55,-80.41 -9.71,-120.62 -4.16,-40.21 -11.09,-77.64 -11.09,-77.64 0,0 33.28,81.8 42.98,126.17 9.7,44.37 37.44,192.72 48.53,235.7 11.09,42.98 51.3,160.82 63.78,181.62 12.48,20.8 26.46,35.91 26.46,35.91 0,0 -12.48,-34.67 -40.21,-126.18 -27.73,-91.51 -30.51,-165.01 -38.83,-194.13 -8.32,-29.12 13.91,-207.13 10.24,-236.47 -1.11,-8.84 -9.78,-32.23 -21.81,-61.55 -7.88,71.82 -14.6,144.99 -14.6,144.99 0,0 -36.25,-125.47 -75.28,-223.07 -39.04,-97.59 -75.28,-220.28 -83.65,-273.25 -3.6,-22.78 -7.19,-70.81 -8.57,-128.15l-0.01 -0.47 0 -0.18c-1.8,-75.9 0.27,-167.94 11.37,-239.27l-60.45 243.67zm108.09 191.69l-0.1 -0.26c-0.66,9.73 -2.92,5.46 -2.92,5.46 0,0 1.17,-1.89 3.02,-5.2z"/>
  <path class="fil7" d="M1263.43 350.8c31.33,-63.14 11.81,-135.63 6.24,-166.3 -2.87,-15.8 -11.67,-40.47 -32.86,-60.69 10.94,-18.21 31.23,-23.24 31.23,-23.24 0,0 22.33,-27.9 153.46,103.24 131.14,131.14 189.73,125.56 248.32,348.77 58.59,223.21 112.92,579.69 145,682.37 32.09,102.68 35.23,360.87 32.2,413.19l0 0.02c-5.05,-64.85 -29.71,-153.9 -29.71,-153.9 0,0 -43.66,80.05 -36.38,104.31 7.28,24.26 -24.26,80.06 -41.24,12.13 -16.98,-67.92 -46.09,-223.18 -50.94,-349.33 -4.85,-126.15 10.75,-214.14 17.08,-285.86 6.33,-71.72 -59.06,-358.6 -67.5,-417.66 -8.44,-59.06 -75.93,-166.64 -90.7,-179.3 -14.77,-12.66 -29.53,33.75 -73.83,4.22 -44.3,-29.53 -69.61,-42.19 -86.49,-67.5 -16.87,-25.31 -103.36,-177.19 -103.36,-177.19 0,0 -11.04,62.94 12.66,92.82 23.7,29.88 25.31,52.73 35.86,116.02 10.05,60.32 -2.94,58.04 -4.19,57.69 -5.07,-1.78 -23,2.3 -27.11,0.92 -45.98,-7.51 -79.93,-81.27 -37.75,-54.74z"/>
  <path class="fil8" d="M1269.75 380.31c-45.27,45.03 -174.64,240.88 -173.06,310.34 1.58,69.45 -2.86,49.52 11.93,62.19 14.79,12.67 30.4,57.69 130.81,47.26 100.41,-10.43 55.02,42.91 55.02,42.91l-43.37 45.89 -18.25 40.48c0,0 8.33,44.46 20.84,59.73 12.5,15.28 -41.43,21.44 -55.44,-9.43 -14.01,-30.86 -18.18,-65.59 -33.46,-78.09 -15.28,-12.5 -45.34,-20.76 -39.82,17.82 5.51,38.58 -7.07,98.88 -9.97,126.6 -2.89,27.72 -16.74,74.78 -32.44,85.66 -15.7,10.87 -35.03,32.62 -37.45,49.53 -2.42,16.91 10.38,10.91 15.14,14.09 4.76,3.18 33.36,-13.51 42.1,-26.22 8.74,-12.71 12.71,-5.56 31.78,1.59 19.07,7.15 44.49,15.09 63.55,10.33 19.07,-4.77 28.59,-20.65 42.1,-29.39 13.51,-8.74 14.3,-3.97 16.68,6.35 2.38,10.33 -5.56,29.39 -5.56,29.39 0,0 17.48,-2.38 41.31,-2.38 23.83,0 29.39,-14.3 22.24,-30.98 -7.15,-16.69 -42.1,-55.61 -42.1,-55.61 0,0 -18.26,-30.18 11.92,-6.35 30.18,23.83 42.9,54.02 53.22,63.55 10.33,9.53 39.58,44.84 87.36,41.16 47.78,-3.68 109.4,-64.26 135.97,-82.69 8.06,-5.59 17.51,1.06 26.88,13.47l0.02 2.14 0 0.22 0.03 2.33 0.01 1.22 0.01 1.09 0.03 2.28 0 0.33 0.02 1.94 0.02 1.7 0.02 2.75 0.01 0.83 0.01 1.36 0.03 4.34 0.01 1.31 0 0.82 0.01 2.12 0 0.49 0 1.61 0 1.77 0 0.31 0 2.06 0 2.05 -0 2.03 0 0.17 -0.01 1.84 -0 1.4 -0 0.59 -0.01 1.98 -0 0.63 -0.02 1.33 -0.02 1.83 -0 0.12 -0.03 1.93 -0.01 1.07 -0.01 0.85 -0.03 1.91 -0 0.33 -0.03 1.56 -0.03 1.49 -0.01 0.39 -0.05 1.86 -0.02 0.76 -0.03 1.09 -0.06 1.84 0 0.05 -0.06 1.78 -0.04 1.17 -0.02 0.65 -0.07 1.81 -0.02 0.47 -0.06 1.33 -0.07 1.58 -0.01 0.21 -0.09 1.78 -0.05 0.88 -0.05 0.89 -0.1 1.76 -0.01 0.2 -0.1 1.55 -0.08 1.28 -0.03 0.47 -0.12 1.74 -0.04 0.61 -0.08 1.12 -0.13 1.68 -0 0.05 -0.14 1.72 -0.08 1.01 -0.06 0.71 -0.16 1.71 -0.03 0.35 -0.21 2.2 -0.05 0.56 -0.03 0.31 -0.18 1.7 -0.08 0.75 -0.11 0.95 -0.2 1.69 -0.01 0.1 -0.19 1.59 -0.14 1.14 -0.07 0.55 -0.22 1.69 -0.06 0.5 -0.16 1.19 -0.21 1.54 -0.02 0.15 -0.25 1.69 -0.13 0.89 -0.12 0.79 -0.26 1.69 -0.04 0.25 -0.23 1.44 -0.22 1.29 -0.07 0.4 -0.29 1.69 -0.11 0.65 -0.19 1.05 -0.31 1.7c-10.99,58.64 -67.15,158.72 -97.12,194.24 -33.75,40 -119.24,97.05 -165.3,132.05 -60.83,46.23 -113.84,39.28 -177.39,26.24 0,0 -40.68,-18.25 60.01,-34.23 100.69,-15.98 151.83,-57.53 169.41,-76.71 17.58,-19.18 49.55,-89.5 65.53,-113.47 15.98,-23.97 13.32,-34.34 9.35,-39.11 -3.97,-4.77 -14.31,-7.95 -34.97,6.36 -20.66,14.31 -60.39,46.09 -69.93,54.04 -9.53,7.95 -58.01,34.96 -78.67,41.32 -20.66,6.36 -41.32,-2.38 -77.88,5.56 -36.55,7.95 -61.19,4.77 -79.47,0.8 -18.28,-3.97 -35.76,-27.02 -42.12,-34.97 -6.35,-7.95 -33.37,-19.07 -33.37,-19.07 0,0 -15,0.36 -25.97,-9.7 -10.97,-10.06 -53.92,-42.05 -16.45,-36.56 37.47,5.49 66.72,4.57 101.44,-5.48 34.72,-10.05 63.06,-19.19 77.68,-13.71 14.62,5.48 32.9,12.79 41.13,17.36 8.22,4.57 21.93,-7.31 30.15,-13.71 8.22,-6.4 32.9,-6.4 58.49,-3.66 25.59,2.74 51.18,0 64.88,-4.57 13.71,-4.57 32.9,-10.05 32.9,-10.05 0,0 -10.96,-10.05 -20.1,-17.37 -9.14,-7.31 4.86,-27.14 4.86,-27.14 0,0 -1.39,-20.84 -12.51,-37.53 -11.12,-16.68 -31.97,-36.14 -31.97,-36.14 0,0 -11.12,12.51 -19.46,22.24 -8.34,9.73 -15.76,19.21 -22.16,25.61 -6.4,6.39 -7.31,24.67 -11.88,32.9 -4.57,8.22 -24.68,20.11 -35.65,27.42 -10.97,7.31 -24.68,15.54 -46.61,4.57 -21.93,-10.97 -42.04,-31.07 -57.58,-32.9 -15.54,-1.83 -36.55,10.97 -36.55,10.97 0,0 -23.76,-6.4 -33.81,-17.37 -10.06,-10.97 -9.14,-37.47 -9.14,-37.47 0,0 -1.83,-10.97 -10.97,-10.97 -9.14,0 -23.85,10.61 -24.68,19.19 -2.43,25.09 -24.7,34.14 -24.42,-3.84 0.22,-30.58 8.34,-62.55 27.8,-91.75 19.46,-29.19 47.27,-54.22 47.27,-54.22 0,0 28.1,-34.35 32.31,-75.34 4.21,-40.99 -2.1,-67.27 -4.2,-74.63 -2.1,-7.36 -24.17,67.27 -33.64,83.04 -9.46,15.77 -56.76,64.12 -69.38,88.3 -12.61,24.18 -34.69,50.46 -34.69,50.46 0,0 -14.25,60.95 -17.92,94.05 -3.68,33.09 -34.93,137.89 -34.93,137.89 0,0 -10.3,-2.8 -23.07,-12.27 -6.77,-22.12 -13.1,-49.09 -18.45,-81.19 -14.66,-87.96 -34.82,-199.74 -34.82,-267.55 0,-67.81 -29.32,-100.79 -29.32,-100.79 0,0 1.83,-84.3 34.82,-170.42 32.99,-86.13 70.06,-272.02 187.8,-343.14 117.74,-71.11 162.72,-5.78 186.49,-17.18 15.07,14.92 52.37,-18.4 52.37,-18.4z"/>
  <path class="fil9" d="M1041.11 836.96c28.4,19.99 59.95,29.46 65.22,43.13 5.26,13.67 -17.77,46.54 -22.09,69.42 -13.39,71.03 -51.55,54.09 -45.23,41.02 4.62,-9.55 25.24,-26.3 22.09,-39.97 -3.15,-13.67 -35.76,26.29 -76.78,42.07 -41.02,15.78 -74.68,23.15 -102.03,25.25 -13.94,1.07 -30.9,-2.5 -45.56,-7.38 -4.84,-54.47 -28.46,-81.05 -28.46,-81.05 0,0 0.91,-41.99 13.05,-96.98 18.05,-9.98 49.05,-17.24 100.41,-19.9 81.87,-4.25 119.39,24.39 119.39,24.39z"/>
  <path class="fil10" d="M834.15 784.56c0,0 95.21,-6.82 138.09,9.6 42.88,16.42 54.75,28.29 45.62,40.15 -9.12,11.86 -17.34,8.21 -54.75,0.91 -37.41,-7.3 -71.4,-12.41 -105.84,-10.95 -15.22,0.64 -26.61,1.43 -34.59,2.11 3.1,-13.38 6.88,-27.46 11.45,-41.82z"/>
  <path class="fil2" d="M1587.95 1001.76c17.59,-32.46 29.11,-74.39 36.45,-104.78 7.34,-30.39 1.05,-40.87 -4.19,-57.64 -5.24,-16.77 -3.47,0.56 -31.44,-24.11 -9.26,-8.17 -17.79,-13.45 -25.06,-16.34 2.87,8.37 5.33,16.1 7.13,22.82 9.45,35.47 18.92,61.73 17.12,180.04l0 0z"/>
  <path class="fil2" d="M1641.34 837.72c0,0 -8.96,-22.74 -16.54,-53.06 -7.58,-30.33 -13.78,-43.41 -5.51,-53.06 8.27,-9.65 24.12,-14.47 32.39,1.38 8.27,15.85 -10.34,104.75 -10.34,104.75z"/>
  <path class="fil11" d="M1251.08 888.9c0,0 19.84,-44.44 46.82,-57.14 26.98,-12.7 102.36,-28.57 112.68,-30.95 10.32,-2.38 42.06,13.49 42.06,13.49l27.77 12.7 16 6.93c0,0 -25.87,-0.91 -44.93,-7.71 -19.06,-6.81 -31.31,-13.16 -39.48,-12.71 -8.17,0.45 -76.7,14.52 -76.7,14.52 0,0 -34.95,10.43 -40.85,14.97 -5.9,4.54 -43.37,45.89 -43.37,45.89z"/>
  <path class="fil12" d="M1237.28 911.32c-3.6,6 11.41,41.42 24.61,49.22 13.2,7.8 55.22,10.81 86.44,12 31.21,1.2 107.45,-7.81 128.45,-18.01 21.01,-10.2 34.21,-62.42 37.82,-75.63 3.6,-13.21 -22.64,-23.14 -33.41,-24.57l-0.01 0c2.7,1.95 -23.58,9.57 -38.32,3.19 -12.45,-5.38 -27.39,-13.26 -38.91,-16.98l-0.01 0c-5.26,-1.04 -28.91,1.77 -52.42,5.74 -11.84,2.9 -22.32,5.9 -25.75,7.61 -7.5,3.75 -30.65,10.94 -34.42,12.09 -17.93,14.85 -54.07,45.33 -54.07,45.33zm240.93 -57.42c-2.78,-0.43 -6.63,-1.07 -11.12,-1.85 3.91,1.12 7.74,1.84 11.12,1.85z"/>
  <path class="fil13" d="M1275.4 896.54c0,0 29.65,-29.46 37.51,-41.04 7.86,-11.58 50.42,-12.76 70.73,-13.85 20.3,-1.09 31.3,2.97 39.93,7.01 8.63,4.03 19.29,8.88 19.29,8.88 0,0 -4.83,8.2 -11.67,17.37 -1.49,1.8 -3.39,4.3 -5.62,7.14l-0.01 0.01 -0.02 0.03c-9.14,10.92 -21.65,23.86 -40.34,30.51l-3.22 1.07 -0.04 0.01c-10.01,3.05 -21.69,6.28 -32.69,8.44 -0.97,0.06 -1.88,0.07 -2.71,0.02 -8.03,-0.47 -37.99,-7.63 -53.61,-12.42 -9.57,-6.66 -17.42,-13.09 -17.51,-13.17l-0 -0z"/>
  <path class="fil11" d="M1389.73 837.13c6.48,7.6 10.37,17.33 10.37,27.93 0,24.31 -20.45,44.02 -45.66,44.02 -25.22,0 -45.67,-19.71 -45.67,-44.02 0,-1.9 0.13,-3.76 0.37,-5.59 6.25,-2.19 12.11,-4.39 15.38,-6.02 7.48,-3.74 43.84,-12.72 65.21,-16.32z"/>
  <path class="fil14" d="M1380.3 837.13c5.72,6.72 9.16,15.31 9.16,24.68 0,21.47 -18.06,38.89 -40.34,38.89 -22.28,0 -40.34,-17.41 -40.34,-38.89 0,-1.67 0.11,-3.32 0.32,-4.94 5.52,-1.93 10.69,-3.87 13.59,-5.32 6.6,-3.3 38.73,-11.24 57.61,-14.42z"/>
  <path class="fil15" d="M1350.78 858.88c3.24,0 5.87,2.47 5.87,5.53 0,2.8 -2.2,5.11 -5.06,5.48 -1.25,2.88 -5.99,5.02 -11.64,5.02 -6.61,0 -11.96,-2.93 -11.96,-6.54 0,-3.61 5.35,-6.55 11.96,-6.55 1.92,0 3.72,0.25 5.33,0.68 0.83,-2.11 2.98,-3.62 5.51,-3.62z"/>
  <ellipse class="fil13" cx="1362.84" cy="853.36" rx="15.71" ry="5.97"/>
  <path class="fil16" d="M1238.05 816.21c0,0 -12.06,-12.07 15.69,-26.55 27.75,-14.48 119.55,-53.47 142.37,-59.12 22.82,-5.65 71.18,8.45 85.66,15.69 14.48,7.24 32.58,26.54 32.58,26.54 0,0 -54.06,-21.22 -72.14,-20.02 -33.89,2.25 -127.82,52.89 -166.78,65.07 -19.3,6.03 -37.37,-1.61 -37.37,-1.61z"/>
  <path class="fil17" d="M1236.85 1199.45c14.25,-4.75 42.75,-1.36 48.86,2.03 6.11,3.39 8.15,6.11 -11.56,7.93 -19.25,3.01 -37.3,-1.81 -37.3,-1.81 0,0 -13.83,10.23 -21.65,16.85 -7.82,6.62 -37.89,22.25 -43.31,22.25 -5.41,0 -7.21,-9.02 -25.86,-6.01 -18.65,3.01 -40.3,12.03 -47.52,12.63 -7.22,0.6 -6.74,-14.83 -21.65,-13.23 -14.92,1.6 -15.46,-6.57 -15.46,-6.57 0,0 16.06,-26.52 39.52,-29.52 23.46,-3.01 50.53,16.24 59.55,20.46 9.02,4.21 24.06,6.62 41.5,-4.21 17.44,-10.83 34.89,-20.79 34.89,-20.79z"/>
  <path class="fil18" d="M1118.15 1224.84c-14.63,0 -26.23,-2.97 -27.29,-10.28 -1.06,-7.32 8.7,-13.44 16.21,-10.68 7.51,2.77 26.46,6.28 31.4,8.75 4.93,2.47 25.6,13.28 25.6,13.28l7.87 7.64 -53.79 -8.7z"/>
  <ellipse class="fil18" cx="1261.83" cy="1202.89" rx="23.16" ry="4.93"/>
  <path class="fil19" d="M1416.3 1275.25c7.83,1.68 18.08,11.88 17.88,25.53 -0.19,12.83 -2.65,21.68 -4.08,26.49 -0.53,1.79 0.43,2.07 2.07,0.71 6.07,-5.02 16.39,-16.49 18.77,-26 3.29,-13.16 -2.99,-25.44 -11.67,-27.53 -5.23,-1.26 -14.58,-1.59 -21.19,-1.77 -3.55,-0.1 -5.82,1.7 -1.78,2.57z"/>
  <path class="fil20" d="M1031.4 917.87c0,0 -39.41,16.83 -61.05,25.25 -21.64,8.42 -54.82,12.6 -71.39,13.63 -16.57,1.03 -38.58,-11.41 -45.83,-21.9 -7.25,-10.5 -9.09,-26.24 -9.09,-26.24 0,0 11.56,-11.94 34.08,-17.71 22.52,-5.77 47.65,-18.42 66.58,-11.66 18.93,6.77 57.06,17.28 63.87,22.51 6.81,5.24 22.83,16.11 22.83,16.11z"/>
  <path class="fil21" d="M1031.6 888.14c0,0 -34.55,-23.03 -63.87,-29.84 -29.32,-6.81 -63.35,-3.66 -75.39,0.53 -12.04,4.19 -49.22,7.33 -54.45,12.04 -5.24,4.71 -22.51,31.41 -23.03,35.08 -0.53,3.66 19.37,48.69 23.56,53.4 4.19,4.71 53.92,17.28 62.3,17.8 8.38,0.52 54.97,-7.85 60.21,-11.52 5.24,-3.67 28.79,-10.99 36.65,-15.71 7.85,-4.71 31.41,-14.66 34.56,-15.18 3.14,-0.53 22.51,4.19 22.51,4.19 0,0 -5.24,-12.04 -11,-15.71 -5.76,-3.67 -20.42,4.19 -36.12,7.85 -15.71,3.66 -60.74,24.08 -84.82,26.7 -24.08,2.62 -56.54,-8.9 -62.3,-14.14 -5.76,-5.24 -18.32,-25.13 -18.32,-25.13 0,0 -3.67,-5.76 4.71,-12.56 8.38,-6.81 23.56,-13.09 37.17,-16.75 13.61,-3.67 34.56,-8.38 49.74,-8.9 15.18,-0.52 51.83,12.04 58.11,17.28 6.28,5.24 24.61,17.28 31.41,17.28 6.81,0 11.11,6.51 15.76,7.45 4.66,0.93 14.6,-2.74 9.89,-9.02 -4.71,-6.28 -18.85,-9.95 -29.32,-13.09 -10.47,-3.14 -23.56,-11.52 -40.84,-17.28 -17.28,-5.76 -39.79,-12.56 -54.45,-11.52 -14.66,1.05 -26.18,-7.33 -26.18,-7.33 0,0 33.51,-2.09 53.4,-1.04 19.9,1.04 41.36,11.51 50.79,17.27 9.43,5.76 21.47,11.52 28.79,13.61 7.33,2.1 0.52,-5.76 0.52,-5.76z"/>
  <path class="fil11" d="M1031.6 888.14c0,0 -34.55,-23.03 -63.87,-29.84 -29.32,-6.81 -63.35,-3.66 -75.39,0.53 -12.04,4.19 -49.22,7.33 -54.45,12.04 -5.24,4.71 -22.51,31.41 -23.03,35.08 -1.33,9.24 31.07,44.85 27.22,12.56 0,0 -3.67,-5.76 4.71,-12.56 8.38,-6.81 23.56,-13.09 37.17,-16.75 13.61,-3.67 34.56,-8.38 49.74,-8.9 15.18,-0.52 51.83,12.04 58.11,17.28 6.28,5.24 24.61,17.28 31.41,17.28 6.81,0 11.11,6.51 15.76,7.45 4.66,0.93 14.6,-2.74 9.89,-9.02 -4.71,-6.28 -18.85,-9.95 -29.32,-13.09 -10.47,-3.14 -23.56,-11.52 -40.84,-17.28 -17.28,-5.76 -39.79,-12.56 -54.45,-11.52 -14.66,1.05 -26.18,-7.33 -26.18,-7.33 0,0 33.51,-2.09 53.4,-1.04 19.9,1.04 41.36,11.51 50.79,17.27 9.43,5.76 21.47,11.52 28.79,13.61 7.33,2.1 0.52,-5.76 0.52,-5.76z"/>
  <path class="fil11" d="M957.03 884.35c3.79,6.27 5.96,13.52 5.96,21.24 0,23.84 -20.65,43.17 -46.13,43.17 -25.48,0 -46.14,-19.33 -46.14,-43.17 0,-4.81 0.84,-9.43 2.39,-13.74 2.58,-0.84 5.16,-1.61 7.69,-2.29 14.16,-3.81 35.94,-8.72 51.73,-9.26 5.96,-0.2 15.09,1.53 24.5,4.06z"/>
  <path class="fil14" d="M957.65 883.92c3.4,5.62 5.34,12.11 5.34,19.03 0,21.37 -18.51,38.69 -41.34,38.69 -22.84,0 -41.35,-17.32 -41.35,-38.69 0,-4.31 0.75,-8.45 2.14,-12.32 2.31,-0.75 4.63,-1.44 6.89,-2.05 12.69,-3.42 32.21,-7.81 46.36,-8.3 5.34,-0.18 13.52,1.37 21.96,3.64z"/>
  <ellipse class="fil13" cx="941.44" cy="895.32" rx="16.91" ry="5.69"/>
  <path class="fil15" d="M922.94 898.23c3.24,0 5.87,2.47 5.87,5.53 0,2.8 -2.2,5.11 -5.06,5.48 -1.25,2.88 -5.99,5.02 -11.64,5.02 -6.61,0 -11.96,-2.93 -11.96,-6.54 0,-3.61 5.35,-6.55 11.96,-6.55 1.91,0 3.72,0.25 5.33,0.68 0.82,-2.11 2.98,-3.62 5.51,-3.62z"/>
  <path class="fil22" d="M1364.44 1324.49c-11.95,15.94 -23.2,39.27 -38.68,52.81 -36.47,31.91 -62.63,48.33 -110.74,51.48 -16.06,1.05 -36.87,3.95 -58.26,1.02 -25.33,-3.47 -62.79,-17.54 -86.44,-41.19 -10.36,-10.36 -23.44,-22.54 -34.59,-29.71 -11.15,-7.17 -15.6,0.69 5.12,-0.11 20.72,-0.8 97.48,-33.97 121.91,-19.24 24.44,14.73 45.01,7.86 52.98,4.07 7.97,-3.79 19.13,-14.35 42.24,-14.35 23.11,0 63.03,3.71 70.84,3.1 7.81,-0.62 35.61,-7.88 35.61,-7.88z"/>
  <path class="fil17" d="M1122.78 1176.66c2.51,2.74 17.12,9.13 21.46,15.06 4.34,5.93 8.54,15.76 -1.83,16.89 -10.36,1.13 -15.97,-4.56 -25.56,-10.95 -9.59,-6.39 -15.29,-16.43 -11.41,-23.05 3.88,-6.62 17.34,2.05 17.34,2.05z"/>
  <path class="fil11" d="M1453.37 869.91c-3,4.2 -30.62,46.22 -54.63,56.42 -24.01,10.21 -49.22,3 -66.03,3.6 -16.81,0.6 -41.42,-6.01 -46.22,-12.61 -4.8,-6.6 -7.8,-9.01 -20.41,-10.2 -12.61,-1.2 -22.45,7.71 -1.82,-18.51 20.63,-26.23 30.28,-32.18 39.2,-35.82 7.57,-5.88 13.35,-7.08 17.29,-8.87 3.95,-1.79 27.69,-9.07 47.2,-12.71 19.51,-3.63 37.21,-6.81 41.75,-7.26 4.54,-0.45 24.51,13.62 29.96,16.34 5.44,2.72 25.42,13.61 38.57,13.61 13.16,0 -18.6,10.89 -35.4,3.63 -16.79,-7.26 -38.12,-19.06 -49.47,-19.06 -11.35,0 -61.65,12.45 -67.62,15.43 -24.85,12.42 -31.48,22.65 -50.36,42.64 0,0 2.09,6.38 8.69,9.98 6.6,3.6 52.22,15 62.43,15.6 10.2,0.6 31.21,-7.2 48.02,-12.61 16.81,-5.4 33.02,-31.21 38.42,-36.61 5.4,-5.41 20.41,-3 20.41,-3z"/>
  <path class="fil23" d="M1453.37 869.91c-3,4.2 -30.62,46.22 -54.63,56.42 -24.01,10.21 -49.22,3 -66.03,3.6 -16.81,0.6 -46.47,-2.16 -49.65,-10.75 -3.19,-8.6 -19.01,0.9 -25.95,-9.68 -3.9,-5.94 14.34,-8.43 26.98,-2.97 6.91,2.98 52.22,15 62.43,15.6 10.2,0.6 31.21,-7.2 48.02,-12.61 16.81,-5.4 33.02,-31.21 38.42,-36.61 5.4,-5.41 20.41,-3 20.41,-3z"/>
  <path class="fil24" d="M1291.28 890.89c-2.38,-2.9 -4.22,-2.9 -10.56,2.11 -6.33,5.02 -11.08,11.08 -11.08,13.46 0,2.38 3.96,2.91 16.36,3.7 12.4,0.79 19.53,-0.8 20.06,-7.39 0.53,-6.59 -3.44,-11.08 -7.39,-8.71 -3.96,2.38 -7.39,-3.16 -7.39,-3.16z"/>
  <path class="fil25" d="M1333.38 938.27c-25.29,-7.03 -33.72,-1.4 -40.04,-4.92 -6.33,-3.51 -16.87,3.51 -13.35,9.13 3.51,5.62 30.21,15.46 49.18,18.97 18.97,3.51 42.15,-1.41 49.88,-9.84 7.73,-8.43 0,-16.16 -12.64,-21.08 -12.65,-4.92 -33.02,7.73 -33.02,7.73z"/>
  <path class="fil26" d="M1158.68 917.46c-12.93,-32.32 -11.87,-42.03 -16.17,-16.17 -13.67,82.04 18.44,172.32 17.24,183.15 -2.15,19.39 -10.78,36.63 6.46,53.87 17.24,17.24 47.4,30.17 49.56,2.16 2.16,-28.01 11.38,-22.59 -8.44,-38.18 -61.97,-48.69 -41.65,-133.42 -48.64,-184.82z"/>
  <path class="fil27" d="M1043.37 888.51c0,0 19.47,8.92 27.58,18.66 8.11,9.73 8.11,17.04 4.05,25.96 -4.05,8.92 -12.17,21.09 -12.17,21.09 0,0 -3.24,-23.52 -11.36,-34.87 -8.11,-11.36 -8.11,-30.82 -8.11,-30.82z"/>
  <path class="fil28" d="M1033.66 1348.36c0,0 21.76,3.77 57.23,-6.5 35.48,-10.27 61.08,-19.99 71.45,-16.54 18.6,6.19 22.64,15.97 41.67,16.12 7.16,0.06 12.35,-2.8 28.04,-16.87 11.98,-10.74 63.08,0.06 87.15,2.41 24.07,2.34 51.1,-8.64 51.1,-8.64 -80.88,85.13 -103.49,97.91 -168.75,101.46 -49.9,2.72 -96.76,-5.59 -114.62,-25.64 -14.92,-16.75 -56.05,-46.2 -53.29,-45.79z"/>
  <path class="fil29" d="M1154.93 1377.57c0.13,-2.91 -3.49,7.92 5.89,13.87 9.38,5.95 16.18,7.85 26.71,3.76 10.53,-4.09 14.52,-1.6 24.76,-2.55 10.24,-0.95 38.68,-4.43 52.06,-14.17 13.38,-9.74 41.92,-23.36 43.36,-27.46 1.44,-4.09 -17.66,-1.36 -34.24,4.13 -16.58,5.49 -72.62,19.85 -89.72,19.86 -17.09,0.01 -28.82,2.56 -28.82,2.56z"/>
  <path class="fil30" d="M1160.85 1358.18c11.83,4.69 33.98,16.9 44.31,14.04 32.1,-8.87 30.48,-17.64 73.56,-23.25 14.12,-1.84 35.8,-3.84 47.28,-11.05 14.44,-9.07 36.47,-16.64 54.02,-28.06 0,0 11.45,7.85 -13.94,19.14 -25.39,11.29 -29.7,12.86 -45.23,19.92 -15.53,7.06 -37.65,6.12 -63.77,13.18 -26.12,7.06 -35.94,15.86 -49.18,19.28 -13.23,3.42 -32.83,-6.96 -45.91,-14.25 -13.08,-7.29 -58.97,1.1 -77.53,1.28 -8.12,0.08 -39.35,-3.99 -56.18,-10.67 -27.56,-10.93 -40.8,-20.08 -17.63,-20.08 4.41,0 30.96,15.74 67.33,21.01 19.85,2.88 71.05,-5.18 82.88,-0.49z"/>
 </g>
</svg>
