<?xml version="1.0" encoding="UTF-8"?>
<!DOCTYPE svg PUBLIC "-//W3C//DTD SVG 1.1//EN" "http://www.w3.org/Graphics/SVG/1.1/DTD/svg11.dtd">
<!-- Creator: CorelDRAW 2021.5 -->
<svg xmlns="http://www.w3.org/2000/svg" xml:space="preserve" width="132.973mm" height="132.973mm" version="1.1" style="shape-rendering:geometricPrecision; text-rendering:geometricPrecision; image-rendering:optimizeQuality; fill-rule:evenodd; clip-rule:evenodd"
viewBox="0 0 1121.79 1121.79"
 xmlns:xlink="http://www.w3.org/1999/xlink"
 xmlns:xodm="http://www.corel.com/coreldraw/odm/2003">
 <defs>
  <style type="text/css">
   <![CDATA[
    .fil23 {fill:#FEFEFE}
    .fil6 {fill:#EA556F}
    .fil4 {fill:#E31662}
    .fil5 {fill:#CA2041}
    .fil10 {fill:#180D0E}
    .fil14 {fill:#270F07}
    .fil9 {fill:#4D3224}
    .fil13 {fill:#50322A}
    .fil17 {fill:#5A1700}
    .fil0 {fill:#67E6BC}
    .fil29 {fill:#7E2924}
    .fil15 {fill:#81523B}
    .fil2 {fill:#8F673C}
    .fil20 {fill:#9C5C46}
    .fil21 {fill:#A45A41}
    .fil16 {fill:#B07D46}
    .fil18 {fill:#BA7758}
    .fil22 {fill:#C4745A}
    .fil19 {fill:#C9BCB7}
    .fil8 {fill:#CC8D4A}
    .fil3 {fill:#D0914F}
    .fil26 {fill:#D09278}
    .fil27 {fill:#DB8878}
    .fil7 {fill:#E0AA62}
    .fil24 {fill:#E8BE8A}
    .fil12 {fill:#E8DFD6}
    .fil11 {fill:#EDA253}
    .fil1 {fill:#F0B669}
    .fil28 {fill:#FEB392}
    .fil25 {fill:#FFDABA}
   ]]>
  </style>
 </defs>
 <g id="Plan_x0020_1">
  <metadata id="CorelCorpID_0Corel-Layer"/>
  <circle class="fil0" cx="560.89" cy="560.89" r="560.89"/>
  <path class="fil1" d="M774.36 269.67c0,29.68 -2.47,55.65 2.48,76.67 4.95,21.02 19.79,54.41 24.73,72.96 4.95,18.55 9.89,32.15 8.66,96.46 -1.24,64.31 2.44,91.3 -3.16,121.22 -5.61,29.92 -24.31,69.2 -49.56,99.12 -25.25,29.92 -39.27,32.73 -53.3,43.95 -14.03,11.22 -38.34,32.73 -66.39,39.27 -28.05,6.54 -73.87,-5.61 -93.51,-14.03 -19.64,-8.42 -61.72,-56.11 -71.07,-64.52 -9.35,-8.41 -20.57,-33.66 -28.05,-78.55 -7.48,-44.88 -17.77,-101.92 -17.77,-136.52 0,-34.6 -14.96,-51.43 -14.96,-51.43 0,0 0.93,-43.02 17.77,-86.96 16.83,-43.95 40.9,-161.96 112.33,-183.57 71.43,-21.62 69,17.49 98.92,-11.42 -7.68,29.23 -4.29,-5.79 6.47,1.74 10.76,7.53 16.13,6.45 60.22,23.66 44.09,17.2 66.2,51.95 66.2,51.95z"/>
  <path class="fil1" d="M742.87 751.8c0,0 -3.69,58.98 -2.88,80.13 0.81,21.15 -1.63,52.86 -2.44,62.62 -0.81,9.76 -0.81,51.24 -0.81,51.24 0,0 -27.65,-15.45 -58.55,-34.97 -30.9,-19.52 -78.07,-36.6 -100.03,-60.99 -11.97,-13.3 -23.21,-30.46 -30.96,-43.32 20.95,8.31 63.86,19.08 90.61,12.83 28.05,-6.54 52.37,-28.05 66.39,-39.27 11.06,-8.84 22.11,-12.47 38.67,-28.26l0 0z"/>
  <path class="fil2" d="M742.87 751.8c-3.85,61.54 0.36,11.51 -1.97,29.21 -5.71,11.85 -24.06,10.97 -39.1,18.81 -51.39,26.81 -83.73,40.12 -154.6,6.68 20.95,8.31 63.86,19.08 90.61,12.83 28.05,-6.54 52.37,-28.05 66.39,-39.27 11.06,-8.84 22.11,-12.47 38.67,-28.26l0 0z"/>
  <path class="fil3" d="M740.14 844.32c12.29,16.53 18.63,26.73 24.96,49.1 9.23,32.59 31.06,92.04 31.06,92.04 0,0 -45.66,-31.8 -59.42,-39.67 0,0 0,-41.48 0.81,-51.24 0.67,-7.98 2.42,-30.66 2.59,-50.23z"/>
  <path class="fil4" d="M642.28 183.79c0.8,-1.53 1.61,-3.12 2.43,-4.78 0,0 -1.92,1.92 -2.43,4.78zm-1.69 11.78c15.99,-32.22 10.15,-85.76 7.31,-101.41 -2.84,-15.65 -17.07,-48.37 -66.87,-48.37 -49.79,0 -163.61,7.11 -233.32,71.13 -69.71,64.02 -153.83,241.76 -163.24,443.08 -12.66,270.96 -31.99,349.82 195.88,532.09 56.66,19.25 117.38,29.7 180.55,29.7 91.32,0 177.54,-21.84 253.74,-60.56 -3.27,-36.07 -18.47,-75.77 -18.47,-75.77 0,0 -45.66,-31.8 -59.42,-39.67 0,0 -27.65,-15.45 -58.55,-34.97 -30.9,-19.52 -78.07,-36.6 -100.03,-60.99 -11.97,-13.3 -23.21,-30.46 -30.96,-43.32 -1.02,-0.4 -1.99,-0.8 -2.9,-1.19 -19.64,-8.42 -61.72,-56.11 -71.07,-64.52 -9.35,-8.41 -20.57,-33.66 -28.05,-78.55 -7.48,-44.88 -17.77,-101.92 -17.77,-136.52 0,-34.6 -14.96,-51.43 -14.96,-51.43 0,0 0.93,-43.02 17.77,-86.96 16.83,-43.95 38.13,-153.46 112.33,-183.57 74.2,-30.11 68.32,16.06 98.04,-8.18zm97.99 685.43l-0 -0 -0 0.09 0.01 -0.09zm-124.5 -59.91c-0.89,-0.04 -1.78,-0.08 -2.67,-0.14 0.89,0.06 1.79,0.1 2.67,0.14zm-28.58 -3.62l-2.86 -0.59c0.95,0.2 1.9,0.4 2.86,0.59z"/>
  <path class="fil5" d="M408.8 161.42c-39.84,56.92 -59.76,123.79 -69.72,187.81 -9.96,64.03 -5.69,160.78 -1.42,187.81 4.27,27.03 22.77,89.64 42.68,139.44 19.92,49.8 38.42,113.83 38.42,113.83 0,0 8.32,-90.55 14.23,-128.05 1.27,-8.09 3.86,-18.66 7.08,-30.48 -6.34,-38.04 -12.66,-78.94 -12.66,-106.07 0,-34.6 -14.96,-51.43 -14.96,-51.43 0,0 0.93,-43.02 17.77,-86.96 14.41,-37.63 32.11,-123.33 83.48,-166.09 -15.4,-4.2 -36.15,-1.27 -52.25,14.18 -35.57,34.15 -65.45,78.26 -82.52,155.09 -17.08,76.83 -0,130.9 -2.85,147.97 -2.84,17.07 -14.23,35.57 -14.23,35.57 0,0 7.03,13.34 -8.53,-101.02 -15.56,-114.37 55.49,-311.6 55.49,-311.6zm-178.8 661.35c0,-20.59 -7.49,-61.77 -1.87,-101.07 5.62,-39.31 1.87,40.24 12.17,89.84 10.29,49.6 29.01,70.19 29.01,70.19 0,0 -5.62,-62.7 -6.55,-81.42 -0.94,-18.72 0,-29.01 0,-29.01 0,0 2.81,46.79 17.78,85.16 14.97,38.37 28.07,74.87 38.37,81.42 10.29,6.55 0,-61.77 1.87,-71.12 1.87,-9.36 8.42,-21.52 8.42,-21.52l22.42 53.14c4.12,29.75 9.19,56.5 14.77,67.65 6.85,13.7 27.06,40.98 43.75,62.62 0,0 -25.53,-21.51 -84.73,-59.18 -59.19,-37.67 -95.41,-146.7 -95.41,-146.7zm361.24 -764.87c0,0 -29.05,-11.83 -54.87,-3.23 -25.82,8.61 24.74,7.53 38.73,20.44 13.99,12.91 15.07,15.06 -15.06,26.9 -30.13,11.83 -63.48,24.74 -73.16,36.58 -9.68,11.84 -48.41,52.72 -48.41,52.72 0,0 29.05,-30.12 58.1,-37.65 29.05,-7.53 23.67,3.23 13.99,17.21 -9.68,13.99 -11.83,26.9 -11.83,26.9 0,0 13.98,-24.75 46.26,-33.35 32.28,-8.61 41.96,10.76 64.55,-5.38 22.59,-16.14 26.59,-53.2 27.97,-69.93 1.39,-16.73 -46.26,-31.2 -46.26,-31.2zm86.57 148.58c0.63,0.18 7.27,1.34 2.14,-29.44 -5.38,-32.29 -6.21,-43.96 -18.3,-59.2 -12.09,-15.25 -6.46,-47.36 -6.46,-47.36 0,0 44.13,77.5 52.74,90.42 8.61,12.92 21.53,19.38 44.13,34.44 22.6,15.07 30.14,-8.61 37.67,-2.15 7.54,6.46 41.98,61.35 46.28,91.49 4.31,30.14 37.67,176.53 34.44,213.13 -3.23,36.6 -11.19,81.5 -8.72,145.87 2.48,64.37 17.33,143.59 26,178.26 8.66,34.66 24.76,6.19 21.04,-6.19 -3.71,-12.38 18.57,-53.23 18.57,-53.23 0,0 21.34,83.16 13.62,105.22 -4.98,14.24 3.74,59.3 7.28,98.77 -42.46,40.57 -91.28,74.53 -144.81,100.25 -17.79,-14.45 -53.04,-44.86 -57.19,-62.13 -5.58,-23.23 -38.9,-56.13 -57.29,-87.06 26.27,16.22 47.78,28.24 47.78,28.24 13.76,7.88 59.42,39.67 59.42,39.67 0,0 -21.83,-59.44 -31.06,-92.04 -6.33,-22.37 -12.67,-32.57 -24.96,-49.1l0 -0c0.04,-4.35 -0,-8.54 -0.15,-12.39 -0.81,-21.15 2.88,-80.13 2.88,-80.13l-0 -0c4.45,-4.24 9.29,-9.35 14.63,-15.69 25.25,-29.92 43.95,-69.2 49.56,-99.12 5.61,-29.92 1.93,-56.92 3.16,-121.22 1.24,-64.31 -3.71,-77.91 -8.66,-96.46 -4.95,-18.55 -19.79,-51.94 -24.73,-72.96 -4.95,-21.02 -2.48,-46.99 -2.48,-76.67 0,0 -22.11,-34.74 -66.2,-51.95 -13.19,-5.14 -22.91,-8.65 -30.35,-11.25z"/>
  <path class="fil6" d="M308.23 473.57c0,0 2.48,69.29 13.61,131.16 11.14,61.87 17.32,153.42 19.8,194.26 2.47,40.83 12.37,142.29 24.75,167.04 12.37,24.75 68.4,93.88 68.4,93.88 0,0 -24.66,-52.04 -38.81,-93.78 -14.15,-41.74 -25.47,-90.56 -25.47,-114.61 0,-24.05 -0.71,-55.18 -0.71,-55.18 0,0 4.25,60.84 14.86,94.09 10.61,33.25 29.71,84.9 36.79,96.92 7.08,12.03 26.88,37.5 26.88,37.5 0,0 -32.54,-74.29 -43.16,-106.83 -10.61,-32.54 -19.81,-65.09 -14.86,-80.65 4.95,-15.56 -2.83,-41.03 -4.95,-61.55 -2.12,-20.52 -5.66,-39.62 -5.66,-39.62 0,0 16.98,41.74 21.93,64.38 4.95,22.64 19.1,98.34 24.76,120.27 5.66,21.93 26.18,82.07 32.54,92.68 6.37,10.61 13.5,18.33 13.5,18.33 0,0 -6.37,-17.69 -20.52,-64.39 -14.15,-46.7 -15.57,-84.2 -19.81,-99.06 -4.25,-14.86 7.1,-105.69 5.23,-120.67 -0.56,-4.51 -4.99,-16.44 -11.13,-31.41 -4.02,36.65 -7.45,73.98 -7.45,73.98 0,0 -18.5,-64.03 -38.42,-113.83 -19.92,-49.8 -38.42,-112.4 -42.68,-139.44 -1.83,-11.62 -3.67,-36.14 -4.38,-65.39l-0.01 -0.24 0 -0.09c-0.92,-38.73 0.14,-85.7 5.8,-122.09l-30.85 124.34zm55.15 97.81l-0.05 -0.13c-0.34,4.96 -1.49,2.79 -1.49,2.79 0,0 0.59,-0.97 1.54,-2.65z"/>
  <path class="fil6" d="M644.71 179.01c15.99,-32.22 6.03,-69.21 3.18,-84.86 -1.47,-8.06 -5.95,-20.65 -16.77,-30.97 5.58,-9.29 15.93,-11.86 15.93,-11.86 0,0 11.39,-14.24 78.31,52.68 66.92,66.92 96.82,64.07 126.72,177.97 29.9,113.9 57.62,295.81 73.99,348.2 16.37,52.4 17.98,184.15 16.43,210.85l0 0.01c-2.58,-33.09 -15.16,-78.53 -15.16,-78.53 0,0 -22.28,40.85 -18.57,53.23 3.71,12.38 -12.38,40.85 -21.04,6.19 -8.67,-34.66 -23.52,-113.89 -26,-178.26 -2.48,-64.37 5.49,-109.27 8.72,-145.87 3.23,-36.6 -30.14,-182.99 -34.44,-213.13 -4.31,-30.14 -38.75,-85.03 -46.28,-91.49 -7.54,-6.46 -15.07,17.22 -37.67,2.15 -22.6,-15.07 -35.52,-21.53 -44.13,-34.44 -8.61,-12.92 -52.74,-90.42 -52.74,-90.42 0,0 -5.63,32.11 6.46,47.36 12.09,15.25 12.92,26.91 18.3,59.2 5.13,30.78 -1.5,29.62 -2.14,29.44 -2.59,-0.91 -11.74,1.18 -13.83,0.47 -23.46,-3.83 -40.79,-41.47 -19.26,-27.93z"/>
  <path class="fil7" d="M647.93 194.07c-23.1,22.98 -89.12,122.92 -88.31,158.36 0.81,35.44 -1.46,25.27 6.09,31.73 7.55,6.47 15.51,29.44 66.75,24.12 51.24,-5.32 28.08,21.9 28.08,21.9l-22.13 23.41 -9.31 20.66c0,0 4.25,22.68 10.63,30.48 6.38,7.8 -21.14,10.94 -28.29,-4.81 -7.15,-15.75 -9.28,-33.47 -17.07,-39.85 -7.8,-6.38 -23.13,-10.59 -20.32,9.1 2.81,19.69 -3.61,50.46 -5.09,64.6 -1.48,14.14 -8.54,38.16 -16.55,43.71 -8.01,5.55 -17.87,16.64 -19.11,25.27 -1.23,8.63 5.3,5.57 7.73,7.19 2.43,1.62 17.02,-6.89 21.48,-13.38 4.46,-6.49 6.49,-2.84 16.22,0.81 9.73,3.65 22.7,7.7 32.43,5.27 9.73,-2.43 14.59,-10.54 21.48,-15 6.89,-4.46 7.3,-2.03 8.51,3.24 1.21,5.27 -2.84,15 -2.84,15 0,0 8.92,-1.21 21.08,-1.21 12.16,0 15,-7.29 11.35,-15.81 -3.65,-8.51 -21.49,-28.38 -21.49,-28.38 0,0 -9.32,-15.4 6.08,-3.24 15.4,12.16 21.89,27.57 27.16,32.43 5.27,4.86 20.2,22.88 44.58,21.01 24.38,-1.88 55.83,-32.79 69.39,-42.19 4.11,-2.85 8.94,0.54 13.72,6.87l0.01 1.09 0 0.11 0.01 1.19 0.01 0.62 0 0.56 0.01 1.17 0 0.17 0.01 0.99 0.01 0.87 0.01 1.41 0 0.43 0 0.7 0.02 2.21 0 0.67 0 0.42 0 1.08 0 0.25 0 0.82 0 0.9 0 0.16 0 1.05 0 1.04 -0 1.03 0 0.09 -0 0.94 -0 0.72 -0 0.3 -0.01 1.01 -0 0.32 -0.01 0.68 -0.01 0.93 -0 0.06 -0.01 0.99 -0.01 0.54 -0.01 0.43 -0.02 0.97 -0 0.17 -0.02 0.8 -0.02 0.76 -0 0.2 -0.02 0.95 -0.01 0.39 -0.02 0.56 -0.03 0.94 0 0.02 -0.03 0.91 -0.02 0.6 -0.01 0.33 -0.04 0.92 -0.01 0.24 -0.03 0.68 -0.04 0.8 -0.01 0.11 -0.05 0.91 -0.02 0.45 -0.03 0.45 -0.05 0.9 -0.01 0.1 -0.05 0.79 -0.04 0.65 -0.02 0.24 -0.06 0.89 -0.02 0.31 -0.04 0.57 -0.07 0.86 -0 0.03 -0.07 0.88 -0.04 0.51 -0.03 0.36 -0.08 0.87 -0.02 0.18 -0.11 1.12 -0.03 0.29 -0.02 0.16 -0.09 0.87 -0.04 0.38 -0.05 0.49 -0.1 0.86 -0.01 0.05 -0.1 0.81 -0.07 0.58 -0.04 0.28 -0.11 0.86 -0.03 0.25 -0.08 0.61 -0.11 0.78 -0.01 0.08 -0.13 0.86 -0.07 0.46 -0.06 0.4 -0.13 0.86 -0.02 0.13 -0.12 0.74 -0.11 0.66 -0.03 0.2 -0.15 0.86 -0.06 0.33 -0.1 0.53 -0.16 0.87c-5.61,29.92 -34.26,80.99 -49.56,99.12 -17.22,20.41 -60.85,49.52 -84.35,67.38 -31.04,23.59 -58.09,20.05 -90.52,13.39 0,0 -20.76,-9.31 30.62,-17.47 51.38,-8.16 77.48,-29.36 86.45,-39.15 8.97,-9.79 25.28,-45.67 33.44,-57.9 8.16,-12.23 6.8,-17.52 4.77,-19.96 -2.03,-2.43 -7.3,-4.06 -17.84,3.24 -10.54,7.3 -30.82,23.52 -35.68,27.57 -4.87,4.06 -29.6,17.84 -40.14,21.09 -10.54,3.24 -21.08,-1.22 -39.74,2.84 -18.65,4.06 -31.22,2.43 -40.55,0.41 -9.33,-2.03 -18.25,-13.79 -21.49,-17.84 -3.24,-4.05 -17.03,-9.73 -17.03,-9.73 0,0 -7.65,0.18 -13.25,-4.95 -5.6,-5.13 -27.52,-21.45 -8.39,-18.66 19.12,2.8 34.05,2.33 51.76,-2.8 17.72,-5.13 32.18,-9.79 39.64,-6.99 7.46,2.8 16.79,6.53 20.99,8.86 4.2,2.33 11.19,-3.73 15.39,-6.99 4.2,-3.27 16.79,-3.26 29.85,-1.87 13.06,1.4 26.12,0 33.11,-2.33 6.99,-2.33 16.79,-5.13 16.79,-5.13 0,0 -5.59,-5.13 -10.26,-8.86 -4.66,-3.73 2.48,-13.85 2.48,-13.85 0,0 -0.71,-10.64 -6.39,-19.15 -5.67,-8.51 -16.31,-18.44 -16.31,-18.44 0,0 -5.67,6.38 -9.93,11.35 -4.26,4.96 -8.04,9.8 -11.31,13.07 -3.27,3.26 -3.73,12.59 -6.06,16.79 -2.33,4.2 -12.59,10.26 -18.19,13.99 -5.6,3.73 -12.59,7.93 -23.78,2.33 -11.19,-5.6 -21.45,-15.85 -29.38,-16.79 -7.93,-0.93 -18.65,5.6 -18.65,5.6 0,0 -12.12,-3.27 -17.25,-8.86 -5.13,-5.6 -4.66,-19.12 -4.66,-19.12 0,0 -0.93,-5.6 -5.6,-5.6 -4.66,0 -12.17,5.42 -12.59,9.79 -1.24,12.8 -12.6,17.42 -12.46,-1.96 0.11,-15.61 4.26,-31.92 14.19,-46.82 9.93,-14.9 24.12,-27.67 24.12,-27.67 0,0 14.34,-17.53 16.49,-38.45 2.15,-20.92 -1.07,-34.33 -2.14,-38.08 -1.07,-3.75 -12.34,34.33 -17.16,42.37 -4.83,8.05 -28.97,32.72 -35.4,45.06 -6.44,12.34 -17.7,25.75 -17.7,25.75 0,0 -7.27,31.1 -9.15,47.99 -1.88,16.89 -17.83,70.36 -17.83,70.36 0,0 -5.25,-1.43 -11.77,-6.26 -3.45,-11.29 -6.68,-25.05 -9.41,-41.43 -7.48,-44.88 -17.77,-101.92 -17.77,-136.52 0,-34.6 -14.96,-51.43 -14.96,-51.43 0,0 0.94,-43.02 17.77,-86.96 16.83,-43.95 35.75,-138.81 95.83,-175.1 60.08,-36.29 83.03,-2.95 95.17,-8.77 7.69,7.61 26.72,-9.39 26.72,-9.39z"/>
  <path class="fil8" d="M531.26 427.09c14.49,10.2 30.59,15.03 33.28,22.01 2.68,6.98 -9.07,23.75 -11.27,35.42 -6.83,36.25 -26.31,27.6 -23.08,20.93 2.36,-4.87 12.88,-13.42 11.27,-20.4 -1.61,-6.98 -18.25,13.42 -39.18,21.47 -20.93,8.05 -38.11,11.81 -52.06,12.88 -7.12,0.55 -15.77,-1.28 -23.25,-3.77 -2.47,-27.8 -14.52,-41.36 -14.52,-41.36 0,0 0.47,-21.43 6.66,-49.48 9.21,-5.09 25.03,-8.8 51.24,-10.16 41.78,-2.17 60.92,12.45 60.92,12.45z"/>
  <path class="fil9" d="M425.65 400.35c0,0 48.58,-3.48 70.47,4.9 21.88,8.38 27.94,14.43 23.28,20.49 -4.66,6.05 -8.85,4.19 -27.94,0.46 -19.09,-3.72 -36.43,-6.33 -54.01,-5.59 -7.77,0.33 -13.58,0.73 -17.65,1.08 1.58,-6.83 3.51,-14.01 5.84,-21.34z"/>
  <path class="fil2" d="M810.31 511.18c8.97,-16.57 14.86,-37.96 18.6,-53.47 3.74,-15.51 0.54,-20.86 -2.14,-29.41 -2.67,-8.56 -1.77,0.28 -16.04,-12.3 -4.73,-4.17 -9.08,-6.86 -12.79,-8.34 1.47,4.27 2.72,8.21 3.64,11.64 4.82,18.1 9.65,31.5 8.73,91.87l0 0z"/>
  <path class="fil2" d="M837.55 427.47c0,0 -4.57,-11.6 -8.44,-27.08 -3.87,-15.47 -7.03,-22.15 -2.81,-27.08 4.22,-4.92 12.31,-7.39 16.53,0.7 4.22,8.09 -5.27,53.45 -5.27,53.45z"/>
  <path class="fil10" d="M638.4 453.59c0,0 10.12,-22.68 23.89,-29.16 13.77,-6.48 52.23,-14.58 57.5,-15.79 5.27,-1.21 21.46,6.88 21.46,6.88l14.17 6.48 8.17 3.54c0,0 -13.2,-0.46 -22.93,-3.94 -9.73,-3.47 -15.98,-6.72 -20.15,-6.48 -4.17,0.23 -39.14,7.41 -39.14,7.41 0,0 -17.83,5.32 -20.84,7.64 -3.01,2.32 -22.13,23.41 -22.13,23.41z"/>
  <path class="fil11" d="M631.36 465.03c-1.84,3.06 5.82,21.14 12.56,25.12 6.74,3.98 28.18,5.51 44.11,6.13 15.93,0.61 54.83,-3.98 65.55,-9.19 10.72,-5.21 17.46,-31.85 19.3,-38.59 1.84,-6.74 -11.55,-11.81 -17.05,-12.54l-0 0c1.38,1 -12.03,4.88 -19.55,1.63 -6.35,-2.75 -13.98,-6.77 -19.86,-8.66l-0 0c-2.68,-0.53 -14.75,0.9 -26.75,2.93 -6.04,1.48 -11.39,3.01 -13.14,3.88 -3.83,1.91 -15.64,5.58 -17.56,6.17 -9.15,7.58 -27.59,23.13 -27.59,23.13zm122.94 -29.3c-1.42,-0.22 -3.38,-0.55 -5.68,-0.94 2,0.57 3.95,0.94 5.68,0.94z"/>
  <path class="fil12" d="M650.82 457.49c0,0 15.13,-15.03 19.14,-20.94 4.01,-5.91 25.73,-6.51 36.09,-7.07 10.36,-0.56 15.97,1.52 20.38,3.58 4.4,2.06 9.85,4.53 9.85,4.53 0,0 -2.47,4.18 -5.95,8.86 -0.76,0.92 -1.73,2.19 -2.87,3.64l-0 0.01 -0.01 0.02c-4.66,5.57 -11.05,12.18 -20.59,15.57l-1.65 0.54 -0.02 0.01c-5.11,1.56 -11.07,3.2 -16.68,4.3 -0.5,0.03 -0.96,0.03 -1.39,0.01 -4.1,-0.24 -19.38,-3.89 -27.36,-6.34 -4.88,-3.4 -8.89,-6.68 -8.94,-6.72l-0 -0z"/>
  <path class="fil10" d="M709.16 427.18c3.31,3.88 5.29,8.84 5.29,14.25 0,12.4 -10.43,22.46 -23.3,22.46 -12.87,0 -23.3,-10.06 -23.3,-22.46 0,-0.97 0.06,-1.92 0.19,-2.85 3.19,-1.12 6.18,-2.24 7.85,-3.07 3.81,-1.91 22.37,-6.49 33.28,-8.33z"/>
  <path class="fil13" d="M704.34 427.18c2.92,3.43 4.68,7.81 4.68,12.59 0,10.96 -9.22,19.84 -20.59,19.84 -11.37,0 -20.59,-8.88 -20.59,-19.84 0,-0.85 0.06,-1.7 0.17,-2.52 2.82,-0.98 5.46,-1.98 6.93,-2.71 3.37,-1.68 19.76,-5.73 29.4,-7.36z"/>
  <path class="fil14" d="M689.28 438.27c1.65,0 2.99,1.26 2.99,2.82 0,1.43 -1.12,2.61 -2.58,2.79 -0.64,1.47 -3.06,2.56 -5.94,2.56 -3.37,0 -6.1,-1.5 -6.1,-3.34 0,-1.84 2.73,-3.34 6.1,-3.34 0.98,0 1.9,0.13 2.72,0.35 0.42,-1.08 1.52,-1.85 2.81,-1.85z"/>
  <ellipse class="fil12" cx="695.43" cy="435.45" rx="8.01" ry="3.05"/>
  <path class="fil15" d="M631.76 416.5c0,0 -6.16,-6.16 8,-13.55 14.16,-7.39 61,-27.28 72.65,-30.17 11.65,-2.89 36.32,4.31 43.71,8 7.39,3.69 16.62,13.54 16.62,13.54 0,0 -27.58,-10.83 -36.81,-10.22 -17.29,1.15 -65.22,26.99 -85.11,33.2 -9.85,3.08 -19.07,-0.82 -19.07,-0.82z"/>
  <path class="fil16" d="M631.14 612.06c7.27,-2.42 21.82,-0.69 24.93,1.04 3.12,1.73 4.16,3.12 -5.9,4.05 -9.82,1.53 -19.03,-0.92 -19.03,-0.92 0,0 -7.06,5.22 -11.05,8.6 -3.99,3.38 -19.34,11.36 -22.1,11.36 -2.76,0 -3.68,-4.6 -13.2,-3.07 -9.52,1.53 -20.57,6.14 -24.25,6.45 -3.68,0.31 -3.44,-7.57 -11.05,-6.75 -7.61,0.81 -7.89,-3.35 -7.89,-3.35 0,0 8.2,-13.53 20.17,-15.07 11.97,-1.53 25.78,8.29 30.39,10.44 4.6,2.15 12.28,3.38 21.18,-2.15 8.9,-5.52 17.8,-10.61 17.8,-10.61z"/>
  <path class="fil17" d="M570.57 625.02c-7.47,0 -13.38,-1.51 -13.92,-5.25 -0.54,-3.73 4.44,-6.86 8.27,-5.45 3.83,1.41 13.5,3.2 16.02,4.47 2.52,1.26 13.06,6.77 13.06,6.77l4.01 3.9 -27.45 -4.44z"/>
  <ellipse class="fil17" cx="643.89" cy="613.81" rx="11.82" ry="2.52"/>
  <path class="fil18" d="M722.72 650.74c4,0.86 9.23,6.06 9.13,13.03 -0.1,6.55 -1.35,11.06 -2.08,13.52 -0.27,0.91 0.22,1.06 1.06,0.36 3.1,-2.56 8.36,-8.42 9.58,-13.27 1.68,-6.72 -1.53,-12.98 -5.96,-14.05 -2.67,-0.64 -7.44,-0.81 -10.81,-0.9 -1.81,-0.05 -2.97,0.87 -0.91,1.31z"/>
  <path class="fil19" d="M526.3 468.37c0,0 -20.11,8.59 -31.15,12.89 -11.04,4.3 -27.98,6.43 -36.43,6.96 -8.45,0.53 -19.69,-5.82 -23.39,-11.18 -3.7,-5.36 -4.64,-13.39 -4.64,-13.39 0,0 5.9,-6.09 17.39,-9.04 11.49,-2.94 24.32,-9.4 33.98,-5.95 9.66,3.45 29.12,8.82 32.59,11.49 3.47,2.67 11.65,8.22 11.65,8.22z"/>
  <path class="fil20" d="M526.41 453.2c0,0 -17.63,-11.75 -32.59,-15.23 -14.96,-3.47 -32.32,-1.87 -38.47,0.27 -6.14,2.14 -25.11,3.74 -27.79,6.14 -2.67,2.4 -11.49,16.03 -11.75,17.9 -0.27,1.87 9.88,24.84 12.02,27.25 2.14,2.41 27.52,8.82 31.79,9.08 4.27,0.27 28.05,-4 30.72,-5.88 2.67,-1.87 14.69,-5.61 18.7,-8.02 4.01,-2.41 16.03,-7.48 17.63,-7.75 1.6,-0.27 11.49,2.14 11.49,2.14 0,0 -2.67,-6.14 -5.61,-8.01 -2.94,-1.87 -10.42,2.14 -18.43,4.01 -8.02,1.87 -30.99,12.29 -43.28,13.63 -12.29,1.34 -28.85,-4.54 -31.79,-7.22 -2.94,-2.67 -9.35,-12.82 -9.35,-12.82 0,0 -1.87,-2.94 2.4,-6.41 4.28,-3.47 12.02,-6.68 18.97,-8.55 6.95,-1.87 17.63,-4.28 25.38,-4.54 7.75,-0.27 26.45,6.14 29.65,8.82 3.21,2.67 12.56,8.82 16.03,8.82 3.47,0 5.67,3.32 8.04,3.8 2.38,0.48 7.45,-1.4 5.05,-4.6 -2.4,-3.2 -9.62,-5.08 -14.96,-6.68 -5.34,-1.6 -12.02,-5.88 -20.84,-8.82 -8.82,-2.94 -20.3,-6.41 -27.79,-5.88 -7.48,0.53 -13.36,-3.74 -13.36,-3.74 0,0 17.1,-1.07 27.25,-0.53 10.15,0.53 21.11,5.87 25.92,8.81 4.81,2.94 10.95,5.88 14.69,6.95 3.74,1.07 0.27,-2.94 0.27,-2.94z"/>
  <path class="fil10" d="M526.41 453.2c0,0 -17.63,-11.75 -32.59,-15.23 -14.96,-3.47 -32.32,-1.87 -38.47,0.27 -6.14,2.14 -25.11,3.74 -27.79,6.14 -2.67,2.4 -11.49,16.03 -11.75,17.9 -0.68,4.71 15.85,22.89 13.89,6.41 0,0 -1.87,-2.94 2.4,-6.41 4.28,-3.47 12.02,-6.68 18.97,-8.55 6.95,-1.87 17.63,-4.28 25.38,-4.54 7.75,-0.27 26.45,6.14 29.65,8.82 3.21,2.67 12.56,8.82 16.03,8.82 3.47,0 5.67,3.32 8.04,3.8 2.38,0.48 7.45,-1.4 5.05,-4.6 -2.4,-3.2 -9.62,-5.08 -14.96,-6.68 -5.34,-1.6 -12.02,-5.88 -20.84,-8.82 -8.82,-2.94 -20.3,-6.41 -27.79,-5.88 -7.48,0.53 -13.36,-3.74 -13.36,-3.74 0,0 17.1,-1.07 27.25,-0.53 10.15,0.53 21.11,5.87 25.92,8.81 4.81,2.94 10.95,5.88 14.69,6.95 3.74,1.07 0.27,-2.94 0.27,-2.94z"/>
  <path class="fil10" d="M488.36 451.27c1.94,3.2 3.04,6.9 3.04,10.84 0,12.17 -10.54,22.03 -23.54,22.03 -13,0 -23.54,-9.86 -23.54,-22.03 0,-2.45 0.43,-4.81 1.22,-7.01 1.32,-0.43 2.63,-0.82 3.93,-1.17 7.22,-1.95 18.34,-4.45 26.4,-4.73 3.04,-0.1 7.7,0.78 12.5,2.07z"/>
  <path class="fil13" d="M488.67 451.05c1.73,2.87 2.73,6.18 2.73,9.71 0,10.9 -9.44,19.74 -21.1,19.74 -11.65,0 -21.1,-8.84 -21.1,-19.74 0,-2.2 0.38,-4.31 1.09,-6.29 1.18,-0.38 2.36,-0.74 3.52,-1.05 6.47,-1.74 16.44,-3.99 23.66,-4.23 2.72,-0.09 6.9,0.7 11.2,1.86z"/>
  <ellipse class="fil12" cx="480.4" cy="456.87" rx="8.63" ry="2.9"/>
  <path class="fil14" d="M470.96 458.35c1.65,0 2.99,1.26 2.99,2.82 0,1.43 -1.12,2.61 -2.58,2.79 -0.64,1.47 -3.06,2.56 -5.94,2.56 -3.37,0 -6.1,-1.5 -6.1,-3.34 0,-1.84 2.73,-3.34 6.1,-3.34 0.98,0 1.9,0.13 2.72,0.35 0.42,-1.08 1.52,-1.85 2.81,-1.85z"/>
  <path class="fil21" d="M696.25 675.87c-6.1,8.13 -11.84,20.04 -19.74,26.95 -18.61,16.28 -31.96,24.66 -56.51,26.27 -8.19,0.53 -18.81,2.01 -29.73,0.52 -12.93,-1.77 -32.04,-8.95 -44.11,-21.02 -5.29,-5.29 -11.96,-11.5 -17.65,-15.16 -5.69,-3.66 -7.96,0.35 2.61,-0.05 10.57,-0.41 49.74,-17.33 62.21,-9.82 12.47,7.52 22.97,4.01 27.04,2.08 4.07,-1.93 9.76,-7.32 21.55,-7.32 11.79,0 32.16,1.9 36.15,1.58 3.99,-0.32 18.17,-4.02 18.17,-4.02z"/>
  <path class="fil16" d="M572.94 600.43c1.28,1.4 8.73,4.66 10.95,7.69 2.21,3.03 4.36,8.04 -0.93,8.62 -5.29,0.58 -8.15,-2.33 -13.04,-5.59 -4.89,-3.26 -7.8,-8.39 -5.82,-11.76 1.98,-3.38 8.85,1.05 8.85,1.05z"/>
  <path class="fil10" d="M741.63 443.9c-1.53,2.14 -15.62,23.59 -27.87,28.79 -12.25,5.21 -25.12,1.53 -33.69,1.84 -8.58,0.31 -21.14,-3.06 -23.59,-6.43 -2.45,-3.37 -3.98,-4.6 -10.41,-5.21 -6.43,-0.61 -11.46,3.94 -0.93,-9.45 10.53,-13.38 15.45,-16.42 20,-18.28 3.86,-3 6.81,-3.61 8.83,-4.53 2.01,-0.91 14.13,-4.63 24.09,-6.48 9.96,-1.85 18.99,-3.48 21.3,-3.71 2.32,-0.23 12.51,6.95 15.29,8.34 2.78,1.39 12.97,6.95 19.68,6.95 6.72,0 -9.49,5.56 -18.06,1.85 -8.57,-3.7 -19.45,-9.73 -25.24,-9.73 -5.79,0 -31.46,6.35 -34.51,7.87 -12.68,6.34 -16.07,11.56 -25.7,21.76 0,0 1.07,3.26 4.43,5.09 3.37,1.84 26.65,7.66 31.86,7.96 5.21,0.31 15.93,-3.68 24.5,-6.43 8.58,-2.76 16.85,-15.93 19.6,-18.68 2.76,-2.76 10.41,-1.53 10.41,-1.53z"/>
  <path class="fil22" d="M741.63 443.9c-1.53,2.14 -15.62,23.59 -27.87,28.79 -12.25,5.21 -25.12,1.53 -33.69,1.84 -8.58,0.31 -23.71,-1.1 -25.34,-5.49 -1.63,-4.39 -9.7,0.46 -13.24,-4.94 -1.99,-3.03 7.32,-4.3 13.77,-1.52 3.53,1.52 26.65,7.66 31.86,7.96 5.21,0.31 15.93,-3.68 24.5,-6.43 8.58,-2.76 16.85,-15.93 19.6,-18.68 2.76,-2.76 10.41,-1.53 10.41,-1.53z"/>
  <path class="fil23" d="M658.92 454.6c-1.21,-1.48 -2.15,-1.48 -5.39,1.08 -3.23,2.56 -5.65,5.65 -5.65,6.87 0,1.21 2.02,1.48 8.35,1.89 6.33,0.4 9.97,-0.41 10.23,-3.77 0.27,-3.37 -1.75,-5.66 -3.77,-4.44 -2.02,1.21 -3.77,-1.61 -3.77,-1.61z"/>
  <path class="fil24" d="M680.4 478.79c-12.91,-3.59 -17.21,-0.72 -20.43,-2.51 -3.23,-1.79 -8.61,1.79 -6.81,4.66 1.79,2.87 15.42,7.89 25.1,9.68 9.68,1.79 21.51,-0.72 25.45,-5.02 3.94,-4.3 0,-8.25 -6.45,-10.76 -6.45,-2.51 -16.85,3.94 -16.85,3.94z"/>
  <path class="fil25" d="M591.25 468.17c-6.6,-16.49 -6.06,-21.45 -8.25,-8.25 -6.98,41.86 9.41,87.93 8.8,93.46 -1.1,9.9 -5.5,18.69 3.3,27.49 8.8,8.8 24.19,15.39 25.29,1.1 1.1,-14.29 5.81,-11.53 -4.31,-19.48 -31.62,-24.85 -21.25,-68.08 -24.82,-94.31z"/>
  <path class="fil26" d="M532.42 453.39c0,0 9.94,4.55 14.07,9.52 4.14,4.97 4.14,8.69 2.07,13.25 -2.07,4.55 -6.21,10.76 -6.21,10.76 0,0 -1.66,-12 -5.79,-17.8 -4.14,-5.79 -4.14,-15.73 -4.14,-15.73z"/>
  <path class="fil27" d="M527.46 688.04c0,0 11.1,1.92 29.21,-3.32 18.1,-5.24 31.17,-10.2 36.46,-8.44 9.49,3.16 11.55,8.15 21.27,8.23 3.65,0.03 6.3,-1.43 14.31,-8.61 6.11,-5.48 32.19,0.03 44.47,1.23 12.28,1.2 26.08,-4.41 26.08,-4.41 -41.27,43.44 -52.81,49.96 -86.11,51.77 -25.46,1.39 -49.37,-2.85 -58.49,-13.09 -7.62,-8.55 -28.6,-23.57 -27.19,-23.37z"/>
  <path class="fil28" d="M589.34 702.95c0.06,-1.49 -1.78,4.04 3.01,7.08 4.79,3.04 8.26,4.01 13.63,1.92 5.37,-2.09 7.41,-0.82 12.63,-1.3 5.22,-0.48 19.74,-2.26 26.56,-7.23 6.83,-4.97 21.39,-11.92 22.13,-14.01 0.73,-2.09 -9.01,-0.7 -17.47,2.11 -8.46,2.8 -37.06,10.13 -45.78,10.14 -8.72,0.01 -14.71,1.31 -14.71,1.31z"/>
  <path class="fil29" d="M592.36 693.06c6.04,2.39 17.34,8.62 22.61,7.16 16.38,-4.53 15.55,-9 37.54,-11.86 7.21,-0.94 18.27,-1.96 24.12,-5.64 7.37,-4.63 18.61,-8.49 27.57,-14.32 0,0 5.84,4 -7.11,9.76 -12.95,5.76 -15.16,6.56 -23.08,10.17 -7.93,3.6 -19.21,3.12 -32.54,6.72 -13.33,3.6 -18.34,8.09 -25.09,9.84 -6.75,1.74 -16.75,-3.55 -23.43,-7.27 -6.67,-3.72 -30.09,0.56 -39.56,0.65 -4.14,0.04 -20.08,-2.04 -28.67,-5.44 -14.06,-5.58 -20.82,-10.25 -9,-10.25 2.25,0 15.8,8.03 34.36,10.72 10.13,1.47 36.26,-2.64 42.29,-0.25z"/>
 </g>
</svg>
