<?xml version="1.0" encoding="UTF-8"?>
<!DOCTYPE svg PUBLIC "-//W3C//DTD SVG 1.1//EN" "http://www.w3.org/Graphics/SVG/1.1/DTD/svg11.dtd">
<!-- Creator: CorelDRAW 2021.5 -->
<svg xmlns="http://www.w3.org/2000/svg" xml:space="preserve" width="132.973mm" height="132.973mm" version="1.1" style="shape-rendering:geometricPrecision; text-rendering:geometricPrecision; image-rendering:optimizeQuality; fill-rule:evenodd; clip-rule:evenodd"
viewBox="0 0 657.71 657.71"
 xmlns:xlink="http://www.w3.org/1999/xlink"
 xmlns:xodm="http://www.corel.com/coreldraw/odm/2003">
 <defs>
  <style type="text/css">
   <![CDATA[
    .fil23 {fill:#FEFEFE}
    .fil10 {fill:#180D0E}
    .fil14 {fill:#270F07}
    .fil5 {fill:#3A1305}
    .fil9 {fill:#4D3224}
    .fil13 {fill:#50322A}
    .fil4 {fill:#561F03}
    .fil17 {fill:#5A1700}
    .fil0 {fill:#67E6BC}
    .fil29 {fill:#7E2924}
    .fil15 {fill:#81523B}
    .fil6 {fill:#833D29}
    .fil2 {fill:#8F673C}
    .fil20 {fill:#9C5C46}
    .fil21 {fill:#A45A41}
    .fil16 {fill:#B07D46}
    .fil18 {fill:#BA7758}
    .fil22 {fill:#C4745A}
    .fil19 {fill:#C9BCB7}
    .fil8 {fill:#CC8D4A}
    .fil3 {fill:#D0914F}
    .fil26 {fill:#D09278}
    .fil27 {fill:#DB8878}
    .fil7 {fill:#E0AA62}
    .fil24 {fill:#E8BE8A}
    .fil12 {fill:#E8DFD6}
    .fil11 {fill:#EDA253}
    .fil1 {fill:#F0B669}
    .fil28 {fill:#FEB392}
    .fil25 {fill:#FFDABA}
   ]]>
  </style>
 </defs>
 <g id="Plan_x0020_1">
  <metadata id="CorelCorpID_0Corel-Layer"/>
  <circle class="fil0" cx="328.86" cy="328.86" r="328.86"/>
  <path class="fil1" d="M454.01 158.11c0,17.4 -1.45,32.63 1.45,44.95 2.9,12.33 11.6,31.9 14.5,42.78 2.9,10.88 5.8,18.85 5.08,56.56 -0.73,37.7 1.43,53.53 -1.86,71.07 -3.29,17.54 -14.25,40.57 -29.06,58.11 -14.8,17.54 -23.03,19.19 -31.25,25.77 -8.22,6.58 -22.48,19.19 -38.93,23.03 -16.45,3.84 -43.31,-3.29 -54.82,-8.22 -11.51,-4.93 -36.19,-32.9 -41.67,-37.83 -5.48,-4.93 -12.06,-19.74 -16.45,-46.05 -4.39,-26.32 -10.42,-59.76 -10.42,-80.04 0,-20.29 -8.77,-30.15 -8.77,-30.15 0,0 0.55,-25.22 10.42,-50.99 9.87,-25.77 23.98,-94.96 65.86,-107.63 41.88,-12.67 40.45,10.26 58,-6.69 -4.5,17.14 -2.51,-3.39 3.79,1.02 6.31,4.41 9.46,3.78 35.31,13.87 25.85,10.09 38.82,30.46 38.82,30.46z"/>
  <path class="fil1" d="M435.55 440.79c0,0 -2.16,34.58 -1.69,46.98 0.48,12.4 -0.95,30.99 -1.43,36.72 -0.48,5.72 -0.48,30.04 -0.48,30.04 0,0 -16.21,-9.06 -34.33,-20.5 -18.12,-11.44 -45.77,-21.46 -58.65,-35.76 -7.02,-7.8 -13.61,-17.86 -18.15,-25.4 12.28,4.87 37.44,11.18 53.13,7.52 16.45,-3.84 30.7,-16.45 38.93,-23.03 6.48,-5.19 12.97,-7.31 22.67,-16.57l0 0z"/>
  <path class="fil2" d="M435.55 440.79c-2.26,36.08 0.21,6.75 -1.16,17.12 -3.35,6.95 -14.11,6.43 -22.93,11.03 -30.13,15.72 -49.09,23.52 -90.64,3.92 12.28,4.87 37.44,11.18 53.13,7.52 16.45,-3.84 30.7,-16.45 38.93,-23.03 6.48,-5.19 12.97,-7.31 22.67,-16.57l0 0z"/>
  <path class="fil3" d="M433.95 495.03c7.21,9.69 10.92,15.67 14.63,28.79 5.41,19.11 18.21,53.96 18.21,53.96 0,0 -26.77,-18.64 -34.84,-23.26 0,0 0,-24.32 0.48,-30.04 0.39,-4.68 1.42,-17.98 1.52,-29.45z"/>
  <path class="fil4" d="M376.57 107.76c0.47,-0.9 0.95,-1.83 1.43,-2.8 0,0 -1.12,1.12 -1.43,2.8zm-0.99 6.9c9.37,-18.89 5.95,-50.28 4.28,-59.46 -1.67,-9.18 -10.01,-28.36 -39.2,-28.36 -29.19,0 -95.92,4.17 -136.8,41.71 -40.87,37.54 -90.19,141.74 -95.71,259.78 -7.42,158.86 -18.76,205.1 114.84,311.97 33.22,11.29 68.82,17.41 105.86,17.41 53.54,0 104.09,-12.81 148.77,-35.51 -1.92,-21.15 -10.83,-44.42 -10.83,-44.42 0,0 -26.77,-18.64 -34.84,-23.26 0,0 -16.21,-9.06 -34.33,-20.5 -18.12,-11.44 -45.77,-21.46 -58.65,-35.76 -7.02,-7.8 -13.61,-17.86 -18.15,-25.4 -0.6,-0.24 -1.16,-0.47 -1.7,-0.7 -11.51,-4.93 -36.19,-32.9 -41.67,-37.83 -5.48,-4.93 -12.06,-19.74 -16.45,-46.05 -4.39,-26.32 -10.42,-59.76 -10.42,-80.04 0,-20.29 -8.77,-30.15 -8.77,-30.15 0,0 0.55,-25.22 10.42,-50.99 9.87,-25.77 22.36,-89.98 65.86,-107.63 43.5,-17.65 40.06,9.42 57.48,-4.8zm57.45 401.87l-0 -0 -0 0.05 0 -0.05zm-72.99 -35.12c-0.52,-0.02 -1.04,-0.05 -1.57,-0.08 0.52,0.03 1.05,0.06 1.57,0.08zm-16.76 -2.12l-1.68 -0.34c0.56,0.12 1.12,0.23 1.68,0.34z"/>
  <path class="fil5" d="M239.68 94.64c-23.36,33.37 -35.04,72.58 -40.88,110.12 -5.84,37.54 -3.34,94.27 -0.83,110.12 2.5,15.85 13.35,52.55 25.03,81.75 11.68,29.2 22.52,66.74 22.52,66.74 0,0 4.88,-53.09 8.34,-75.08 0.75,-4.74 2.26,-10.94 4.15,-17.87 -3.71,-22.3 -7.42,-46.28 -7.42,-62.19 0,-20.29 -8.77,-30.15 -8.77,-30.15 0,0 0.55,-25.22 10.42,-50.99 8.45,-22.06 18.83,-72.31 48.94,-97.38 -9.03,-2.46 -21.2,-0.75 -30.63,8.31 -20.85,20.02 -38.37,45.88 -48.38,90.93 -10.01,45.05 -0,76.75 -1.67,86.76 -1.67,10.01 -8.34,20.86 -8.34,20.86 0,0 4.12,7.82 -5,-59.23 -9.13,-67.05 32.53,-182.69 32.53,-182.69zm-104.83 387.75c0,-12.07 -4.39,-36.21 -1.1,-59.26 3.29,-23.05 1.1,23.59 7.13,52.67 6.04,29.08 17.01,41.15 17.01,41.15 0,0 -3.29,-36.76 -3.84,-47.74 -0.55,-10.97 0,-17.01 0,-17.01 0,0 1.65,27.43 10.43,49.93 8.78,22.5 16.46,43.9 22.5,47.74 6.04,3.84 0,-36.21 1.1,-41.7 1.1,-5.49 4.94,-12.62 4.94,-12.62l13.15 31.16c2.42,17.44 5.39,33.13 8.66,39.67 4.01,8.03 15.86,24.03 25.65,36.72 0,0 -14.97,-12.61 -49.68,-34.7 -34.71,-22.09 -55.94,-86.01 -55.94,-86.01zm211.79 -448.45c0,0 -17.03,-6.94 -32.17,-1.89 -15.14,5.05 14.51,4.42 22.71,11.98 8.2,7.57 8.83,8.83 -8.83,15.77 -17.66,6.94 -37.22,14.51 -42.9,21.45 -5.68,6.94 -28.38,30.91 -28.38,30.91 0,0 17.03,-17.66 34.06,-22.08 17.03,-4.41 13.88,1.89 8.2,10.09 -5.68,8.2 -6.94,15.77 -6.94,15.77 0,0 8.2,-14.51 27.12,-19.56 18.92,-5.05 24.6,6.31 37.85,-3.15 13.25,-9.46 15.59,-31.19 16.4,-41 0.81,-9.81 -27.12,-18.29 -27.12,-18.29zm50.76 87.11c0.37,0.11 4.26,0.79 1.25,-17.26 -3.16,-18.93 -3.64,-25.77 -10.73,-34.71 -7.09,-8.94 -3.79,-27.77 -3.79,-27.77 0,0 25.88,45.44 30.92,53.01 5.05,7.57 12.62,11.36 25.88,20.2 13.25,8.84 17.67,-5.05 22.09,-1.26 4.42,3.79 24.61,35.97 27.14,53.64 2.52,17.67 22.09,103.5 20.2,124.96 -1.89,21.46 -6.56,47.78 -5.11,85.52 1.45,37.74 10.16,84.19 15.24,104.51 5.08,20.32 14.52,3.63 12.34,-3.63 -2.18,-7.26 10.89,-31.21 10.89,-31.21 0,0 12.51,48.76 7.98,61.69 -2.92,8.35 2.19,34.77 4.27,57.91 -24.9,23.78 -53.52,43.7 -84.9,58.78 -10.43,-8.47 -31.1,-26.3 -33.53,-36.43 -3.27,-13.62 -22.81,-32.91 -33.59,-51.04 15.4,9.51 28.01,16.56 28.01,16.56 8.07,4.62 34.84,23.26 34.84,23.26 0,0 -12.8,-34.85 -18.21,-53.96 -3.71,-13.12 -7.43,-19.1 -14.63,-28.79l0 -0c0.02,-2.55 -0,-5.01 -0.09,-7.26 -0.48,-12.4 1.69,-46.98 1.69,-46.98l-0 -0c2.61,-2.49 5.44,-5.48 8.58,-9.2 14.8,-17.54 25.77,-40.57 29.06,-58.11 3.29,-17.54 1.13,-33.37 1.86,-71.07 0.73,-37.7 -2.18,-45.68 -5.08,-56.56 -2.9,-10.88 -11.6,-30.45 -14.5,-42.78 -2.9,-12.33 -1.45,-27.55 -1.45,-44.95 0,0 -12.97,-20.37 -38.82,-30.46 -7.73,-3.02 -13.43,-5.07 -17.8,-6.6z"/>
  <path class="fil6" d="M180.72 277.66c0,0 1.45,40.62 7.98,76.9 6.53,36.27 10.16,89.95 11.61,113.89 1.45,23.94 7.26,83.43 14.51,97.94 7.25,14.51 40.1,55.04 40.1,55.04 0,0 -14.46,-30.51 -22.75,-54.98 -8.3,-24.47 -14.93,-53.09 -14.93,-67.2 0,-14.1 -0.42,-32.35 -0.42,-32.35 0,0 2.49,35.67 8.71,55.17 6.22,19.5 17.42,49.77 21.57,56.83 4.15,7.05 15.76,21.98 15.76,21.98 0,0 -19.08,-43.56 -25.3,-62.63 -6.22,-19.08 -11.61,-38.16 -8.71,-47.29 2.9,-9.13 -1.66,-24.06 -2.9,-36.09 -1.24,-12.03 -3.32,-23.23 -3.32,-23.23 0,0 9.96,24.47 12.86,37.75 2.9,13.27 11.2,57.66 14.52,70.52 3.32,12.86 15.35,48.12 19.08,54.34 3.73,6.22 7.92,10.74 7.92,10.74 0,0 -3.73,-10.37 -12.03,-37.75 -8.3,-27.38 -9.13,-49.37 -11.62,-58.08 -2.49,-8.71 4.16,-61.97 3.06,-70.75 -0.33,-2.65 -2.93,-9.64 -6.53,-18.41 -2.36,21.49 -4.37,43.38 -4.37,43.38 0,0 -10.84,-37.54 -22.52,-66.74 -11.68,-29.2 -22.52,-65.9 -25.03,-81.75 -1.08,-6.81 -2.15,-21.19 -2.57,-38.34l-0 -0.14 0 -0.05c-0.54,-22.71 0.08,-50.24 3.4,-71.58l-18.09 72.9zm32.34 57.35l-0.03 -0.08c-0.2,2.91 -0.87,1.63 -0.87,1.63 0,0 0.35,-0.57 0.9,-1.56z"/>
  <path class="fil6" d="M378 104.95c9.37,-18.89 3.53,-40.58 1.87,-49.75 -0.86,-4.73 -3.49,-12.11 -9.83,-18.16 3.27,-5.45 9.34,-6.95 9.34,-6.95 0,0 6.68,-8.35 45.91,30.89 39.23,39.23 56.76,37.56 74.29,104.35 17.53,66.78 33.78,173.43 43.38,204.15 9.6,30.72 10.54,107.97 9.64,123.62l0 0.01c-1.51,-19.4 -8.89,-46.04 -8.89,-46.04 0,0 -13.06,23.95 -10.89,31.21 2.18,7.26 -7.26,23.95 -12.34,3.63 -5.08,-20.32 -13.79,-66.77 -15.24,-104.51 -1.45,-37.74 3.22,-64.07 5.11,-85.52 1.89,-21.46 -17.67,-107.29 -20.2,-124.96 -2.52,-17.67 -22.72,-49.86 -27.14,-53.64 -4.42,-3.79 -8.84,10.1 -22.09,1.26 -13.25,-8.84 -20.83,-12.62 -25.88,-20.2 -5.05,-7.57 -30.92,-53.01 -30.92,-53.01 0,0 -3.3,18.83 3.79,27.77 7.09,8.94 7.57,15.78 10.73,34.71 3.01,18.05 -0.88,17.36 -1.25,17.26 -1.52,-0.53 -6.88,0.69 -8.11,0.28 -13.76,-2.25 -23.91,-24.32 -11.29,-16.38z"/>
  <path class="fil7" d="M379.89 113.78c-13.54,13.47 -52.25,72.07 -51.78,92.85 0.47,20.78 -0.86,14.81 3.57,18.61 4.42,3.79 9.1,17.26 39.13,14.14 30.04,-3.12 16.46,12.84 16.46,12.84l-12.98 13.73 -5.46 12.11c0,0 2.49,13.3 6.23,17.87 3.74,4.57 -12.4,6.41 -16.59,-2.82 -4.19,-9.23 -5.44,-19.62 -10.01,-23.36 -4.57,-3.74 -13.56,-6.21 -11.91,5.33 1.65,11.54 -2.12,29.58 -2.98,37.88 -0.87,8.29 -5.01,22.37 -9.71,25.63 -4.7,3.25 -10.48,9.76 -11.2,14.82 -0.72,5.06 3.11,3.26 4.53,4.21 1.43,0.95 9.98,-4.04 12.6,-7.84 2.61,-3.8 3.8,-1.66 9.51,0.48 5.7,2.14 13.31,4.52 19.01,3.09 5.7,-1.43 8.55,-6.18 12.6,-8.79 4.04,-2.61 4.28,-1.19 4.99,1.9 0.71,3.09 -1.66,8.79 -1.66,8.79 0,0 5.23,-0.71 12.36,-0.71 7.13,0 8.79,-4.28 6.65,-9.27 -2.14,-4.99 -12.6,-16.64 -12.6,-16.64 0,0 -5.46,-9.03 3.57,-1.9 9.03,7.13 12.83,16.16 15.92,19.01 3.09,2.85 11.84,13.42 26.14,12.32 14.29,-1.1 32.73,-19.23 40.68,-24.74 2.41,-1.67 5.24,0.32 8.04,4.03l0.01 0.64 0 0.06 0.01 0.7 0 0.36 0 0.33 0.01 0.68 0 0.1 0.01 0.58 0 0.51 0.01 0.82 0 0.25 0 0.41 0.01 1.3 0 0.39 0 0.25 0 0.63 0 0.15 0 0.48 0 0.53 0 0.09 0 0.62 0 0.61 -0 0.61 0 0.05 -0 0.55 -0 0.42 -0 0.18 -0 0.59 -0 0.19 -0.01 0.4 -0 0.55 -0 0.04 -0.01 0.58 -0 0.32 -0 0.25 -0.01 0.57 -0 0.1 -0.01 0.47 -0.01 0.45 -0 0.12 -0.01 0.56 -0.01 0.23 -0.01 0.33 -0.02 0.55 0 0.01 -0.02 0.53 -0.01 0.35 -0.01 0.19 -0.02 0.54 -0 0.14 -0.02 0.4 -0.02 0.47 -0 0.06 -0.03 0.53 -0.01 0.26 -0.02 0.27 -0.03 0.53 -0 0.06 -0.03 0.46 -0.02 0.38 -0.01 0.14 -0.04 0.52 -0.01 0.18 -0.03 0.34 -0.04 0.5 -0 0.01 -0.04 0.52 -0.03 0.3 -0.02 0.21 -0.05 0.51 -0.01 0.1 -0.06 0.66 -0.02 0.17 -0.01 0.09 -0.05 0.51 -0.02 0.22 -0.03 0.29 -0.06 0.51 -0 0.03 -0.06 0.48 -0.04 0.34 -0.02 0.16 -0.07 0.51 -0.02 0.15 -0.05 0.36 -0.06 0.46 -0.01 0.05 -0.07 0.5 -0.04 0.27 -0.04 0.24 -0.08 0.51 -0.01 0.07 -0.07 0.43 -0.06 0.39 -0.02 0.12 -0.09 0.51 -0.03 0.19 -0.06 0.31 -0.09 0.51c-3.29,17.54 -20.09,47.49 -29.06,58.11 -10.1,11.97 -35.68,29.04 -49.45,39.51 -18.2,13.83 -34.06,11.75 -53.07,7.85 0,0 -12.17,-5.46 17.95,-10.24 30.12,-4.78 45.42,-17.21 50.68,-22.95 5.26,-5.74 14.82,-26.78 19.6,-33.95 4.78,-7.17 3.99,-10.27 2.8,-11.7 -1.19,-1.43 -4.28,-2.38 -10.46,1.9 -6.18,4.28 -18.07,13.79 -20.92,16.17 -2.85,2.38 -17.35,10.46 -23.54,12.36 -6.18,1.9 -12.36,-0.71 -23.3,1.66 -10.94,2.38 -18.31,1.43 -23.78,0.24 -5.47,-1.19 -10.7,-8.08 -12.6,-10.46 -1.9,-2.38 -9.98,-5.7 -9.98,-5.7 0,0 -4.49,0.11 -7.77,-2.9 -3.28,-3.01 -16.13,-12.58 -4.92,-10.94 11.21,1.64 19.96,1.37 30.35,-1.64 10.39,-3.01 18.87,-5.74 23.24,-4.1 4.37,1.64 9.84,3.83 12.3,5.19 2.46,1.37 6.56,-2.19 9.02,-4.1 2.46,-1.92 9.84,-1.91 17.5,-1.09 7.66,0.82 15.31,0 19.41,-1.37 4.1,-1.37 9.84,-3.01 9.84,-3.01 0,0 -3.28,-3.01 -6.01,-5.2 -2.73,-2.19 1.45,-8.12 1.45,-8.12 0,0 -0.42,-6.24 -3.74,-11.23 -3.33,-4.99 -9.56,-10.81 -9.56,-10.81 0,0 -3.33,3.74 -5.82,6.65 -2.49,2.91 -4.72,5.75 -6.63,7.66 -1.91,1.91 -2.19,7.38 -3.55,9.84 -1.37,2.46 -7.38,6.02 -10.66,8.2 -3.28,2.19 -7.38,4.65 -13.94,1.37 -6.56,-3.28 -12.58,-9.3 -17.23,-9.84 -4.65,-0.55 -10.94,3.28 -10.94,3.28 0,0 -7.11,-1.91 -10.12,-5.2 -3.01,-3.28 -2.73,-11.21 -2.73,-11.21 0,0 -0.55,-3.28 -3.28,-3.28 -2.73,0 -7.13,3.17 -7.38,5.74 -0.73,7.51 -7.39,10.21 -7.31,-1.15 0.07,-9.15 2.49,-18.71 8.32,-27.45 5.82,-8.73 14.14,-16.22 14.14,-16.22 0,0 8.41,-10.28 9.67,-22.54 1.26,-12.26 -0.63,-20.13 -1.26,-22.33 -0.63,-2.2 -7.23,20.13 -10.06,24.84 -2.83,4.72 -16.98,19.18 -20.76,26.42 -3.77,7.23 -10.38,15.1 -10.38,15.1 0,0 -4.26,18.24 -5.36,28.14 -1.1,9.9 -10.45,41.25 -10.45,41.25 0,0 -3.08,-0.84 -6.9,-3.67 -2.02,-6.62 -3.92,-14.69 -5.52,-24.29 -4.39,-26.32 -10.42,-59.76 -10.42,-80.04 0,-20.29 -8.77,-30.15 -8.77,-30.15 0,0 0.55,-25.22 10.42,-50.99 9.87,-25.77 20.96,-81.38 56.19,-102.66 35.23,-21.28 48.68,-1.73 55.8,-5.14 4.51,4.46 15.67,-5.5 15.67,-5.5z"/>
  <path class="fil8" d="M311.48 250.4c8.5,5.98 17.94,8.81 19.51,12.9 1.57,4.09 -5.32,13.92 -6.61,20.77 -4.01,21.25 -15.42,16.18 -13.53,12.27 1.38,-2.86 7.55,-7.87 6.61,-11.96 -0.94,-4.09 -10.7,7.87 -22.97,12.59 -12.27,4.72 -22.34,6.92 -30.52,7.55 -4.17,0.32 -9.24,-0.75 -13.63,-2.21 -1.45,-16.3 -8.51,-24.25 -8.51,-24.25 0,0 0.27,-12.56 3.9,-29.01 5.4,-2.98 14.67,-5.16 30.04,-5.95 24.49,-1.27 35.72,7.3 35.72,7.3z"/>
  <path class="fil9" d="M249.56 234.73c0,0 28.48,-2.04 41.31,2.87 12.83,4.91 16.38,8.46 13.65,12.01 -2.73,3.55 -5.19,2.46 -16.38,0.27 -11.19,-2.18 -21.36,-3.71 -31.66,-3.28 -4.55,0.19 -7.96,0.43 -10.35,0.63 0.93,-4 2.06,-8.21 3.43,-12.51z"/>
  <path class="fil2" d="M475.09 299.71c5.26,-9.71 8.71,-22.25 10.9,-31.35 2.2,-9.09 0.31,-12.23 -1.25,-17.25 -1.57,-5.02 -1.04,0.17 -9.41,-7.21 -2.77,-2.44 -5.32,-4.02 -7.5,-4.89 0.86,2.51 1.6,4.82 2.13,6.83 2.83,10.61 5.66,18.47 5.12,53.86l0 0z"/>
  <path class="fil2" d="M491.06 250.63c0,0 -2.68,-6.8 -4.95,-15.88 -2.27,-9.07 -4.12,-12.99 -1.65,-15.88 2.47,-2.89 7.22,-4.33 9.69,0.41 2.47,4.74 -3.09,31.34 -3.09,31.34z"/>
  <path class="fil10" d="M374.3 265.94c0,0 5.94,-13.3 14.01,-17.09 8.07,-3.8 30.62,-8.55 33.71,-9.26 3.09,-0.71 12.58,4.04 12.58,4.04l8.31 3.8 4.79 2.07c0,0 -7.74,-0.27 -13.44,-2.31 -5.7,-2.04 -9.37,-3.94 -11.81,-3.8 -2.44,0.14 -22.95,4.35 -22.95,4.35 0,0 -10.46,3.12 -12.22,4.48 -1.77,1.36 -12.98,13.73 -12.98,13.73z"/>
  <path class="fil11" d="M370.17 272.65c-1.08,1.8 3.41,12.39 7.36,14.73 3.95,2.33 16.52,3.23 25.86,3.59 9.34,0.36 32.15,-2.34 38.43,-5.39 6.29,-3.05 10.24,-18.68 11.31,-22.63 1.08,-3.95 -6.77,-6.92 -10,-7.35l-0 0c0.81,0.58 -7.05,2.86 -11.46,0.96 -3.73,-1.61 -8.2,-3.97 -11.64,-5.08l-0 0c-1.57,-0.31 -8.65,0.53 -15.68,1.72 -3.54,0.87 -6.68,1.76 -7.7,2.28 -2.24,1.12 -9.17,3.27 -10.3,3.62 -5.36,4.44 -16.18,13.56 -16.18,13.56zm72.08 -17.18c-0.83,-0.13 -1.98,-0.32 -3.33,-0.55 1.17,0.33 2.32,0.55 3.33,0.55z"/>
  <path class="fil12" d="M381.58 268.23c0,0 8.87,-8.81 11.22,-12.28 2.35,-3.46 15.09,-3.82 21.16,-4.14 6.07,-0.33 9.37,0.89 11.95,2.1 2.58,1.21 5.77,2.66 5.77,2.66 0,0 -1.45,2.45 -3.49,5.2 -0.45,0.54 -1.01,1.29 -1.68,2.14l-0 0 -0.01 0.01c-2.73,3.27 -6.48,7.14 -12.07,9.13l-0.96 0.32 -0.01 0c-3,0.91 -6.49,1.88 -9.78,2.52 -0.29,0.02 -0.56,0.02 -0.81,0.01 -2.4,-0.14 -11.36,-2.28 -16.04,-3.72 -2.86,-1.99 -5.21,-3.92 -5.24,-3.94l-0 -0z"/>
  <path class="fil10" d="M415.78 250.46c1.94,2.27 3.1,5.18 3.1,8.36 0,7.27 -6.12,13.17 -13.66,13.17 -7.54,0 -13.66,-5.9 -13.66,-13.17 0,-0.57 0.04,-1.13 0.11,-1.67 1.87,-0.65 3.62,-1.31 4.6,-1.8 2.24,-1.12 13.12,-3.81 19.51,-4.88z"/>
  <path class="fil13" d="M412.96 250.46c1.71,2.01 2.74,4.58 2.74,7.38 0,6.42 -5.4,11.63 -12.07,11.63 -6.67,0 -12.07,-5.21 -12.07,-11.63 0,-0.5 0.03,-0.99 0.1,-1.48 1.65,-0.58 3.2,-1.16 4.06,-1.59 1.98,-0.99 11.59,-3.36 17.24,-4.31z"/>
  <path class="fil14" d="M404.13 256.96c0.97,0 1.75,0.74 1.75,1.65 0,0.84 -0.66,1.53 -1.51,1.64 -0.38,0.86 -1.79,1.5 -3.48,1.5 -1.98,0 -3.58,-0.88 -3.58,-1.96 0,-1.08 1.6,-1.96 3.58,-1.96 0.57,0 1.11,0.07 1.59,0.2 0.25,-0.63 0.89,-1.08 1.65,-1.08z"/>
  <ellipse class="fil12" cx="407.74" cy="255.31" rx="4.7" ry="1.79"/>
  <path class="fil15" d="M370.4 244.2c0,0 -3.61,-3.61 4.69,-7.94 8.3,-4.33 35.77,-16 42.59,-17.69 6.83,-1.69 21.3,2.53 25.63,4.69 4.33,2.17 9.75,7.94 9.75,7.94 0,0 -16.17,-6.35 -21.58,-5.99 -10.14,0.67 -38.24,15.82 -49.9,19.47 -5.77,1.8 -11.18,-0.48 -11.18,-0.48z"/>
  <path class="fil16" d="M370.04 358.85c4.26,-1.42 12.79,-0.41 14.62,0.61 1.83,1.01 2.44,1.83 -3.46,2.37 -5.76,0.9 -11.16,-0.54 -11.16,-0.54 0,0 -4.14,3.06 -6.48,5.04 -2.34,1.98 -11.34,6.66 -12.96,6.66 -1.62,0 -2.16,-2.7 -7.74,-1.8 -5.58,0.9 -12.06,3.6 -14.22,3.78 -2.16,0.18 -2.02,-4.44 -6.48,-3.96 -4.46,0.48 -4.63,-1.97 -4.63,-1.97 0,0 4.81,-7.93 11.82,-8.83 7.02,-0.9 15.12,4.86 17.82,6.12 2.7,1.26 7.2,1.98 12.42,-1.26 5.22,-3.24 10.44,-6.22 10.44,-6.22z"/>
  <path class="fil17" d="M334.53 366.45c-4.38,0 -7.85,-0.89 -8.16,-3.08 -0.32,-2.19 2.6,-4.02 4.85,-3.19 2.25,0.83 7.92,1.88 9.39,2.62 1.47,0.74 7.66,3.97 7.66,3.97l2.35 2.29 -16.09 -2.6z"/>
  <ellipse class="fil17" cx="377.52" cy="359.88" rx="6.93" ry="1.48"/>
  <path class="fil18" d="M423.73 381.53c2.34,0.5 5.41,3.55 5.35,7.64 -0.06,3.84 -0.79,6.48 -1.22,7.92 -0.16,0.54 0.13,0.62 0.62,0.21 1.82,-1.5 4.9,-4.93 5.61,-7.78 0.98,-3.94 -0.89,-7.61 -3.49,-8.24 -1.56,-0.38 -4.36,-0.47 -6.34,-0.53 -1.06,-0.03 -1.74,0.51 -0.53,0.77z"/>
  <path class="fil19" d="M308.58 274.61c0,0 -11.79,5.04 -18.27,7.56 -6.47,2.52 -16.4,3.77 -21.36,4.08 -4.96,0.31 -11.54,-3.41 -13.71,-6.55 -2.17,-3.14 -2.72,-7.85 -2.72,-7.85 0,0 3.46,-3.57 10.2,-5.3 6.74,-1.73 14.26,-5.51 19.92,-3.49 5.66,2.02 17.07,5.17 19.11,6.74 2.04,1.57 6.83,4.82 6.83,4.82z"/>
  <path class="fil20" d="M308.64 265.72c0,0 -10.34,-6.89 -19.11,-8.93 -8.77,-2.04 -18.95,-1.1 -22.56,0.16 -3.6,1.25 -14.72,2.19 -16.29,3.6 -1.57,1.41 -6.73,9.4 -6.89,10.49 -0.16,1.1 5.8,14.57 7.05,15.98 1.25,1.41 16.13,5.17 18.64,5.33 2.51,0.16 16.45,-2.35 18.01,-3.45 1.57,-1.1 8.61,-3.29 10.96,-4.7 2.35,-1.41 9.4,-4.39 10.34,-4.54 0.94,-0.16 6.74,1.25 6.74,1.25 0,0 -1.57,-3.6 -3.29,-4.7 -1.72,-1.1 -6.11,1.25 -10.81,2.35 -4.7,1.1 -18.17,7.21 -25.38,7.99 -7.2,0.78 -16.92,-2.66 -18.64,-4.23 -1.72,-1.57 -5.48,-7.52 -5.48,-7.52 0,0 -1.1,-1.72 1.41,-3.76 2.51,-2.04 7.05,-3.91 11.12,-5.01 4.07,-1.1 10.34,-2.51 14.88,-2.66 4.54,-0.16 15.51,3.6 17.39,5.17 1.88,1.57 7.36,5.17 9.4,5.17 2.04,0 3.32,1.95 4.72,2.23 1.39,0.28 4.37,-0.82 2.96,-2.7 -1.41,-1.88 -5.64,-2.98 -8.77,-3.92 -3.13,-0.94 -7.05,-3.45 -12.22,-5.17 -5.17,-1.72 -11.9,-3.76 -16.29,-3.45 -4.39,0.31 -7.83,-2.19 -7.83,-2.19 0,0 10.02,-0.63 15.98,-0.31 5.95,0.31 12.37,3.44 15.19,5.17 2.82,1.72 6.42,3.45 8.61,4.07 2.19,0.63 0.16,-1.72 0.16,-1.72z"/>
  <path class="fil10" d="M308.64 265.72c0,0 -10.34,-6.89 -19.11,-8.93 -8.77,-2.04 -18.95,-1.1 -22.56,0.16 -3.6,1.25 -14.72,2.19 -16.29,3.6 -1.57,1.41 -6.73,9.4 -6.89,10.49 -0.4,2.76 9.29,13.42 8.14,3.76 0,0 -1.1,-1.72 1.41,-3.76 2.51,-2.04 7.05,-3.91 11.12,-5.01 4.07,-1.1 10.34,-2.51 14.88,-2.66 4.54,-0.16 15.51,3.6 17.39,5.17 1.88,1.57 7.36,5.17 9.4,5.17 2.04,0 3.32,1.95 4.72,2.23 1.39,0.28 4.37,-0.82 2.96,-2.7 -1.41,-1.88 -5.64,-2.98 -8.77,-3.92 -3.13,-0.94 -7.05,-3.45 -12.22,-5.17 -5.17,-1.72 -11.9,-3.76 -16.29,-3.45 -4.39,0.31 -7.83,-2.19 -7.83,-2.19 0,0 10.02,-0.63 15.98,-0.31 5.95,0.31 12.37,3.44 15.19,5.17 2.82,1.72 6.42,3.45 8.61,4.07 2.19,0.63 0.16,-1.72 0.16,-1.72z"/>
  <path class="fil10" d="M286.33 264.58c1.13,1.88 1.78,4.04 1.78,6.35 0,7.13 -6.18,12.91 -13.8,12.91 -7.62,0 -13.8,-5.78 -13.8,-12.91 0,-1.44 0.25,-2.82 0.71,-4.11 0.77,-0.25 1.54,-0.48 2.3,-0.69 4.24,-1.14 10.75,-2.61 15.48,-2.77 1.78,-0.06 4.51,0.46 7.33,1.21z"/>
  <path class="fil13" d="M286.51 264.45c1.02,1.68 1.6,3.62 1.6,5.69 0,6.39 -5.54,11.57 -12.37,11.57 -6.83,0 -12.37,-5.18 -12.37,-11.57 0,-1.29 0.22,-2.53 0.64,-3.69 0.69,-0.23 1.38,-0.43 2.06,-0.61 3.8,-1.02 9.64,-2.34 13.87,-2.48 1.6,-0.05 4.05,0.41 6.57,1.09z"/>
  <ellipse class="fil12" cx="281.66" cy="267.86" rx="5.06" ry="1.7"/>
  <path class="fil14" d="M276.13 268.73c0.97,0 1.75,0.74 1.75,1.65 0,0.84 -0.66,1.53 -1.51,1.64 -0.37,0.86 -1.79,1.5 -3.48,1.5 -1.98,0 -3.58,-0.88 -3.58,-1.96 0,-1.08 1.6,-1.96 3.58,-1.96 0.57,0 1.11,0.07 1.59,0.2 0.25,-0.63 0.89,-1.08 1.65,-1.08z"/>
  <path class="fil21" d="M408.22 396.26c-3.58,4.77 -6.94,11.75 -11.57,15.8 -10.91,9.55 -18.74,14.46 -33.13,15.4 -4.8,0.31 -11.03,1.18 -17.43,0.3 -7.58,-1.04 -18.79,-5.25 -25.86,-12.32 -3.1,-3.1 -7.01,-6.74 -10.35,-8.89 -3.34,-2.15 -4.67,0.21 1.53,-0.03 6.2,-0.24 29.16,-10.16 36.47,-5.75 7.31,4.41 13.47,2.35 15.85,1.22 2.38,-1.13 5.72,-4.29 12.64,-4.29 6.91,0 18.86,1.11 21.19,0.93 2.34,-0.18 10.65,-2.36 10.65,-2.36z"/>
  <path class="fil16" d="M335.92 352.04c0.75,0.82 5.12,2.73 6.42,4.51 1.3,1.78 2.55,4.71 -0.55,5.05 -3.1,0.34 -4.78,-1.36 -7.65,-3.28 -2.87,-1.91 -4.57,-4.92 -3.41,-6.9 1.16,-1.98 5.19,0.61 5.19,0.61z"/>
  <path class="fil10" d="M434.82 260.26c-0.9,1.26 -9.16,13.83 -16.34,16.88 -7.18,3.05 -14.73,0.9 -19.75,1.08 -5.03,0.18 -12.39,-1.8 -13.83,-3.77 -1.44,-1.97 -2.33,-2.69 -6.11,-3.05 -3.77,-0.36 -6.72,2.31 -0.54,-5.54 6.17,-7.85 9.06,-9.63 11.73,-10.72 2.26,-1.76 3.99,-2.12 5.17,-2.66 1.18,-0.54 8.28,-2.71 14.12,-3.8 5.84,-1.09 11.13,-2.04 12.49,-2.17 1.36,-0.14 7.33,4.08 8.96,4.89 1.63,0.81 7.6,4.07 11.54,4.07 3.94,0 -5.57,3.26 -10.59,1.09 -5.02,-2.17 -11.41,-5.7 -14.8,-5.7 -3.4,0 -18.45,3.72 -20.23,4.62 -7.43,3.72 -9.42,6.78 -15.07,12.76 0,0 0.62,1.91 2.6,2.99 1.98,1.08 15.62,4.49 18.68,4.67 3.05,0.18 9.34,-2.16 14.37,-3.77 5.03,-1.62 9.88,-9.34 11.49,-10.95 1.62,-1.62 6.11,-0.9 6.11,-0.9z"/>
  <path class="fil22" d="M434.82 260.26c-0.9,1.26 -9.16,13.83 -16.34,16.88 -7.18,3.05 -14.73,0.9 -19.75,1.08 -5.03,0.18 -13.9,-0.64 -14.85,-3.22 -0.95,-2.57 -5.69,0.27 -7.77,-2.9 -1.17,-1.78 4.29,-2.52 8.07,-0.89 2.07,0.89 15.62,4.49 18.68,4.67 3.05,0.18 9.34,-2.16 14.37,-3.77 5.03,-1.62 9.88,-9.34 11.49,-10.95 1.62,-1.62 6.11,-0.9 6.11,-0.9z"/>
  <path class="fil23" d="M386.33 266.54c-0.71,-0.87 -1.26,-0.87 -3.16,0.63 -1.89,1.5 -3.31,3.32 -3.31,4.03 0,0.71 1.18,0.87 4.89,1.11 3.71,0.24 5.84,-0.24 6,-2.21 0.16,-1.97 -1.03,-3.32 -2.21,-2.61 -1.18,0.71 -2.21,-0.95 -2.21,-0.95z"/>
  <path class="fil24" d="M398.92 280.71c-7.57,-2.1 -10.09,-0.42 -11.98,-1.47 -1.89,-1.05 -5.05,1.05 -3.99,2.73 1.05,1.68 9.04,4.62 14.71,5.68 5.67,1.05 12.61,-0.42 14.92,-2.94 2.31,-2.52 0,-4.83 -3.78,-6.31 -3.78,-1.47 -9.88,2.31 -9.88,2.31z"/>
  <path class="fil25" d="M346.66 274.49c-3.87,-9.67 -3.55,-12.57 -4.84,-4.84 -4.09,24.54 5.52,51.56 5.16,54.8 -0.64,5.8 -3.22,10.96 1.93,16.12 5.16,5.16 14.18,9.03 14.83,0.64 0.65,-8.38 3.41,-6.76 -2.53,-11.42 -18.54,-14.57 -12.46,-39.92 -14.55,-55.3z"/>
  <path class="fil26" d="M312.16 265.82c0,0 5.83,2.67 8.25,5.58 2.43,2.91 2.43,5.1 1.21,7.77 -1.21,2.67 -3.64,6.31 -3.64,6.31 0,0 -0.97,-7.04 -3.4,-10.43 -2.43,-3.4 -2.43,-9.22 -2.43,-9.22z"/>
  <path class="fil27" d="M309.25 403.4c0,0 6.51,1.13 17.12,-1.95 10.61,-3.07 18.28,-5.98 21.38,-4.95 5.56,1.85 6.77,4.78 12.47,4.82 2.14,0.02 3.7,-0.84 8.39,-5.05 3.58,-3.21 18.87,0.02 26.07,0.72 7.2,0.7 15.29,-2.58 15.29,-2.58 -24.2,25.47 -30.96,29.29 -50.49,30.36 -14.93,0.81 -28.95,-1.67 -34.29,-7.67 -4.46,-5.01 -16.77,-13.82 -15.94,-13.7z"/>
  <path class="fil28" d="M345.53 412.15c0.04,-0.87 -1.04,2.37 1.76,4.15 2.81,1.78 4.84,2.35 7.99,1.12 3.15,-1.22 4.35,-0.48 7.41,-0.76 3.06,-0.28 11.57,-1.33 15.57,-4.24 4,-2.92 12.54,-6.99 12.97,-8.21 0.43,-1.22 -5.28,-0.41 -10.24,1.24 -4.96,1.64 -21.73,5.94 -26.84,5.94 -5.11,0 -8.62,0.77 -8.62,0.77z"/>
  <path class="fil29" d="M347.31 406.34c3.54,1.4 10.16,5.06 13.26,4.2 9.6,-2.65 9.12,-5.28 22.01,-6.96 4.23,-0.55 10.71,-1.15 14.14,-3.31 4.32,-2.71 10.91,-4.98 16.16,-8.39 0,0 3.43,2.35 -4.17,5.73 -7.59,3.38 -8.89,3.85 -13.53,5.96 -4.65,2.11 -11.26,1.83 -19.08,3.94 -7.81,2.11 -10.75,4.75 -14.71,5.77 -3.96,1.02 -9.82,-2.08 -13.74,-4.26 -3.91,-2.18 -17.64,0.33 -23.2,0.38 -2.43,0.02 -11.77,-1.19 -16.81,-3.19 -8.25,-3.27 -12.21,-6.01 -5.28,-6.01 1.32,0 9.26,4.71 20.14,6.29 5.94,0.86 21.26,-1.55 24.8,-0.15z"/>
 </g>
</svg>
