<?xml version="1.0" encoding="UTF-8"?>
<!DOCTYPE svg PUBLIC "-//W3C//DTD SVG 1.1//EN" "http://www.w3.org/Graphics/SVG/1.1/DTD/svg11.dtd">
<!-- Creator: CorelDRAW 2021.5 -->
<svg xmlns="http://www.w3.org/2000/svg" xml:space="preserve" width="168.228mm" height="168.228mm" version="1.1" style="shape-rendering:geometricPrecision; text-rendering:geometricPrecision; image-rendering:optimizeQuality; fill-rule:evenodd; clip-rule:evenodd"
viewBox="0 0 815.13 815.13"
 xmlns:xlink="http://www.w3.org/1999/xlink"
 xmlns:xodm="http://www.corel.com/coreldraw/odm/2003">
 <defs>
  <style type="text/css">
   <![CDATA[
    .str0 {stroke:#FEFEFE;stroke-width:5.13;stroke-miterlimit:22.9256;stroke-opacity:0.501961}
    .str1 {stroke:#FEFEFE;stroke-width:17.09;stroke-miterlimit:22.9256}
    .fil1 {fill:none}
    .fil2 {fill:#FEFEFE}
    .fil0 {fill:#2B2A29;fill-opacity:0.501961}
   ]]>
  </style>
 </defs>
 <g id="Plan_x0020_1">
  <metadata id="CorelCorpID_0Corel-Layer"/>
  <g id="_1978617590416">
   <path class="fil0 str0" d="M407.57 8.55c220.37,0 399.02,178.65 399.02,399.02 0,220.37 -178.65,399.02 -399.02,399.02 -220.37,0 -399.02,-178.65 -399.02,-399.02 0,-220.37 178.65,-399.02 399.02,-399.02z"/>
   <circle class="fil1 str1" cx="407.57" cy="407.57" r="399.02"/>
   <g>
    <path class="fil2" d="M407.57 203.29l0 0c5.51,0 10.02,4.51 10.02,10.02l0 364.3 139.61 -139.61c3.9,-3.9 10.28,-3.9 14.18,0l0 0c3.9,3.9 3.9,10.28 0,14.18l-156.32 156.32c-0.13,0.14 -0.26,0.28 -0.4,0.42l-0 0c-1.63,1.63 -3.69,2.58 -5.83,2.84l-0.06 0.01 -0.19 0.02 -0.05 0 -0.21 0.02 -0.03 0 -0.02 0 -0.2 0.01 -0.02 0 -0.02 0 -0.04 0 -0.01 0 -0.01 0 -0.02 0 -0.01 0 -0.01 0 -0.01 0 -0.01 0 -0.02 0 -0.01 0 -0.01 0 -0.01 0 -0.01 0 -0.01 0 -0.02 0 -0 0 -0.01 0 -0 0 -0.01 0 -0.01 0 -0.01 0 -0.02 0 -0.01 0 -0.01 0 -0.03 0 -0.02 0 -0.01 0 -0.01 0 -0.01 0 -0.01 0 -0.02 0 -0.01 0 -0.01 0 -0.01 0 -0.01 0 -0.01 0 -0.02 0 -0.01 0 -0.01 0 -0.01 0 -0.01 0 -0.02 0 -0.01 0 -0.04 -0 -0.02 0 -0.01 0 -0.01 0 -0.01 0 -0.01 0 -0.01 -0 -0.01 0 -0.01 0 -0.01 0 -0.01 -0 -0.02 0 -0.01 0 -0.01 0 -0.01 -0 -0.01 0 -0.02 0 -0.01 -0 -0.01 0 -0.01 -0 -0.02 0 -0.01 -0 -0.01 0 -0.02 0 -0.02 -0 -0.02 -0 -0.02 -0 -0.02 0 -0.02 -0 -0.02 -0 -0.02 -0 -0.02 -0 -0.02 -0 -0.02 -0 -0.02 -0 -0 0 -0.02 -0 -0.02 -0 -0.02 -0 -0.02 -0 -0.02 -0 -0.02 -0 -0.02 -0 -0.02 -0 -0.02 -0 -0.02 -0 -0.02 -0 -0.01 0 -0.02 -0 -0.02 -0 -0.02 -0 -0.02 -0 -0.02 -0 -0.02 -0 -0.02 -0 -0.02 -0 -0.02 -0 -0.02 -0 -0.02 -0 -0.01 0 -0.03 -0 -0.02 -0 -0.02 -0 -0.02 -0 -0.06 -0.01 -0.02 -0 -0.02 -0 -0.17 -0.03 -0.02 -0c-2.01,-0.32 -3.95,-1.25 -5.49,-2.8l-0 -0c-0.13,-0.13 -0.26,-0.27 -0.39,-0.41l-156.32 -156.32c-3.9,-3.9 -3.9,-10.28 0,-14.18l0 -0c3.9,-3.9 10.28,-3.9 14.17,0l139.61 139.61 0 -364.3c0,-5.51 4.51,-10.02 10.02,-10.02zm0.14 408.55l-0.14 0 -0 0 -0.1 -0 0.24 0z"/>
   </g>
  </g>
 </g>
</svg>
