<?xml version="1.0" encoding="UTF-8"?>
<!DOCTYPE svg PUBLIC "-//W3C//DTD SVG 1.1//EN" "http://www.w3.org/Graphics/SVG/1.1/DTD/svg11.dtd">
<!-- Creator: CorelDRAW 2021.5 -->
<svg xmlns="http://www.w3.org/2000/svg" xml:space="preserve" width="323.772mm" height="315.806mm" version="1.1" style="shape-rendering:geometricPrecision; text-rendering:geometricPrecision; image-rendering:optimizeQuality; fill-rule:evenodd; clip-rule:evenodd"
viewBox="0 0 4086.83 3986.29"
 xmlns:xlink="http://www.w3.org/1999/xlink"
 xmlns:xodm="http://www.corel.com/coreldraw/odm/2003">
 <defs>
  <style type="text/css">
   <![CDATA[
    .fil0 {fill:black;fill-rule:nonzero}
   ]]>
  </style>
 </defs>
 <g id="Plan_x0020_1">
  <metadata id="CorelCorpID_0Corel-Layer"/>
  <path class="fil0" d="M2043.46 0.1c-1129.04,0 -2043.46,914.43 -2043.46,2043.46 0,904.19 584.94,1667.92 1397.23,1938.72 102.14,17.86 140.47,-43.44 140.47,-97.02 0,-48.56 -2.51,-209.49 -2.51,-380.56 -513.4,94.51 -646.24,-125.12 -687.08,-240.1 -22.98,-58.79 -122.61,-240.1 -209.49,-288.65 -71.54,-38.33 -173.68,-132.84 -2.51,-135.35 160.93,-2.51 275.91,148.19 314.14,209.49 183.91,309.02 477.68,222.24 595.17,168.56 17.86,-132.84 71.54,-222.24 130.23,-273.31 -454.7,-51.07 -929.78,-227.35 -929.78,-1008.94 0,-222.24 79.16,-406.14 209.49,-549.22 -20.47,-51.07 -92,-260.56 20.47,-541.49 0,0 171.16,-53.68 561.96,209.49 163.44,-45.95 337.21,-68.93 510.89,-68.93 173.68,0 347.35,22.98 510.89,68.93 390.79,-265.68 561.96,-209.49 561.96,-209.49 112.37,280.93 40.84,490.42 20.47,541.49 130.23,143.07 209.49,324.37 209.49,549.22 0,784.2 -477.68,957.87 -932.29,1008.94 74.05,63.81 137.96,186.42 137.96,378.05 0,273.31 -2.51,492.93 -2.51,561.96 0,53.68 38.33,117.49 140.47,97.02 831.11,-280.83 1391.72,-1061.36 1391.72,-1938.91 0,-1129.04 -914.43,-2043.46 -2043.46,-2043.46l0.1 0.1z"/>
  <g id="_2016032120960">
   <path class="fil0" d="M1333.21 1310.26l29.47 0 0 210.52 -29.47 0 0 -210.52zm94.95 52.56l59.85 0 0 23.7 -59.85 0 0 72.91c0,7.9 0.61,14.43 1.82,19.59 1.21,5.16 3.04,9.21 5.47,12.15 2.43,2.94 5.47,5.01 9.11,6.23 3.65,1.22 7.9,1.82 12.76,1.82 8.51,0 15.34,-0.96 20.51,-2.89 5.16,-1.92 8.76,-3.29 10.78,-4.1l5.47 23.39c-2.84,1.42 -7.8,3.19 -14.89,5.32 -7.09,2.13 -15.19,3.19 -24.3,3.19 -10.73,0 -19.6,-1.37 -26.58,-4.1 -6.99,-2.73 -12.61,-6.84 -16.86,-12.3 -4.25,-5.47 -7.24,-12.2 -8.96,-20.2 -1.72,-8 -2.58,-17.27 -2.58,-27.8l0 -140.96 28.25 -4.86 0 48.91zm111.36 -72.91l0 15.19c0,9.92 -0.61,20.3 -1.82,31.14 -1.22,10.83 -2.73,21.62 -4.56,32.35l-16.71 0c-1.82,-10.73 -3.34,-21.52 -4.56,-32.35 -1.21,-10.84 -1.82,-21.32 -1.82,-31.44l0 -14.88 29.47 0zm71.56 210.52c11.54,0 20.1,-1.52 25.67,-4.56 5.57,-3.04 8.35,-7.9 8.35,-14.58 0,-6.89 -2.73,-12.35 -8.2,-16.4 -5.47,-4.05 -14.48,-8.61 -27.04,-13.67 -6.08,-2.43 -11.9,-4.91 -17.47,-7.44 -5.57,-2.53 -10.38,-5.52 -14.43,-8.96 -4.05,-3.44 -7.29,-7.6 -9.72,-12.46 -2.43,-4.86 -3.65,-10.84 -3.65,-17.92 0,-13.97 5.16,-25.06 15.49,-33.26 10.33,-8.2 24.4,-12.3 42.23,-12.3 4.46,0 8.91,0.25 13.37,0.76 4.45,0.51 8.61,1.11 12.45,1.82 3.85,0.71 7.24,1.47 10.18,2.28 2.94,0.81 5.22,1.52 6.84,2.13l-5.17 24.3c-3.04,-1.62 -7.8,-3.29 -14.28,-5.01 -6.48,-1.72 -14.28,-2.58 -23.39,-2.58 -7.9,0 -14.78,1.57 -20.66,4.71 -5.87,3.14 -8.81,8.05 -8.81,14.73 0,3.44 0.66,6.48 1.98,9.11 1.32,2.63 3.34,5.01 6.08,7.14 2.73,2.13 6.13,4.1 10.18,5.92 4.05,1.82 8.91,3.75 14.58,5.77 7.49,2.84 14.18,5.62 20.05,8.35 5.87,2.73 10.89,5.92 15.04,9.57 4.15,3.65 7.34,8.05 9.57,13.22 2.23,5.16 3.34,11.49 3.34,18.99 0,14.58 -5.42,25.62 -16.25,33.11 -10.83,7.49 -26.28,11.24 -46.33,11.24 -13.97,0 -24.91,-1.17 -32.81,-3.49 -7.9,-2.33 -13.27,-4.1 -16.1,-5.32l5.16 -24.3c3.24,1.22 8.41,3.04 15.49,5.47 7.09,2.43 16.51,3.65 28.25,3.65zm259.61 -104.2c-3.44,-2.84 -8.4,-5.57 -14.88,-8.2 -6.48,-2.63 -13.57,-3.95 -21.27,-3.95 -8.1,0 -15.04,1.47 -20.81,4.41 -5.77,2.94 -10.48,6.99 -14.13,12.15 -3.65,5.17 -6.28,11.29 -7.9,18.38 -1.62,7.09 -2.43,14.68 -2.43,22.78 0,18.43 4.56,32.66 13.67,42.68 9.11,10.02 21.27,15.04 36.45,15.04 7.7,0 14.13,-0.35 19.29,-1.06 5.16,-0.71 9.16,-1.47 12,-2.28l0 -99.95zm0 -106.33l28.25 -4.86 0 231.18c-6.48,1.82 -14.78,3.65 -24.91,5.47 -10.13,1.82 -21.77,2.73 -34.94,2.73 -12.15,0 -23.09,-1.92 -32.81,-5.77 -9.72,-3.85 -18.02,-9.32 -24.91,-16.4 -6.89,-7.09 -12.2,-15.75 -15.95,-25.97 -3.75,-10.23 -5.62,-21.72 -5.62,-34.48 0,-12.15 1.57,-23.29 4.71,-33.42 3.14,-10.13 7.75,-18.83 13.82,-26.12 6.08,-7.29 13.52,-12.96 22.33,-17.01 8.81,-4.05 18.89,-6.08 30.23,-6.08 9.11,0 17.16,1.22 24.15,3.65 6.99,2.43 12.2,4.76 15.64,6.99l0 -79.9zm93.74 230.88l-28.25 0 0 -157.97 28.25 0 0 157.97zm-14.28 -186.53c-5.06,0 -9.37,-1.67 -12.91,-5.01 -3.54,-3.34 -5.32,-7.85 -5.32,-13.52 0,-5.67 1.77,-10.18 5.32,-13.52 3.54,-3.34 7.85,-5.01 12.91,-5.01 5.06,0 9.37,1.67 12.91,5.01 3.54,3.34 5.32,7.85 5.32,13.52 0,5.67 -1.77,10.18 -5.32,13.52 -3.54,3.34 -7.85,5.01 -12.91,5.01zm113.18 -49.21c8.3,0 15.44,0.61 21.42,1.82 5.98,1.22 10.18,2.33 12.61,3.34l-5.16 24.3c-2.43,-1.22 -5.87,-2.38 -10.33,-3.49 -4.46,-1.11 -9.92,-1.67 -16.4,-1.67 -13.16,0 -22.38,3.59 -27.64,10.78 -5.26,7.19 -7.9,16.86 -7.9,29.01l0 13.67 60.76 0 0 23.7 -60.76 0 0 134.27 -28.25 0 0 -172.25c0,-20.25 4.96,-35.9 14.88,-46.94 9.92,-11.04 25.52,-16.56 46.78,-16.56zm118.48 0c7.09,0 13.16,0.46 18.23,1.37 5.06,0.91 8.71,1.77 10.94,2.58l-3.95 24.3c-2.23,-0.81 -5.27,-1.67 -9.11,-2.58 -3.85,-0.91 -8.51,-1.37 -13.97,-1.37 -13.16,0 -22.38,3.59 -27.64,10.78 -5.27,7.19 -7.9,16.86 -7.9,29.01l0 13.67 60.76 0 0 23.7 -60.76 0 0 134.27 -28.25 0 0 -172.25c0,-20.25 4.96,-35.9 14.89,-46.94 9.92,-11.04 25.52,-16.56 46.78,-16.56zm85.06 235.74l-28.25 0 0 -157.97 28.25 0 0 157.97zm-14.28 -186.53c-5.06,0 -9.37,-1.67 -12.91,-5.01 -3.54,-3.34 -5.32,-7.85 -5.32,-13.52 0,-5.67 1.77,-10.18 5.32,-13.52 3.54,-3.34 7.85,-5.01 12.91,-5.01 5.06,0 9.37,1.67 12.91,5.01 3.54,3.34 5.32,7.85 5.32,13.52 0,5.67 -1.77,10.18 -5.32,13.52 -3.54,3.34 -7.85,5.01 -12.91,5.01zm120.17 190.17c-12.76,0 -23.95,-2.02 -33.57,-6.08 -9.62,-4.05 -17.72,-9.72 -24.3,-17.01 -6.58,-7.29 -11.49,-15.95 -14.73,-25.97 -3.24,-10.02 -4.86,-21.11 -4.86,-33.26 0,-12.15 1.77,-23.29 5.32,-33.42 3.54,-10.13 8.56,-18.88 15.04,-26.28 6.48,-7.39 14.43,-13.16 23.85,-17.32 9.42,-4.15 19.9,-6.23 31.44,-6.23 7.09,0 14.18,0.61 21.27,1.82 7.09,1.22 13.87,3.14 20.35,5.77l-6.38 24c-4.25,-2.02 -9.16,-3.65 -14.73,-4.86 -5.57,-1.21 -11.49,-1.82 -17.77,-1.82 -15.8,0 -27.9,4.96 -36.3,14.89 -8.41,9.92 -12.61,24.4 -12.61,43.44 0,8.51 0.96,16.3 2.89,23.39 1.92,7.09 4.96,13.16 9.11,18.23 4.15,5.06 9.47,8.96 15.95,11.7 6.48,2.73 14.38,4.1 23.7,4.1 7.49,0 14.28,-0.71 20.35,-2.13 6.08,-1.42 10.83,-2.94 14.28,-4.56l3.95 23.7c-1.62,1.01 -3.95,1.97 -6.99,2.89 -3.04,0.91 -6.48,1.72 -10.33,2.43 -3.85,0.71 -7.95,1.32 -12.3,1.82 -4.35,0.51 -8.56,0.76 -12.61,0.76zm187 -8.2c-6.48,1.62 -15.04,3.34 -25.67,5.16 -10.63,1.82 -22.94,2.73 -36.91,2.73 -12.15,0 -22.38,-1.77 -30.68,-5.32 -8.3,-3.54 -14.99,-8.56 -20.05,-15.04 -5.06,-6.48 -8.71,-14.13 -10.94,-22.94 -2.23,-8.81 -3.34,-18.58 -3.34,-29.32l0 -88.71 28.25 0 0 82.63c0,19.24 3.04,33.01 9.11,41.31 6.08,8.3 16.3,12.46 30.68,12.46 3.04,0 6.18,-0.1 9.42,-0.3 3.24,-0.2 6.28,-0.46 9.11,-0.76 2.84,-0.3 5.42,-0.61 7.75,-0.91 2.33,-0.3 4,-0.66 5.01,-1.06l0 -133.36 28.25 0 0 153.41zm84.63 7.6c-17.42,-0.41 -29.77,-4.15 -37.06,-11.24 -7.29,-7.09 -10.94,-18.13 -10.94,-33.11l0 -189.56 28.25 -4.86 0 189.87c0,4.66 0.41,8.51 1.22,11.54 0.81,3.04 2.13,5.47 3.95,7.29 1.82,1.82 4.25,3.19 7.29,4.1 3.04,0.91 6.78,1.67 11.24,2.28l-3.95 23.7zm50.6 -161.01l59.85 0 0 23.7 -59.85 0 0 72.91c0,7.9 0.61,14.43 1.82,19.59 1.21,5.16 3.04,9.21 5.47,12.15 2.43,2.94 5.47,5.01 9.11,6.23 3.65,1.22 7.9,1.82 12.76,1.82 8.51,0 15.34,-0.96 20.51,-2.89 5.16,-1.92 8.76,-3.29 10.78,-4.1l5.47 23.39c-2.84,1.42 -7.8,3.19 -14.89,5.32 -7.09,2.13 -15.19,3.19 -24.3,3.19 -10.73,0 -19.6,-1.37 -26.58,-4.1 -6.99,-2.73 -12.61,-6.84 -16.86,-12.3 -4.25,-5.47 -7.24,-12.2 -8.96,-20.2 -1.72,-8 -2.58,-17.27 -2.58,-27.8l0 -140.96 28.25 -4.86 0 48.91zm-1789.43 340.54l59.85 0 0 23.7 -59.85 0 0 72.91c0,7.9 0.61,14.43 1.82,19.59 1.21,5.16 3.04,9.21 5.47,12.15 2.43,2.94 5.47,5.01 9.11,6.23 3.65,1.22 7.9,1.82 12.76,1.82 8.51,0 15.34,-0.96 20.51,-2.89 5.16,-1.92 8.76,-3.29 10.78,-4.1l5.47 23.39c-2.84,1.42 -7.8,3.19 -14.89,5.32 -7.09,2.13 -15.19,3.19 -24.3,3.19 -10.73,0 -19.6,-1.37 -26.58,-4.1 -6.99,-2.73 -12.61,-6.84 -16.86,-12.3 -4.25,-5.47 -7.24,-12.2 -8.96,-20.2 -1.72,-8 -2.58,-17.27 -2.58,-27.8l0 -140.96 28.25 -4.86 0 48.91zm219.51 78.98c0,12.56 -1.82,23.9 -5.47,34.02 -3.65,10.13 -8.76,18.83 -15.34,26.13 -6.58,7.29 -14.43,12.91 -23.54,16.86 -9.11,3.95 -19.04,5.92 -29.77,5.92 -10.73,0 -20.66,-1.98 -29.77,-5.92 -9.11,-3.95 -16.96,-9.57 -23.54,-16.86 -6.58,-7.29 -11.7,-16 -15.34,-26.13 -3.65,-10.13 -5.47,-21.47 -5.47,-34.02 0,-12.35 1.82,-23.64 5.47,-33.87 3.65,-10.23 8.76,-18.99 15.34,-26.28 6.58,-7.29 14.43,-12.91 23.54,-16.86 9.11,-3.95 19.04,-5.92 29.77,-5.92 10.73,0 20.66,1.98 29.77,5.92 9.11,3.95 16.96,9.57 23.54,16.86 6.58,7.29 11.7,16.05 15.34,26.28 3.65,10.23 5.47,21.52 5.47,33.87zm-29.47 0c0,-17.82 -4,-31.95 -12,-42.38 -8,-10.43 -18.88,-15.65 -32.66,-15.65 -13.77,0 -24.66,5.22 -32.66,15.65 -8,10.43 -12,24.56 -12,42.38 0,17.82 4,31.95 12,42.38 8,10.43 18.89,15.65 32.66,15.65 13.77,0 24.66,-5.22 32.66,-15.65 8,-10.43 12,-24.56 12,-42.38zm189.74 -156.75c7.09,0 13.16,0.46 18.23,1.37 5.06,0.91 8.71,1.77 10.94,2.58l-3.95 24.3c-2.23,-0.81 -5.27,-1.67 -9.11,-2.58 -3.85,-0.91 -8.51,-1.37 -13.97,-1.37 -13.16,0 -22.38,3.59 -27.64,10.78 -5.26,7.19 -7.9,16.86 -7.9,29.01l0 13.67 60.76 0 0 23.7 -60.76 0 0 134.27 -28.25 0 0 -172.25c0,-20.25 4.96,-35.9 14.88,-46.94 9.92,-11.04 25.52,-16.56 46.78,-16.56zm85.06 235.74l-28.25 0 0 -157.97 28.25 0 0 157.97zm-14.28 -186.53c-5.06,0 -9.37,-1.67 -12.91,-5.01 -3.54,-3.34 -5.32,-7.85 -5.32,-13.52 0,-5.67 1.77,-10.18 5.32,-13.52 3.54,-3.34 7.85,-5.01 12.91,-5.01 5.06,0 9.37,1.67 12.91,5.01 3.54,3.34 5.32,7.85 5.32,13.52 0,5.67 -1.77,10.18 -5.32,13.52 -3.54,3.34 -7.85,5.01 -12.91,5.01zm51.51 33.11c6.48,-1.62 15.09,-3.34 25.82,-5.16 10.73,-1.82 23.09,-2.73 37.06,-2.73 12.56,0 22.99,1.77 31.29,5.32 8.3,3.54 14.94,8.51 19.9,14.89 4.96,6.38 8.45,14.02 10.48,22.94 2.02,8.91 3.04,18.73 3.04,29.47l0 88.71 -28.25 0 0 -82.63c0,-9.72 -0.66,-18.03 -1.97,-24.91 -1.32,-6.89 -3.49,-12.45 -6.53,-16.71 -3.04,-4.25 -7.09,-7.34 -12.15,-9.26 -5.06,-1.92 -11.34,-2.89 -18.84,-2.89 -3.04,0 -6.18,0.1 -9.42,0.3 -3.24,0.2 -6.33,0.46 -9.27,0.76 -2.94,0.3 -5.57,0.66 -7.9,1.06 -2.33,0.41 -4,0.71 -5.01,0.91l0 133.36 -28.25 0 0 -153.41zm265.07 28.86c-3.44,-2.84 -8.4,-5.57 -14.88,-8.2 -6.48,-2.63 -13.57,-3.95 -21.27,-3.95 -8.1,0 -15.04,1.47 -20.81,4.41 -5.77,2.94 -10.48,6.99 -14.13,12.15 -3.65,5.17 -6.28,11.29 -7.9,18.38 -1.62,7.09 -2.43,14.68 -2.43,22.78 0,18.43 4.56,32.66 13.67,42.68 9.11,10.02 21.27,15.04 36.45,15.04 7.7,0 14.13,-0.35 19.29,-1.06 5.16,-0.71 9.16,-1.47 12,-2.28l0 -99.95zm0 -106.33l28.25 -4.86 0 231.18c-6.48,1.82 -14.78,3.65 -24.91,5.47 -10.13,1.82 -21.77,2.73 -34.94,2.73 -12.15,0 -23.09,-1.92 -32.81,-5.77 -9.72,-3.85 -18.02,-9.32 -24.91,-16.4 -6.89,-7.09 -12.2,-15.75 -15.95,-25.97 -3.75,-10.23 -5.62,-21.72 -5.62,-34.48 0,-12.15 1.57,-23.29 4.71,-33.42 3.14,-10.13 7.75,-18.83 13.82,-26.12 6.08,-7.29 13.52,-12.96 22.33,-17.01 8.81,-4.05 18.89,-6.08 30.23,-6.08 9.11,0 17.16,1.22 24.15,3.65 6.99,2.43 12.2,4.76 15.64,6.99l0 -79.9zm189.13 210.52c6.68,0 12.61,-0.15 17.77,-0.46 5.17,-0.3 9.47,-0.86 12.91,-1.67l0 -47.09c-2.03,-1.01 -5.32,-1.87 -9.87,-2.58 -4.56,-0.71 -10.08,-1.06 -16.56,-1.06 -4.25,0 -8.76,0.3 -13.52,0.91 -4.76,0.61 -9.11,1.87 -13.06,3.8 -3.95,1.92 -7.24,4.56 -9.87,7.9 -2.63,3.34 -3.95,7.75 -3.95,13.21 0,10.13 3.24,17.16 9.72,21.11 6.48,3.95 15.29,5.92 26.43,5.92zm-2.43 -141.56c11.34,0 20.91,1.47 28.71,4.41 7.8,2.94 14.08,7.09 18.84,12.46 4.76,5.37 8.15,11.75 10.18,19.14 2.02,7.39 3.04,15.54 3.04,24.45l0 98.73c-2.43,0.41 -5.82,0.96 -10.18,1.67 -4.35,0.71 -9.26,1.37 -14.73,1.97 -5.47,0.61 -11.39,1.17 -17.77,1.67 -6.38,0.51 -12.71,0.76 -18.99,0.76 -8.91,0 -17.11,-0.91 -24.61,-2.73 -7.49,-1.82 -13.97,-4.71 -19.44,-8.66 -5.47,-3.95 -9.72,-9.16 -12.76,-15.64 -3.04,-6.48 -4.56,-14.28 -4.56,-23.39 0,-8.71 1.77,-16.2 5.32,-22.48 3.54,-6.28 8.35,-11.34 14.43,-15.19 6.08,-3.85 13.16,-6.68 21.27,-8.51 8.1,-1.82 16.61,-2.73 25.52,-2.73 2.84,0 5.77,0.15 8.81,0.46 3.04,0.3 5.92,0.71 8.66,1.21 2.73,0.51 5.11,0.96 7.14,1.37 2.03,0.41 3.44,0.71 4.25,0.91l0 -7.9c0,-4.66 -0.51,-9.27 -1.52,-13.82 -1.01,-4.56 -2.84,-8.61 -5.47,-12.15 -2.63,-3.54 -6.23,-6.38 -10.78,-8.51 -4.56,-2.13 -10.48,-3.19 -17.77,-3.19 -9.32,0 -17.47,0.66 -24.45,1.97 -6.99,1.32 -12.2,2.68 -15.65,4.1l-3.34 -23.39c3.65,-1.62 9.72,-3.19 18.23,-4.71 8.51,-1.52 17.72,-2.28 27.64,-2.28zm-730.42 502.46l-28.25 0 0 -157.97 28.25 0 0 157.97zm-14.28 -186.53c-5.06,0 -9.37,-1.67 -12.91,-5.01 -3.54,-3.34 -5.32,-7.85 -5.32,-13.52 0,-5.67 1.77,-10.18 5.32,-13.52 3.54,-3.34 7.85,-5.01 12.91,-5.01 5.06,0 9.37,1.67 12.91,5.01 3.54,3.34 5.32,7.85 5.32,13.52 0,5.67 -1.77,10.18 -5.32,13.52 -3.54,3.34 -7.85,5.01 -12.91,5.01zm51.51 33.11c6.48,-1.62 15.09,-3.34 25.82,-5.16 10.73,-1.82 23.09,-2.73 37.06,-2.73 12.56,0 22.99,1.77 31.29,5.32 8.3,3.54 14.94,8.51 19.9,14.89 4.96,6.38 8.45,14.02 10.48,22.94 2.02,8.91 3.04,18.73 3.04,29.47l0 88.71 -28.25 0 0 -82.63c0,-9.72 -0.66,-18.03 -1.97,-24.91 -1.32,-6.89 -3.49,-12.45 -6.53,-16.71 -3.04,-4.25 -7.09,-7.34 -12.15,-9.26 -5.06,-1.92 -11.34,-2.89 -18.84,-2.89 -3.04,0 -6.18,0.1 -9.42,0.3 -3.24,0.2 -6.33,0.46 -9.27,0.76 -2.94,0.3 -5.57,0.66 -7.9,1.06 -2.33,0.41 -4,0.71 -5.01,0.91l0 133.36 -28.25 0 0 -153.41zm286.64 133.06c6.68,0 12.61,-0.15 17.77,-0.46 5.17,-0.3 9.47,-0.86 12.91,-1.67l0 -47.09c-2.03,-1.01 -5.32,-1.87 -9.87,-2.58 -4.56,-0.71 -10.08,-1.06 -16.56,-1.06 -4.25,0 -8.76,0.3 -13.52,0.91 -4.76,0.61 -9.11,1.87 -13.06,3.8 -3.95,1.92 -7.24,4.56 -9.87,7.9 -2.63,3.34 -3.95,7.75 -3.95,13.21 0,10.13 3.24,17.16 9.72,21.11 6.48,3.95 15.29,5.92 26.43,5.92zm-2.43 -141.56c11.34,0 20.91,1.47 28.71,4.41 7.8,2.94 14.08,7.09 18.84,12.46 4.76,5.37 8.15,11.75 10.18,19.14 2.02,7.39 3.04,15.54 3.04,24.45l0 98.73c-2.43,0.41 -5.82,0.96 -10.18,1.67 -4.35,0.71 -9.26,1.37 -14.73,1.97 -5.47,0.61 -11.39,1.17 -17.77,1.67 -6.38,0.51 -12.71,0.76 -18.99,0.76 -8.91,0 -17.11,-0.91 -24.61,-2.73 -7.49,-1.82 -13.97,-4.71 -19.44,-8.66 -5.47,-3.95 -9.72,-9.16 -12.76,-15.64 -3.04,-6.48 -4.56,-14.28 -4.56,-23.39 0,-8.71 1.77,-16.2 5.32,-22.48 3.54,-6.28 8.35,-11.34 14.43,-15.19 6.08,-3.85 13.16,-6.68 21.27,-8.51 8.1,-1.82 16.61,-2.73 25.52,-2.73 2.84,0 5.77,0.15 8.81,0.46 3.04,0.3 5.92,0.71 8.66,1.21 2.73,0.51 5.11,0.96 7.14,1.37 2.03,0.41 3.44,0.71 4.25,0.91l0 -7.9c0,-4.66 -0.51,-9.27 -1.52,-13.82 -1.01,-4.56 -2.84,-8.61 -5.47,-12.15 -2.63,-3.54 -6.23,-6.38 -10.78,-8.51 -4.56,-2.13 -10.48,-3.19 -17.77,-3.19 -9.32,0 -17.47,0.66 -24.45,1.97 -6.99,1.32 -12.2,2.68 -15.65,4.1l-3.34 -23.39c3.65,-1.62 9.72,-3.19 18.23,-4.71 8.51,-1.52 17.72,-2.28 27.64,-2.28zm268.42 37.37c-3.44,-2.84 -8.4,-5.57 -14.88,-8.2 -6.48,-2.63 -13.57,-3.95 -21.27,-3.95 -8.1,0 -15.04,1.47 -20.81,4.41 -5.77,2.94 -10.48,6.99 -14.13,12.15 -3.65,5.17 -6.28,11.29 -7.9,18.38 -1.62,7.09 -2.43,14.68 -2.43,22.78 0,18.43 4.56,32.66 13.67,42.68 9.11,10.02 21.27,15.04 36.45,15.04 7.7,0 14.13,-0.35 19.29,-1.06 5.16,-0.71 9.16,-1.47 12,-2.28l0 -99.95zm0 -106.33l28.25 -4.86 0 231.18c-6.48,1.82 -14.78,3.65 -24.91,5.47 -10.13,1.82 -21.77,2.73 -34.94,2.73 -12.15,0 -23.09,-1.92 -32.81,-5.77 -9.72,-3.85 -18.02,-9.32 -24.91,-16.4 -6.89,-7.09 -12.2,-15.75 -15.95,-25.97 -3.75,-10.23 -5.62,-21.72 -5.62,-34.48 0,-12.15 1.57,-23.29 4.71,-33.42 3.14,-10.13 7.75,-18.83 13.82,-26.12 6.08,-7.29 13.52,-12.96 22.33,-17.01 8.81,-4.05 18.89,-6.08 30.23,-6.08 9.11,0 17.16,1.22 24.15,3.65 6.99,2.43 12.2,4.76 15.64,6.99l0 -79.9zm118.95 210.52c6.68,0 12.61,-0.15 17.77,-0.46 5.17,-0.3 9.47,-0.86 12.91,-1.67l0 -47.09c-2.03,-1.01 -5.32,-1.87 -9.87,-2.58 -4.56,-0.71 -10.08,-1.06 -16.56,-1.06 -4.25,0 -8.76,0.3 -13.52,0.91 -4.76,0.61 -9.11,1.87 -13.06,3.8 -3.95,1.92 -7.24,4.56 -9.87,7.9 -2.63,3.34 -3.95,7.75 -3.95,13.21 0,10.13 3.24,17.16 9.72,21.11 6.48,3.95 15.29,5.92 26.43,5.92zm-2.43 -141.56c11.34,0 20.91,1.47 28.71,4.41 7.8,2.94 14.08,7.09 18.84,12.46 4.76,5.37 8.15,11.75 10.18,19.14 2.02,7.39 3.04,15.54 3.04,24.45l0 98.73c-2.43,0.41 -5.82,0.96 -10.18,1.67 -4.35,0.71 -9.26,1.37 -14.73,1.97 -5.47,0.61 -11.39,1.17 -17.77,1.67 -6.38,0.51 -12.71,0.76 -18.99,0.76 -8.91,0 -17.11,-0.91 -24.61,-2.73 -7.49,-1.82 -13.97,-4.71 -19.44,-8.66 -5.47,-3.95 -9.72,-9.16 -12.76,-15.64 -3.04,-6.48 -4.56,-14.28 -4.56,-23.39 0,-8.71 1.77,-16.2 5.32,-22.48 3.54,-6.28 8.35,-11.34 14.43,-15.19 6.08,-3.85 13.16,-6.68 21.27,-8.51 8.1,-1.82 16.61,-2.73 25.52,-2.73 2.84,0 5.77,0.15 8.81,0.46 3.04,0.3 5.92,0.71 8.66,1.21 2.73,0.51 5.11,0.96 7.14,1.37 2.03,0.41 3.44,0.71 4.25,0.91l0 -7.9c0,-4.66 -0.51,-9.27 -1.52,-13.82 -1.01,-4.56 -2.84,-8.61 -5.47,-12.15 -2.63,-3.54 -6.23,-6.38 -10.78,-8.51 -4.56,-2.13 -10.48,-3.19 -17.77,-3.19 -9.32,0 -17.47,0.66 -24.45,1.97 -6.99,1.32 -12.2,2.68 -15.65,4.1l-3.34 -23.39c3.65,-1.62 9.72,-3.19 18.23,-4.71 8.51,-1.52 17.72,-2.28 27.64,-2.28zm154.5 0.61c2.43,0 5.21,0.15 8.35,0.46 3.14,0.3 6.23,0.71 9.27,1.21 3.04,0.51 5.82,1.01 8.35,1.52 2.53,0.51 4.41,0.96 5.62,1.37l-4.86 24.61c-2.23,-0.81 -5.92,-1.77 -11.09,-2.89 -5.16,-1.11 -11.8,-1.67 -19.9,-1.67 -5.27,0 -10.48,0.56 -15.65,1.67 -5.16,1.11 -8.56,1.87 -10.18,2.28l0 132.75 -28.25 0 0 -151.29c6.68,-2.43 14.99,-4.71 24.91,-6.84 9.92,-2.13 21.06,-3.19 33.42,-3.19zm104.67 74.43c6.08,4.66 12.51,10.43 19.29,17.32 6.78,6.89 13.47,14.33 20.05,22.33 6.58,8 12.81,16.1 18.68,24.3 5.87,8.2 10.84,15.85 14.89,22.94l-33.11 0c-4.25,-7.09 -9.16,-14.33 -14.73,-21.72 -5.57,-7.39 -11.39,-14.48 -17.47,-21.27 -6.08,-6.78 -12.25,-13.01 -18.53,-18.68 -6.28,-5.67 -12.25,-10.43 -17.92,-14.28l0 75.95 -28.25 0 0 -230.88 28.25 -4.86 0 143.99c4.86,-4.86 10.23,-10.23 16.1,-16.1 5.87,-5.87 11.65,-11.85 17.32,-17.92 5.67,-6.08 11.04,-11.9 16.1,-17.47 5.06,-5.57 9.42,-10.48 13.06,-14.73l33.11 0c-4.66,5.06 -9.72,10.63 -15.19,16.71 -5.47,6.08 -11.14,12.2 -17.01,18.38 -5.87,6.18 -11.8,12.35 -17.77,18.53 -5.97,6.18 -11.59,12 -16.86,17.47zm218.6 -74.43c2.43,0 5.21,0.15 8.35,0.46 3.14,0.3 6.23,0.71 9.27,1.21 3.04,0.51 5.82,1.01 8.35,1.52 2.53,0.51 4.41,0.96 5.62,1.37l-4.86 24.61c-2.23,-0.81 -5.92,-1.77 -11.09,-2.89 -5.16,-1.11 -11.8,-1.67 -19.9,-1.67 -5.27,0 -10.48,0.56 -15.65,1.67 -5.16,1.11 -8.56,1.87 -10.18,2.28l0 132.75 -28.25 0 0 -151.29c6.68,-2.43 14.99,-4.71 24.91,-6.84 9.92,-2.13 21.06,-3.19 33.42,-3.19zm187 82.33c0,12.56 -1.82,23.9 -5.47,34.02 -3.65,10.13 -8.76,18.83 -15.34,26.13 -6.58,7.29 -14.43,12.91 -23.54,16.86 -9.11,3.95 -19.04,5.92 -29.77,5.92 -10.73,0 -20.66,-1.98 -29.77,-5.92 -9.11,-3.95 -16.96,-9.57 -23.54,-16.86 -6.58,-7.29 -11.7,-16 -15.34,-26.13 -3.65,-10.13 -5.47,-21.47 -5.47,-34.02 0,-12.35 1.82,-23.64 5.47,-33.87 3.65,-10.23 8.76,-18.99 15.34,-26.28 6.58,-7.29 14.43,-12.91 23.54,-16.86 9.11,-3.95 19.04,-5.92 29.77,-5.92 10.73,0 20.66,1.98 29.77,5.92 9.11,3.95 16.96,9.57 23.54,16.86 6.58,7.29 11.7,16.05 15.34,26.28 3.65,10.23 5.47,21.52 5.47,33.87zm-29.47 0c0,-17.82 -4,-31.95 -12,-42.38 -8,-10.43 -18.88,-15.65 -32.66,-15.65 -13.77,0 -24.66,5.22 -32.66,15.65 -8,10.43 -12,24.56 -12,42.38 0,17.82 4,31.95 12,42.38 8,10.43 18.89,15.65 32.66,15.65 13.77,0 24.66,-5.22 32.66,-15.65 8,-10.43 12,-24.56 12,-42.38zm197.33 0c0,12.56 -1.82,23.9 -5.47,34.02 -3.65,10.13 -8.76,18.83 -15.34,26.13 -6.58,7.29 -14.43,12.91 -23.54,16.86 -9.11,3.95 -19.04,5.92 -29.77,5.92 -10.73,0 -20.66,-1.98 -29.77,-5.92 -9.11,-3.95 -16.96,-9.57 -23.54,-16.86 -6.58,-7.29 -11.7,-16 -15.34,-26.13 -3.65,-10.13 -5.47,-21.47 -5.47,-34.02 0,-12.35 1.82,-23.64 5.47,-33.87 3.65,-10.23 8.76,-18.99 15.34,-26.28 6.58,-7.29 14.43,-12.91 23.54,-16.86 9.11,-3.95 19.04,-5.92 29.77,-5.92 10.73,0 20.66,1.98 29.77,5.92 9.11,3.95 16.96,9.57 23.54,16.86 6.58,7.29 11.7,16.05 15.34,26.28 3.65,10.23 5.47,21.52 5.47,33.87zm-29.47 0c0,-17.82 -4,-31.95 -12,-42.38 -8,-10.43 -18.88,-15.65 -32.66,-15.65 -13.77,0 -24.66,5.22 -32.66,15.65 -8,10.43 -12,24.56 -12,42.38 0,17.82 4,31.95 12,42.38 8,10.43 18.89,15.65 32.66,15.65 13.77,0 24.66,-5.22 32.66,-15.65 8,-10.43 12,-24.56 12,-42.38z"/>
   <path class="fil0" d="M2696.42 2048.46c6.48,-1.62 15.04,-3.34 25.67,-5.16 10.63,-1.82 22.94,-2.73 36.91,-2.73 10.13,0 18.63,1.37 25.52,4.1 6.89,2.73 12.66,6.73 17.32,12 1.42,-1.01 3.65,-2.43 6.68,-4.25 3.04,-1.82 6.78,-3.59 11.24,-5.32 4.46,-1.72 9.42,-3.24 14.89,-4.56 5.47,-1.32 11.34,-1.97 17.62,-1.97 12.15,0 22.07,1.77 29.77,5.32 7.7,3.54 13.72,8.56 18.08,15.04 4.35,6.48 7.29,14.18 8.81,23.09 1.52,8.91 2.28,18.63 2.28,29.16l0 88.71 -28.25 0 0 -82.63c0,-9.32 -0.46,-17.32 -1.37,-24 -0.91,-6.68 -2.63,-12.25 -5.16,-16.71 -2.53,-4.45 -5.97,-7.75 -10.33,-9.87 -4.35,-2.13 -9.97,-3.19 -16.86,-3.19 -9.52,0 -17.37,1.26 -23.54,3.8 -6.18,2.53 -10.38,4.81 -12.61,6.84 1.62,5.27 2.84,11.04 3.65,17.32 0.81,6.28 1.22,12.86 1.22,19.75l0 88.71 -28.25 0 0 -82.63c0,-9.32 -0.51,-17.32 -1.52,-24 -1.01,-6.68 -2.79,-12.25 -5.32,-16.71 -2.53,-4.45 -5.97,-7.75 -10.33,-9.87 -4.35,-2.13 -9.87,-3.19 -16.56,-3.19 -2.84,0 -5.87,0.1 -9.11,0.3 -3.24,0.2 -6.33,0.46 -9.27,0.76 -2.94,0.3 -5.62,0.66 -8.05,1.06 -2.43,0.41 -4.05,0.71 -4.86,0.91l0 133.36 -28.25 0 0 -153.41zm279.96 118.78c0.2,1.62 0.3,3.19 0.3,4.71 0,1.52 0,3.09 0,4.71 0,12.76 -1.87,25.37 -5.62,37.82 -3.75,12.45 -8.86,24.35 -15.34,35.69l-21.87 -6.99c5.06,-10.33 8.41,-20.81 10.02,-31.44 1.62,-10.63 2.43,-20.61 2.43,-29.92 0,-2.63 -0.05,-5.17 -0.15,-7.6 -0.1,-2.43 -0.25,-4.76 -0.46,-6.99l30.68 0zm-1667.55 296.5c0,-13.97 2.03,-26.18 6.08,-36.61 4.05,-10.43 9.42,-19.09 16.1,-25.97 6.68,-6.89 14.38,-12.05 23.09,-15.49 8.71,-3.44 17.62,-5.17 26.73,-5.17 21.26,0 37.57,6.63 48.91,19.9 11.34,13.27 17.01,33.47 17.01,60.61 0,1.21 0,2.78 0,4.71 0,1.92 -0.1,3.7 -0.3,5.32l-108.15 0c1.22,16.4 5.97,28.86 14.28,37.37 8.3,8.51 21.27,12.76 38.89,12.76 9.92,0 18.28,-0.86 25.06,-2.58 6.78,-1.72 11.9,-3.39 15.34,-5.01l3.95 23.7c-3.44,1.82 -9.47,3.75 -18.08,5.77 -8.61,2.03 -18.38,3.04 -29.32,3.04 -13.77,0 -25.67,-2.08 -35.69,-6.23 -10.02,-4.15 -18.28,-9.87 -24.76,-17.16 -6.48,-7.29 -11.29,-15.95 -14.43,-25.97 -3.14,-10.02 -4.71,-21.01 -4.71,-32.96zm108.45 -15.49c0.2,-12.76 -2.99,-23.24 -9.57,-31.44 -6.58,-8.2 -15.65,-12.3 -27.19,-12.3 -6.48,0 -12.2,1.27 -17.16,3.8 -4.96,2.53 -9.16,5.82 -12.61,9.87 -3.44,4.05 -6.13,8.71 -8.05,13.97 -1.92,5.27 -3.19,10.63 -3.8,16.1l78.38 0zm95.56 73.82c11.54,0 20.1,-1.52 25.67,-4.56 5.57,-3.04 8.35,-7.9 8.35,-14.58 0,-6.89 -2.73,-12.35 -8.2,-16.4 -5.47,-4.05 -14.48,-8.61 -27.04,-13.67 -6.08,-2.43 -11.9,-4.91 -17.47,-7.44 -5.57,-2.53 -10.38,-5.52 -14.43,-8.96 -4.05,-3.44 -7.29,-7.6 -9.72,-12.46 -2.43,-4.86 -3.65,-10.84 -3.65,-17.92 0,-13.97 5.16,-25.06 15.49,-33.26 10.33,-8.2 24.4,-12.3 42.23,-12.3 4.46,0 8.91,0.25 13.37,0.76 4.45,0.51 8.61,1.11 12.45,1.82 3.85,0.71 7.24,1.47 10.18,2.28 2.94,0.81 5.22,1.52 6.84,2.13l-5.17 24.3c-3.04,-1.62 -7.8,-3.29 -14.28,-5.01 -6.48,-1.72 -14.28,-2.58 -23.39,-2.58 -7.9,0 -14.78,1.57 -20.66,4.71 -5.87,3.14 -8.81,8.05 -8.81,14.73 0,3.44 0.66,6.48 1.98,9.11 1.32,2.63 3.34,5.01 6.08,7.14 2.73,2.13 6.13,4.1 10.18,5.92 4.05,1.82 8.91,3.75 14.58,5.77 7.49,2.84 14.18,5.62 20.05,8.35 5.87,2.73 10.89,5.92 15.04,9.57 4.15,3.65 7.34,8.05 9.57,13.22 2.23,5.16 3.34,11.49 3.34,18.99 0,14.58 -5.42,25.62 -16.25,33.11 -10.83,7.49 -26.28,11.24 -46.33,11.24 -13.97,0 -24.91,-1.17 -32.81,-3.49 -7.9,-2.33 -13.27,-4.1 -16.1,-5.32l5.16 -24.3c3.24,1.22 8.41,3.04 15.49,5.47 7.09,2.43 16.51,3.65 28.25,3.65zm197.03 -58.33c0,-18.43 -4.56,-32.61 -13.67,-42.53 -9.11,-9.92 -21.27,-14.89 -36.45,-14.89 -8.51,0 -15.14,0.3 -19.9,0.91 -4.76,0.61 -8.56,1.32 -11.39,2.13l0 99.64c3.44,2.84 8.4,5.57 14.89,8.2 6.48,2.63 13.57,3.95 21.26,3.95 8.1,0 15.04,-1.47 20.81,-4.41 5.77,-2.94 10.48,-6.99 14.13,-12.15 3.65,-5.17 6.28,-11.24 7.9,-18.23 1.62,-6.99 2.43,-14.53 2.43,-22.63zm29.47 0c0,11.95 -1.57,22.99 -4.71,33.11 -3.14,10.13 -7.75,18.83 -13.82,26.12 -6.08,7.29 -13.52,12.96 -22.33,17.01 -8.81,4.05 -18.89,6.08 -30.23,6.08 -9.11,0 -17.16,-1.22 -24.15,-3.65 -6.99,-2.43 -12.2,-4.76 -15.64,-6.99l0 63.19 -28.25 0 0 -209.31c6.68,-1.62 15.04,-3.39 25.06,-5.32 10.02,-1.92 21.62,-2.89 34.78,-2.89 12.15,0 23.09,1.92 32.81,5.77 9.72,3.85 18.02,9.32 24.91,16.41 6.89,7.09 12.2,15.75 15.95,25.97 3.75,10.23 5.62,21.72 5.62,34.48zm19.61 0c0,-13.97 2.03,-26.18 6.08,-36.61 4.05,-10.43 9.42,-19.09 16.1,-25.97 6.68,-6.89 14.38,-12.05 23.09,-15.49 8.71,-3.44 17.62,-5.17 26.73,-5.17 21.26,0 37.57,6.63 48.91,19.9 11.34,13.27 17.01,33.47 17.01,60.61 0,1.21 0,2.78 0,4.71 0,1.92 -0.1,3.7 -0.3,5.32l-108.15 0c1.22,16.4 5.97,28.86 14.28,37.37 8.3,8.51 21.27,12.76 38.89,12.76 9.92,0 18.28,-0.86 25.06,-2.58 6.78,-1.72 11.9,-3.39 15.34,-5.01l3.95 23.7c-3.44,1.82 -9.47,3.75 -18.08,5.77 -8.61,2.03 -18.38,3.04 -29.32,3.04 -13.77,0 -25.67,-2.08 -35.69,-6.23 -10.02,-4.15 -18.28,-9.87 -24.76,-17.16 -6.48,-7.29 -11.29,-15.95 -14.43,-25.97 -3.14,-10.02 -4.71,-21.01 -4.71,-32.96zm108.45 -15.49c0.2,-12.76 -2.99,-23.24 -9.57,-31.44 -6.58,-8.2 -15.65,-12.3 -27.19,-12.3 -6.48,0 -12.2,1.27 -17.16,3.8 -4.96,2.53 -9.16,5.82 -12.61,9.87 -3.44,4.05 -6.13,8.71 -8.05,13.97 -1.92,5.27 -3.19,10.63 -3.8,16.1l78.38 0zm127.46 97.82c-12.76,0 -23.95,-2.02 -33.57,-6.08 -9.62,-4.05 -17.72,-9.72 -24.3,-17.01 -6.58,-7.29 -11.49,-15.95 -14.73,-25.97 -3.24,-10.02 -4.86,-21.11 -4.86,-33.26 0,-12.15 1.77,-23.29 5.32,-33.42 3.54,-10.13 8.56,-18.88 15.04,-26.28 6.48,-7.39 14.43,-13.16 23.85,-17.32 9.42,-4.15 19.9,-6.23 31.44,-6.23 7.09,0 14.18,0.61 21.27,1.82 7.09,1.22 13.87,3.14 20.35,5.77l-6.38 24c-4.25,-2.02 -9.16,-3.65 -14.73,-4.86 -5.57,-1.21 -11.49,-1.82 -17.77,-1.82 -15.8,0 -27.9,4.96 -36.3,14.89 -8.41,9.92 -12.61,24.4 -12.61,43.44 0,8.51 0.96,16.3 2.89,23.39 1.92,7.09 4.96,13.16 9.11,18.23 4.15,5.06 9.47,8.96 15.95,11.7 6.48,2.73 14.38,4.1 23.7,4.1 7.49,0 14.28,-0.71 20.35,-2.13 6.08,-1.42 10.83,-2.94 14.28,-4.56l3.95 23.7c-1.62,1.01 -3.95,1.97 -6.99,2.89 -3.04,0.91 -6.48,1.72 -10.33,2.43 -3.85,0.71 -7.95,1.32 -12.3,1.82 -4.35,0.51 -8.56,0.76 -12.61,0.76zm89.49 -3.65l-28.25 0 0 -157.97 28.25 0 0 157.97zm-14.28 -186.53c-5.06,0 -9.37,-1.67 -12.91,-5.01 -3.54,-3.34 -5.32,-7.85 -5.32,-13.52 0,-5.67 1.77,-10.18 5.32,-13.52 3.54,-3.34 7.85,-5.01 12.91,-5.01 5.06,0 9.37,1.67 12.91,5.01 3.54,3.34 5.32,7.85 5.32,13.52 0,5.67 -1.77,10.18 -5.32,13.52 -3.54,3.34 -7.85,5.01 -12.91,5.01zm104.98 166.17c6.68,0 12.61,-0.15 17.77,-0.46 5.17,-0.3 9.47,-0.86 12.91,-1.67l0 -47.09c-2.03,-1.01 -5.32,-1.87 -9.87,-2.58 -4.56,-0.71 -10.08,-1.06 -16.56,-1.06 -4.25,0 -8.76,0.3 -13.52,0.91 -4.76,0.61 -9.11,1.87 -13.06,3.8 -3.95,1.92 -7.24,4.56 -9.87,7.9 -2.63,3.34 -3.95,7.75 -3.95,13.21 0,10.13 3.24,17.16 9.72,21.11 6.48,3.95 15.29,5.92 26.43,5.92zm-2.43 -141.56c11.34,0 20.91,1.47 28.71,4.41 7.8,2.94 14.08,7.09 18.84,12.46 4.76,5.37 8.15,11.75 10.18,19.14 2.02,7.39 3.04,15.54 3.04,24.45l0 98.73c-2.43,0.41 -5.82,0.96 -10.18,1.67 -4.35,0.71 -9.26,1.37 -14.73,1.97 -5.47,0.61 -11.39,1.17 -17.77,1.67 -6.38,0.51 -12.71,0.76 -18.99,0.76 -8.91,0 -17.11,-0.91 -24.61,-2.73 -7.49,-1.82 -13.97,-4.71 -19.44,-8.66 -5.47,-3.95 -9.72,-9.16 -12.76,-15.64 -3.04,-6.48 -4.56,-14.28 -4.56,-23.39 0,-8.71 1.77,-16.2 5.32,-22.48 3.54,-6.28 8.35,-11.34 14.43,-15.19 6.08,-3.85 13.16,-6.68 21.27,-8.51 8.1,-1.82 16.61,-2.73 25.52,-2.73 2.84,0 5.77,0.15 8.81,0.46 3.04,0.3 5.92,0.71 8.66,1.21 2.73,0.51 5.11,0.96 7.14,1.37 2.03,0.41 3.44,0.71 4.25,0.91l0 -7.9c0,-4.66 -0.51,-9.27 -1.52,-13.82 -1.01,-4.56 -2.84,-8.61 -5.47,-12.15 -2.63,-3.54 -6.23,-6.38 -10.78,-8.51 -4.56,-2.13 -10.48,-3.19 -17.77,-3.19 -9.32,0 -17.47,0.66 -24.45,1.97 -6.99,1.32 -12.2,2.68 -15.65,4.1l-3.34 -23.39c3.65,-1.62 9.72,-3.19 18.23,-4.71 8.51,-1.52 17.72,-2.28 27.64,-2.28zm143.56 164.96c-17.42,-0.41 -29.77,-4.15 -37.06,-11.24 -7.29,-7.09 -10.94,-18.13 -10.94,-33.11l0 -189.56 28.25 -4.86 0 189.87c0,4.66 0.41,8.51 1.22,11.54 0.81,3.04 2.13,5.47 3.95,7.29 1.82,1.82 4.25,3.19 7.29,4.1 3.04,0.91 6.78,1.67 11.24,2.28l-3.95 23.7zm71.56 0c-17.42,-0.41 -29.77,-4.15 -37.06,-11.24 -7.29,-7.09 -10.94,-18.13 -10.94,-33.11l0 -189.56 28.25 -4.86 0 189.87c0,4.66 0.41,8.51 1.22,11.54 0.81,3.04 2.13,5.47 3.95,7.29 1.82,1.82 4.25,3.19 7.29,4.1 3.04,0.91 6.78,1.67 11.24,2.28l-3.95 23.7zm5.64 26.43c2.23,1.01 5.11,1.97 8.66,2.89 3.54,0.91 7.04,1.37 10.48,1.37 11.14,0 19.85,-2.48 26.12,-7.44 6.28,-4.96 11.95,-13.01 17.01,-24.15 -12.76,-24.3 -24.66,-50.08 -35.7,-77.31 -11.04,-27.24 -20.2,-54.83 -27.49,-82.78l30.38 0c2.23,9.11 4.91,18.94 8.05,29.47 3.14,10.53 6.63,21.37 10.48,32.51 3.85,11.14 8,22.28 12.46,33.42 4.46,11.14 9.11,21.87 13.97,32.2 7.7,-21.27 14.38,-42.33 20.05,-63.19 5.67,-20.86 11.04,-42.33 16.1,-64.4l29.16 0c-7.29,29.77 -15.39,58.38 -24.3,85.82 -8.91,27.44 -18.53,53.11 -28.86,77.01 -4.05,9.11 -8.25,16.96 -12.61,23.54 -4.35,6.58 -9.17,12 -14.43,16.25 -5.27,4.25 -11.19,7.39 -17.77,9.42 -6.58,2.03 -14.02,3.04 -22.33,3.04 -2.23,0 -4.56,-0.15 -6.99,-0.46 -2.43,-0.3 -4.81,-0.71 -7.14,-1.22 -2.33,-0.51 -4.45,-1.06 -6.38,-1.67 -1.92,-0.61 -3.29,-1.11 -4.1,-1.52l5.17 -22.78zm256.57 -29.47l-28.25 0 0 -157.97 28.25 0 0 157.97zm-14.28 -186.53c-5.06,0 -9.37,-1.67 -12.91,-5.01 -3.54,-3.34 -5.32,-7.85 -5.32,-13.52 0,-5.67 1.77,-10.18 5.32,-13.52 3.54,-3.34 7.85,-5.01 12.91,-5.01 5.06,0 9.37,1.67 12.91,5.01 3.54,3.34 5.32,7.85 5.32,13.52 0,5.67 -1.77,10.18 -5.32,13.52 -3.54,3.34 -7.85,5.01 -12.91,5.01zm113.18 -49.21c8.3,0 15.44,0.61 21.42,1.82 5.98,1.22 10.18,2.33 12.61,3.34l-5.16 24.3c-2.43,-1.22 -5.87,-2.38 -10.33,-3.49 -4.46,-1.11 -9.92,-1.67 -16.4,-1.67 -13.16,0 -22.38,3.59 -27.64,10.78 -5.26,7.19 -7.9,16.86 -7.9,29.01l0 13.67 60.76 0 0 23.7 -60.76 0 0 134.27 -28.25 0 0 -172.25c0,-20.25 4.96,-35.9 14.88,-46.94 9.92,-11.04 25.52,-16.56 46.78,-16.56zm-1144.76 418.31l59.85 0 0 23.7 -59.85 0 0 72.91c0,7.9 0.61,14.43 1.82,19.59 1.21,5.16 3.04,9.21 5.47,12.15 2.43,2.94 5.47,5.01 9.11,6.23 3.65,1.22 7.9,1.82 12.76,1.82 8.51,0 15.34,-0.96 20.51,-2.89 5.16,-1.92 8.76,-3.29 10.78,-4.1l5.47 23.39c-2.84,1.42 -7.8,3.19 -14.89,5.32 -7.09,2.13 -15.19,3.19 -24.3,3.19 -10.73,0 -19.6,-1.37 -26.58,-4.1 -6.99,-2.73 -12.61,-6.84 -16.86,-12.3 -4.25,-5.47 -7.24,-12.2 -8.96,-20.2 -1.72,-8 -2.58,-17.27 -2.58,-27.8l0 -140.96 28.25 -4.86 0 48.91zm84.32 157.97l0 -230.88 28.25 -4.86 0 80.81c5.26,-2.03 10.89,-3.59 16.86,-4.71 5.97,-1.11 11.9,-1.67 17.77,-1.67 12.56,0 22.99,1.77 31.29,5.32 8.3,3.54 14.94,8.51 19.9,14.89 4.96,6.38 8.45,14.02 10.48,22.94 2.02,8.91 3.04,18.73 3.04,29.47l0 88.71 -28.25 0 0 -82.63c0,-9.72 -0.66,-18.03 -1.97,-24.91 -1.32,-6.89 -3.49,-12.45 -6.53,-16.71 -3.04,-4.25 -7.09,-7.34 -12.15,-9.26 -5.06,-1.92 -11.34,-2.89 -18.84,-2.89 -3.04,0 -6.18,0.2 -9.42,0.61 -3.24,0.41 -6.33,0.86 -9.27,1.37 -2.94,0.51 -5.57,1.06 -7.9,1.67 -2.33,0.61 -4,1.11 -5.01,1.52l0 131.24 -28.25 0zm153.28 -78.68c0,-13.97 2.03,-26.18 6.08,-36.61 4.05,-10.43 9.42,-19.09 16.1,-25.97 6.68,-6.89 14.38,-12.05 23.09,-15.49 8.71,-3.44 17.62,-5.17 26.73,-5.17 21.26,0 37.57,6.63 48.91,19.9 11.34,13.27 17.01,33.47 17.01,60.61 0,1.21 0,2.78 0,4.71 0,1.92 -0.1,3.7 -0.3,5.32l-108.15 0c1.22,16.4 5.97,28.86 14.28,37.37 8.3,8.51 21.27,12.76 38.89,12.76 9.92,0 18.28,-0.86 25.06,-2.58 6.78,-1.72 11.9,-3.39 15.34,-5.01l3.95 23.7c-3.44,1.82 -9.47,3.75 -18.08,5.77 -8.61,2.03 -18.38,3.04 -29.32,3.04 -13.77,0 -25.67,-2.08 -35.69,-6.23 -10.02,-4.15 -18.28,-9.87 -24.76,-17.16 -6.48,-7.29 -11.29,-15.95 -14.43,-25.97 -3.14,-10.02 -4.71,-21.01 -4.71,-32.96zm108.45 -15.49c0.2,-12.76 -2.99,-23.24 -9.57,-31.44 -6.58,-8.2 -15.65,-12.3 -27.19,-12.3 -6.48,0 -12.2,1.27 -17.16,3.8 -4.96,2.53 -9.16,5.82 -12.61,9.87 -3.44,4.05 -6.13,8.71 -8.05,13.97 -1.92,5.27 -3.19,10.63 -3.8,16.1l78.38 0zm117.13 -67.14c2.43,0 5.21,0.15 8.35,0.46 3.14,0.3 6.23,0.71 9.27,1.21 3.04,0.51 5.82,1.01 8.35,1.52 2.53,0.51 4.41,0.96 5.62,1.37l-4.86 24.61c-2.23,-0.81 -5.92,-1.77 -11.09,-2.89 -5.16,-1.11 -11.8,-1.67 -19.9,-1.67 -5.27,0 -10.48,0.56 -15.65,1.67 -5.16,1.11 -8.56,1.87 -10.18,2.28l0 132.75 -28.25 0 0 -151.29c6.68,-2.43 14.99,-4.71 24.91,-6.84 9.92,-2.13 21.06,-3.19 33.42,-3.19zm38.75 82.63c0,-13.97 2.03,-26.18 6.08,-36.61 4.05,-10.43 9.42,-19.09 16.1,-25.97 6.68,-6.89 14.38,-12.05 23.09,-15.49 8.71,-3.44 17.62,-5.17 26.73,-5.17 21.26,0 37.57,6.63 48.91,19.9 11.34,13.27 17.01,33.47 17.01,60.61 0,1.21 0,2.78 0,4.71 0,1.92 -0.1,3.7 -0.3,5.32l-108.15 0c1.22,16.4 5.97,28.86 14.28,37.37 8.3,8.51 21.27,12.76 38.89,12.76 9.92,0 18.28,-0.86 25.06,-2.58 6.78,-1.72 11.9,-3.39 15.34,-5.01l3.95 23.7c-3.44,1.82 -9.47,3.75 -18.08,5.77 -8.61,2.03 -18.38,3.04 -29.32,3.04 -13.77,0 -25.67,-2.08 -35.69,-6.23 -10.02,-4.15 -18.28,-9.87 -24.76,-17.16 -6.48,-7.29 -11.29,-15.95 -14.43,-25.97 -3.14,-10.02 -4.71,-21.01 -4.71,-32.96zm108.45 -15.49c0.2,-12.76 -2.99,-23.24 -9.57,-31.44 -6.58,-8.2 -15.65,-12.3 -27.19,-12.3 -6.48,0 -12.2,1.27 -17.16,3.8 -4.96,2.53 -9.16,5.82 -12.61,9.87 -3.44,4.05 -6.13,8.71 -8.05,13.97 -1.92,5.27 -3.19,10.63 -3.8,16.1l78.38 0zm157.23 94.17l-28.25 0 0 -157.97 28.25 0 0 157.97zm-14.28 -186.53c-5.06,0 -9.37,-1.67 -12.91,-5.01 -3.54,-3.34 -5.32,-7.85 -5.32,-13.52 0,-5.67 1.77,-10.18 5.32,-13.52 3.54,-3.34 7.85,-5.01 12.91,-5.01 5.06,0 9.37,1.67 12.91,5.01 3.54,3.34 5.32,7.85 5.32,13.52 0,5.67 -1.77,10.18 -5.32,13.52 -3.54,3.34 -7.85,5.01 -12.91,5.01zm88.27 166.17c11.54,0 20.1,-1.52 25.67,-4.56 5.57,-3.04 8.35,-7.9 8.35,-14.58 0,-6.89 -2.73,-12.35 -8.2,-16.4 -5.47,-4.05 -14.48,-8.61 -27.04,-13.67 -6.08,-2.43 -11.9,-4.91 -17.47,-7.44 -5.57,-2.53 -10.38,-5.52 -14.43,-8.96 -4.05,-3.44 -7.29,-7.6 -9.72,-12.46 -2.43,-4.86 -3.65,-10.84 -3.65,-17.92 0,-13.97 5.16,-25.06 15.49,-33.26 10.33,-8.2 24.4,-12.3 42.23,-12.3 4.46,0 8.91,0.25 13.37,0.76 4.45,0.51 8.61,1.11 12.45,1.82 3.85,0.71 7.24,1.47 10.18,2.28 2.94,0.81 5.22,1.52 6.84,2.13l-5.17 24.3c-3.04,-1.62 -7.8,-3.29 -14.28,-5.01 -6.48,-1.72 -14.28,-2.58 -23.39,-2.58 -7.9,0 -14.78,1.57 -20.66,4.71 -5.87,3.14 -8.81,8.05 -8.81,14.73 0,3.44 0.66,6.48 1.98,9.11 1.32,2.63 3.34,5.01 6.08,7.14 2.73,2.13 6.13,4.1 10.18,5.92 4.05,1.82 8.91,3.75 14.58,5.77 7.49,2.84 14.18,5.62 20.05,8.35 5.87,2.73 10.89,5.92 15.04,9.57 4.15,3.65 7.34,8.05 9.57,13.22 2.23,5.16 3.34,11.49 3.34,18.99 0,14.58 -5.42,25.62 -16.25,33.11 -10.83,7.49 -26.28,11.24 -46.33,11.24 -13.97,0 -24.91,-1.17 -32.81,-3.49 -7.9,-2.33 -13.27,-4.1 -16.1,-5.32l5.16 -24.3c3.24,1.22 8.41,3.04 15.49,5.47 7.09,2.43 16.51,3.65 28.25,3.65zm-555.77 207.49c6.48,-1.62 15.09,-3.34 25.82,-5.16 10.73,-1.82 23.09,-2.73 37.06,-2.73 12.56,0 22.99,1.77 31.29,5.32 8.3,3.54 14.94,8.51 19.9,14.89 4.96,6.38 8.45,14.02 10.48,22.94 2.02,8.91 3.04,18.73 3.04,29.47l0 88.71 -28.25 0 0 -82.63c0,-9.72 -0.66,-18.03 -1.97,-24.91 -1.32,-6.89 -3.49,-12.45 -6.53,-16.71 -3.04,-4.25 -7.09,-7.34 -12.15,-9.26 -5.06,-1.92 -11.34,-2.89 -18.84,-2.89 -3.04,0 -6.18,0.1 -9.42,0.3 -3.24,0.2 -6.33,0.46 -9.27,0.76 -2.94,0.3 -5.57,0.66 -7.9,1.06 -2.33,0.41 -4,0.71 -5.01,0.91l0 133.36 -28.25 0 0 -153.41zm302.44 74.43c0,12.56 -1.82,23.9 -5.47,34.02 -3.65,10.13 -8.76,18.83 -15.34,26.13 -6.58,7.29 -14.43,12.91 -23.54,16.86 -9.11,3.95 -19.04,5.92 -29.77,5.92 -10.73,0 -20.66,-1.98 -29.77,-5.92 -9.11,-3.95 -16.96,-9.57 -23.54,-16.86 -6.58,-7.29 -11.7,-16 -15.34,-26.13 -3.65,-10.13 -5.47,-21.47 -5.47,-34.02 0,-12.35 1.82,-23.64 5.47,-33.87 3.65,-10.23 8.76,-18.99 15.34,-26.28 6.58,-7.29 14.43,-12.91 23.54,-16.86 9.11,-3.95 19.04,-5.92 29.77,-5.92 10.73,0 20.66,1.98 29.77,5.92 9.11,3.95 16.96,9.57 23.54,16.86 6.58,7.29 11.7,16.05 15.34,26.28 3.65,10.23 5.47,21.52 5.47,33.87zm-29.47 0c0,-17.82 -4,-31.95 -12,-42.38 -8,-10.43 -18.88,-15.65 -32.66,-15.65 -13.77,0 -24.66,5.22 -32.66,15.65 -8,10.43 -12,24.56 -12,42.38 0,17.82 4,31.95 12,42.38 8,10.43 18.89,15.65 32.66,15.65 13.77,0 24.66,-5.22 32.66,-15.65 8,-10.43 12,-24.56 12,-42.38zm-411 268.55c3.44,-2.23 8.66,-4.56 15.64,-6.99 6.99,-2.43 15.04,-3.65 24.15,-3.65 11.34,0 21.42,2.03 30.23,6.08 8.81,4.05 16.25,9.72 22.33,17.01 6.08,7.29 10.68,16 13.82,26.12 3.14,10.13 4.71,21.27 4.71,33.42 0,12.76 -1.87,24.25 -5.62,34.48 -3.75,10.23 -9.06,18.89 -15.95,25.97 -6.89,7.09 -15.19,12.56 -24.91,16.4 -9.72,3.85 -20.66,5.77 -32.81,5.77 -13.16,0 -24.81,-0.91 -34.94,-2.73 -10.13,-1.82 -18.43,-3.65 -24.91,-5.47l0 -226.32 28.25 -4.86 0 84.76zm0 126.37c2.84,0.81 6.84,1.57 12,2.28 5.17,0.71 11.6,1.06 19.29,1.06 15.19,0 27.34,-5.01 36.45,-15.04 9.11,-10.02 13.67,-24.25 13.67,-42.68 0,-8.1 -0.81,-15.7 -2.43,-22.78 -1.62,-7.09 -4.25,-13.21 -7.9,-18.38 -3.65,-5.16 -8.35,-9.21 -14.13,-12.15 -5.77,-2.94 -12.71,-4.41 -20.81,-4.41 -7.7,0 -14.78,1.32 -21.26,3.95 -6.48,2.63 -11.44,5.37 -14.89,8.2l0 99.95zm186.7 27.64c-17.42,-0.41 -29.77,-4.15 -37.06,-11.24 -7.29,-7.09 -10.94,-18.13 -10.94,-33.11l0 -189.56 28.25 -4.86 0 189.87c0,4.66 0.41,8.51 1.22,11.54 0.81,3.04 2.13,5.47 3.95,7.29 1.82,1.82 4.25,3.19 7.29,4.1 3.04,0.91 6.78,1.67 11.24,2.28l-3.95 23.7zm77.64 -23.39c6.68,0 12.61,-0.15 17.77,-0.46 5.17,-0.3 9.47,-0.86 12.91,-1.67l0 -47.09c-2.03,-1.01 -5.32,-1.87 -9.87,-2.58 -4.56,-0.71 -10.08,-1.06 -16.56,-1.06 -4.25,0 -8.76,0.3 -13.52,0.91 -4.76,0.61 -9.11,1.87 -13.06,3.8 -3.95,1.92 -7.24,4.56 -9.87,7.9 -2.63,3.34 -3.95,7.75 -3.95,13.21 0,10.13 3.24,17.16 9.72,21.11 6.48,3.95 15.29,5.92 26.43,5.92zm-2.43 -141.56c11.34,0 20.91,1.47 28.71,4.41 7.8,2.94 14.08,7.09 18.84,12.46 4.76,5.37 8.15,11.75 10.18,19.14 2.02,7.39 3.04,15.54 3.04,24.45l0 98.73c-2.43,0.41 -5.82,0.96 -10.18,1.67 -4.35,0.71 -9.26,1.37 -14.73,1.97 -5.47,0.61 -11.39,1.17 -17.77,1.67 -6.38,0.51 -12.71,0.76 -18.99,0.76 -8.91,0 -17.11,-0.91 -24.61,-2.73 -7.49,-1.82 -13.97,-4.71 -19.44,-8.66 -5.47,-3.95 -9.72,-9.16 -12.76,-15.64 -3.04,-6.48 -4.56,-14.28 -4.56,-23.39 0,-8.71 1.77,-16.2 5.32,-22.48 3.54,-6.28 8.35,-11.34 14.43,-15.19 6.08,-3.85 13.16,-6.68 21.27,-8.51 8.1,-1.82 16.61,-2.73 25.52,-2.73 2.84,0 5.77,0.15 8.81,0.46 3.04,0.3 5.92,0.71 8.66,1.21 2.73,0.51 5.11,0.96 7.14,1.37 2.03,0.41 3.44,0.71 4.25,0.91l0 -7.9c0,-4.66 -0.51,-9.27 -1.52,-13.82 -1.01,-4.56 -2.84,-8.61 -5.47,-12.15 -2.63,-3.54 -6.23,-6.38 -10.78,-8.51 -4.56,-2.13 -10.48,-3.19 -17.77,-3.19 -9.32,0 -17.47,0.66 -24.45,1.97 -6.99,1.32 -12.2,2.68 -15.65,4.1l-3.34 -23.39c3.65,-1.62 9.72,-3.19 18.23,-4.71 8.51,-1.52 17.72,-2.28 27.64,-2.28z"/>
   <path class="fil0" d="M2178.62 3567.7c-12.76,0 -23.95,-2.02 -33.57,-6.08 -9.62,-4.05 -17.72,-9.72 -24.3,-17.01 -6.58,-7.29 -11.49,-15.95 -14.73,-25.97 -3.24,-10.02 -4.86,-21.11 -4.86,-33.26 0,-12.15 1.77,-23.29 5.32,-33.42 3.54,-10.13 8.56,-18.88 15.04,-26.28 6.48,-7.39 14.43,-13.16 23.85,-17.32 9.42,-4.15 19.9,-6.23 31.44,-6.23 7.09,0 14.18,0.61 21.27,1.82 7.09,1.22 13.87,3.14 20.35,5.77l-6.38 24c-4.25,-2.02 -9.16,-3.65 -14.73,-4.86 -5.57,-1.21 -11.49,-1.82 -17.77,-1.82 -15.8,0 -27.9,4.96 -36.3,14.89 -8.41,9.92 -12.61,24.4 -12.61,43.44 0,8.51 0.96,16.3 2.89,23.39 1.92,7.09 4.96,13.16 9.11,18.23 4.15,5.06 9.47,8.96 15.95,11.7 6.48,2.73 14.38,4.1 23.7,4.1 7.49,0 14.28,-0.71 20.35,-2.13 6.08,-1.42 10.83,-2.94 14.28,-4.56l3.95 23.7c-1.62,1.01 -3.95,1.97 -6.99,2.89 -3.04,0.91 -6.48,1.72 -10.33,2.43 -3.85,0.71 -7.95,1.32 -12.3,1.82 -4.35,0.51 -8.56,0.76 -12.61,0.76zm118.34 -90.53c6.08,4.66 12.51,10.43 19.29,17.32 6.78,6.89 13.47,14.33 20.05,22.33 6.58,8 12.81,16.1 18.68,24.3 5.87,8.2 10.84,15.85 14.89,22.94l-33.11 0c-4.25,-7.09 -9.16,-14.33 -14.73,-21.72 -5.57,-7.39 -11.39,-14.48 -17.47,-21.27 -6.08,-6.78 -12.25,-13.01 -18.53,-18.68 -6.28,-5.67 -12.25,-10.43 -17.92,-14.28l0 75.95 -28.25 0 0 -230.88 28.25 -4.86 0 143.99c4.86,-4.86 10.23,-10.23 16.1,-16.1 5.87,-5.87 11.65,-11.85 17.32,-17.92 5.67,-6.08 11.04,-11.9 16.1,-17.47 5.06,-5.57 9.42,-10.48 13.06,-14.73l33.11 0c-4.66,5.06 -9.72,10.63 -15.19,16.71 -5.47,6.08 -11.14,12.2 -17.01,18.38 -5.87,6.18 -11.8,12.35 -17.77,18.53 -5.97,6.18 -11.59,12 -16.86,17.47zm-463.59 431.07c-12.76,0 -23.95,-2.02 -33.57,-6.08 -9.62,-4.05 -17.72,-9.72 -24.3,-17.01 -6.58,-7.29 -11.49,-15.95 -14.73,-25.97 -3.24,-10.02 -4.86,-21.11 -4.86,-33.26 0,-12.15 1.77,-23.29 5.32,-33.42 3.54,-10.13 8.56,-18.88 15.04,-26.28 6.48,-7.39 14.43,-13.16 23.85,-17.32 9.42,-4.15 19.9,-6.23 31.44,-6.23 7.09,0 14.18,0.61 21.27,1.82 7.09,1.22 13.87,3.14 20.35,5.77l-6.38 24c-4.25,-2.02 -9.16,-3.65 -14.73,-4.86 -5.57,-1.21 -11.49,-1.82 -17.77,-1.82 -15.8,0 -27.9,4.96 -36.3,14.89 -8.41,9.92 -12.61,24.4 -12.61,43.44 0,8.51 0.96,16.3 2.89,23.39 1.92,7.09 4.96,13.16 9.11,18.23 4.15,5.06 9.47,8.96 15.95,11.7 6.48,2.73 14.38,4.1 23.7,4.1 7.49,0 14.28,-0.71 20.35,-2.13 6.08,-1.42 10.83,-2.94 14.28,-4.56l3.95 23.7c-1.62,1.01 -3.95,1.97 -6.99,2.89 -3.04,0.91 -6.48,1.72 -10.33,2.43 -3.85,0.71 -7.95,1.32 -12.3,1.82 -4.35,0.51 -8.56,0.76 -12.61,0.76zm114.7 -24c6.68,0 12.61,-0.15 17.77,-0.46 5.17,-0.3 9.47,-0.86 12.91,-1.67l0 -47.09c-2.03,-1.01 -5.32,-1.87 -9.87,-2.58 -4.56,-0.71 -10.08,-1.06 -16.56,-1.06 -4.25,0 -8.76,0.3 -13.52,0.91 -4.76,0.61 -9.11,1.87 -13.06,3.8 -3.95,1.92 -7.24,4.56 -9.87,7.9 -2.63,3.34 -3.95,7.75 -3.95,13.21 0,10.13 3.24,17.16 9.72,21.11 6.48,3.95 15.29,5.92 26.43,5.92zm-2.43 -141.56c11.34,0 20.91,1.47 28.71,4.41 7.8,2.94 14.08,7.09 18.84,12.46 4.76,5.37 8.15,11.75 10.18,19.14 2.02,7.39 3.04,15.54 3.04,24.45l0 98.73c-2.43,0.41 -5.82,0.96 -10.18,1.67 -4.35,0.71 -9.26,1.37 -14.73,1.97 -5.47,0.61 -11.39,1.17 -17.77,1.67 -6.38,0.51 -12.71,0.76 -18.99,0.76 -8.91,0 -17.11,-0.91 -24.61,-2.73 -7.49,-1.82 -13.97,-4.71 -19.44,-8.66 -5.47,-3.95 -9.72,-9.16 -12.76,-15.64 -3.04,-6.48 -4.56,-14.28 -4.56,-23.39 0,-8.71 1.77,-16.2 5.32,-22.48 3.54,-6.28 8.35,-11.34 14.43,-15.19 6.08,-3.85 13.16,-6.68 21.27,-8.51 8.1,-1.82 16.61,-2.73 25.52,-2.73 2.84,0 5.77,0.15 8.81,0.46 3.04,0.3 5.92,0.71 8.66,1.21 2.73,0.51 5.11,0.96 7.14,1.37 2.03,0.41 3.44,0.71 4.25,0.91l0 -7.9c0,-4.66 -0.51,-9.27 -1.52,-13.82 -1.01,-4.56 -2.84,-8.61 -5.47,-12.15 -2.63,-3.54 -6.23,-6.38 -10.78,-8.51 -4.56,-2.13 -10.48,-3.19 -17.77,-3.19 -9.32,0 -17.47,0.66 -24.45,1.97 -6.99,1.32 -12.2,2.68 -15.65,4.1l-3.34 -23.39c3.65,-1.62 9.72,-3.19 18.23,-4.71 8.51,-1.52 17.72,-2.28 27.64,-2.28zm122.6 3.95l59.85 0 0 23.7 -59.85 0 0 72.91c0,7.9 0.61,14.43 1.82,19.59 1.21,5.16 3.04,9.21 5.47,12.15 2.43,2.94 5.47,5.01 9.11,6.23 3.65,1.22 7.9,1.82 12.76,1.82 8.51,0 15.34,-0.96 20.51,-2.89 5.16,-1.92 8.76,-3.29 10.78,-4.1l5.47 23.39c-2.84,1.42 -7.8,3.19 -14.89,5.32 -7.09,2.13 -15.19,3.19 -24.3,3.19 -10.73,0 -19.6,-1.37 -26.58,-4.1 -6.99,-2.73 -12.61,-6.84 -16.86,-12.3 -4.25,-5.47 -7.24,-12.2 -8.96,-20.2 -1.72,-8 -2.58,-17.27 -2.58,-27.8l0 -140.96 28.25 -4.86 0 48.91zm121.08 141.56c0,5.47 -1.82,10.23 -5.47,14.28 -3.65,4.05 -8.61,6.08 -14.89,6.08 -6.28,0 -11.24,-2.03 -14.88,-6.08 -3.65,-4.05 -5.47,-8.81 -5.47,-14.28 0,-5.47 1.82,-10.23 5.47,-14.28 3.65,-4.05 8.61,-6.08 14.88,-6.08 6.28,0 11.24,2.03 14.89,6.08 3.65,4.05 5.47,8.81 5.47,14.28zm63.36 0c0,5.47 -1.82,10.23 -5.47,14.28 -3.65,4.05 -8.61,6.08 -14.89,6.08 -6.28,0 -11.24,-2.03 -14.88,-6.08 -3.65,-4.05 -5.47,-8.81 -5.47,-14.28 0,-5.47 1.82,-10.23 5.47,-14.28 3.65,-4.05 8.61,-6.08 14.88,-6.08 6.28,0 11.24,2.03 14.89,6.08 3.65,4.05 5.47,8.81 5.47,14.28zm63.36 0c0,5.47 -1.82,10.23 -5.47,14.28 -3.65,4.05 -8.61,6.08 -14.89,6.08 -6.28,0 -11.24,-2.03 -14.88,-6.08 -3.65,-4.05 -5.47,-8.81 -5.47,-14.28 0,-5.47 1.82,-10.23 5.47,-14.28 3.65,-4.05 8.61,-6.08 14.88,-6.08 6.28,0 11.24,2.03 14.89,6.08 3.65,4.05 5.47,8.81 5.47,14.28zm-190.96 -2107.97c0,-29.16 -10.73,-43.74 -32.2,-43.74 -4.66,0 -9.26,0.61 -13.82,1.82 -4.56,1.22 -8.25,2.73 -11.09,4.56l0 82.33c2.23,0.41 5.06,0.76 8.51,1.06 3.44,0.3 7.19,0.46 11.24,0.46 12.35,0 21.67,-4.25 27.95,-12.76 6.28,-8.51 9.42,-19.75 9.42,-33.72zm46.18 1.22c0,12.76 -1.87,24.3 -5.62,34.63 -3.75,10.33 -9.17,19.14 -16.25,26.43 -7.09,7.29 -15.8,12.91 -26.13,16.86 -10.33,3.95 -22.07,5.92 -35.24,5.92 -5.47,0 -11.19,-0.25 -17.16,-0.76 -5.97,-0.51 -11.85,-1.17 -17.62,-1.97 -5.77,-0.81 -11.29,-1.77 -16.56,-2.89 -5.27,-1.11 -9.92,-2.28 -13.97,-3.49l0 -223.28 45.26 -7.29 0 79.59c5.06,-2.23 10.33,-3.95 15.8,-5.16 5.47,-1.22 11.34,-1.82 17.62,-1.82 11.34,0 21.37,1.97 30.07,5.92 8.71,3.95 16,9.57 21.87,16.86 5.87,7.29 10.33,16.05 13.37,26.28 3.04,10.23 4.56,21.62 4.56,34.18zm86.92 82.93c-13.16,-0.2 -23.85,-1.62 -32.05,-4.25 -8.2,-2.63 -14.68,-6.33 -19.44,-11.09 -4.76,-4.76 -8,-10.53 -9.72,-17.32 -1.72,-6.78 -2.58,-14.43 -2.58,-22.94l0 -175.89 45.26 -7.29 0 174.07c0,4.05 0.3,7.7 0.91,10.94 0.61,3.24 1.77,5.97 3.49,8.2 1.72,2.23 4.2,4.05 7.44,5.47 3.24,1.42 7.59,2.33 13.06,2.73l-6.38 37.37zm86 -34.63c4.46,0 8.71,-0.1 12.76,-0.3 4.05,-0.2 7.29,-0.51 9.72,-0.91l0 -34.33c-1.82,-0.41 -4.56,-0.81 -8.2,-1.22 -3.65,-0.4 -6.99,-0.61 -10.02,-0.61 -4.25,0 -8.25,0.25 -12,0.76 -3.75,0.51 -7.04,1.47 -9.87,2.89 -2.84,1.42 -5.06,3.34 -6.68,5.77 -1.62,2.43 -2.43,5.47 -2.43,9.11 0,7.09 2.38,12 7.14,14.73 4.76,2.73 11.29,4.1 19.59,4.1zm-3.65 -132.45c13.37,0 24.51,1.52 33.42,4.56 8.91,3.04 16.05,7.39 21.42,13.06 5.37,5.67 9.16,12.56 11.39,20.66 2.23,8.1 3.34,17.11 3.34,27.04l0 94.17c-6.48,1.42 -15.49,3.09 -27.04,5.01 -11.54,1.92 -25.52,2.89 -41.92,2.89 -10.33,0 -19.7,-0.91 -28.1,-2.73 -8.41,-1.82 -15.65,-4.81 -21.72,-8.96 -6.08,-4.15 -10.73,-9.57 -13.97,-16.25 -3.24,-6.68 -4.86,-14.89 -4.86,-24.61 0,-9.32 1.87,-17.21 5.62,-23.7 3.75,-6.48 8.76,-11.64 15.04,-15.49 6.28,-3.85 13.47,-6.63 21.57,-8.35 8.1,-1.72 16.51,-2.58 25.21,-2.58 5.87,0 11.09,0.25 15.64,0.76 4.56,0.51 8.25,1.16 11.09,1.97l0 -4.25c0,-7.7 -2.33,-13.87 -6.99,-18.53 -4.66,-4.66 -12.76,-6.99 -24.3,-6.99 -7.7,0 -15.29,0.56 -22.78,1.67 -7.49,1.11 -13.97,2.68 -19.44,4.71l-5.77 -36.46c2.63,-0.81 5.92,-1.67 9.87,-2.58 3.95,-0.91 8.25,-1.72 12.91,-2.43 4.66,-0.71 9.57,-1.32 14.73,-1.82 5.16,-0.51 10.38,-0.76 15.64,-0.76zm91.17 84.15c0,-11.54 1.87,-22.43 5.62,-32.66 3.75,-10.23 9.17,-19.14 16.25,-26.73 7.09,-7.59 15.7,-13.62 25.82,-18.08 10.13,-4.45 21.67,-6.68 34.63,-6.68 8.51,0 16.3,0.76 23.39,2.28 7.09,1.52 13.97,3.7 20.66,6.53l-9.42 36.15c-4.25,-1.62 -8.91,-3.04 -13.97,-4.25 -5.06,-1.21 -10.73,-1.82 -17.01,-1.82 -13.37,0 -23.34,4.15 -29.92,12.46 -6.58,8.3 -9.87,19.24 -9.87,32.81 0,14.38 3.09,25.52 9.26,33.42 6.18,7.9 16.96,11.85 32.35,11.85 5.47,0 11.34,-0.51 17.62,-1.52 6.28,-1.01 12.05,-2.63 17.32,-4.86l6.38 37.06c-5.26,2.23 -11.85,4.15 -19.75,5.77 -7.9,1.62 -16.61,2.43 -26.13,2.43 -14.58,0 -27.14,-2.18 -37.67,-6.53 -10.53,-4.35 -19.19,-10.28 -25.97,-17.77 -6.78,-7.49 -11.75,-16.35 -14.89,-26.58 -3.14,-10.23 -4.71,-21.32 -4.71,-33.26zm192.94 -22.53c4.45,-4.81 9.06,-9.87 13.82,-15.09 4.76,-5.21 9.37,-10.43 13.77,-15.54 4.46,-5.16 8.66,-10.02 12.61,-14.63 3.95,-4.66 7.34,-8.66 10.18,-12.1l53.82 0c-10.73,12.3 -21.21,24.1 -31.44,35.29 -10.23,11.24 -21.42,22.78 -33.57,34.73 6.08,5.47 12.35,12 18.83,19.65 6.48,7.59 12.76,15.44 18.84,23.54 6.08,8.15 11.64,16.25 16.71,24.35 5.06,8.1 9.32,15.54 12.76,22.23l-52.05 0c-3.24,-5.27 -6.94,-11.14 -11.09,-17.52 -4.1,-6.38 -8.51,-12.76 -13.16,-19.19 -4.66,-6.38 -9.57,-12.51 -14.73,-18.43 -5.11,-5.87 -10.23,-10.84 -15.29,-14.89l0 70.02 -45.26 0 0 -228.45 45.26 -7.29 0 133.31zm184.13 22.53c0,-11.54 1.87,-22.43 5.62,-32.66 3.75,-10.23 9.17,-19.14 16.25,-26.73 7.09,-7.59 15.7,-13.62 25.82,-18.08 10.13,-4.45 21.67,-6.68 34.63,-6.68 8.51,0 16.3,0.76 23.39,2.28 7.09,1.52 13.97,3.7 20.66,6.53l-9.42 36.15c-4.25,-1.62 -8.91,-3.04 -13.97,-4.25 -5.06,-1.21 -10.73,-1.82 -17.01,-1.82 -13.37,0 -23.34,4.15 -29.92,12.46 -6.58,8.3 -9.87,19.24 -9.87,32.81 0,14.38 3.09,25.52 9.26,33.42 6.18,7.9 16.96,11.85 32.35,11.85 5.47,0 11.34,-0.51 17.62,-1.52 6.28,-1.01 12.05,-2.63 17.32,-4.86l6.38 37.06c-5.26,2.23 -11.85,4.15 -19.75,5.77 -7.9,1.62 -16.61,2.43 -26.13,2.43 -14.58,0 -27.14,-2.18 -37.67,-6.53 -10.53,-4.35 -19.19,-10.28 -25.97,-17.77 -6.78,-7.49 -11.75,-16.35 -14.89,-26.58 -3.14,-10.23 -4.71,-21.32 -4.71,-33.26zm201.14 48.3c4.46,0 8.71,-0.1 12.76,-0.3 4.05,-0.2 7.29,-0.51 9.72,-0.91l0 -34.33c-1.82,-0.41 -4.56,-0.81 -8.2,-1.22 -3.65,-0.4 -6.99,-0.61 -10.02,-0.61 -4.25,0 -8.25,0.25 -12,0.76 -3.75,0.51 -7.04,1.47 -9.87,2.89 -2.84,1.42 -5.06,3.34 -6.68,5.77 -1.62,2.43 -2.43,5.47 -2.43,9.11 0,7.09 2.38,12 7.14,14.73 4.76,2.73 11.29,4.1 19.59,4.1zm-3.65 -132.45c13.37,0 24.51,1.52 33.42,4.56 8.91,3.04 16.05,7.39 21.42,13.06 5.37,5.67 9.16,12.56 11.39,20.66 2.23,8.1 3.34,17.11 3.34,27.04l0 94.17c-6.48,1.42 -15.49,3.09 -27.04,5.01 -11.54,1.92 -25.52,2.89 -41.92,2.89 -10.33,0 -19.7,-0.91 -28.1,-2.73 -8.41,-1.82 -15.65,-4.81 -21.72,-8.96 -6.08,-4.15 -10.73,-9.57 -13.97,-16.25 -3.24,-6.68 -4.86,-14.89 -4.86,-24.61 0,-9.32 1.87,-17.21 5.62,-23.7 3.75,-6.48 8.76,-11.64 15.04,-15.49 6.28,-3.85 13.47,-6.63 21.57,-8.35 8.1,-1.72 16.51,-2.58 25.21,-2.58 5.87,0 11.09,0.25 15.64,0.76 4.56,0.51 8.25,1.16 11.09,1.97l0 -4.25c0,-7.7 -2.33,-13.87 -6.99,-18.53 -4.66,-4.66 -12.76,-6.99 -24.3,-6.99 -7.7,0 -15.29,0.56 -22.78,1.67 -7.49,1.11 -13.97,2.68 -19.44,4.71l-5.77 -36.46c2.63,-0.81 5.92,-1.67 9.87,-2.58 3.95,-0.91 8.25,-1.72 12.91,-2.43 4.66,-0.71 9.57,-1.32 14.73,-1.82 5.16,-0.51 10.38,-0.76 15.64,-0.76zm97.24 -35.54l45.26 -7.29 0 47.09 54.38 0 0 37.67 -54.38 0 0 56.2c0,9.52 1.67,17.11 5.01,22.78 3.34,5.67 10.08,8.51 20.2,8.51 4.86,0 9.87,-0.46 15.04,-1.37 5.16,-0.91 9.87,-2.18 14.13,-3.8l6.38 35.24c-5.47,2.23 -11.54,4.15 -18.23,5.77 -6.68,1.62 -14.89,2.43 -24.61,2.43 -12.35,0 -22.58,-1.67 -30.68,-5.01 -8.1,-3.34 -14.58,-8 -19.44,-13.97 -4.86,-5.97 -8.25,-13.21 -10.18,-21.72 -1.92,-8.51 -2.89,-17.92 -2.89,-28.25l0 -134.27z"/>
  </g>
 </g>
</svg>
