<?xml version="1.0" encoding="UTF-8"?>
<!DOCTYPE svg PUBLIC "-//W3C//DTD SVG 1.1//EN" "http://www.w3.org/Graphics/SVG/1.1/DTD/svg11.dtd">
<!-- Creator: CorelDRAW 2021.5 -->
<svg xmlns="http://www.w3.org/2000/svg" xml:space="preserve" width="29.8577mm" height="29.8577mm" version="1.1" style="shape-rendering:geometricPrecision; text-rendering:geometricPrecision; image-rendering:optimizeQuality; fill-rule:evenodd; clip-rule:evenodd"
viewBox="0 0 11.8 11.8"
 xmlns:xlink="http://www.w3.org/1999/xlink"
 xmlns:xodm="http://www.corel.com/coreldraw/odm/2003">
 <defs>
  <style type="text/css">
   <![CDATA[
    .fil0 {fill:#FEFEFE}
   ]]>
  </style>
 </defs>
 <g id="Plan_x0020_1">
  <metadata id="CorelCorpID_0Corel-Layer"/>
  <path class="fil0" d="M5.9 0c3.26,0 5.9,2.64 5.9,5.9 0,3.26 -2.64,5.9 -5.9,5.9 -3.26,0 -5.9,-2.64 -5.9,-5.9 0,-3.26 2.64,-5.9 5.9,-5.9zm1.68 3.77c-0.57,-0.02 -1.14,0.1 -1.68,0.42 -0.53,-0.31 -1.11,-0.44 -1.68,-0.42 -1.19,0.05 -2.16,1.3 -1.42,2.87 0.26,0.55 0.68,1.01 1.14,1.4l0.02 0.02 0 0c0.52,0.43 1.13,0.79 1.76,1.03 0.03,0.01 0.17,0.06 0.17,0.06 0.7,-0.25 1.36,-0.62 1.93,-1.09l0.03 -0.02c0.46,-0.39 0.88,-0.85 1.14,-1.4 0.75,-1.57 -0.23,-2.82 -1.42,-2.87z"/>
 </g>
</svg>
