<?xml version="1.0" encoding="UTF-8"?>
<!DOCTYPE svg PUBLIC "-//W3C//DTD SVG 1.1//EN" "http://www.w3.org/Graphics/SVG/1.1/DTD/svg11.dtd">
<!-- Creator: CorelDRAW 2021.5 -->
<svg xmlns="http://www.w3.org/2000/svg" xml:space="preserve" width="1045.68mm" height="554.949mm" version="1.1" style="shape-rendering:geometricPrecision; text-rendering:geometricPrecision; image-rendering:optimizeQuality; fill-rule:evenodd; clip-rule:evenodd"
viewBox="0 0 120320.88 63855.24"
 xmlns:xlink="http://www.w3.org/1999/xlink"
 xmlns:xodm="http://www.corel.com/coreldraw/odm/2003">
 <defs>
  <style type="text/css">
   <![CDATA[
    .fil0 {fill:url(#id0)}
   ]]>
  </style>
  <linearGradient id="id0" gradientUnits="userSpaceOnUse" x1="60160.46" y1="63855.24" x2="60160.46" y2="0">
   <stop offset="0" style="stop-opacity:1; stop-color:#FF5F6D"/>
   <stop offset="1" style="stop-opacity:1; stop-color:#FF626D"/>
  </linearGradient>
 </defs>
 <g id="Plan_x0020_1">
  <metadata id="CorelCorpID_0Corel-Layer"/>
  <path class="fil0" d="M3022.48 49697.13c-175.98,-7.43 -356.09,32.61 -521.61,129.24 -165.51,-96.63 -345.62,-136.67 -521.57,-129.24 -369.69,15.53 -673.38,403.74 -440.92,891.81 80.97,169.87 211.22,314.61 354.81,435.19l7.44 6.24 0.29 0.24c163.2,133.8 350.65,244.87 547.92,321.11 7.94,3.04 52.02,19.6 52.02,19.11 217.65,-76.97 421.79,-193.9 599.98,-340.26l8.03 -6.66c143.6,-120.66 273.57,-265.13 354.49,-434.97 232.5,-488.07 -71.19,-876.28 -440.89,-891.81zm95097.21 -20565.93c-78.58,-3.3 -159.02,14.6 -232.96,57.74 -73.92,-43.14 -154.36,-61.04 -232.94,-57.74 -165.13,6.95 -300.79,180.35 -196.92,398.36 36.11,75.86 94.32,140.49 158.47,194.34l3.29 2.81 0.13 0.09c72.93,59.75 156.64,109.37 244.73,143.41 3.54,1.37 23.24,8.76 23.24,8.56 97.23,-34.38 188.41,-86.61 267.99,-151.97l3.56 -3c64.15,-53.87 122.19,-118.38 158.34,-194.24 103.85,-218 -31.78,-391.41 -196.92,-398.36zm-25711.87 14000.2c-78.59,-3.31 -159.03,14.59 -232.98,57.74 -73.92,-43.15 -154.36,-61.05 -232.94,-57.74 -165.13,6.96 -300.78,180.35 -196.92,398.34 36.12,75.87 94.32,140.53 158.47,194.34l3.29 2.8 0.16 0.09c72.89,59.76 156.6,109.38 244.71,143.42 3.54,1.39 23.28,8.79 23.28,8.55 97.18,-34.37 188.35,-86.59 267.94,-151.97l3.57 -2.99c64.15,-53.86 122.19,-118.37 158.34,-194.24 103.83,-217.99 -31.78,-391.38 -196.91,-398.34zm-49514 17594.8c-78.55,-3.31 -159.03,14.56 -232.95,57.74 -73.91,-43.18 -154.37,-61.05 -232.95,-57.74 -165.16,6.94 -300.77,180.35 -196.91,398.34 36.12,75.85 94.32,140.49 158.46,194.36l3.3 2.78 0.12 0.12c72.94,59.74 156.63,109.38 244.74,143.39 3.56,1.37 23.24,8.77 23.24,8.56 97.23,-34.37 188.4,-86.62 267.99,-152l3.56 -2.97c64.16,-53.85 122.19,-118.39 158.35,-194.24 103.82,-217.99 -31.8,-391.41 -196.95,-398.34zm-16115.36 -34122.78c-78.58,-3.33 -159.03,14.58 -232.94,57.71 -73.95,-43.13 -154.38,-61.03 -232.98,-57.71 -165.12,6.94 -300.75,180.33 -196.92,398.32 36.15,75.89 94.32,140.54 158.47,194.39l3.34 2.76 0.12 0.09c72.93,59.76 156.62,109.38 244.74,143.43 3.51,1.38 23.24,8.78 23.24,8.58 97.18,-34.39 188.36,-86.63 267.96,-152.01l3.59 -3c64.11,-53.85 122.18,-118.36 158.34,-194.24 103.82,-217.99 -31.83,-391.38 -196.96,-398.32zm58320.95 21856.42c-78.59,-3.3 -159.03,14.57 -232.96,57.75 -73.94,-43.18 -154.38,-61.05 -232.95,-57.75 -165.13,6.95 -300.76,180.33 -196.91,398.32 36.13,75.86 94.3,140.53 158.44,194.38l3.35 2.76 0.1 0.14c72.91,59.74 156.64,109.36 244.73,143.41 3.52,1.35 23.25,8.77 23.25,8.54 97.2,-34.37 188.37,-86.6 267.95,-151.99l3.6 -2.98c64.1,-53.85 122.19,-118.39 158.33,-194.25 103.85,-217.99 -31.82,-391.37 -196.95,-398.32zm-5002.82 -10929.23c-78.57,-3.34 -159.01,14.56 -232.97,57.72 -73.91,-43.16 -154.36,-61.05 -232.95,-57.72 -165.12,6.92 -300.79,180.32 -196.91,398.32 36.12,75.86 94.31,140.53 158.44,194.38l3.31 2.77 0.13 0.08c72.93,59.76 156.62,109.38 244.72,143.42 3.56,1.38 23.25,8.79 23.25,8.57 97.22,-34.36 188.41,-86.6 267.99,-151.99l3.58 -2.98c64.15,-53.87 122.19,-118.39 158.32,-194.25 103.83,-218 -31.79,-391.41 -196.91,-398.32zm43713.52 -35883.07c-78.58,-3.3 -159.02,14.57 -232.96,57.74 -73.92,-43.17 -154.36,-61.04 -232.94,-57.74 -165.14,6.95 -300.79,180.32 -196.92,398.33 36.11,75.86 94.3,140.52 158.43,194.37l3.33 2.8 0.12 0.1c72.93,59.76 156.65,109.38 244.72,143.41 3.57,1.36 23.27,8.76 23.27,8.56 97.23,-34.37 188.4,-86.61 267.96,-152.01l3.58 -2.96c64.15,-53.86 122.19,-118.4 158.33,-194.26 103.86,-218.01 -31.78,-391.38 -196.91,-398.33zm-73226.01 -747.54c-78.58,-3.3 -159.02,14.58 -232.97,57.74 -73.92,-43.16 -154.36,-61.04 -232.94,-57.74 -165.14,6.94 -300.77,180.36 -196.93,398.34 36.16,75.87 94.32,140.53 158.46,194.37l3.35 2.78 0.13 0.1c72.88,59.75 156.6,109.38 244.72,143.41 3.52,1.38 23.24,8.8 23.24,8.55 97.21,-34.38 188.37,-86.59 267.95,-151.95l3.62 -3.01c64.1,-53.85 122.18,-118.37 158.32,-194.24 103.83,-217.98 -31.8,-391.41 -196.95,-398.34zm22146.19 33627.05c-175.98,-7.42 -356.09,32.64 -521.6,129.28 -165.52,-96.63 -345.62,-136.7 -521.57,-129.28 -369.69,15.55 -673.4,403.77 -440.89,891.82 80.91,169.87 211.19,314.63 354.79,435.21l7.44 6.24 0.29 0.24c163.2,133.77 350.64,244.84 547.91,321.08 7.95,3.04 52.03,19.64 52.03,19.15 217.63,-76.99 421.82,-193.91 599.95,-340.26l8.05 -6.71c143.59,-120.63 273.57,-265.09 354.49,-434.95 232.48,-488.05 -71.18,-876.28 -440.89,-891.82zm52504.09 -18342.1c-78.58,-3.3 -159.02,14.6 -232.97,57.73 -73.92,-43.13 -154.36,-61.03 -232.94,-57.73 -165.14,6.92 -300.77,180.31 -196.91,398.32 36.14,75.87 94.33,140.49 158.44,194.36l3.34 2.8 0.13 0.12c72.91,59.73 156.62,109.35 244.72,143.42 3.54,1.31 23.25,8.74 23.25,8.54 97.2,-34.36 188.37,-86.6 267.94,-151.99l3.62 -2.97c64.1,-53.9 122.19,-118.44 158.32,-194.26 103.83,-218.01 -31.8,-391.41 -196.95,-398.32zm-15314.81 28353.21c-78.59,-3.31 -159.01,14.59 -232.95,57.72 -73.93,-43.13 -154.37,-61.03 -232.95,-57.72 -165.14,6.93 -300.77,180.32 -196.96,398.32 36.19,75.87 94.38,140.51 158.5,194.36l3.33 2.81 0.13 0.1c72.89,59.72 156.62,109.33 244.72,143.41 3.56,1.33 23.24,8.77 23.24,8.56 97.21,-34.37 188.38,-86.6 267.95,-151.99l3.58 -2.98c64.15,-53.9 122.2,-118.42 158.36,-194.26 103.81,-218 -31.8,-391.39 -196.96,-398.32zm27523 -30885.88c-78.61,-3.3 -159.02,14.58 -232.98,57.69 -73.91,-43.11 -154.35,-61 -232.94,-57.69 -165.13,6.9 -300.76,180.31 -196.93,398.31 36.18,75.86 94.38,140.49 158.48,194.34l3.34 2.81 0.12 0.12c72.89,59.74 156.63,109.36 244.73,143.43 3.54,1.32 23.25,8.74 23.25,8.53 97.18,-34.36 188.37,-86.6 267.94,-151.98l3.59 -2.99c64.14,-53.87 122.19,-118.41 158.35,-194.25 103.8,-218 -31.83,-391.41 -196.95,-398.31zm-73054.87 13891.15c-78.59,-3.3 -159.03,14.6 -232.95,57.74 -73.92,-43.14 -154.36,-61.04 -232.97,-57.74 -165.12,6.96 -300.75,180.35 -196.91,398.33 36.18,75.9 94.33,140.51 158.44,194.39l3.36 2.77 0.1 0.09c72.91,59.76 156.6,109.38 244.73,143.43 3.54,1.35 23.24,8.78 23.24,8.57 97.2,-34.39 188.41,-86.62 267.96,-152l3.6 -2.99c64.14,-53.87 122.18,-118.4 158.33,-194.26 103.85,-217.98 -31.78,-391.37 -196.95,-398.33zm75699.93 15939.37c-78.54,-3.3 -159.02,14.58 -232.94,57.74 -73.92,-43.16 -154.37,-61.04 -232.95,-57.74 -165.15,6.95 -300.78,180.35 -196.91,398.36 36.13,75.86 94.32,140.53 158.46,194.39l3.31 2.76 0.1 0.09c72.95,59.75 156.64,109.37 244.74,143.41 3.56,1.38 23.24,8.78 23.24,8.57 97.22,-34.37 188.4,-86.6 267.97,-151.98l3.58 -2.99c64.14,-53.87 122.19,-118.39 158.34,-194.25 103.83,-218 -31.79,-391.41 -196.96,-398.36zm-43200.02 15819.12c-78.58,-3.3 -159.03,14.58 -232.94,57.74 -73.93,-43.16 -154.37,-61.04 -232.95,-57.74 -165.16,6.95 -300.79,180.35 -196.96,398.36 36.16,75.86 94.32,140.53 158.5,194.39l3.3 2.76 0.12 0.09c72.94,59.75 156.63,109.38 244.73,143.41 3.56,1.38 23.25,8.78 23.25,8.56 97.22,-34.36 188.4,-86.59 267.99,-151.97l3.56 -3c64.14,-53.86 122.19,-118.38 158.34,-194.24 103.83,-218 -31.79,-391.41 -196.95,-398.36zm-45173.74 -47201.9c-78.6,-3.29 -159.03,14.58 -232.95,57.75 -73.93,-43.17 -154.36,-61.04 -232.94,-57.75 -165.16,6.95 -300.8,180.34 -196.96,398.34 36.14,75.89 94.32,140.52 158.47,194.4l3.31 2.76 0.14 0.09c72.92,59.74 156.6,109.37 244.71,143.42 3.56,1.38 23.27,8.77 23.27,8.56 97.23,-34.37 188.41,-86.6 267.96,-151.98l3.58 -2.98c64.15,-53.9 122.19,-118.39 158.33,-194.28 103.86,-218 -31.77,-391.39 -196.92,-398.34zm24687.85 45829.16c-78.57,-3.33 -159.03,14.53 -232.97,57.74 -73.91,-43.21 -154.35,-61.07 -232.94,-57.74 -165.13,6.94 -300.79,180.31 -196.92,398.3 36.13,75.86 94.31,140.53 158.47,194.39l3.34 2.76 0.1 0.12c72.91,59.76 156.64,109.36 244.71,143.43 3.54,1.35 23.29,8.76 23.29,8.53 97.18,-34.36 188.37,-86.6 267.94,-151.98l3.59 -2.99c64.14,-53.85 122.18,-118.39 158.32,-194.25 103.83,-217.99 -31.79,-391.36 -196.92,-398.3zm20015.44 -21991.4c-175.97,-7.43 -356.06,32.64 -521.61,129.26 -165.51,-96.62 -345.62,-136.7 -521.57,-129.26 -369.69,15.56 -673.4,403.76 -440.92,891.81 80.96,169.88 211.21,314.61 354.81,435.21l7.44 6.23 0.29 0.24c163.23,133.79 350.66,244.88 547.91,321.14 7.93,3.01 52.04,19.6 52.04,19.11 217.67,-76.99 421.82,-193.92 599.97,-340.28l8.03 -6.67c143.59,-120.66 273.56,-265.11 354.48,-434.97 232.5,-488.05 -71.18,-876.25 -440.88,-891.81zm6330.61 12482c-104.8,-4.44 -212.1,19.41 -310.72,76.96 -98.56,-57.54 -205.83,-81.4 -310.63,-76.96 -220.19,9.25 -401.09,240.47 -262.6,531.17 48.21,101.2 125.75,187.39 211.32,259.23l4.42 3.71 0.2 0.15c97.21,79.69 208.83,145.84 326.34,191.27 4.72,1.8 31.01,11.66 31.01,11.39 129.66,-45.85 251.21,-115.51 357.35,-202.69l4.79 -3.97c85.53,-71.88 162.93,-157.93 211.17,-259.09 138.47,-290.7 -42.44,-521.92 -262.62,-531.17zm17674.92 -1100.49c-104.8,-4.42 -212.1,19.41 -310.68,77.01 -98.58,-57.6 -205.86,-81.43 -310.65,-77.01 -220.23,9.27 -401.12,240.5 -262.62,531.2 48.21,101.2 125.8,187.39 211.32,259.23l4.45 3.69 0.15 0.15c97.22,79.69 208.84,145.86 326.35,191.27 4.75,1.8 31.01,11.67 31.01,11.39 129.64,-45.85 251.24,-115.5 357.35,-202.69l4.78 -3.98c85.53,-71.86 162.98,-157.92 211.17,-259.07 138.49,-290.7 -42.39,-521.92 -262.61,-531.2zm-99490.34 -47318.77c-104.81,-4.41 -212.09,19.46 -310.69,77.01 -98.58,-57.56 -205.85,-81.42 -310.64,-77.01 -220.22,9.29 -401.13,240.52 -262.62,531.2 48.2,101.2 125.79,187.41 211.31,259.22l4.46 3.71 0.15 0.14c97.22,79.71 208.84,145.87 326.37,191.28 4.72,1.78 30.98,11.68 30.98,11.38 129.66,-45.83 251.27,-115.48 357.36,-202.68l4.78 -3.98c85.55,-71.84 162.97,-157.87 211.18,-259.07 138.48,-290.68 -42.41,-521.91 -262.62,-531.2zm18846.94 42525.72c-104.8,-4.41 -212.11,19.43 -310.68,76.99 -98.62,-57.56 -205.85,-81.4 -310.66,-76.99 -220.2,9.27 -401.11,240.5 -262.62,531.21 48.21,101.17 125.81,187.39 211.33,259.21l4.44 3.72 0.15 0.13c97.22,79.71 208.87,145.86 326.36,191.26 4.75,1.81 31.01,11.7 31.01,11.4 129.63,-45.83 251.22,-115.48 357.35,-202.66l4.79 -4.02c85.52,-71.84 162.96,-157.87 211.18,-259.03 138.45,-290.71 -42.41,-521.93 -262.64,-531.21zm93634.4 -19580.92c-104.79,-4.41 -212.09,19.46 -310.69,77 -98.58,-57.54 -205.84,-81.41 -310.64,-77 -220.22,9.27 -401.09,240.52 -262.58,531.19 48.15,101.2 125.74,187.43 211.28,259.23l4.44 3.71 0.18 0.15c97.23,79.69 208.85,145.84 326.34,191.26 4.72,1.8 31.01,11.69 31.01,11.39 129.62,-45.83 251.23,-115.47 357.35,-202.68l4.79 -3.98c85.54,-71.84 162.93,-157.88 211.18,-259.08 138.46,-290.67 -42.45,-521.91 -262.66,-531.19zm-74636.07 39912.99c-104.8,-4.42 -212.06,19.42 -310.68,76.99 -98.56,-57.57 -205.84,-81.41 -310.64,-76.99 -220.22,9.25 -401.11,240.47 -262.62,531.2 48.2,101.17 125.79,187.37 211.33,259.2l4.43 3.73 0.16 0.13c97.23,79.68 208.85,145.84 326.34,191.26 4.76,1.84 31.01,11.69 31.01,11.4 129.66,-45.84 251.27,-115.5 357.36,-202.66l4.79 -4c85.56,-71.84 162.96,-157.88 211.17,-259.05 138.47,-290.72 -42.41,-521.95 -262.64,-531.2zm18836.58 -27534.46c-104.77,-4.42 -212.06,19.45 -310.68,77 -98.56,-57.56 -205.85,-81.42 -310.65,-77 -220.22,9.27 -401.08,240.5 -262.59,531.22 48.2,101.17 125.75,187.37 211.32,259.18l4.42 3.74 0.18 0.1c97.23,79.69 208.85,145.87 326.35,191.25 4.73,1.82 31.01,11.71 31.01,11.41 129.63,-45.83 251.22,-115.48 357.35,-202.66l4.78 -3.99c85.54,-71.84 162.94,-157.87 211.18,-259.03 138.45,-290.72 -42.42,-521.95 -262.66,-531.22zm46477.05 -2579.01c-104.76,-4.42 -212.06,19.42 -310.68,76.99 -98.58,-57.57 -205.85,-81.41 -310.65,-76.99 -220.21,9.26 -401.07,240.49 -262.59,531.21 48.2,101.2 125.77,187.36 211.33,259.18l4.42 3.74 0.17 0.12c97.22,79.68 208.85,145.84 326.36,191.26 4.72,1.84 30.99,11.7 30.99,11.4 129.66,-45.84 251.23,-115.48 357.37,-202.66l4.79 -4c85.52,-71.82 162.93,-157.88 211.17,-259.03 138.43,-290.72 -42.44,-521.95 -262.67,-531.21zm-34209.96 7092.29c-104.81,-4.38 -212.12,19.45 -310.69,77.01 -98.61,-57.57 -205.87,-81.4 -310.65,-77.01 -220.21,9.25 -401.12,240.53 -262.6,531.2 48.19,101.19 125.78,187.43 211.29,259.24l4.43 3.69 0.18 0.15c97.23,79.69 208.84,145.84 326.34,191.25 4.76,1.82 31.01,11.71 31.01,11.41 129.66,-45.83 251.22,-115.48 357.36,-202.71l4.78 -3.95c85.54,-71.86 162.93,-157.9 211.18,-259.09 138.46,-290.67 -42.44,-521.95 -262.62,-531.2zm26689.09 19630.9c-175.97,-7.43 -356.07,32.64 -521.62,129.24 -165.52,-96.6 -345.62,-136.67 -521.56,-129.24 -369.7,15.56 -673.42,403.76 -440.87,891.81 80.93,169.91 211.16,314.61 354.75,435.21l7.47 6.21 0.26 0.25c163.23,133.79 350.68,244.89 547.93,321.11 7.94,3.05 52.06,19.6 52.06,19.14 217.63,-76.97 421.81,-193.92 599.94,-340.28l8.04 -6.67c143.59,-120.66 273.57,-265.09 354.52,-434.97 232.48,-488.05 -71.2,-876.25 -440.91,-891.81zm-95542.95 -40700.95c-104.8,-4.42 -212.1,19.42 -310.68,76.98 -98.58,-57.56 -205.84,-81.4 -310.68,-76.98 -220.19,9.26 -401.09,240.49 -262.58,531.2 48.19,101.17 125.78,187.39 211.29,259.21l4.46 3.72 0.15 0.13c97.23,79.69 208.88,145.86 326.34,191.26 4.76,1.81 31.01,11.7 31.01,11.4 129.66,-45.83 251.27,-115.51 357.36,-202.66l4.82 -3.99c85.49,-71.86 162.93,-157.93 211.13,-259.06 138.49,-290.71 -42.4,-521.93 -262.64,-531.2zm42216.97 18940.08c-104.8,-4.41 -212.06,19.45 -310.68,76.99 -98.6,-57.54 -205.86,-81.4 -310.66,-76.99 -220.21,9.26 -401.11,240.51 -262.62,531.21 48.2,101.2 125.8,187.39 211.33,259.23l4.43 3.69 0.2 0.15c97.23,79.67 208.87,145.82 326.34,191.26 4.72,1.82 31.01,11.67 31.01,11.41 129.62,-45.88 251.24,-115.51 357.35,-202.68l4.8 -4.03c85.53,-71.84 162.92,-157.88 211.17,-259.05 138.46,-290.7 -42.45,-521.95 -262.65,-531.21zm19825.2 -12302.22c-104.82,-4.41 -212.1,19.43 -310.71,77.02 -98.59,-57.59 -205.85,-81.43 -310.65,-77.02 -220.2,9.27 -401.07,240.51 -262.59,531.21 48.2,101.2 125.74,187.41 211.29,259.23l4.44 3.69 0.18 0.15c97.22,79.69 208.85,145.86 326.34,191.27 4.73,1.78 31.01,11.68 31.01,11.38 129.66,-45.85 251.23,-115.49 357.36,-202.68l4.8 -3.98c85.52,-71.87 162.9,-157.9 211.16,-259.07 138.45,-290.7 -42.44,-521.93 -262.62,-531.21zm1145.75 3819.32c-104.81,-4.4 -212.09,19.47 -310.69,77.02 -98.59,-57.56 -205.85,-81.42 -310.65,-77.02 -220.23,9.3 -401.12,240.52 -262.64,531.24 48.21,101.17 125.79,187.37 211.32,259.18l4.45 3.69 0.18 0.15c97.2,79.69 208.83,145.87 326.35,191.28 4.72,1.78 31.01,11.68 31.01,11.38 129.61,-45.83 251.23,-115.48 357.35,-202.66l4.75 -3.99c85.56,-71.84 162.97,-157.87 211.19,-259.03 138.48,-290.72 -42.42,-521.95 -262.62,-531.24zm5572.61 2321.94c-104.79,-4.43 -212.08,19.45 -310.68,77 -98.56,-57.56 -205.84,-81.43 -310.64,-77 -220.23,9.26 -401.11,240.49 -262.62,531.21 48.19,101.18 125.78,187.41 211.32,259.22l4.45 3.71 0.18 0.14c97.18,79.71 208.84,145.87 326.35,191.26 4.72,1.81 31,11.7 31,11.4 129.61,-45.85 251.22,-115.51 357.36,-202.7l4.76 -3.96c85.55,-71.85 162.96,-157.89 211.14,-259.07 138.5,-290.72 -42.39,-521.95 -262.62,-531.21zm3250.73 -8513.75c-104.8,-4.42 -212.08,19.45 -310.68,76.99 -98.6,-57.54 -205.87,-81.41 -310.63,-76.99 -220.23,9.27 -401.11,240.5 -262.62,531.22 48.19,101.17 125.78,187.37 211.33,259.18l4.41 3.74 0.17 0.1c97.23,79.71 208.87,145.87 326.34,191.26 4.76,1.81 31.01,11.7 31.01,11.4 129.66,-45.83 251.24,-115.48 357.38,-202.66l4.76 -3.99c85.53,-71.84 162.92,-157.87 211.17,-259.03 138.46,-290.72 -42.42,-521.95 -262.64,-531.22zm8668.56 5263.05c-104.8,-4.42 -212.09,19.42 -310.68,76.99 -98.61,-57.57 -205.83,-81.41 -310.63,-76.99 -220.23,9.26 -401.12,240.49 -262.64,531.2 48.2,101.19 125.79,187.38 211.32,259.22l4.41 3.71 0.2 0.13c97.23,79.72 208.87,145.86 326.34,191.3 4.76,1.78 31.01,11.66 31.01,11.39 129.66,-45.85 251.24,-115.51 357.35,-202.69l4.8 -4c85.52,-71.85 162.96,-157.88 211.16,-259.05 138.47,-290.71 -42.39,-521.93 -262.62,-531.2zm17801.52 -7885.73c-104.8,-4.43 -212.08,19.42 -310.71,76.98 -98.56,-57.56 -205.83,-81.41 -310.63,-76.98 -220.23,9.25 -401.11,240.47 -262.62,531.2 48.2,101.18 125.78,187.37 211.33,259.24l4.44 3.68 0.18 0.12c97.18,79.73 208.84,145.86 326.34,191.3 4.72,1.81 31.01,11.67 31.01,11.4 129.61,-45.86 251.22,-115.53 357.36,-202.7l4.78 -3.97c85.54,-71.88 162.93,-157.9 211.13,-259.07 138.5,-290.72 -42.39,-521.95 -262.6,-531.2zm-10990.51 -14860.4c-104.8,-4.42 -212.11,19.41 -310.68,76.99 -98.59,-57.58 -205.86,-81.41 -310.66,-76.99 -220.21,9.26 -401.11,240.49 -262.61,531.21 48.21,101.18 125.8,187.37 211.32,259.23l4.45 3.69 0.16 0.12c97.22,79.73 208.83,145.84 326.34,191.3 4.75,1.81 31.01,11.66 31.01,11.39 129.66,-45.85 251.24,-115.51 357.35,-202.69l4.78 -3.98c85.55,-71.87 162.98,-157.89 211.17,-259.06 138.49,-290.72 -42.39,-521.95 -262.61,-531.21zm27894.84 -5449.12c-104.8,-4.42 -212.1,19.43 -310.68,76.99 -98.59,-57.56 -205.85,-81.41 -310.66,-76.99 -220.21,9.26 -401.11,240.51 -262.61,531.21 48.21,101.17 125.79,187.38 211.32,259.2l4.46 3.73 0.14 0.13c97.23,79.69 208.85,145.84 326.35,191.26 4.76,1.8 31.01,11.69 31.01,11.39 129.63,-45.83 251.22,-115.48 357.35,-202.65l4.79 -4c85.53,-71.84 162.98,-157.88 211.17,-259.05 138.45,-290.7 -42.39,-521.95 -262.62,-531.21zm-16226.76 11582.54c-104.8,-4.42 -212.06,19.41 -310.68,76.98 -98.58,-57.57 -205.85,-81.4 -310.65,-76.98 -220.21,9.26 -401.12,240.49 -262.61,531.2 48.2,101.15 125.79,187.39 211.31,259.21l4.46 3.72 0.17 0.13c97.22,79.69 208.85,145.84 326.36,191.25 4.72,1.82 31.01,11.71 31.01,11.41 129.61,-45.83 251.21,-115.48 357.35,-202.66l4.79 -3.99c85.52,-71.86 162.93,-157.9 211.17,-259.06 138.43,-290.71 -42.44,-521.93 -262.67,-531.2zm-28494.96 16003.72c-104.8,-4.43 -212.06,19.41 -310.68,76.97 -98.56,-57.56 -205.83,-81.4 -310.64,-76.97 -220.23,9.25 -401.11,240.49 -262.62,531.19 48.21,101.2 125.79,187.39 211.31,259.21l4.46 3.72 0.16 0.13c97.21,79.71 208.85,145.86 326.37,191.3 4.72,1.8 31.01,11.68 31.01,11.38 129.61,-45.84 251.21,-115.49 357.35,-202.68l4.74 -3.98c85.56,-71.87 162.98,-157.9 211.17,-259.07 138.49,-290.7 -42.39,-521.93 -262.62,-531.19zm-10261.32 11212.09c-104.8,-4.42 -212.08,19.46 -310.68,77.01 -98.59,-57.56 -205.85,-81.43 -310.65,-77.01 -220.22,9.27 -401.12,240.5 -262.61,531.2 48.2,101.2 125.78,187.41 211.31,259.23l4.46 3.69 0.17 0.15c97.2,79.69 208.85,145.86 326.36,191.27 4.72,1.8 31,11.68 31,11.4 129.61,-45.86 251.22,-115.51 357.36,-202.7l4.76 -3.98c85.54,-71.84 162.96,-157.87 211.14,-259.07 138.48,-290.7 -42.39,-521.92 -262.62,-531.2zm-2631.54 -6501.39c-104.81,-4.43 -212.08,19.42 -310.69,76.99 -98.56,-57.57 -205.83,-81.42 -310.63,-76.99 -220.23,9.25 -401.12,240.47 -262.62,531.21 48.19,101.18 125.78,187.36 211.32,259.22l4.45 3.71 0.14 0.14c97.23,79.69 208.87,145.87 326.38,191.26 4.73,1.81 31,11.67 31,11.4 129.62,-45.86 251.23,-115.51 357.37,-202.7l4.75 -3.96c85.56,-71.87 162.94,-157.92 211.16,-259.07 138.48,-290.73 -42.39,-521.96 -262.62,-531.21zm-3250.7 5263.04c-104.8,-4.42 -212.1,19.41 -310.66,77.01 -98.61,-57.6 -205.86,-81.43 -310.66,-77.01 -220.22,9.25 -401.11,240.47 -262.61,531.2 48.21,101.2 125.78,187.42 211.31,259.21l4.43 3.72 0.17 0.16c97.23,79.67 208.85,145.83 326.36,191.26 4.75,1.81 31.01,11.7 31.01,11.38 129.63,-45.85 251.21,-115.49 357.33,-202.68l4.79 -3.98c85.53,-71.88 162.93,-157.9 211.17,-259.07 138.47,-290.72 -42.39,-521.95 -262.62,-531.2zm11918.21 -9785.96c-104.8,-4.4 -212.06,19.43 -310.68,77 -98.58,-57.57 -205.86,-81.4 -310.66,-77 -220.2,9.25 -401.11,240.52 -262.61,531.2 48.21,101.18 125.8,187.42 211.32,259.22l4.46 3.71 0.15 0.15c97.23,79.69 208.84,145.86 326.38,191.25 4.72,1.82 30.96,11.71 30.96,11.41 129.63,-45.84 251.26,-115.48 357.35,-202.71l4.79 -3.95c85.55,-71.85 162.98,-157.9 211.17,-259.08 138.48,-290.68 -42.39,-521.95 -262.62,-531.2zm-13883.86 3883.44c-104.81,-4.42 -212.08,19.43 -310.69,77 -98.58,-57.57 -205.84,-81.42 -310.64,-77 -220.22,9.26 -401.08,240.49 -262.64,531.22 48.2,101.18 125.8,187.36 211.32,259.17l4.45 3.74 0.2 0.12c97.21,79.69 208.85,145.86 326.34,191.3 4.72,1.81 31.01,11.67 31.01,11.37 129.61,-45.84 251.23,-115.48 357.33,-202.66l4.8 -3.99c85.52,-71.84 162.92,-157.88 211.16,-259.03 138.47,-290.73 -42.42,-521.96 -262.64,-531.22zm-4495.1 -6189.33c-104.8,-4.43 -212.09,19.41 -310.66,76.97 -98.61,-57.56 -205.84,-81.4 -310.64,-76.97 -220.23,9.25 -401.11,240.49 -262.64,531.19 48.21,101.2 125.8,187.39 211.33,259.23l4.41 3.69 0.2 0.13c97.22,79.72 208.85,145.86 326.34,191.3 4.75,1.8 31.01,11.68 31.01,11.39 129.66,-45.85 251.23,-115.5 357.33,-202.69l4.8 -3.97c85.52,-71.88 162.92,-157.92 211.16,-259.08 138.47,-290.7 -42.39,-521.93 -262.62,-531.19zm-4365.2 -8490.02c-104.81,-4.43 -212.08,19.41 -310.69,76.97 -98.59,-57.56 -205.85,-81.4 -310.65,-76.97 -220.21,9.26 -401.12,240.49 -262.64,531.19 48.22,101.2 125.81,187.39 211.33,259.21l4.44 3.72 0.18 0.13c97.23,79.71 208.88,145.87 326.35,191.3 4.73,1.81 31.01,11.67 31.01,11.37 129.62,-45.82 251.24,-115.48 357.36,-202.66l4.79 -3.99c85.52,-71.85 162.92,-157.89 211.16,-259.06 138.47,-290.7 -42.44,-521.92 -262.64,-531.19zm-19956.21 -774.64c-104.8,-4.42 -212.09,19.41 -310.69,77 -98.59,-57.59 -205.87,-81.42 -310.63,-77 -220.23,9.26 -401.11,240.49 -262.62,531.19 48.19,101.21 125.78,187.42 211.31,259.23l4.43 3.69 0.17 0.15c97.23,79.69 208.87,145.87 326.36,191.28 4.75,1.78 30.99,11.68 30.99,11.38 129.66,-45.84 251.23,-115.49 357.36,-202.68l4.78 -3.98c85.54,-71.87 162.94,-157.92 211.18,-259.08 138.46,-290.7 -42.42,-521.92 -262.62,-531.19zm-14646.23 16564.19c-104.8,-4.4 -212.06,19.43 -310.68,76.99 -98.6,-57.56 -205.86,-81.39 -310.66,-76.99 -220.2,9.26 -401.07,240.5 -262.58,531.21 48.18,101.19 125.77,187.38 211.32,259.18l4.42 3.74 0.17 0.14c97.23,79.67 208.87,145.83 326.36,191.25 4.73,1.83 31.01,11.69 31.01,11.39 129.62,-45.84 251.22,-115.47 357.35,-202.64l4.79 -4.02c85.52,-71.85 162.93,-157.88 211.17,-259.05 138.45,-290.71 -42.42,-521.95 -262.66,-531.21zm29975.28 -10001.82c-104.8,-4.41 -212.08,19.42 -310.68,77.01 -98.59,-57.59 -205.86,-81.42 -310.66,-77.01 -220.21,9.27 -401.11,240.5 -262.61,531.21 48.2,101.2 125.79,187.41 211.32,259.22l4.46 3.69 0.16 0.15c97.23,79.69 208.87,145.87 326.36,191.28 4.71,1.78 30.99,11.68 30.99,11.38 129.62,-45.84 251.24,-115.5 357.38,-202.68l4.76 -3.98c85.52,-71.87 162.93,-157.92 211.16,-259.07 138.47,-290.71 -42.42,-521.93 -262.64,-531.21zm-3173.28 16683.87c-104.8,-4.42 -212.06,19.42 -310.68,77 -98.59,-57.58 -205.86,-81.42 -310.66,-77 -220.21,9.26 -401.06,240.49 -262.58,531.2 48.18,101.2 125.77,187.41 211.28,259.22l4.46 3.71 0.16 0.14c97.23,79.71 208.87,145.87 326.37,191.28 4.72,1.78 31.01,11.68 31.01,11.38 129.6,-45.84 251.21,-115.49 357.33,-202.68l4.78 -3.98c85.53,-71.87 162.94,-157.92 211.18,-259.07 138.45,-290.71 -42.42,-521.93 -262.66,-531.2zm807.63 -8210.83c-104.8,-4.42 -212.08,19.45 -310.68,76.99 -98.58,-57.54 -205.84,-81.41 -310.64,-76.99 -220.23,9.27 -401.11,240.5 -262.64,531.22 48.21,101.18 125.8,187.37 211.32,259.22l4.45 3.71 0.17 0.1c97.21,79.74 208.85,145.87 326.36,191.3 4.72,1.81 31.01,11.67 31.01,11.4 129.62,-45.86 251.21,-115.51 357.35,-202.7l4.79 -3.96c85.52,-71.87 162.93,-157.9 211.13,-259.07 138.48,-290.72 -42.4,-521.95 -262.62,-531.22zm3230.5 -19248.31c-104.8,-4.43 -212.11,19.42 -310.68,76.99 -98.6,-57.57 -205.86,-81.42 -310.66,-76.99 -220.21,9.25 -401.11,240.47 -262.62,531.21 48.22,101.15 125.8,187.36 211.33,259.18l4.45 3.73 0.15 0.12c97.23,79.69 208.84,145.86 326.35,191.27 4.76,1.83 31.01,11.69 31.01,11.39 129.63,-45.83 251.21,-115.48 357.35,-202.66l4.79 -3.99c85.53,-71.84 162.97,-157.88 211.17,-259.03 138.45,-290.73 -42.39,-521.96 -262.62,-531.21zm8210.83 4038.08c-104.81,-4.41 -212.08,19.43 -310.7,76.99 -98.58,-57.56 -205.84,-81.4 -310.64,-76.99 -220.22,9.27 -401.12,240.5 -262.64,531.21 48.21,101.2 125.8,187.39 211.33,259.22l4.44 3.71 0.16 0.14c97.22,79.71 208.85,145.87 326.37,191.28 4.73,1.78 30.98,11.67 30.98,11.39 129.66,-45.85 251.24,-115.5 357.37,-202.69l4.78 -3.97c85.55,-71.88 162.96,-157.92 211.16,-259.08 138.5,-290.71 -42.4,-521.93 -262.6,-531.21zm5881.08 -767.41c-104.81,-4.43 -212.08,19.45 -310.69,77.02 -98.56,-57.58 -205.84,-81.45 -310.64,-77.02 -220.22,9.25 -401.11,240.47 -262.62,531.2 48.2,101.2 125.79,187.41 211.33,259.23l4.45 3.69 0.17 0.16c97.23,79.69 208.85,145.84 326.34,191.25 4.74,1.82 31.01,11.71 31.01,11.41 129.62,-45.88 251.23,-115.53 357.36,-202.71l4.78 -3.95c85.54,-71.86 162.93,-157.89 211.18,-259.09 138.45,-290.72 -42.42,-521.95 -262.66,-531.2zm7134.01 942.24c-104.8,-4.42 -212.06,19.41 -310.66,77 -98.59,-57.59 -205.86,-81.42 -310.66,-77 -220.23,9.26 -401.11,240.49 -262.62,531.19 48.2,101.21 125.78,187.42 211.32,259.23l4.45 3.69 0.18 0.15c97.18,79.69 208.82,145.87 326.35,191.28 4.72,1.78 31,11.68 31,11.38 129.61,-45.84 251.23,-115.49 357.36,-202.68l4.8 -3.98c85.52,-71.87 162.92,-157.92 211.12,-259.08 138.49,-290.7 -42.4,-521.92 -262.62,-531.19zm4307.31 -6460.98c-104.8,-4.44 -212.06,19.42 -310.68,76.98 -98.59,-57.56 -205.86,-81.42 -310.66,-76.98 -220.22,9.25 -401.11,240.47 -262.61,531.2 48.19,101.18 125.78,187.37 211.32,259.22l4.45 3.71 0.18 0.15c97.18,79.69 208.85,145.86 326.34,191.25 4.72,1.82 31,11.67 31,11.41 129.62,-45.86 251.24,-115.53 357.35,-202.71l4.8 -3.95c85.53,-71.88 162.92,-157.92 211.14,-259.08 138.48,-290.72 -42.41,-521.95 -262.62,-531.2zm-2153.65 -6999.41c-104.8,-4.4 -212.06,19.43 -310.68,77 -98.6,-57.57 -205.86,-81.4 -310.66,-77 -220.23,9.25 -401.11,240.52 -262.62,531.2 48.2,101.18 125.79,187.42 211.33,259.23l4.44 3.69 0.18 0.15c97.18,79.69 208.82,145.86 326.34,191.25 4.74,1.82 31.01,11.71 31.01,11.41 129.62,-45.83 251.24,-115.48 357.36,-202.71l4.8 -3.95c85.52,-71.86 162.91,-157.9 211.13,-259.08 138.48,-290.68 -42.41,-521.95 -262.62,-531.2zm16690.84 7134c-104.77,-4.41 -212.06,19.43 -310.68,77.02 -98.56,-57.59 -205.84,-81.43 -310.65,-77.02 -220.23,9.26 -401.08,240.5 -262.58,531.21 48.2,101.2 125.75,187.41 211.31,259.22l4.42 3.71 0.18 0.14c97.23,79.71 208.85,145.87 326.35,191.26 4.73,1.81 31.01,11.7 31.01,11.4 129.63,-45.85 251.22,-115.49 357.35,-202.68l4.78 -3.98c85.54,-71.87 162.94,-157.9 211.18,-259.07 138.46,-290.71 -42.44,-521.95 -262.66,-531.21zm-403.79 12921.98c-104.8,-4.42 -212.1,19.41 -310.68,76.98 -98.6,-57.57 -205.87,-81.4 -310.68,-76.98 -220.19,9.27 -401.09,240.5 -262.6,531.19 48.21,101.21 125.77,187.41 211.32,259.24l4.42 3.68 0.2 0.14c97.23,79.71 208.84,145.86 326.34,191.3 4.76,1.8 31.01,11.67 31.01,11.38 129.63,-45.85 251.22,-115.49 357.35,-202.68l4.79 -3.98c85.54,-71.86 162.93,-157.92 211.17,-259.08 138.45,-290.69 -42.42,-521.91 -262.62,-531.19zm6004.32 12912.86c-104.81,-4.43 -212.12,19.41 -310.7,77.01 -98.61,-57.6 -205.87,-81.44 -310.68,-77.01 -220.2,9.25 -401.08,240.47 -262.6,531.19 48.21,101.2 125.77,187.39 211.33,259.22l4.43 3.71 0.17 0.15c97.22,79.69 208.85,145.86 326.35,191.27 4.73,1.8 31,11.68 31,11.39 129.66,-45.85 251.23,-115.5 357.37,-202.69l4.78 -3.97c85.5,-71.88 162.93,-157.92 211.18,-259.08 138.45,-290.71 -42.44,-521.93 -262.62,-531.19zm1833.69 -8150.67c-104.81,-4.41 -212.08,19.43 -310.69,76.99 -98.56,-57.56 -205.83,-81.4 -310.63,-76.99 -220.23,9.27 -401.11,240.5 -262.62,531.21 48.19,101.2 125.78,187.39 211.32,259.22l4.45 3.71 0.14 0.15c97.23,79.69 208.87,145.86 326.34,191.27 4.78,1.8 31.01,11.68 31.01,11.39 129.66,-45.85 251.27,-115.5 357.36,-202.69l4.8 -3.97c85.52,-71.88 162.96,-157.92 211.16,-259.08 138.48,-290.71 -42.39,-521.93 -262.62,-531.21zm-3980.99 -12326.87c-104.8,-4.41 -212.06,19.45 -310.68,77 -98.59,-57.56 -205.85,-81.41 -310.65,-77 -220.22,9.26 -401.07,240.52 -262.59,531.19 48.2,101.2 125.75,187.41 211.33,259.23l4.42 3.69 0.17 0.15c97.22,79.69 208.85,145.86 326.36,191.27 4.72,1.8 31.01,11.68 31.01,11.39 129.6,-45.83 251.21,-115.49 357.35,-202.69l4.78 -3.98c85.53,-71.84 162.94,-157.87 211.18,-259.07 138.45,-290.67 -42.44,-521.92 -262.67,-531.19zm-14086.93 -1453.78c-104.8,-4.43 -212.08,19.43 -310.68,76.99 -98.56,-57.56 -205.83,-81.42 -310.63,-76.99 -220.23,9.26 -401.11,240.49 -262.62,531.21 48.19,101.18 125.78,187.37 211.29,259.22l4.46 3.71 0.15 0.1c97.23,79.74 208.87,145.87 326.34,191.3 4.76,1.82 31.01,11.67 31.01,11.41 129.66,-45.86 251.27,-115.53 357.36,-202.71l4.78 -3.99c85.54,-71.85 162.98,-157.87 211.18,-259.03 138.47,-290.72 -42.4,-521.95 -262.64,-531.21zm4711.17 16439.02c-104.81,-4.38 -212.11,19.46 -310.69,77.02 -98.58,-57.57 -205.84,-81.41 -310.64,-77.02 -220.22,9.3 -401.12,240.52 -262.65,531.23 48.22,101.17 125.81,187.38 211.33,259.21l4.45 3.68 0.16 0.16c97.23,79.68 208.85,145.86 326.34,191.26 4.75,1.81 31.01,11.7 31.01,11.4 129.64,-45.83 251.27,-115.48 357.36,-202.66l4.78 -4c85.52,-71.85 162.98,-157.88 211.18,-259.05 138.48,-290.71 -42.41,-521.93 -262.62,-531.23zm1522.09 -10556.68c-104.8,-4.41 -212.1,19.43 -310.71,76.99 -98.58,-57.56 -205.85,-81.4 -310.66,-76.99 -220.19,9.26 -401.07,240.51 -262.58,531.21 48.2,101.2 125.77,187.39 211.32,259.23l4.43 3.69 0.16 0.13c97.23,79.72 208.87,145.84 326.37,191.28 4.71,1.82 30.99,11.67 30.99,11.41 129.64,-45.88 251.24,-115.51 357.36,-202.7l4.79 -3.97c85.52,-71.87 162.93,-157.92 211.16,-259.08 138.47,-290.7 -42.42,-521.95 -262.61,-531.21zm-8966.75 14671.82c-104.81,-4.41 -212.12,19.42 -310.71,76.98 -98.58,-57.56 -205.85,-81.39 -310.65,-76.98 -220.19,9.26 -401.08,240.49 -262.61,531.2 48.22,101.21 125.78,187.38 211.34,259.22l4.42 3.71 0.18 0.14c97.23,79.71 208.84,145.84 326.34,191.3 4.74,1.78 31.01,11.67 31.01,11.38 129.64,-45.85 251.22,-115.49 357.36,-202.68l4.78 -4.02c85.54,-71.85 162.94,-157.88 211.18,-259.05 138.45,-290.71 -42.44,-521.93 -262.62,-531.2zm-20336.25 1292.68c-104.81,-4.42 -212.09,19.42 -310.69,76.99 -98.59,-57.57 -205.85,-81.41 -310.65,-76.99 -220.22,9.26 -401.11,240.49 -262.64,531.2 48.22,101.2 125.81,187.38 211.33,259.22l4.46 3.71 0.15 0.14c97.22,79.71 208.84,145.87 326.37,191.28 4.73,1.78 30.98,11.67 30.98,11.38 129.63,-45.84 251.26,-115.49 357.36,-202.68l4.76 -3.98c85.56,-71.87 162.98,-157.9 211.19,-259.07 138.48,-290.71 -42.4,-521.93 -262.62,-531.2zm-21929.32 -3177.14c-104.8,-4.41 -212.06,19.46 -310.69,77 -98.58,-57.54 -205.85,-81.41 -310.65,-77 -220.23,9.27 -401.11,240.51 -262.62,531.22 48.21,101.17 125.79,187.38 211.33,259.2l4.44 3.74 0.15 0.1c97.22,79.71 208.85,145.86 326.36,191.28 4.74,1.78 31,11.68 31,11.38 129.64,-45.83 251.24,-115.48 357.36,-202.66l4.79 -3.99c85.55,-71.84 162.96,-157.88 211.16,-259.05 138.49,-290.71 -42.4,-521.95 -262.61,-531.22zm24756 -13513.71c-104.81,-4.43 -212.12,19.42 -310.69,76.99 -98.62,-57.57 -205.85,-81.42 -310.65,-76.99 -220.21,9.26 -401.11,240.49 -262.64,531.21 48.21,101.18 125.81,187.37 211.34,259.2l4.42 3.73 0.17 0.1c97.23,79.69 208.85,145.87 326.36,191.27 4.74,1.83 31,11.69 31,11.39 129.64,-45.82 251.22,-115.48 357.36,-202.66l4.78 -3.99c85.53,-71.85 162.94,-157.87 211.18,-259.03 138.45,-290.72 -42.42,-521.95 -262.62,-531.21zm7648.91 7968.01c-175.97,-7.4 -356.06,32.64 -521.61,129.28 -165.53,-96.63 -345.62,-136.67 -521.56,-129.28 -369.7,15.56 -673.42,403.77 -440.89,891.83 80.93,169.88 211.18,314.62 354.78,435.18l7.44 6.26 0.29 0.21c163.21,133.83 350.65,244.89 547.91,321.11 7.93,3.04 52.04,19.64 52.04,19.16 217.63,-76.98 421.82,-193.91 599.96,-340.27l8.04 -6.7c143.59,-120.62 273.56,-265.1 354.53,-434.95 232.45,-488.06 -71.23,-876.28 -440.93,-891.83zm-24917.67 19334.44c-175.98,-7.43 -356.07,32.62 -521.6,129.24 -165.54,-96.62 -345.63,-136.67 -521.6,-129.24 -369.67,15.55 -673.38,403.75 -440.89,891.8 80.97,169.91 211.2,314.62 354.79,435.22l7.48 6.21 0.25 0.23c163.23,133.81 350.65,244.88 547.94,321.12 7.93,3.04 52.04,19.6 52.04,19.16 217.62,-76.99 421.77,-193.93 599.96,-340.32l8.03 -6.66c143.6,-120.65 273.57,-265.09 354.49,-434.97 232.49,-488.05 -71.19,-876.25 -440.89,-891.8zm23398.95 -36314.34c-175.95,-7.4 -356.06,32.66 -521.57,129.3 -165.53,-96.64 -345.63,-136.7 -521.59,-129.3 -369.7,15.55 -673.41,403.79 -440.89,891.82 80.93,169.88 211.21,314.63 354.78,435.22l7.44 6.23 0.31 0.22c163.2,133.81 350.66,244.87 547.88,321.1 7.97,3.06 52.07,19.65 52.07,19.16 217.63,-76.99 421.79,-193.9 599.94,-340.26l8.07 -6.71c143.57,-120.62 273.53,-265.11 354.5,-434.96 232.44,-488.04 -71.23,-876.28 -440.94,-891.82zm5170.77 2306.23c-175.96,-7.39 -356.07,32.66 -521.62,129.28 -165.51,-96.62 -345.62,-136.66 -521.57,-129.28 -369.69,15.56 -673.4,403.79 -440.89,891.86 80.96,169.88 211.2,314.61 354.79,435.18l7.44 6.25 0.29 0.21c163.23,133.83 350.67,244.89 547.91,321.1 7.96,3.06 52.08,19.64 52.08,19.16 217.59,-76.96 421.78,-193.9 599.94,-340.26l8.03 -6.71c143.59,-120.61 273.56,-265.09 354.48,-434.92 232.51,-488.07 -71.17,-876.3 -440.87,-891.86zm15433.89 -5538.92c-175.98,-7.43 -356.06,32.63 -521.61,129.26 -165.52,-96.63 -345.62,-136.7 -521.57,-129.26 -369.7,15.56 -673.38,403.75 -440.89,891.81 80.95,169.88 211.19,314.61 354.79,435.2l7.47 6.23 0.26 0.25c163.23,133.79 350.64,244.88 547.93,321.1 7.93,3.05 52.04,19.63 52.04,19.15 217.6,-76.99 421.77,-193.92 599.95,-340.28l8.02 -6.67c143.6,-120.66 273.59,-265.12 354.52,-434.97 232.48,-488.06 -71.18,-876.25 -440.91,-891.81zm-10902.9 15210.19c-175.95,-7.39 -356.06,32.66 -521.59,129.26 -165.53,-96.61 -345.63,-136.65 -521.59,-129.26 -369.67,15.56 -673.4,403.76 -440.89,891.85 80.95,169.87 211.19,314.62 354.79,435.18l7.47 6.26 0.26 0.2c163.23,133.8 350.68,244.9 547.94,321.12 7.93,3.04 52.03,19.63 52.03,19.15 217.65,-76.98 421.79,-193.91 599.95,-340.27l8.04 -6.7c143.6,-120.61 273.58,-265.1 354.5,-434.93 232.49,-488.08 -71.19,-876.29 -440.92,-891.85zm-21132.57 10908.6c-104.8,-4.42 -212.08,19.43 -310.69,76.99 -98.58,-57.56 -205.85,-81.41 -310.65,-76.99 -220.21,9.26 -401.11,240.49 -262.64,531.21 48.22,101.19 125.81,187.38 211.34,259.23l4.46 3.69 0.14 0.16c97.23,79.68 208.85,145.84 326.38,191.25 4.73,1.82 30.96,11.68 30.96,11.41 129.64,-45.88 251.27,-115.53 357.4,-202.71l4.73 -3.96c85.55,-71.89 162.97,-157.92 211.18,-259.08 138.48,-290.72 -42.39,-521.95 -262.62,-531.21zm9525.85 -6915.86c-104.8,-4.43 -212.08,19.43 -310.68,76.99 -98.6,-57.56 -205.83,-81.42 -310.63,-76.99 -220.23,9.26 -401.14,240.49 -262.62,531.21 48.19,101.18 125.78,187.37 211.29,259.22l4.46 3.71 0.15 0.1c97.23,79.74 208.84,145.87 326.34,191.3 4.76,1.82 31.01,11.67 31.01,11.41 129.66,-45.86 251.23,-115.53 357.35,-202.71l4.79 -3.99c85.54,-71.84 162.98,-157.87 211.18,-259.03 138.46,-290.72 -42.4,-521.95 -262.64,-531.21zm-10229.89 -18961.73c-104.77,-4.42 -212.08,19.45 -310.69,76.99 -98.56,-57.54 -205.83,-81.41 -310.63,-76.99 -220.2,9.26 -401.09,240.5 -262.61,531.21 48.22,101.19 125.77,187.38 211.33,259.23l4.43 3.69 0.18 0.12c97.22,79.74 208.84,145.84 326.34,191.3 4.72,1.81 31.01,11.67 31.01,11.4 129.62,-45.86 251.22,-115.51 357.35,-202.7l4.78 -3.96c85.55,-71.87 162.94,-157.92 211.19,-259.08 138.43,-290.71 -42.44,-521.95 -262.67,-531.21zm-4711.12 10633.69c-104.8,-4.43 -212.08,19.42 -310.68,76.98 -98.58,-57.56 -205.84,-81.41 -310.64,-76.98 -220.22,9.25 -401.11,240.47 -262.64,531.2 48.21,101.2 125.8,187.37 211.34,259.23l4.43 3.69 0.16 0.15c97.22,79.69 208.85,145.86 326.37,191.26 4.72,1.81 30.98,11.66 30.98,11.4 129.66,-45.86 251.24,-115.53 357.38,-202.7l4.76 -3.96c85.55,-71.88 162.96,-157.92 211.16,-259.08 138.48,-290.72 -42.4,-521.95 -262.62,-531.2zm-20676.43 2715.71c-104.8,-4.38 -212.06,19.46 -310.68,77.01 -98.6,-57.56 -205.86,-81.4 -310.66,-77.01 -220.21,9.29 -401.11,240.52 -262.62,531.23 48.22,101.17 125.81,187.39 211.33,259.2l4.45 3.71 0.15 0.15c97.22,79.67 208.84,145.84 326.35,191.26 4.73,1.81 31.01,11.7 31.01,11.38 129.63,-45.82 251.26,-115.46 357.35,-202.64l4.79 -4.02c85.55,-71.84 162.97,-157.87 211.17,-259.03 138.48,-290.71 -42.41,-521.95 -262.62,-531.23zm1604.17 -14214.64c-104.8,-4.4 -212.08,19.46 -310.68,77.01 -98.59,-57.56 -205.86,-81.41 -310.66,-77.01 -220.2,9.27 -401.11,240.52 -262.62,531.24 48.2,101.15 125.81,187.36 211.33,259.17l4.44 3.71 0.18 0.15c97.18,79.69 208.85,145.86 326.34,191.27 4.73,1.8 31.01,11.69 31.01,11.39 129.61,-45.84 251.23,-115.48 357.36,-202.66l4.8 -3.99c85.52,-71.84 162.91,-157.88 211.13,-259.03 138.48,-290.72 -42.41,-521.97 -262.62,-531.24zm10768.51 12131.72c-104.8,-4.42 -212.08,19.42 -310.71,76.97 -98.58,-57.54 -205.84,-81.39 -310.64,-76.97 -220.19,9.26 -401.09,240.49 -262.58,531.2 48.19,101.17 125.74,187.38 211.29,259.21l4.43 3.72 0.18 0.13c97.23,79.69 208.85,145.86 326.34,191.26 4.73,1.81 31.01,11.69 31.01,11.39 129.66,-45.82 251.23,-115.48 357.35,-202.65l4.79 -4c85.54,-71.85 162.93,-157.88 211.18,-259.05 138.46,-290.71 -42.42,-521.93 -262.64,-531.2zm19674.99 -16066.29c-104.8,-4.38 -212.06,19.47 -310.68,77.02 -98.58,-57.56 -205.84,-81.41 -310.64,-77.02 -220.22,9.29 -401.11,240.52 -262.64,531.21 48.21,101.2 125.8,187.42 211.33,259.23l4.44 3.69 0.18 0.15c97.21,79.71 208.83,145.86 326.35,191.27 4.73,1.8 31.01,11.7 31.01,11.39 129.62,-45.83 251.21,-115.48 357.35,-202.69l4.79 -3.96c85.53,-71.85 162.93,-157.89 211.13,-259.09 138.48,-290.69 -42.4,-521.92 -262.62,-531.21zm45558.19 37904.74c-175.95,-7.39 -356.06,32.67 -521.61,129.31 -165.51,-96.64 -345.62,-136.7 -521.53,-129.31 -369.73,15.56 -673.43,403.8 -440.93,891.85 80.95,169.88 211.19,314.62 354.79,435.21l7.47 6.23 0.26 0.23c163.23,133.81 350.68,244.87 547.91,321.1 7.96,3.03 52.07,19.65 52.07,19.16 217.65,-76.99 421.79,-193.91 599.95,-340.27l8.03 -6.71c143.59,-120.62 273.59,-265.11 354.53,-434.95 232.45,-488.05 -71.2,-876.29 -440.93,-891.85z"/>
 </g>
</svg>
