<?xml version="1.0" encoding="UTF-8"?>
<!DOCTYPE svg PUBLIC "-//W3C//DTD SVG 1.1//EN" "http://www.w3.org/Graphics/SVG/1.1/DTD/svg11.dtd">
<!-- Creator: CorelDRAW 2021.5 -->
<svg xmlns="http://www.w3.org/2000/svg" xml:space="preserve" width="415.142mm" height="415.142mm" version="1.1" style="shape-rendering:geometricPrecision; text-rendering:geometricPrecision; image-rendering:optimizeQuality; fill-rule:evenodd; clip-rule:evenodd"
viewBox="0 0 3582.66 3582.66"
 xmlns:xlink="http://www.w3.org/1999/xlink"
 xmlns:xodm="http://www.corel.com/coreldraw/odm/2003">
 <defs>
  <style type="text/css">
   <![CDATA[
    .fil0 {fill:url(#id0)}
   ]]>
  </style>
  <linearGradient id="id0" gradientUnits="userSpaceOnUse" x1="610.5" y1="1042.23" x2="3502.33" y2="2670.71">
   <stop offset="0" style="stop-opacity:1; stop-color:#67E6BC"/>
   <stop offset="1" style="stop-opacity:1; stop-color:#39A6A3"/>
  </linearGradient>
 </defs>
 <g id="Plan_x0020_1">
  <metadata id="CorelCorpID_0Corel-Layer"/>
  <path class="fil0" d="M1791.33 0c989.33,0 1791.33,802.01 1791.33,1791.33 0,989.33 -802.01,1791.33 -1791.33,1791.33 -989.33,0 -1791.33,-802.01 -1791.33,-1791.33 0,-989.33 802.01,-1791.33 1791.33,-1791.33zm-1092.06 916.49l867.85 867.85 -874.08 874.08c-188.48,-238.39 -301.01,-539.59 -301.01,-867.09 0,-331.07 115.05,-635.22 307.25,-874.84zm1099.05 1099.05l867.85 867.85c-239.61,192.2 -543.77,307.25 -874.84,307.25 -327.5,0 -628.69,-112.54 -867.09,-301.01l874.08 -874.08zm1097.44 635.04l-866.24 -866.24 860.1 -860.1c188.47,238.4 301.01,539.6 301.01,867.1 0,323.92 -110.09,622.12 -294.88,859.25zm-1097.44 -1097.44l-866.24 -866.24c237.13,-184.79 535.33,-294.88 859.25,-294.88 327.5,0 628.7,112.53 867.09,301.01l-860.1 860.1z"/>
 </g>
</svg>
