<?xml version="1.0" encoding="UTF-8"?>
<!DOCTYPE svg PUBLIC "-//W3C//DTD SVG 1.1//EN" "http://www.w3.org/Graphics/SVG/1.1/DTD/svg11.dtd">
<!-- Creator: CorelDRAW 2021.5 -->
<svg xmlns="http://www.w3.org/2000/svg" xml:space="preserve" width="290.03mm" height="290.03mm" version="1.1" style="shape-rendering:geometricPrecision; text-rendering:geometricPrecision; image-rendering:optimizeQuality; fill-rule:evenodd; clip-rule:evenodd"
viewBox="0 0 4831.55 4831.55"
 xmlns:xlink="http://www.w3.org/1999/xlink"
 xmlns:xodm="http://www.corel.com/coreldraw/odm/2003">
 <defs>
  <style type="text/css">
   <![CDATA[
    .str0 {stroke:#2B2A29;stroke-width:3.33;stroke-miterlimit:22.9256}
    .fil0 {fill:black}
   ]]>
  </style>
 </defs>
 <g id="Plan_x0020_1">
  <metadata id="CorelCorpID_0Corel-Layer"/>
  <path class="fil0 str0" d="M2415.77 1.67c1333.28,0 2414.11,1080.83 2414.11,2414.11 0,1333.28 -1080.83,2414.11 -2414.11,2414.11 -1333.28,0 -2414.11,-1080.83 -2414.11,-2414.11 0,-1333.28 1080.83,-2414.11 2414.11,-2414.11zm-1018.55 2148.5c-8.87,1.58 -17.58,2.99 -26.11,4.25 -8.53,1.26 -17.22,2.58 -26.06,3.97l-16.29 86.74 45.63 26.59 -5.24 27.9c-18.87,-11.17 -36.31,-21.6 -52.33,-31.28 -16.01,-9.68 -31.17,-19.06 -45.48,-28.13 -14.31,-9.07 -27.94,-17.97 -40.89,-26.7 -12.95,-8.72 -25.7,-17.7 -38.27,-26.92l4.62 -24.59c15.06,-4.04 30.2,-7.77 45.43,-11.2 15.23,-3.43 31.16,-6.78 47.79,-10.04 16.63,-3.26 34.16,-6.5 52.59,-9.71 18.43,-3.21 38.47,-6.6 60.11,-10.16l-5.5 29.28zm287.03 1201.66c4.69,-13.7 10.36,-29.07 17.03,-46.12 6.66,-17.06 14.17,-34.32 22.53,-51.78 -15.8,11.18 -31.52,21.52 -47.13,31.03 -15.61,9.51 -29.78,17.72 -42.48,24.65l-17.41 -14.68c5.86,-20.31 13.61,-42.58 23.25,-66.8 9.64,-24.23 20.92,-49.65 33.81,-76.28l21.48 18.12c-4.24,7.94 -8.69,16.7 -13.33,26.27 -4.64,9.57 -9.17,19.23 -13.6,28.98 -4.42,9.75 -8.5,19.31 -12.23,28.66 -3.72,9.36 -6.81,17.67 -9.25,24.92 8.11,-4.68 16.52,-9.78 25.23,-15.31 8.71,-5.53 17.37,-11.21 25.98,-17.07 8.61,-5.85 17,-11.65 25.15,-17.4 8.15,-5.75 15.67,-11.24 22.53,-16.48l16.55 13.96c-4.15,7.53 -8.4,15.77 -12.76,24.72 -4.36,8.95 -8.7,18.16 -13.01,27.63 -4.31,9.48 -8.46,18.97 -12.44,28.48 -3.98,9.51 -7.59,18.66 -10.83,27.45 6.74,-3.63 14.37,-8.1 22.89,-13.41 8.53,-5.31 17.26,-10.94 26.19,-16.89 8.94,-5.94 17.73,-12.01 26.38,-18.2 8.65,-6.19 16.53,-12.04 23.64,-17.56l20.63 17.4c-24.07,17.2 -47.23,32.6 -69.48,46.19 -22.25,13.59 -42.89,24.99 -61.92,34.18l-17.4 -14.68zm127.7 1.59c6.35,-11.26 13.53,-20.17 21.53,-26.74 8.01,-6.56 16.27,-11.1 24.78,-13.61 8.52,-2.51 17.07,-3.17 25.65,-1.99 8.58,1.18 16.55,3.85 23.89,7.99 17.14,9.67 27.26,22.42 30.37,38.27 3.11,15.85 -1.5,34.7 -13.84,56.57 -0.55,0.98 -1.26,2.25 -2.14,3.79 -0.88,1.55 -1.76,2.93 -2.66,4.15l-87.16 -49.16c-6.48,13.77 -8.3,25.97 -5.48,36.6 2.83,10.63 11.34,19.95 25.54,27.96 8,4.51 15.12,7.61 21.37,9.31 6.25,1.7 11.13,2.68 14.64,2.94l-7.59 20.89c-3.6,-0.1 -9.33,-1.29 -17.19,-3.57 -7.86,-2.28 -16.19,-5.91 -25.01,-10.88 -11.1,-6.26 -19.74,-13.34 -25.93,-21.24 -6.19,-7.9 -10.24,-16.26 -12.15,-25.09 -1.91,-8.82 -1.85,-17.99 0.18,-27.49 2.03,-9.51 5.75,-19.07 11.19,-28.7zm94.44 36.81c5.96,-10.19 8.16,-20.09 6.58,-29.69 -1.58,-9.6 -7.02,-17.03 -16.32,-22.27 -5.22,-2.95 -10.41,-4.53 -15.56,-4.74 -5.15,-0.21 -10.03,0.53 -14.65,2.23 -4.61,1.7 -8.89,4.23 -12.84,7.6 -3.95,3.37 -7.4,7.12 -10.38,11.25l63.16 35.63zm155.26 159.92c-11.18,-3.78 -20.39,-8.88 -27.62,-15.28 -7.23,-6.4 -12.65,-13.78 -16.26,-22.12 -3.61,-8.34 -5.35,-17.38 -5.21,-27.13 0.13,-9.75 2,-19.95 5.6,-30.59 3.6,-10.65 8.46,-19.89 14.57,-27.72 6.11,-7.82 13.1,-14.01 20.97,-18.57 7.87,-4.56 16.55,-7.26 26.03,-8.11 9.49,-0.84 19.29,0.44 29.4,3.86 6.21,2.1 12.25,4.74 18.1,7.9 5.85,3.17 11.23,6.87 16.13,11.09l-12.71 19.14c-3.13,-3.03 -6.95,-5.91 -11.47,-8.63 -4.52,-2.72 -9.53,-5 -15.03,-6.87 -13.85,-4.68 -25.92,-3.92 -36.23,2.29 -10.31,6.21 -18.28,17.65 -23.93,34.34 -2.52,7.45 -3.99,14.57 -4.4,21.36 -0.42,6.78 0.45,13.01 2.58,18.68 2.14,5.67 5.64,10.66 10.51,14.98 4.87,4.32 11.39,7.86 19.55,10.62 6.57,2.22 12.72,3.61 18.47,4.17 5.75,0.56 10.37,0.64 13.87,0.24l-3.56 21.94c-1.72,0.4 -4.05,0.56 -6.98,0.46 -2.93,-0.1 -6.19,-0.41 -9.77,-0.93 -3.58,-0.52 -7.36,-1.2 -11.32,-2.05 -3.97,-0.85 -7.72,-1.87 -11.27,-3.07zm87.15 19.36l34.76 -210.77 26.52 -0.18 -12.17 73.77c5.11,-1.06 10.48,-1.64 16.1,-1.76 5.62,-0.12 11.11,0.27 16.47,1.15 11.46,1.89 20.72,5.08 27.77,9.57 7.04,4.48 12.35,10.01 15.92,16.59 3.57,6.57 5.61,14.08 6.11,22.52 0.51,8.44 -0.05,17.56 -1.66,27.36l-13.36 80.98 -25.79 -4.25 12.44 -75.43c1.46,-8.87 2.11,-16.55 1.95,-23.04 -0.16,-6.48 -1.31,-11.9 -3.45,-16.24 -2.13,-4.34 -5.37,-7.77 -9.7,-10.29 -4.33,-2.52 -9.92,-4.34 -16.76,-5.47 -2.77,-0.46 -5.67,-0.75 -8.69,-0.86 -3.02,-0.12 -5.91,-0.17 -8.66,-0.15 -2.76,0.02 -5.25,0.13 -7.46,0.34 -2.22,0.2 -3.82,0.41 -4.81,0.63l-19.76 119.81 -25.79 -4.25zm231.04 6.69c6.18,0.33 11.66,0.48 16.44,0.45 4.79,-0.03 8.79,-0.33 12.01,-0.91l2.31 -43.5c-1.82,-1.04 -4.82,-1.99 -9,-2.87 -4.17,-0.88 -9.26,-1.48 -15.24,-1.8 -3.93,-0.21 -8.11,-0.15 -12.53,0.18 -4.43,0.33 -8.51,1.28 -12.26,2.87 -3.74,1.58 -6.91,3.85 -9.51,6.81 -2.6,2.96 -4.03,6.96 -4.3,12.02 -0.5,9.36 2.15,16.02 7.94,19.98 5.79,3.97 13.84,6.22 24.13,6.77zm4.71 -130.91c10.48,0.56 19.25,2.38 26.31,5.48 7.06,3.1 12.66,7.24 16.79,12.43 4.13,5.19 6.95,11.25 8.46,18.18 1.51,6.93 2.04,14.51 1.61,22.74l-4.85 91.22c-2.27,0.25 -5.43,0.6 -9.49,1.04 -4.06,0.44 -8.63,0.81 -13.71,1.1 -5.08,0.29 -10.58,0.52 -16.5,0.67 -5.92,0.15 -11.78,0.07 -17.58,-0.23 -8.23,-0.44 -15.77,-1.68 -22.6,-3.73 -6.84,-2.05 -12.68,-5.04 -17.54,-8.95 -4.86,-3.92 -8.53,-8.94 -11.02,-15.08 -2.49,-6.14 -3.51,-13.42 -3.06,-21.84 0.43,-8.05 2.43,-14.88 6.01,-20.51 3.58,-5.63 8.28,-10.07 14.08,-13.33 5.81,-3.26 12.49,-5.53 20.07,-6.81 7.58,-1.29 15.48,-1.71 23.71,-1.27 2.62,0.14 5.32,0.42 8.12,0.85 2.79,0.43 5.44,0.95 7.94,1.55 2.5,0.6 4.68,1.14 6.53,1.61 1.85,0.47 3.15,0.83 3.88,1.05l0.39 -7.29c0.23,-4.3 -0.01,-8.59 -0.72,-12.85 -0.71,-4.26 -2.2,-8.09 -4.45,-11.49 -2.26,-3.4 -5.44,-6.2 -9.55,-8.39 -4.11,-2.19 -9.53,-3.46 -16.26,-3.82 -8.61,-0.46 -16.17,-0.25 -22.69,0.62 -6.52,0.87 -11.4,1.88 -14.66,3.02l-1.94 -21.78c3.45,-1.32 9.14,-2.47 17.07,-3.46 7.93,-0.98 16.49,-1.23 25.66,-0.75zm88.9 9.4c5.64,-2.53 13.2,-5.49 22.69,-8.89 9.48,-3.4 20.59,-6.23 33.32,-8.49 11.44,-2.03 21.23,-2.11 29.37,-0.23 8.14,1.89 14.98,5.33 20.54,10.34 5.55,5.01 9.98,11.41 13.26,19.2 3.29,7.79 5.8,16.57 7.54,26.35l14.36 80.81 -25.73 4.57 -13.38 -75.27c-1.57,-8.85 -3.52,-16.31 -5.83,-22.37 -2.31,-6.06 -5.2,-10.78 -8.66,-14.16 -3.46,-3.38 -7.65,-5.54 -12.57,-6.47 -4.92,-0.93 -10.8,-0.79 -17.62,0.42 -2.77,0.49 -5.61,1.09 -8.53,1.8 -2.92,0.71 -5.69,1.44 -8.32,2.19 -2.62,0.75 -4.97,1.5 -7.02,2.25 -2.06,0.75 -3.53,1.29 -4.42,1.64l21.6 121.49 -25.73 4.57 -24.84 -139.75zm287.66 65.23c-1.65,2.14 -5.15,5.37 -10.52,9.67 -5.37,4.3 -12.13,7.83 -20.29,10.61 -8.34,2.84 -16.64,4.18 -24.91,4.02 -8.27,-0.16 -16.1,-2.09 -23.5,-5.81 -7.4,-3.72 -14.11,-9.2 -20.14,-16.45 -6.03,-7.25 -11.01,-16.64 -14.93,-28.17 -3.44,-10.11 -5.08,-19.89 -4.94,-29.34 0.15,-9.45 2.06,-18.22 5.75,-26.3 3.68,-8.08 9.11,-15.27 16.27,-21.56 7.16,-6.3 15.98,-11.22 26.44,-14.78 11.53,-3.92 21.89,-6.51 31.06,-7.75 9.18,-1.24 16.93,-2.15 23.27,-2.72l42 123.47c7.24,21.29 7,38.6 -0.74,51.92 -7.74,13.32 -22.79,23.78 -45.14,31.39 -8.7,2.96 -17.14,5.04 -25.34,6.25 -8.2,1.21 -15.47,1.8 -21.81,1.78l-2.81 -23.09c5.63,0.26 12.3,-0.07 19.99,-1.01 7.7,-0.94 15.45,-2.73 23.25,-5.39 14.72,-5.01 24.33,-11.54 28.81,-19.6 4.48,-8.06 4.56,-18.47 0.21,-31.25l-1.99 -5.86zm-35.21 -102.62c-2.73,0.13 -6.28,0.6 -10.66,1.4 -4.38,0.8 -10.12,2.4 -17.22,4.82 -13.3,4.53 -22.07,12.36 -26.3,23.5 -4.23,11.13 -3.9,23.89 0.99,38.26 2.72,7.98 6.06,14.47 10.03,19.45 3.97,4.98 8.32,8.75 13.05,11.3 4.73,2.55 9.66,3.94 14.78,4.17 5.13,0.23 10.09,-0.46 14.88,-2.09 6.56,-2.23 12.28,-5.21 17.14,-8.95 4.87,-3.73 8.47,-7.38 10.82,-10.96l-27.52 -80.89zm86.93 25.52c-5.97,-11.47 -9.51,-22.35 -10.64,-32.64 -1.13,-10.29 -0.42,-19.69 2.13,-28.19 2.55,-8.51 6.66,-16.03 12.34,-22.57 5.68,-6.55 12.26,-11.76 19.74,-15.65 17.46,-9.08 33.67,-10.59 48.64,-4.54 14.97,6.05 28.25,20.21 39.84,42.49 0.52,1 1.19,2.29 2.01,3.87 0.82,1.58 1.49,3.08 2.02,4.49l-88.78 46.16c8,12.95 17.23,21.14 27.67,24.58 10.45,3.44 22.9,1.4 37.37,-6.13 8.15,-4.24 14.64,-8.51 19.47,-12.82 4.83,-4.31 8.32,-7.86 10.46,-10.66l13.36 17.77c-2.05,2.97 -6.17,7.12 -12.37,12.45 -6.2,5.34 -13.79,10.34 -22.77,15.01 -11.3,5.88 -21.96,9.25 -31.96,10.12 -10,0.87 -19.22,-0.3 -27.65,-3.52 -8.43,-3.22 -16.08,-8.27 -22.93,-15.16 -6.86,-6.89 -12.83,-15.24 -17.93,-25.05zm82.41 -59.01c-5.28,-10.56 -12.37,-17.8 -21.28,-21.72 -8.91,-3.92 -18.09,-3.42 -27.57,1.51 -5.32,2.77 -9.48,6.25 -12.47,10.45 -2.99,4.19 -5.04,8.69 -6.13,13.48 -1.1,4.79 -1.31,9.77 -0.64,14.91 0.67,5.14 1.92,10.09 3.76,14.84l64.34 -33.46zm263.11 -75.85c-12.76,-6.84 -27.01,-14.93 -42.76,-24.27 -15.75,-9.34 -31.57,-19.54 -47.45,-30.62 8.47,17.41 16.14,34.59 22.99,51.53 6.85,16.95 12.67,32.25 17.45,45.92l-17.3 14.8c-19.1,-9.06 -39.82,-20.32 -62.16,-33.76 -22.34,-13.44 -45.61,-28.68 -69.79,-45.72l21.36 -18.27c7.15,5.48 15.07,11.28 23.76,17.41 8.69,6.13 17.49,12.16 26.4,18.11 8.91,5.95 17.67,11.51 26.31,16.71 8.63,5.19 16.33,9.58 23.09,13.16 -3.3,-8.76 -6.98,-17.89 -11.02,-27.37 -4.05,-9.49 -8.26,-18.95 -12.64,-28.4 -4.38,-9.44 -8.74,-18.66 -13.09,-27.64 -4.35,-8.98 -8.55,-17.28 -12.61,-24.91l16.45 -14.07c6.76,5.31 14.2,10.84 22.33,16.6 8.12,5.75 16.51,11.52 25.16,17.31 8.65,5.79 17.35,11.42 26.09,16.89 8.74,5.47 17.19,10.51 25.33,15.13 -2.49,-7.24 -5.67,-15.49 -9.53,-24.77 -3.86,-9.27 -8,-18.8 -12.42,-28.58 -4.42,-9.78 -8.98,-19.44 -13.69,-28.98 -4.7,-9.54 -9.21,-18.26 -13.5,-26.18l20.51 -17.54c13.08,26.54 24.52,51.89 34.33,76.05 9.81,24.16 17.71,46.37 23.71,66.64l-17.3 14.8zm105.02 -102.49l-18.23 18.74 -104.76 -101.92 18.23 -18.74 104.76 101.92zm-132.91 -110.87c-3.27,3.36 -7.15,5.13 -11.65,5.33 -4.5,0.2 -8.63,-1.54 -12.4,-5.2 -3.76,-3.66 -5.61,-7.74 -5.53,-12.25 0.07,-4.51 1.74,-8.44 5.01,-11.8 3.27,-3.36 7.15,-5.13 11.65,-5.33 4.5,-0.19 8.63,1.54 12.39,5.2 3.76,3.66 5.61,7.74 5.54,12.25 -0.07,4.51 -1.74,8.44 -5.01,11.8zm70.66 -46.25l32.36 -44.93 17.79 12.81 -32.36 44.93 54.74 39.42c5.93,4.27 11.16,7.35 15.7,9.23 4.53,1.88 8.56,2.7 12.08,2.47 3.52,-0.24 6.72,-1.39 9.6,-3.48 2.88,-2.08 5.64,-4.94 8.27,-8.59 4.6,-6.39 7.57,-12.04 8.92,-16.96 1.35,-4.92 2.26,-8.36 2.75,-10.32l20.52 8.54c-0.47,2.9 -1.82,7.58 -4.06,14.05 -2.24,6.47 -5.82,13.13 -10.75,19.97 -5.8,8.06 -11.62,13.97 -17.45,17.74 -5.83,3.77 -11.95,5.77 -18.35,6 -6.4,0.24 -13.08,-1.16 -20.01,-4.19 -6.94,-3.03 -14.36,-7.4 -22.26,-13.09l-105.83 -76.22 11.63 -23.84 36.72 26.45zm181.94 -4.87l-186.06 -104.94 8.92 -24.98 65.12 36.73c0.76,-5.17 2.05,-10.41 3.86,-15.73 1.82,-5.32 4.06,-10.35 6.73,-15.08 5.71,-10.12 11.88,-17.72 18.51,-22.8 6.63,-5.08 13.64,-8.17 21.04,-9.27 7.39,-1.1 15.14,-0.44 23.25,1.98 8.1,2.42 16.48,6.07 25.13,10.95l71.49 40.32 -12.84 22.77 -66.59 -37.56c-7.83,-4.42 -14.83,-7.66 -20.97,-9.73 -6.15,-2.07 -11.62,-2.85 -16.43,-2.33 -4.81,0.51 -9.14,2.38 -12.99,5.58 -3.85,3.2 -7.48,7.83 -10.89,13.87 -1.38,2.45 -2.65,5.07 -3.79,7.87 -1.14,2.8 -2.18,5.49 -3.11,8.09 -0.93,2.6 -1.68,4.97 -2.25,7.12 -0.57,2.15 -0.92,3.73 -1.05,4.73l105.76 59.65 -12.84 22.77zm-24.27 -294.62l18.35 -52.24 20.68 7.26 -18.34 52.25 63.65 22.35c6.89,2.42 12.78,3.89 17.66,4.42 4.88,0.52 8.97,0.17 12.28,-1.05 3.31,-1.22 6.05,-3.24 8.23,-6.05 2.18,-2.81 4.01,-6.34 5.5,-10.58 2.61,-7.42 3.86,-13.69 3.76,-18.79 -0.1,-5.1 -0.19,-8.65 -0.27,-10.67l22.1 2.4c0.37,2.91 0.39,7.78 0.08,14.63 -0.32,6.84 -1.87,14.23 -4.66,22.19 -3.29,9.37 -7.2,16.69 -11.73,21.95 -4.53,5.26 -9.83,8.91 -15.91,10.95 -6.08,2.04 -12.87,2.58 -20.38,1.63 -7.51,-0.95 -15.86,-3.04 -25.06,-6.27l-123.05 -43.21 4.41 -26.15 42.7 14.99zm167.64 -57.74l-210.14 -38.38 0.27 -26.52 73.55 13.43c-0.97,-5.13 -1.46,-10.51 -1.48,-16.13 -0.02,-5.62 0.46,-11.11 1.43,-16.45 2.09,-11.43 5.43,-20.63 10.04,-27.6 4.6,-6.97 10.23,-12.18 16.86,-15.64 6.63,-3.46 14.17,-5.37 22.62,-5.73 8.45,-0.36 17.56,0.35 27.33,2.13l80.74 14.75 -4.69 25.71 -75.21 -13.73c-8.85,-1.62 -16.52,-2.4 -23,-2.35 -6.49,0.05 -11.92,1.11 -16.3,3.17 -4.37,2.06 -7.86,5.23 -10.45,9.52 -2.59,4.29 -4.51,9.84 -5.76,16.66 -0.5,2.76 -0.84,5.65 -1.01,8.67 -0.17,3.02 -0.27,5.91 -0.3,8.66 -0.02,2.76 0.04,5.25 0.21,7.47 0.16,2.22 0.35,3.82 0.55,4.81l119.45 21.81 -4.7 25.71zm-48.38 -176.09c-12.91,-0.68 -24.09,-3.16 -33.53,-7.41 -9.44,-4.25 -17.17,-9.64 -23.21,-16.15 -6.03,-6.51 -10.43,-13.88 -13.18,-22.09 -2.75,-8.21 -3.91,-16.53 -3.46,-24.95 1.04,-19.65 7.97,-34.39 20.79,-44.21 12.81,-9.83 31.75,-14.08 56.83,-12.74 1.12,0.06 2.57,0.14 4.35,0.23 1.78,0.09 3.41,0.27 4.9,0.54l-5.31 99.92c15.22,-0.32 26.96,-4.1 35.22,-11.36 8.27,-7.25 12.83,-19.02 13.7,-35.3 0.49,-9.17 0.1,-16.93 -1.16,-23.28 -1.26,-6.35 -2.55,-11.16 -3.88,-14.42l22.09 -2.48c1.52,3.27 3,8.93 4.45,16.98 1.45,8.05 1.9,17.13 1.37,27.24 -0.68,12.72 -3.18,23.62 -7.51,32.67 -4.33,9.06 -10.02,16.4 -17.07,22.03 -7.05,5.63 -15.29,9.65 -24.71,12.06 -9.42,2.41 -19.65,3.32 -30.68,2.73zm-8.99 -100.96c-11.78,-0.81 -21.62,1.62 -29.52,7.3 -7.9,5.68 -12.13,13.85 -12.7,24.52 -0.32,5.99 0.57,11.33 2.67,16.04 2.1,4.71 4.93,8.75 8.5,12.13 3.57,3.38 7.75,6.09 12.52,8.12 4.77,2.04 9.67,3.47 14.69,4.3l3.85 -72.42zm-57.54 -59.99c-2.42,-5.69 -5.23,-13.26 -8.44,-22.71 -3.21,-9.45 -5.83,-20.56 -7.85,-33.33 -1.47,-9.25 -1.45,-17.22 0.05,-23.91 1.5,-6.69 4.32,-12.54 8.45,-17.56 -1.13,-1.15 -2.75,-2.98 -4.85,-5.49 -2.11,-2.51 -4.27,-5.68 -6.49,-9.5 -2.22,-3.82 -4.33,-8.13 -6.32,-12.94 -2,-4.81 -3.45,-10.08 -4.36,-15.81 -1.76,-11.1 -1.58,-20.43 0.54,-27.98 2.12,-7.54 5.83,-13.78 11.12,-18.7 5.29,-4.92 11.9,-8.72 19.82,-11.4 7.92,-2.68 16.7,-4.78 26.32,-6.31l81.06 -12.87 4.1 25.82 -75.51 11.98c-8.51,1.35 -15.76,2.93 -21.73,4.73 -5.97,1.8 -10.81,4.18 -14.52,7.14 -3.7,2.96 -6.21,6.58 -7.52,10.87 -1.31,4.29 -1.47,9.58 -0.47,15.87 1.38,8.7 3.67,15.69 6.88,20.96 3.21,5.28 5.9,8.79 8.07,10.53 4.58,-2.25 9.68,-4.19 15.29,-5.84 5.62,-1.65 11.57,-2.97 17.87,-3.97l81.06 -12.87 4.1 25.82 -75.51 11.98c-8.51,1.35 -15.75,2.98 -21.71,4.87 -5.96,1.9 -10.79,4.32 -14.5,7.28 -3.7,2.96 -6.21,6.59 -7.52,10.87 -1.31,4.28 -1.48,9.48 -0.51,15.59 0.41,2.59 0.94,5.35 1.6,8.28 0.65,2.93 1.33,5.72 2.04,8.36 0.7,2.64 1.42,5.04 2.14,7.2 0.72,2.16 1.24,3.6 1.54,4.31l121.87 -19.34 4.1 25.81 -140.19 22.25zm-995.74 -1649.09c-464.26,0 -522.61,2.18 -705.03,10.27 -182.43,8.57 -306.65,37.26 -415.52,79.61 -114.04,42.75 -217.74,110.49 -303.01,197.37 -86.88,85.35 -154.29,188.97 -197.29,303.01 -42.43,108.63 -71.29,233.1 -79.69,414.88 -8.08,182.83 -10.27,241.02 -10.27,705.93 0,464.5 2.1,522.61 10.27,705.04 8.57,182.18 37.18,306.41 79.53,415.28 43.81,112.51 102.24,207.88 197.37,303.01 94.97,95.13 190.34,153.73 302.85,197.37 109.03,42.35 233.1,71.21 415.28,79.53 182.66,8.16 240.86,10.35 705.52,10.35 464.66,0 522.62,-2.1 705.28,-10.27 182.02,-8.57 306.65,-37.18 415.52,-79.53 114.04,-43 217.5,-110.49 302.77,-197.54 95.13,-95.13 153.57,-190.5 197.37,-303.01 42.11,-108.87 70.96,-233.1 79.53,-415.28 8.16,-182.34 10.35,-240.53 10.35,-705.2 0,-464.66 -2.1,-522.86 -10.27,-705.52 -8.57,-182.02 -37.42,-306.41 -79.53,-415.12 -42.92,-114.04 -110.41,-217.58 -197.45,-302.93 -85.27,-87.13 -188.97,-154.7 -303.01,-197.45 -109.04,-42.35 -233.51,-71.21 -415.52,-79.53 -182.58,-8.08 -240.53,-10.27 -705.44,-10.27l0.65 0 -0.24 0zm-153.32 308.43l153.57 0c456.82,0 510.89,1.54 691.13,9.86 166.82,7.51 257.51,35.48 317.81,58.84 79.77,31.04 136.84,68.22 196.73,128.11 59.89,59.89 96.91,116.79 127.87,196.73 23.52,60.05 51.32,150.74 58.84,317.56 8.32,180.24 10.02,234.4 10.02,690.97 0,456.58 -1.7,510.89 -10.02,691.14 -7.52,166.82 -35.48,257.27 -58.84,317.56 -27.4,74.04 -71.29,141.36 -128.11,196.32 -59.89,59.89 -116.79,96.91 -196.73,127.86 -59.89,23.52 -150.58,51.32 -317.56,59 -180.24,8.16 -234.39,10.02 -691.13,10.02 -456.74,0 -511.14,-1.94 -691.38,-10.02 -166.82,-7.68 -257.27,-35.48 -317.56,-59 -74.2,-27.32 -141.53,-71.13 -196.65,-127.86 -57.06,-55.04 -100.95,-122.45 -128.35,-196.73 -23.28,-60.05 -51.33,-150.74 -58.84,-317.56 -8.16,-180.24 -9.86,-234.39 -9.86,-691.38 0,-456.82 1.7,-510.65 9.86,-690.97 7.68,-166.82 35.48,-257.51 59,-317.8 31.04,-79.77 68.22,-136.84 128.11,-196.73 59.89,-59.89 116.79,-96.91 196.73,-127.87 60.29,-23.52 150.74,-51.32 317.56,-59 157.85,-7.27 218.96,-9.37 537.81,-9.62l0 0.4 0 0.16zm1066.65 283.94c-113.4,0 -205.3,91.9 -205.3,205.3 0,113.4 91.9,205.29 205.3,205.29 113.4,0 205.29,-91.9 205.29,-205.29 0,-113.4 -91.9,-205.3 -205.29,-205.3zm-913.08 239.97c-4.36,-0.08 -9.13,-0.16 -13.66,-0.16 -485.19,0 -878.73,393.54 -878.73,878.65 0,485.19 393.54,878.73 878.73,878.73 4.53,0 9.3,-0.08 13.66,-0.08 479.78,-7.43 864.99,-398.79 864.99,-878.65 0,-479.78 -385.21,-871.14 -864.99,-878.57l0 0.08zm0 308.19c314.89,0 570.3,255.41 570.3,570.3 0,314.81 -255.41,570.22 -570.3,570.22 -314.81,0 -570.22,-255.41 -570.22,-570.22 0,-314.9 255.41,-570.3 570.22,-570.3zm-159.27 627.1c6.19,0 11.66,-0.14 16.44,-0.42 4.78,-0.28 8.76,-0.79 11.94,-1.55l0 -43.56c-1.87,-0.94 -4.92,-1.73 -9.13,-2.39 -4.22,-0.65 -9.32,-0.98 -15.32,-0.98 -3.94,0 -8.11,0.28 -12.51,0.84 -4.4,0.56 -8.43,1.73 -12.09,3.51 -3.65,1.78 -6.7,4.21 -9.14,7.31 -2.44,3.09 -3.65,7.17 -3.65,12.23 0,9.37 3,15.88 8.99,19.53 6,3.65 14.15,5.48 24.45,5.48zm-2.25 -130.98c10.49,0 19.35,1.36 26.56,4.08 7.21,2.72 13.02,6.56 17.43,11.52 4.4,4.97 7.54,10.87 9.42,17.71 1.87,6.84 2.81,14.38 2.81,22.63l0 91.35c-2.25,0.37 -5.39,0.89 -9.42,1.55 -4.03,0.66 -8.57,1.26 -13.63,1.83 -5.06,0.56 -10.54,1.08 -16.44,1.55 -5.9,0.47 -11.76,0.7 -17.57,0.7 -8.24,0 -15.83,-0.84 -22.77,-2.53 -6.93,-1.69 -12.93,-4.36 -17.99,-8.01 -5.06,-3.65 -8.99,-8.48 -11.8,-14.47 -2.81,-6 -4.22,-13.21 -4.22,-21.64 0,-8.06 1.64,-14.99 4.92,-20.8 3.28,-5.81 7.73,-10.5 13.35,-14.06 5.62,-3.56 12.18,-6.18 19.68,-7.87 7.5,-1.69 15.36,-2.53 23.61,-2.53 2.62,0 5.34,0.14 8.15,0.42 2.81,0.28 5.48,0.65 8.01,1.12 2.53,0.47 4.73,0.89 6.61,1.26 1.88,0.38 3.19,0.66 3.93,0.84l0 -7.31c0,-4.31 -0.47,-8.57 -1.4,-12.79 -0.94,-4.22 -2.63,-7.96 -5.06,-11.24 -2.43,-3.28 -5.76,-5.9 -9.98,-7.87 -4.21,-1.97 -9.7,-2.95 -16.44,-2.95 -8.62,0 -16.16,0.61 -22.63,1.82 -6.47,1.22 -11.29,2.48 -14.47,3.8l-3.09 -21.64c3.37,-1.5 8.99,-2.95 16.86,-4.36 7.87,-1.41 16.4,-2.11 25.58,-2.11zm88.98 7.87c6,-1.5 13.96,-3.09 23.89,-4.78 9.93,-1.69 21.36,-2.53 34.29,-2.53 11.62,0 21.27,1.64 28.95,4.92 7.68,3.28 13.82,7.87 18.41,13.77 4.59,5.9 7.82,12.98 9.7,21.22 1.87,8.25 2.81,17.33 2.81,27.27l0 82.07 -26.14 0 0 -76.45c0,-8.99 -0.61,-16.68 -1.83,-23.05 -1.22,-6.37 -3.23,-11.52 -6.04,-15.46 -2.81,-3.93 -6.56,-6.79 -11.24,-8.57 -4.68,-1.78 -10.49,-2.67 -17.43,-2.67 -2.81,0 -5.71,0.09 -8.71,0.28 -3,0.19 -5.86,0.42 -8.57,0.7 -2.72,0.28 -5.15,0.61 -7.31,0.98 -2.16,0.37 -3.7,0.66 -4.64,0.84l0 123.39 -26.14 0 0 -141.94zm245.26 26.7c-3.19,-2.63 -7.77,-5.15 -13.77,-7.59 -6,-2.44 -12.56,-3.65 -19.68,-3.65 -7.49,0 -13.91,1.36 -19.25,4.08 -5.34,2.72 -9.7,6.47 -13.07,11.24 -3.37,4.78 -5.81,10.45 -7.31,17.01 -1.5,6.56 -2.25,13.59 -2.25,21.08 0,17.05 4.22,30.22 12.65,39.49 8.43,9.28 19.68,13.91 33.73,13.91 7.12,0 13.07,-0.33 17.85,-0.98 4.78,-0.66 8.48,-1.36 11.1,-2.11l0 -92.47zm0 -98.38l26.14 -4.5 0 213.9c-6,1.69 -13.68,3.37 -23.05,5.06 -9.37,1.69 -20.14,2.53 -32.32,2.53 -11.24,0 -21.36,-1.78 -30.36,-5.34 -8.99,-3.56 -16.68,-8.62 -23.05,-15.18 -6.37,-6.56 -11.29,-14.57 -14.76,-24.03 -3.47,-9.46 -5.2,-20.1 -5.2,-31.9 0,-11.24 1.45,-21.55 4.35,-30.92 2.91,-9.37 7.17,-17.43 12.79,-24.17 5.62,-6.75 12.51,-11.99 20.66,-15.74 8.15,-3.75 17.48,-5.62 27.97,-5.62 8.43,0 15.88,1.12 22.34,3.37 6.47,2.25 11.29,4.4 14.47,6.47l0 -73.92zm-1267.22 -115.82c-17.13,2.88 -33.74,5.82 -49.84,8.8 -16.1,2.98 -31.64,6.31 -46.63,9.98 12.6,9.04 25.86,17.87 39.78,26.49 13.92,8.62 28.35,17.29 43.3,26.01l13.38 -71.27zm106.71 -94.27c-5.67,15.09 -12.72,24.73 -21.14,28.93 -8.42,4.2 -19.17,4.02 -32.26,-0.56l-165.56 -57.89 4.38 -26.16 165.83 57.99c4.07,1.42 7.55,2.24 10.45,2.46 2.9,0.22 5.43,-0.19 7.57,-1.22 2.15,-1.03 4.08,-2.74 5.81,-5.11 1.73,-2.38 3.53,-5.42 5.42,-9.12l19.49 10.69zm24.19 -61.43c-6.55,14.73 -14.15,23.94 -22.8,27.64 -8.65,3.7 -19.38,2.88 -32.17,-2.46l-161.86 -67.54 5.92 -25.86 162.12 67.65c3.98,1.66 7.41,2.69 10.29,3.08 2.88,0.39 5.43,0.13 7.63,-0.78 2.21,-0.91 4.24,-2.49 6.1,-4.76 1.86,-2.27 3.84,-5.2 5.95,-8.79l18.83 11.82zm-79.9 -175.07l27.9 -47.83 18.94 11.04 -27.9 47.83 58.27 33.99c6.31,3.68 11.82,6.24 16.51,7.68 4.69,1.43 8.78,1.87 12.26,1.29 3.48,-0.57 6.55,-2.03 9.22,-4.38 2.67,-2.35 5.14,-5.46 7.4,-9.35 3.96,-6.8 6.38,-12.71 7.25,-17.73 0.87,-5.02 1.45,-8.53 1.75,-10.53l21.24 6.53c-0.19,2.93 -1.08,7.72 -2.69,14.37 -1.6,6.66 -4.53,13.63 -8.78,20.91 -5,8.58 -10.23,15.03 -15.67,19.33 -5.44,4.31 -11.34,6.89 -17.69,7.74 -6.35,0.85 -13.13,0.1 -20.32,-2.25 -7.2,-2.35 -15,-5.99 -23.42,-10.9l-112.66 -65.7 9.29 -24.85 39.09 22.8zm166.55 6.83l-174.77 -122.84 11.35 -23.97 61.17 42.99c1.27,-5.06 3.07,-10.15 5.4,-15.27 2.34,-5.11 5.07,-9.9 8.19,-14.34 6.68,-9.51 13.57,-16.46 20.67,-20.86 7.1,-4.4 14.38,-6.78 21.85,-7.14 7.47,-0.36 15.12,1.06 22.94,4.27 7.82,3.21 15.8,7.67 23.92,13.38l67.14 47.19 -15.03 21.38 -62.55 -43.96c-7.36,-5.17 -14,-9.09 -19.91,-11.76 -5.91,-2.67 -11.29,-3.98 -16.12,-3.95 -4.84,0.04 -9.33,1.46 -13.48,4.27 -4.15,2.81 -8.22,7.05 -12.21,12.72 -1.62,2.3 -3.14,4.78 -4.55,7.45 -1.42,2.67 -2.72,5.25 -3.89,7.74 -1.18,2.49 -2.16,4.78 -2.94,6.87 -0.78,2.09 -1.29,3.62 -1.52,4.6l99.34 69.82 -15.03 21.39zm109.51 -137.6l-17.61 19.31 -107.99 -98.49 17.61 -19.31 107.99 98.49zm-136.42 -106.53c-3.16,3.46 -6.98,5.36 -11.48,5.7 -4.49,0.34 -8.68,-1.26 -12.56,-4.79 -3.88,-3.53 -5.85,-7.56 -5.93,-12.06 -0.08,-4.51 1.47,-8.49 4.62,-11.95 3.16,-3.46 6.98,-5.36 11.48,-5.7 4.49,-0.34 8.68,1.26 12.55,4.79 3.88,3.53 5.86,7.55 5.93,12.06 0.08,4.51 -1.47,8.49 -4.62,11.95zm64.67 -24.54c3.46,-5.12 8.31,-11.63 14.56,-19.53 6.26,-7.89 14.19,-16.17 23.8,-24.81 8.64,-7.77 16.91,-13.01 24.81,-15.71 7.9,-2.7 15.54,-3.39 22.9,-2.07 7.36,1.32 14.49,4.41 21.4,9.29 6.91,4.88 13.68,11.01 20.33,18.39l54.89 61.01 -19.43 17.48 -51.13 -56.83c-6.02,-6.69 -11.61,-11.99 -16.77,-15.91 -5.17,-3.92 -10.11,-6.41 -14.83,-7.45 -4.72,-1.04 -9.42,-0.66 -14.09,1.15 -4.67,1.81 -9.59,5.03 -14.74,9.67 -2.09,1.88 -4.19,3.89 -6.29,6.03 -2.1,2.15 -4.07,4.23 -5.9,6.26 -1.83,2.03 -3.42,3.9 -4.77,5.62 -1.35,1.72 -2.31,2.96 -2.88,3.73l82.53 91.73 -19.43 17.48 -94.94 -105.52zm277.14 -56.17c-1.05,2.49 -3.63,6.5 -7.73,12.01 -4.1,5.52 -9.75,10.65 -16.95,15.4 -7.35,4.85 -15.04,8.25 -23.08,10.19 -8.04,1.94 -16.11,2.05 -24.21,0.33 -8.1,-1.72 -15.98,-5.33 -23.65,-10.82 -7.67,-5.49 -14.86,-13.32 -21.57,-23.48 -5.89,-8.91 -9.95,-17.96 -12.2,-27.14 -2.25,-9.18 -2.61,-18.15 -1.09,-26.9 1.52,-8.75 4.95,-17.08 10.28,-24.98 5.33,-7.9 12.61,-14.9 21.84,-21 10.16,-6.71 19.53,-11.83 28.09,-15.35 8.56,-3.52 15.84,-6.36 21.82,-8.52l71.88 108.83c12.39,18.76 16.53,35.57 12.41,50.41 -4.12,14.85 -16.03,28.78 -35.73,41.79 -7.66,5.06 -15.31,9.21 -22.94,12.45 -7.63,3.24 -14.51,5.66 -20.65,7.24l-8.56 -21.63c5.51,-1.17 11.88,-3.19 19.09,-6.04 7.21,-2.85 14.25,-6.55 21.13,-11.1 12.98,-8.57 20.62,-17.32 22.91,-26.25 2.3,-8.93 -0.27,-19.02 -7.7,-30.28l-3.41 -5.16zm-60.03 -90.38c-2.6,0.82 -5.92,2.17 -9.96,4.05 -4.04,1.88 -9.18,4.89 -15.44,9.02 -11.73,7.75 -18.23,17.54 -19.5,29.38 -1.27,11.84 2.28,24.1 10.64,36.76 4.65,7.04 9.52,12.46 14.63,16.28 5.1,3.82 10.26,6.36 15.48,7.63 5.22,1.27 10.34,1.37 15.36,0.3 5.02,-1.07 9.64,-3 13.86,-5.79 5.79,-3.82 10.56,-8.15 14.32,-13 3.76,-4.84 6.33,-9.29 7.7,-13.34l-47.09 -71.3zm141.96 40.19c9.49,-4.91 15.87,-9.8 19.15,-14.66 3.29,-4.86 3.51,-10.04 0.66,-15.53 -2.93,-5.66 -7.5,-8.99 -13.72,-9.99 -6.22,-1 -15.56,-0.91 -28.03,0.27 -6.03,0.59 -11.87,1.03 -17.52,1.31 -5.65,0.29 -10.88,-0.12 -15.67,-1.22 -4.79,-1.11 -9.22,-3.14 -13.29,-6.1 -4.06,-2.96 -7.6,-7.35 -10.62,-13.18 -5.94,-11.48 -6.42,-22.79 -1.42,-33.92 5,-11.13 14.82,-20.49 29.46,-28.07 3.66,-1.89 7.43,-3.58 11.31,-5.06 3.88,-1.48 7.55,-2.75 11.01,-3.8 3.46,-1.05 6.57,-1.87 9.33,-2.46 2.76,-0.58 4.93,-0.97 6.52,-1.16l6.09 22.17c-3.19,-0.04 -7.8,0.61 -13.86,1.95 -6.06,1.34 -12.83,3.95 -20.32,7.83 -6.49,3.36 -11.48,7.58 -14.97,12.66 -3.49,5.08 -3.82,10.36 -0.97,15.85 1.47,2.83 3.3,5.05 5.5,6.65 2.2,1.6 4.88,2.7 8.03,3.28 3.15,0.58 6.78,0.76 10.88,0.54 4.1,-0.22 8.92,-0.71 14.44,-1.46 7.36,-0.86 14.04,-1.41 20.03,-1.66 5.99,-0.25 11.46,0.24 16.43,1.47 4.96,1.23 9.46,3.49 13.48,6.79 4.03,3.3 7.63,8.02 10.82,14.18 6.2,11.98 6.45,23.36 0.73,34.12 -5.72,10.76 -16.81,20.41 -33.29,28.94 -11.48,5.95 -20.96,9.64 -28.44,11.08 -7.48,1.45 -12.64,2.27 -15.49,2.48l-6.1 -22.17c3.18,-0.38 8.2,-1.08 15.06,-2.1 6.86,-1.02 15.11,-4.03 24.76,-9.02zm204.92 -53.89c-11.38,3.15 -21.85,4.1 -31.43,2.87 -9.58,-1.24 -18.2,-4.3 -25.87,-9.17 -7.67,-4.88 -14.18,-11.39 -19.55,-19.52 -5.37,-8.14 -9.55,-17.63 -12.54,-28.46 -3,-10.83 -4.17,-21.21 -3.51,-31.11 0.66,-9.9 2.97,-18.95 6.93,-27.14 3.95,-8.19 9.62,-15.3 16.99,-21.32 7.37,-6.03 16.21,-10.47 26.5,-13.31 6.32,-1.75 12.79,-2.96 19.41,-3.62 6.62,-0.67 13.15,-0.63 19.57,0.12l0.23 22.97c-4.29,-0.75 -9.07,-0.99 -14.34,-0.7 -5.27,0.29 -10.7,1.21 -16.3,2.76 -14.09,3.9 -23.65,11.31 -28.7,22.23 -5.04,10.92 -5.22,24.87 -0.52,41.85 2.1,7.58 4.88,14.3 8.34,20.15 3.47,5.85 7.68,10.51 12.63,14 4.95,3.49 10.66,5.66 17.11,6.49 6.45,0.84 13.83,0.11 22.14,-2.19 6.68,-1.85 12.56,-4.16 17.62,-6.92 5.07,-2.76 8.94,-5.29 11.61,-7.59l9.37 20.16c-1.19,1.3 -3.03,2.74 -5.52,4.3 -2.48,1.56 -5.35,3.13 -8.61,4.71 -3.26,1.58 -6.76,3.14 -10.52,4.66 -3.76,1.53 -7.44,2.79 -11.05,3.79zm53.95 -17.57l-34.21 -210.86 25.08 -8.63 11.97 73.8c4.51,-2.63 9.41,-4.9 14.7,-6.8 5.29,-1.9 10.62,-3.29 15.98,-4.16 11.47,-1.86 21.26,-1.79 29.37,0.22 8.11,2.01 14.9,5.55 20.38,10.65 5.48,5.09 9.8,11.56 12.97,19.39 3.17,7.84 5.55,16.66 7.14,26.46l13.14 81.02 -25.8 4.19 -12.25 -75.47c-1.44,-8.88 -3.27,-16.36 -5.49,-22.46 -2.22,-6.09 -5.04,-10.86 -8.44,-14.29 -3.41,-3.43 -7.56,-5.65 -12.47,-6.66 -4.91,-1.01 -10.79,-0.96 -17.63,0.15 -2.77,0.45 -5.61,1.1 -8.51,1.95 -2.9,0.85 -5.65,1.72 -8.26,2.62 -2.61,0.9 -4.93,1.8 -6.97,2.7 -2.04,0.9 -3.49,1.61 -4.35,2.13l19.45 119.86 -25.8 4.19zm197.83 -40.45c6.18,-0.04 11.66,-0.22 16.44,-0.53 4.78,-0.31 8.75,-0.86 11.94,-1.63l-0.3 -43.57c-1.88,-0.92 -4.93,-1.7 -9.15,-2.33 -4.22,-0.63 -9.33,-0.92 -15.33,-0.88 -3.93,0.03 -8.1,0.33 -12.5,0.93 -4.4,0.59 -8.42,1.79 -12.06,3.59 -3.64,1.8 -6.67,4.26 -9.09,7.37 -2.41,3.11 -3.6,7.19 -3.57,12.25 0.06,9.37 3.11,15.86 9.13,19.47 6.02,3.61 14.18,5.39 24.49,5.32zm-3.14 -130.96c10.49,-0.07 19.36,1.23 26.59,3.9 7.23,2.67 13.07,6.47 17.51,11.4 4.44,4.94 7.62,10.82 9.54,17.64 1.92,6.83 2.91,14.36 2.96,22.61l0.62 91.35c-2.25,0.39 -5.38,0.93 -9.4,1.61 -4.02,0.68 -8.56,1.32 -13.62,1.92 -5.06,0.6 -10.53,1.15 -16.43,1.66 -5.9,0.51 -11.75,0.78 -17.56,0.82 -8.24,0.06 -15.84,-0.73 -22.78,-2.37 -6.95,-1.64 -12.96,-4.27 -18.04,-7.89 -5.08,-3.62 -9.05,-8.42 -11.9,-14.39 -2.85,-5.98 -4.31,-13.18 -4.36,-21.61 -0.05,-8.06 1.54,-15 4.78,-20.83 3.24,-5.83 7.66,-10.55 13.26,-14.15 5.6,-3.6 12.14,-6.26 19.62,-8 7.48,-1.74 15.35,-2.64 23.59,-2.69 2.62,-0.02 5.34,0.1 8.16,0.36 2.81,0.26 5.48,0.62 8.02,1.07 2.53,0.45 4.74,0.86 6.61,1.22 1.88,0.36 3.19,0.63 3.94,0.82l-0.05 -7.31c-0.03,-4.31 -0.53,-8.57 -1.49,-12.78 -0.97,-4.21 -2.68,-7.94 -5.14,-11.21 -2.46,-3.27 -5.8,-5.86 -10.03,-7.8 -4.23,-1.94 -9.72,-2.89 -16.46,-2.84 -8.62,0.06 -16.16,0.72 -22.61,1.98 -6.46,1.26 -11.27,2.56 -14.45,3.89l-3.24 -21.62c3.36,-1.52 8.97,-3.01 16.83,-4.47 7.86,-1.46 16.38,-2.22 25.56,-2.28zm110.8 8.02c6.15,-0.61 14.26,-1.04 24.33,-1.27 10.07,-0.23 21.5,0.59 34.3,2.46 11.5,1.68 20.81,4.7 27.93,9.05 7.13,4.35 12.54,9.79 16.23,16.29 3.69,6.51 5.87,13.97 6.53,22.4 0.66,8.43 0.27,17.56 -1.16,27.39l-11.87 81.21 -25.86 -3.78 11.05 -75.65c1.3,-8.9 1.81,-16.59 1.53,-23.07 -0.28,-6.48 -1.53,-11.87 -3.74,-16.17 -2.21,-4.3 -5.51,-7.67 -9.89,-10.11 -4.38,-2.44 -10,-4.16 -16.86,-5.16 -2.78,-0.4 -5.67,-0.73 -8.66,-0.98 -2.99,-0.25 -5.85,-0.43 -8.58,-0.54 -2.73,-0.11 -5.19,-0.14 -7.37,-0.08 -2.19,0.06 -3.76,0.11 -4.71,0.16l-17.84 122.1 -25.86 -3.78 20.52 -140.45zm221.29 173.07c-2.59,0.78 -7.32,1.34 -14.18,1.69 -6.87,0.35 -14.42,-0.73 -22.66,-3.25 -8.42,-2.58 -15.94,-6.34 -22.56,-11.3 -6.62,-4.96 -11.84,-11.11 -15.67,-18.46 -3.83,-7.34 -6.07,-15.72 -6.72,-25.13 -0.65,-9.41 0.81,-19.94 4.36,-31.58 3.12,-10.21 7.51,-19.11 13.16,-26.69 5.65,-7.58 12.33,-13.57 20.04,-17.97 7.71,-4.4 16.32,-7.06 25.81,-7.98 9.49,-0.92 19.52,0.23 30.1,3.47 11.65,3.56 21.56,7.52 29.73,11.88 8.17,4.36 14.99,8.16 20.47,11.4l-38.12 124.72c-6.57,21.5 -16.9,35.4 -30.96,41.68 -14.07,6.28 -32.39,5.97 -54.97,-0.93 -8.78,-2.69 -16.85,-5.94 -24.21,-9.75 -7.36,-3.81 -13.6,-7.59 -18.73,-11.31l11.22 -20.38c4.41,3.51 10.02,7.13 16.81,10.87 6.79,3.74 14.13,6.82 22.01,9.23 14.87,4.55 26.48,4.86 34.83,0.95 8.35,-3.91 14.5,-12.32 18.44,-25.22l1.81 -5.91zm31.45 -103.84c-2.29,-1.48 -5.45,-3.18 -9.46,-5.1 -4.02,-1.91 -9.62,-3.96 -16.78,-6.16 -13.44,-4.11 -25.13,-2.88 -35.07,3.68 -9.94,6.56 -17.13,17.1 -21.57,31.62 -2.47,8.06 -3.54,15.28 -3.24,21.64 0.31,6.36 1.63,11.96 3.98,16.79 2.34,4.83 5.53,8.84 9.55,12.03 4.02,3.19 8.45,5.52 13.29,7 6.63,2.03 13.01,2.95 19.14,2.76 6.13,-0.18 11.19,-1.04 15.19,-2.56l24.98 -81.71zm41.01 66.04c4.8,-12.01 10.72,-21.8 17.78,-29.37 7.06,-7.57 14.64,-13.17 22.75,-16.79 8.11,-3.62 16.49,-5.42 25.16,-5.39 8.66,0.03 16.91,1.61 24.74,4.74 18.27,7.3 30,18.59 35.2,33.88 5.19,15.29 3.13,34.6 -6.18,57.91 -0.42,1.04 -0.95,2.39 -1.62,4.05 -0.66,1.65 -1.36,3.14 -2.09,4.46l-92.92 -37.11c-4.59,14.51 -4.77,26.85 -0.55,37.01 4.21,10.16 13.89,18.26 29.03,24.31 8.53,3.41 16,5.53 22.42,6.38 6.42,0.85 11.39,1.17 14.9,0.96l-4.74 21.72c-3.58,0.38 -9.42,-0.03 -17.51,-1.25 -8.09,-1.21 -16.84,-3.69 -26.23,-7.45 -11.83,-4.73 -21.34,-10.59 -28.53,-17.6 -7.19,-7.01 -12.32,-14.76 -15.39,-23.24 -3.06,-8.49 -4.23,-17.58 -3.49,-27.27 0.74,-9.69 3.17,-19.67 7.27,-29.94zm98.51 23.91c4.55,-10.89 5.41,-20.99 2.57,-30.3 -2.84,-9.31 -9.22,-15.94 -19.14,-19.9 -5.57,-2.23 -10.92,-3.1 -16.05,-2.63 -5.13,0.47 -9.87,1.86 -14.22,4.16 -4.35,2.3 -8.25,5.38 -11.71,9.25 -3.46,3.86 -6.39,8.04 -8.79,12.53l67.35 26.9z"/>
 </g>
</svg>
