<?xml version="1.0" encoding="UTF-8"?>
<!DOCTYPE svg PUBLIC "-//W3C//DTD SVG 1.1//EN" "http://www.w3.org/Graphics/SVG/1.1/DTD/svg11.dtd">
<!-- Creator: CorelDRAW 2021.5 -->
<svg xmlns="http://www.w3.org/2000/svg" xml:space="preserve" width="59.4383mm" height="52.1809mm" version="1.1" style="shape-rendering:geometricPrecision; text-rendering:geometricPrecision; image-rendering:optimizeQuality; fill-rule:evenodd; clip-rule:evenodd"
viewBox="0 0 51.19 44.94"
 xmlns:xlink="http://www.w3.org/1999/xlink"
 xmlns:xodm="http://www.corel.com/coreldraw/odm/2003">
 <defs>
  <style type="text/css">
   <![CDATA[
    .fil0 {fill:#FEFEFE}
   ]]>
  </style>
 </defs>
 <g id="Plan_x0020_1">
  <metadata id="CorelCorpID_0Corel-Layer"/>
  <path class="fil0" d="M51.19 9.5l0 16.7c0,1.16 -0.37,2.34 -0.71,3.19 -0.41,1 -0.81,1.61 -1.44,2.46 -0.57,0.77 -1.23,1.32 -2,1.9 -2.86,2.16 -5.86,2.06 -9.74,2.06l-16.6 -0.01c-0.55,0 -0.47,-0.06 -0.78,0.22 -1.61,1.49 -8.2,8.47 -8.91,8.79 -1.03,0.46 -2.2,-0.21 -2.2,-1.4l0 -7.8c-1.5,0 -3.6,-1.06 -4.77,-1.93 -0.51,-0.38 -0.76,-0.66 -1.2,-1.1 -1.6,-1.6 -2.82,-3.99 -2.82,-6.27l0 -16.7c0,-4.92 4.74,-9.6 9.8,-9.6l31.69 0c4.8,0 9.7,4.65 9.7,9.5zm-20.59 1.27c-1.69,-0.07 -3.42,0.31 -5.01,1.24 -1.59,-0.93 -3.32,-1.31 -5.01,-1.24 -3.55,0.15 -6.46,3.87 -4.23,8.56 0.78,1.63 2.03,3.02 3.4,4.18l0.07 0.06 0 0c1.57,1.28 3.37,2.35 5.26,3.08 0.08,0.03 0.5,0.19 0.5,0.18 2.09,-0.74 4.05,-1.86 5.76,-3.27l0.08 -0.06c1.38,-1.16 2.63,-2.54 3.4,-4.17 2.23,-4.68 -0.68,-8.41 -4.23,-8.56z"/>
 </g>
</svg>
