<?xml version="1.0" encoding="UTF-8"?>
<!DOCTYPE svg PUBLIC "-//W3C//DTD SVG 1.1//EN" "http://www.w3.org/Graphics/SVG/1.1/DTD/svg11.dtd">
<!-- Creator: CorelDRAW 2021.5 -->
<svg xmlns="http://www.w3.org/2000/svg" xml:space="preserve" width="59.4382mm" height="52.181mm" version="1.1" style="shape-rendering:geometricPrecision; text-rendering:geometricPrecision; image-rendering:optimizeQuality; fill-rule:evenodd; clip-rule:evenodd"
viewBox="0 0 50.31 44.17"
 xmlns:xlink="http://www.w3.org/1999/xlink"
 xmlns:xodm="http://www.corel.com/coreldraw/odm/2003">
 <defs>
  <style type="text/css">
   <![CDATA[
    .fil0 {fill:#FEFEFE}
   ]]>
  </style>
 </defs>
 <g id="Plan_x0020_1">
  <metadata id="CorelCorpID_0Corel-Layer"/>
  <path class="fil0" d="M50.31 9.33l0 16.41c0,1.14 -0.36,2.3 -0.7,3.13 -0.4,0.98 -0.8,1.58 -1.42,2.41 -0.56,0.76 -1.21,1.3 -1.97,1.87 -2.81,2.13 -5.76,2.02 -9.57,2.02l-16.32 -0.01c-0.54,0 -0.46,-0.06 -0.76,0.22 -1.58,1.46 -8.06,8.33 -8.76,8.63 -1.01,0.45 -2.16,-0.21 -2.16,-1.38l0 -7.66c-1.48,0 -3.54,-1.04 -4.69,-1.89 -0.5,-0.37 -0.75,-0.65 -1.18,-1.08 -1.57,-1.57 -2.78,-3.92 -2.78,-6.17l0 -16.41c0,-4.83 4.66,-9.43 9.63,-9.43l31.15 0c4.72,0 9.53,4.57 9.53,9.33zm-8.35 8.88c-0.51,0 -0.89,0.15 -1.11,0.45 -0.23,0.3 -0.34,0.69 -0.34,1.17l0 2.59c0,0.49 -0.06,0.93 -0.19,1.31 -0.13,0.38 -0.33,0.71 -0.63,0.97 -0.29,0.26 -0.68,0.46 -1.17,0.6 -0.49,0.14 -1.09,0.21 -1.81,0.21l-0.34 0 0 -2.04 0.43 0c0.51,0 0.86,-0.11 1.04,-0.34 0.18,-0.23 0.27,-0.58 0.27,-1.06l0 -2.28c0,-0.59 0.08,-1.1 0.24,-1.51 0.16,-0.41 0.48,-0.77 0.96,-1.06 -0.48,-0.3 -0.8,-0.65 -0.96,-1.06 -0.16,-0.41 -0.24,-0.91 -0.24,-1.51l0 -2.28c0,-0.48 -0.09,-0.83 -0.27,-1.06 -0.18,-0.23 -0.52,-0.34 -1.04,-0.34l-0.43 0 0 -2.04 0.34 0c0.72,0 1.32,0.07 1.81,0.21 0.49,0.14 0.87,0.34 1.17,0.6 0.29,0.26 0.5,0.59 0.63,0.97 0.13,0.38 0.19,0.82 0.19,1.31l0 2.59c0,0.48 0.11,0.87 0.34,1.17 0.23,0.3 0.6,0.45 1.11,0.45l0 2.02zm-22.93 3.62l1.98 0c0.38,0 0.53,-0.31 0.33,-0.69l-2.07 -3.95 2.07 -3.95c0.2,-0.38 0.05,-0.69 -0.33,-0.69l-1.98 0c-0.38,0 -0.86,0.31 -1.06,0.69l-1.18 2.26 -0.89 1.7 0.89 1.7 1.18 2.26c0.2,0.38 0.68,0.69 1.06,0.69zm8.21 -13.47l1.91 0c0.37,0 0.55,0.36 0.4,0.79l-4.37 12.68c-0.15,0.43 -0.57,0.79 -0.94,0.79l-1.91 0c-0.37,0 -0.55,-0.36 -0.4,-0.79l4.37 -12.68c0.15,-0.43 0.57,-0.79 0.94,-0.79zm4.05 13.47l-1.98 0c-0.38,0 -0.53,-0.31 -0.33,-0.69l2.07 -3.95 0 -0 -2.07 -3.95c-0.2,-0.38 -0.05,-0.69 0.33,-0.69l1.98 0c0.38,0 0.86,0.31 1.06,0.69l1.18 2.26 0.89 1.7 -0.89 1.7 -1.18 2.26c-0.2,0.38 -0.68,0.69 -1.06,0.69zm-22.93 -5.64c0.51,0 0.89,-0.15 1.11,-0.45 0.23,-0.3 0.34,-0.69 0.34,-1.17l0 -2.59c0,-0.49 0.06,-0.93 0.19,-1.31 0.13,-0.38 0.33,-0.71 0.63,-0.97 0.29,-0.26 0.68,-0.46 1.17,-0.6 0.49,-0.14 1.09,-0.21 1.81,-0.21l0.34 0 0 2.04 -0.43 0c-0.51,0 -0.86,0.11 -1.04,0.34 -0.18,0.23 -0.27,0.58 -0.27,1.06l0 2.28c0,0.59 -0.08,1.1 -0.24,1.51 -0.16,0.41 -0.48,0.77 -0.96,1.06 0.48,0.3 0.8,0.65 0.96,1.06 0.16,0.41 0.24,0.91 0.24,1.51l0 2.28c0,0.48 0.09,0.83 0.27,1.06 0.18,0.23 0.52,0.34 1.04,0.34l0.43 0 0 2.04 -0.34 0c-0.72,0 -1.32,-0.07 -1.81,-0.21 -0.49,-0.14 -0.87,-0.34 -1.17,-0.6 -0.29,-0.26 -0.5,-0.59 -0.63,-0.97 -0.13,-0.38 -0.19,-0.82 -0.19,-1.31l0 -2.59c0,-0.48 -0.11,-0.87 -0.34,-1.17 -0.23,-0.3 -0.6,-0.45 -1.11,-0.45l0 -2.02z"/>
 </g>
</svg>
