<?xml version="1.0" encoding="UTF-8"?>
<!DOCTYPE svg PUBLIC "-//W3C//DTD SVG 1.1//EN" "http://www.w3.org/Graphics/SVG/1.1/DTD/svg11.dtd">
<!-- Creator: CorelDRAW 2021.5 -->
<svg xmlns="http://www.w3.org/2000/svg" xml:space="preserve" width="59.4382mm" height="52.181mm" version="1.1" style="shape-rendering:geometricPrecision; text-rendering:geometricPrecision; image-rendering:optimizeQuality; fill-rule:evenodd; clip-rule:evenodd"
viewBox="0 0 49.03 43.04"
 xmlns:xlink="http://www.w3.org/1999/xlink"
 xmlns:xodm="http://www.corel.com/coreldraw/odm/2003">
 <defs>
  <style type="text/css">
   <![CDATA[
    .fil0 {fill:#FEFEFE}
   ]]>
  </style>
 </defs>
 <g id="Plan_x0020_1">
  <metadata id="CorelCorpID_0Corel-Layer"/>
  <path class="fil0" d="M49.03 9.1l0 15.99c0,1.11 -0.35,2.24 -0.68,3.05 -0.39,0.96 -0.78,1.54 -1.38,2.35 -0.55,0.74 -1.18,1.26 -1.92,1.82 -2.74,2.07 -5.62,1.97 -9.33,1.97l-15.9 -0.01c-0.53,0 -0.45,-0.06 -0.74,0.21 -1.54,1.42 -7.86,8.11 -8.54,8.41 -0.99,0.44 -2.11,-0.2 -2.11,-1.34l0 -7.47c-1.44,0 -3.45,-1.01 -4.57,-1.85 -0.49,-0.36 -0.73,-0.63 -1.15,-1.05 -1.53,-1.53 -2.71,-3.82 -2.71,-6.01l0 -15.99c0,-4.71 4.54,-9.19 9.38,-9.19l30.35 0c4.6,0 9.29,4.45 9.29,9.1zm-40.89 6.68c0.5,0 0.86,-0.14 1.09,-0.43 0.22,-0.29 0.33,-0.67 0.33,-1.14l0 -2.52c0,-0.48 0.06,-0.9 0.18,-1.28 0.12,-0.37 0.33,-0.69 0.61,-0.94 0.28,-0.26 0.66,-0.45 1.14,-0.58 0.47,-0.13 1.06,-0.2 1.76,-0.2l0.33 0 0 1.99 -0.42 0c-0.5,0 -0.84,0.11 -1.01,0.33 -0.17,0.22 -0.26,0.57 -0.26,1.04l0 2.22c0,0.58 -0.08,1.07 -0.23,1.47 -0.16,0.4 -0.47,0.75 -0.94,1.04 0.47,0.29 0.78,0.63 0.94,1.04 0.16,0.4 0.23,0.89 0.23,1.47l0 2.22c0,0.47 0.09,0.81 0.26,1.04 0.17,0.22 0.51,0.33 1.01,0.33l0.42 0 0 1.99 -0.33 0c-0.7,0 -1.29,-0.07 -1.76,-0.2 -0.47,-0.13 -0.85,-0.33 -1.14,-0.58 -0.28,-0.26 -0.49,-0.57 -0.61,-0.94 -0.12,-0.37 -0.18,-0.8 -0.18,-1.28l0 -2.52c0,-0.47 -0.11,-0.85 -0.33,-1.14 -0.22,-0.29 -0.58,-0.43 -1.09,-0.43l0 -1.97zm19.73 -4.49l-2.34 0c-0.45,0 -0.62,0.37 -0.39,0.82l2.45 4.66 -2.45 4.66c-0.24,0.45 -0.06,0.82 0.39,0.82l2.34 0c0.45,0 1.01,-0.37 1.25,-0.82l1.4 -2.66 1.05 -2 -1.05 -2 -1.4 -2.66c-0.24,-0.45 -0.8,-0.82 -1.25,-0.82zm-9.83 5.73l5.58 0c0.32,0 0.57,0.26 0.57,0.57l0 1.52c0,0.32 -0.26,0.57 -0.57,0.57l-5.58 0c-0.32,0 -0.57,-0.26 -0.57,-0.57l0 -1.52c0,-0.32 0.26,-0.57 0.57,-0.57zm0 -3.4l5.58 0c0.32,0 0.57,0.26 0.57,0.57l0 1.52c0,0.32 -0.26,0.57 -0.57,0.57l-5.58 0c-0.32,0 -0.57,-0.26 -0.57,-0.57l0 -1.52c0,-0.32 0.26,-0.57 0.57,-0.57zm22.85 4.14c-0.5,0 -0.86,0.14 -1.09,0.43 -0.22,0.29 -0.33,0.67 -0.33,1.14l0 2.52c0,0.48 -0.06,0.9 -0.18,1.28 -0.12,0.37 -0.33,0.69 -0.61,0.94 -0.28,0.26 -0.66,0.45 -1.14,0.58 -0.47,0.13 -1.06,0.2 -1.76,0.2l-0.33 0 0 -1.99 0.42 0c0.5,0 0.84,-0.11 1.01,-0.33 0.17,-0.22 0.26,-0.57 0.26,-1.04l0 -2.22c0,-0.58 0.08,-1.07 0.23,-1.47 0.16,-0.4 0.47,-0.75 0.94,-1.04 -0.47,-0.29 -0.78,-0.63 -0.94,-1.04 -0.16,-0.4 -0.23,-0.89 -0.23,-1.47l0 -2.22c0,-0.47 -0.09,-0.81 -0.26,-1.04 -0.17,-0.22 -0.51,-0.33 -1.01,-0.33l-0.42 0 0 -1.99 0.33 0c0.7,0 1.29,0.07 1.76,0.2 0.47,0.13 0.85,0.33 1.14,0.58 0.28,0.26 0.49,0.57 0.61,0.94 0.12,0.37 0.18,0.8 0.18,1.28l0 2.52c0,0.47 0.11,0.85 0.33,1.14 0.22,0.29 0.58,0.43 1.09,0.43l0 1.97z"/>
 </g>
</svg>
