<?xml version="1.0" encoding="UTF-8"?>
<!DOCTYPE svg PUBLIC "-//W3C//DTD SVG 1.1//EN" "http://www.w3.org/Graphics/SVG/1.1/DTD/svg11.dtd">
<!-- Creator: CorelDRAW 2021.5 -->
<svg xmlns="http://www.w3.org/2000/svg" xml:space="preserve" width="59.4382mm" height="52.181mm" version="1.1" style="shape-rendering:geometricPrecision; text-rendering:geometricPrecision; image-rendering:optimizeQuality; fill-rule:evenodd; clip-rule:evenodd"
viewBox="0 0 51.46 45.17"
 xmlns:xlink="http://www.w3.org/1999/xlink"
 xmlns:xodm="http://www.corel.com/coreldraw/odm/2003">
 <defs>
  <style type="text/css">
   <![CDATA[
    .fil0 {fill:#FEFEFE}
   ]]>
  </style>
 </defs>
 <g id="Plan_x0020_1">
  <metadata id="CorelCorpID_0Corel-Layer"/>
  <path class="fil0" d="M51.46 9.55l0 16.78c0,1.16 -0.37,2.36 -0.72,3.2 -0.41,1.01 -0.82,1.62 -1.45,2.47 -0.58,0.77 -1.24,1.33 -2.01,1.91 -2.87,2.17 -5.89,2.07 -9.79,2.07l-16.69 -0.01c-0.56,0 -0.47,-0.06 -0.78,0.22 -1.61,1.49 -8.24,8.52 -8.96,8.83 -1.04,0.46 -2.21,-0.21 -2.21,-1.41l0 -7.84c-1.51,0 -3.62,-1.06 -4.8,-1.94 -0.51,-0.38 -0.77,-0.66 -1.21,-1.1 -1.61,-1.61 -2.84,-4.01 -2.84,-6.31l0 -16.78c0,-4.94 4.76,-9.65 9.85,-9.65l31.86 0c4.82,0 9.75,4.67 9.75,9.55zm-8.54 9.08c-0.53,0 -0.91,0.15 -1.14,0.46 -0.23,0.3 -0.35,0.7 -0.35,1.19l0 2.65c0,0.5 -0.06,0.95 -0.19,1.34 -0.13,0.39 -0.34,0.72 -0.64,0.99 -0.3,0.27 -0.7,0.47 -1.19,0.61 -0.5,0.14 -1.11,0.21 -1.85,0.21l-0.35 0 0 -2.09 0.44 0c0.53,0 0.88,-0.12 1.06,-0.35 0.18,-0.23 0.27,-0.6 0.27,-1.09l0 -2.33c0,-0.61 0.08,-1.12 0.25,-1.54 0.16,-0.42 0.49,-0.78 0.98,-1.09 -0.49,-0.3 -0.82,-0.67 -0.98,-1.09 -0.16,-0.42 -0.25,-0.93 -0.25,-1.54l0 -2.33c0,-0.49 -0.09,-0.85 -0.27,-1.09 -0.18,-0.23 -0.53,-0.35 -1.06,-0.35l-0.44 0 0 -2.09 0.35 0c0.74,0 1.35,0.07 1.85,0.21 0.5,0.14 0.89,0.34 1.19,0.61 0.3,0.27 0.51,0.6 0.64,0.99 0.13,0.39 0.19,0.84 0.19,1.34l0 2.65c0,0.49 0.12,0.89 0.35,1.19 0.23,0.3 0.61,0.46 1.14,0.46l0 2.07zm-34.37 -2.07c0.53,0 0.91,-0.15 1.14,-0.46 0.23,-0.3 0.35,-0.7 0.35,-1.19l0 -2.65c0,-0.5 0.06,-0.95 0.19,-1.34 0.13,-0.39 0.34,-0.72 0.64,-0.99 0.3,-0.27 0.7,-0.47 1.19,-0.61 0.5,-0.14 1.11,-0.21 1.85,-0.21l0.35 0 0 2.09 -0.44 0c-0.53,0 -0.88,0.12 -1.06,0.35 -0.18,0.23 -0.27,0.6 -0.27,1.09l0 2.33c0,0.61 -0.08,1.12 -0.25,1.54 -0.16,0.42 -0.49,0.78 -0.98,1.09 0.49,0.3 0.82,0.67 0.98,1.09 0.16,0.42 0.25,0.94 0.25,1.54l0 2.33c0,0.49 0.09,0.85 0.27,1.09 0.18,0.23 0.53,0.35 1.06,0.35l0.44 0 0 2.09 -0.35 0c-0.74,0 -1.35,-0.07 -1.85,-0.21 -0.5,-0.14 -0.89,-0.34 -1.19,-0.61 -0.3,-0.27 -0.51,-0.6 -0.64,-0.99 -0.13,-0.39 -0.19,-0.84 -0.19,-1.34l0 -2.65c0,-0.49 -0.12,-0.89 -0.35,-1.19 -0.23,-0.3 -0.61,-0.46 -1.14,-0.46l0 -2.07zm22.22 -5.74c-1.7,-0.07 -3.43,0.31 -5.03,1.25 -1.6,-0.93 -3.33,-1.32 -5.03,-1.25 -3.57,0.15 -6.5,3.89 -4.25,8.6 0.78,1.64 2.04,3.03 3.42,4.2l0.07 0.06 0 0c1.57,1.29 3.38,2.36 5.29,3.1 0.08,0.03 0.5,0.19 0.5,0.18 2.1,-0.74 4.07,-1.87 5.79,-3.28l0.08 -0.06c1.38,-1.16 2.64,-2.56 3.42,-4.2 2.24,-4.71 -0.69,-8.45 -4.25,-8.6z"/>
 </g>
</svg>
