<?xml version="1.0" encoding="UTF-8"?>
<!DOCTYPE svg PUBLIC "-//W3C//DTD SVG 1.1//EN" "http://www.w3.org/Graphics/SVG/1.1/DTD/svg11.dtd">
<!-- Creator: CorelDRAW 2021.5 -->
<svg xmlns="http://www.w3.org/2000/svg" xml:space="preserve" width="62.3749mm" height="55.3578mm" version="1.1" style="shape-rendering:geometricPrecision; text-rendering:geometricPrecision; image-rendering:optimizeQuality; fill-rule:evenodd; clip-rule:evenodd"
viewBox="0 0 54.48 48.35"
 xmlns:xlink="http://www.w3.org/1999/xlink"
 xmlns:xodm="http://www.corel.com/coreldraw/odm/2003">
 <defs>
  <style type="text/css">
   <![CDATA[
    .fil0 {fill:#FEFEFE}
    .fil1 {fill:url(#id2);fill-opacity:0.501961}
   ]]>
  </style>
   <mask id="id0">
  <linearGradient id="id1" gradientUnits="userSpaceOnUse" x1="-131.72" y1="-71.01" x2="-132.84" y2="-71.85">
   <stop offset="0" style="stop-opacity:1; stop-color:white"/>
   <stop offset="1" style="stop-opacity:0; stop-color:white"/>
  </linearGradient>
    <rect style="fill:url(#id1)" x="-0.09" y="-0.09" width="54.65" height="48.52"/>
   </mask>
  <linearGradient id="id2" gradientUnits="userSpaceOnUse" x1="27.24" y1="46.21" x2="27.24" y2="2.13">
   <stop offset="0" style="stop-opacity:1; stop-color:#FF5F6D"/>
   <stop offset="1" style="stop-opacity:1; stop-color:#FFC371"/>
  </linearGradient>
 </defs>
 <g id="Plan_x0020_1">
  <metadata id="CorelCorpID_0Corel-Layer"/>
  <path class="fil0" style="mask:url(#id0)" d="M8.63 38.81c-1.4,-0.43 -2.8,-1.19 -3.82,-1.95 -0.54,-0.4 -0.94,-0.81 -1.42,-1.28 -1.97,-1.97 -3.4,-4.85 -3.4,-7.66l0 -16.38c0,-6.09 5.69,-11.55 11.74,-11.55l31.09 0c5.89,0 11.64,5.51 11.64,11.45l0 16.38c0,1.33 -0.36,2.7 -0.86,3.93 -0.45,1.11 -0.97,1.93 -1.68,2.88 -0.69,0.92 -1.48,1.6 -2.38,2.29 -3.37,2.55 -6.83,2.45 -10.84,2.45l-15.97 -0.01c-0.51,0.49 -1,1 -1.49,1.5 -0.92,0.94 -1.84,1.88 -2.77,2.82 -0.87,0.89 -1.75,1.77 -2.64,2.64 -0.53,0.52 -1.39,1.4 -2.06,1.69 -2.44,1.08 -5.15,-0.64 -5.15,-3.33l0 -5.88zm43.71 -27.37l0 16.38c0,1.14 -0.36,2.3 -0.7,3.13 -0.4,0.98 -0.8,1.58 -1.42,2.41 -0.56,0.76 -1.21,1.29 -1.96,1.86 -2.8,2.12 -5.75,2.02 -9.56,2.02l-16.29 -0.01c-0.54,0 -0.46,-0.06 -0.76,0.22 -1.57,1.46 -8.05,8.31 -8.74,8.62 -1.01,0.45 -2.16,-0.21 -2.16,-1.38l0 -7.65c-1.47,0 -3.53,-1.04 -4.68,-1.89 -0.5,-0.37 -0.75,-0.65 -1.18,-1.08 -1.57,-1.57 -2.77,-3.92 -2.77,-6.15l0 -16.38c0,-4.82 4.65,-9.41 9.61,-9.41l31.09 0c4.71,0 9.51,4.56 9.51,9.32zm-20.2 1.24c-1.66,-0.07 -3.35,0.31 -4.91,1.22 -1.56,-0.91 -3.25,-1.29 -4.91,-1.22 -3.48,0.15 -6.34,3.8 -4.15,8.39 0.76,1.6 1.99,2.96 3.34,4.1l0.07 0.06 0 0c1.54,1.26 3.3,2.3 5.16,3.02 0.08,0.03 0.49,0.18 0.49,0.18 2.05,-0.72 3.97,-1.83 5.65,-3.2l0.08 -0.06c1.35,-1.14 2.57,-2.5 3.34,-4.09 2.19,-4.59 -0.67,-8.25 -4.15,-8.39zm-9.21 10.9c1.29,1.05 2.75,1.94 4.3,2.57 1.55,-0.63 3,-1.5 4.29,-2.56l0.08 -0.06c1.11,-0.92 2.15,-2.06 2.77,-3.37 0.58,-1.21 0.84,-2.66 0.13,-3.88 -0.51,-0.88 -1.43,-1.43 -2.45,-1.47 -1.32,-0.06 -2.6,0.26 -3.75,0.93l-1.07 0.63 -1.07 -0.63c-1.14,-0.67 -2.42,-0.98 -3.75,-0.93 -1.01,0.04 -1.94,0.59 -2.45,1.47 -0.71,1.21 -0.44,2.67 0.13,3.88 0.63,1.32 1.67,2.45 2.78,3.38l0.06 0.05z"/>
  <path class="fil1" d="M52.34 11.45l0 16.38c0,1.14 -0.36,2.3 -0.7,3.13 -0.4,0.98 -0.8,1.58 -1.42,2.41 -0.56,0.76 -1.21,1.29 -1.96,1.86 -2.8,2.12 -5.75,2.02 -9.56,2.02l-16.29 -0.01c-0.54,0 -0.46,-0.06 -0.76,0.22 -1.57,1.46 -8.05,8.31 -8.74,8.62 -1.01,0.45 -2.16,-0.21 -2.16,-1.38l0 -7.65c-1.47,0 -3.53,-1.04 -4.68,-1.89 -0.5,-0.37 -0.75,-0.65 -1.18,-1.08 -1.57,-1.57 -2.77,-3.92 -2.77,-6.15l0 -16.38c0,-4.82 4.65,-9.41 9.61,-9.41l31.09 0c4.71,0 9.51,4.56 9.51,9.32zm-20.2 1.24c-1.66,-0.07 -3.35,0.31 -4.91,1.22 -1.56,-0.91 -3.25,-1.29 -4.91,-1.22 -3.48,0.15 -6.34,3.8 -4.15,8.39 0.76,1.6 1.99,2.96 3.34,4.1l0.07 0.06 0 0c1.54,1.26 3.3,2.3 5.16,3.02 0.07,0.03 0.49,0.18 0.49,0.18 2.05,-0.72 3.97,-1.83 5.65,-3.2l0.08 -0.06c1.35,-1.14 2.57,-2.5 3.34,-4.09 2.19,-4.59 -0.67,-8.25 -4.15,-8.39z"/>
 </g>
</svg>
