<?xml version="1.0" encoding="UTF-8"?>
<!DOCTYPE svg PUBLIC "-//W3C//DTD SVG 1.1//EN" "http://www.w3.org/Graphics/SVG/1.1/DTD/svg11.dtd">
<!-- Creator: CorelDRAW 2021.5 -->
<svg xmlns="http://www.w3.org/2000/svg" xml:space="preserve" width="205.195mm" height="205.195mm" version="1.1" style="shape-rendering:geometricPrecision; text-rendering:geometricPrecision; image-rendering:optimizeQuality; fill-rule:evenodd; clip-rule:evenodd"
viewBox="0 0 1457.04 1457.04"
 xmlns:xlink="http://www.w3.org/1999/xlink"
 xmlns:xodm="http://www.corel.com/coreldraw/odm/2003">
 <defs>
  <style type="text/css">
   <![CDATA[
    .fil0 {fill:#A554A1}
   ]]>
  </style>
 </defs>
 <g id="Plan_x0020_1">
  <metadata id="CorelCorpID_0Corel-Layer"/>
  <path class="fil0" d="M728.52 0c402.35,0 728.52,326.17 728.52,728.52 0,402.35 -326.17,728.52 -728.52,728.52 -402.35,0 -728.52,-326.17 -728.52,-728.52 0,-402.35 326.17,-728.52 728.52,-728.52zm450.89 234.62l-450.89 450.89 -450.89 -450.89c118.91,-108.61 277.16,-174.87 450.89,-174.87 173.74,0 331.99,66.26 450.89,174.87zm-493.9 493.9l-450.89 450.89c-108.61,-118.91 -174.87,-277.16 -174.87,-450.89 0,-173.74 66.26,-331.99 174.87,-450.89l450.89 450.89zm-407.88 493.9l450.89 -450.89 450.89 450.89c-118.9,108.61 -277.16,174.87 -450.89,174.87 -173.74,0 -331.99,-66.26 -450.89,-174.87zm493.9 -493.9l450.89 -450.89c108.61,118.9 174.87,277.16 174.87,450.89 0,173.74 -66.26,331.99 -174.87,450.89l-450.89 -450.89z"/>
 </g>
</svg>
