<?xml version="1.0" encoding="utf-8"?>
<!-- Generator: Adobe Illustrator 23.0.3, SVG Export Plug-In . SVG Version: 6.00 Build 0)  -->
<svg version="1.1" id="Layer_1" xmlns="http://www.w3.org/2000/svg" xmlns:xlink="http://www.w3.org/1999/xlink" x="0px" y="0px"
	 viewBox="0 0 24 24" style="enable-background:new 0 0 24 24;" xml:space="preserve">
<style type="text/css">
	.st0{fill:url(#SVGID_1_);}
	.st1{fill:url(#SVGID_2_);}
	.st2{fill:url(#SVGID_3_);}
	.st3{fill:url(#SVGID_4_);}
	.st4{fill:url(#SVGID_5_);}
	.st5{fill:url(#SVGID_6_);}
	.st6{fill:url(#SVGID_7_);}
	.st7{fill:url(#SVGID_8_);}
	.st8{fill:url(#SVGID_9_);}
	.st9{fill:url(#SVGID_10_);}
	.st10{fill:url(#SVGID_11_);}
	.st11{fill:url(#SVGID_12_);}
	.st12{fill:url(#SVGID_13_);}
	.st13{fill:url(#SVGID_14_);}
	.st14{fill:url(#SVGID_15_);}
	.st15{fill:url(#SVGID_16_);}
	.st16{fill:url(#SVGID_17_);}
	.st17{fill:url(#SVGID_18_);}
	.st18{fill:url(#SVGID_19_);}
	.st19{fill:url(#SVGID_20_);}
	.st20{fill:url(#SVGID_21_);}
	.st21{fill:url(#SVGID_22_);}
	.st22{fill:url(#SVGID_23_);}
	.st23{fill:url(#SVGID_24_);}
	.st24{fill:url(#SVGID_25_);}
</style>
<linearGradient id="SVGID_1_" gradientUnits="userSpaceOnUse" x1="1.3862" y1="7.757" x2="23.292" y2="20.4043">
	<stop  offset="0" style="stop-color:#2183BF"/>
	<stop  offset="1" style="stop-color:#19086D"/>
</linearGradient>
<path class="st0" d="M22.7,9.1c0,0,0-0.1,0-0.1c0-0.1-0.1-0.2-0.2-0.3l-3.1-2.2V4.1c0-0.3-0.3-0.6-0.6-0.6h-3.6L12,1.4
	c-0.2-0.1-0.4-0.1-0.6,0L8.3,3.6H4.7c-0.3,0-0.6,0.3-0.6,0.6v2.3L0.9,8.6C0.8,8.8,0.7,8.9,0.7,9.1c0,0,0,0,0,0l0,12.2
	c0,0.1,0.1,0.3,0.2,0.4c0.1,0.1,0.2,0.2,0.4,0.2c0,0,0,0,0,0l20.9,0c0.3,0,0.6-0.3,0.6-0.6L22.7,9.1z M19.3,7.9l1.8,1.3l-1.8,1.3
	V7.9z M11.7,2.6l1.4,1h-2.9L11.7,2.6z M5.2,4.7h12.9v6.4l-4.3,3L12,12.8c0,0,0,0,0,0c-0.2-0.1-0.5-0.2-0.7,0l-1.8,1.4l-4.3-3V4.7z
	 M4.1,7.8v2.6L2.2,9.1L4.1,7.8z M1.8,10.2l6.8,4.7l-6.8,5.3L1.8,10.2z M2.9,20.8l8.8-6.8l8.7,6.8L2.9,20.8z M14.7,14.9l6.8-4.7l0,10
	L14.7,14.9z M15.5,7H7.9C7.6,7,7.3,7.2,7.3,7.5c0,0.3,0.3,0.6,0.6,0.6h7.6c0.3,0,0.6-0.3,0.6-0.6C16.1,7.2,15.8,7,15.5,7z M15.5,9.9
	H7.9c-0.3,0-0.6,0.3-0.6,0.6S7.6,11,7.9,11h7.6c0.3,0,0.6-0.3,0.6-0.6S15.8,9.9,15.5,9.9z"/>
</svg>
