<?xml version="1.0" encoding="utf-8"?>
<!-- Generator: Adobe Illustrator 23.0.3, SVG Export Plug-In . SVG Version: 6.00 Build 0)  -->
<svg version="1.1" id="Layer_1" xmlns="http://www.w3.org/2000/svg" xmlns:xlink="http://www.w3.org/1999/xlink" x="0px" y="0px"
	 viewBox="0 0 24 24" style="enable-background:new 0 0 24 24;" xml:space="preserve">
<style type="text/css">
	.st0{fill:url(#SVGID_1_);}
	.st1{fill:url(#SVGID_2_);}
	.st2{fill:url(#SVGID_3_);}
	.st3{fill:url(#SVGID_4_);}
	.st4{fill:url(#SVGID_5_);}
	.st5{fill:url(#SVGID_6_);}
	.st6{fill:url(#SVGID_7_);}
	.st7{fill:url(#SVGID_8_);}
	.st8{fill:url(#SVGID_9_);}
	.st9{fill:url(#SVGID_10_);}
	.st10{fill:url(#SVGID_11_);}
	.st11{fill:url(#SVGID_12_);}
	.st12{fill:url(#SVGID_13_);}
	.st13{fill:url(#SVGID_14_);}
	.st14{fill:url(#SVGID_15_);}
	.st15{fill:url(#SVGID_16_);}
	.st16{fill:url(#SVGID_17_);}
	.st17{fill:url(#SVGID_18_);}
	.st18{fill:url(#SVGID_19_);}
	.st19{fill:url(#SVGID_20_);}
	.st20{fill:url(#SVGID_21_);}
	.st21{fill:url(#SVGID_22_);}
	.st22{fill:url(#SVGID_23_);}
	.st23{fill:url(#SVGID_24_);}
	.st24{fill:url(#SVGID_25_);}
</style>
<linearGradient id="SVGID_1_" gradientUnits="userSpaceOnUse" x1="5.9331" y1="8.9515" x2="23.2848" y2="18.9695">
	<stop  offset="0" style="stop-color:#2183BF"/>
	<stop  offset="1" style="stop-color:#19086D"/>
</linearGradient>
<path class="st0" d="M23,1.7c-0.1-0.1-0.3-0.1-0.4,0l-7.9,4.7c-0.2,0.1-0.3,0.4-0.2,0.6c0.1,0.2,0.4,0.3,0.6,0.2l5.6-3.3L10.3,14.6
	L5.1,13l6.8-4c0.2-0.1,0.3-0.4,0.2-0.6c-0.1-0.2-0.4-0.3-0.6-0.2l-7.7,4.5c-0.1,0.1-0.2,0.3-0.2,0.4s0.1,0.3,0.3,0.4l6.3,1.9l2.8,5
	c0,0,0,0,0,0c0,0.1,0.1,0.1,0.2,0.2c0.1,0,0.1,0,0.2,0c0.1,0,0.2,0,0.3-0.1l3.2-3.1l6,1.8c0,0,0.1,0,0.1,0c0.1,0,0.2,0,0.3-0.1
	c0.1-0.1,0.2-0.2,0.2-0.3V2C23.2,1.9,23.2,1.7,23,1.7z M12.9,15.7c0,0.1-0.1,0.2-0.1,0.2v2.6l-1.9-3.4l8.3-8.6L12.9,15.7z
	 M13.7,19.3v-2.7l2.1,0.6L13.7,19.3z M22.4,18.3l-8.4-2.6l8.4-12.2V18.3z M8.3,16.5c-0.2-0.2-0.4-0.2-0.6,0l-4,4
	c-0.2,0.2-0.2,0.4,0,0.6c0.1,0.1,0.2,0.1,0.3,0.1c0.1,0,0.2,0,0.3-0.1l4-4C8.5,17,8.5,16.7,8.3,16.5z M3,21.9
	c-0.2-0.2-0.4-0.2-0.6,0l-1,1c-0.2,0.2-0.2,0.4,0,0.6c0.1,0.1,0.2,0.1,0.3,0.1s0.2,0,0.3-0.1l1-1C3.1,22.3,3.1,22,3,21.9z M7.4,22.8
	c-0.1-0.1-0.2-0.1-0.3-0.1c-0.1,0-0.2,0-0.3,0.1c-0.1,0.1-0.1,0.2-0.1,0.3c0,0.1,0,0.2,0.1,0.3c0.1,0.1,0.2,0.1,0.3,0.1
	c0.1,0,0.2,0,0.3-0.1c0.1-0.1,0.1-0.2,0.1-0.3C7.5,23,7.5,22.9,7.4,22.8z M10.6,19.6c-0.2-0.2-0.4-0.2-0.6,0l-2.1,2.1
	c-0.2,0.2-0.2,0.4,0,0.6c0.1,0.1,0.2,0.1,0.3,0.1c0.1,0,0.2,0,0.3-0.1l2.1-2.1C10.7,20.1,10.7,19.8,10.6,19.6z M17.9,19.5
	c-0.2-0.2-0.4-0.2-0.6,0l-2.1,2.1c-0.2,0.2-0.2,0.4,0,0.6c0.1,0.1,0.2,0.1,0.3,0.1s0.2,0,0.3-0.1l2.1-2.1
	C18.1,19.9,18.1,19.6,17.9,19.5z M13.4,7.5c-0.1-0.1-0.2-0.1-0.3-0.1s-0.2,0-0.3,0.1c-0.1,0.1-0.1,0.2-0.1,0.3c0,0.1,0,0.2,0.1,0.3
	c0.1,0.1,0.2,0.1,0.3,0.1s0.2,0,0.3-0.1c0.1-0.1,0.1-0.2,0.1-0.3C13.6,7.6,13.5,7.5,13.4,7.5z"/>
</svg>
